<?xml version="1.0" standalone="no"?>
<!DOCTYPE svg PUBLIC "-//W3C//DTD SVG 20010904//EN"
 "http://www.w3.org/TR/2001/REC-SVG-20010904/DTD/svg10.dtd">
<svg version="1.0" xmlns="http://www.w3.org/2000/svg"
 width="1920.000000pt" height="1080.000000pt" viewBox="0 0 1920.000000 1080.000000"
 preserveAspectRatio="xMidYMid meet">

<g transform="translate(0.000000,1080.000000) scale(0.100000,-0.100000)"
fill="#000000" stroke="none">
<path d="M2785 8909 c-153 -25 -274 -111 -359 -252 -72 -120 -66 194 -66
-3755 0 -2327 3 -3578 10 -3613 36 -196 211 -365 410 -399 47 -8 1864 -10
6460 -8 l6395 3 60 23 c173 65 304 217 334 386 8 42 11 1133 11 3611 0 3520 0
3553 -20 3630 -24 93 -56 151 -123 222 -61 65 -128 109 -210 137 l-62 21
-6395 1 c-3517 1 -6417 -2 -6445 -7z m12609 -224 c179 -47 314 -174 369 -350
l22 -70 0 -3370 0 -3370 -23 -67 c-59 -170 -194 -300 -357 -343 -53 -13 -716
-15 -6211 -15 -6112 0 -6152 0 -6215 20 -179 56 -316 205 -354 387 -22 101
-22 6684 -1 6784 41 190 187 342 378 393 46 13 914 15 6193 15 5442 1 6147 -1
6199 -14z"/>
<path d="M2985 5116 c-65 -31 -112 -78 -144 -146 l-26 -55 0 -1675 0 -1675 24
-52 c27 -61 84 -116 150 -147 43 -20 65 -21 320 -24 151 -2 284 -1 298 2 l23
6 -2 563 -3 562 -169 3 c-140 2 -173 5 -188 19 -17 15 -18 72 -18 1185 l0
1168 310 0 310 0 0 -1174 c0 -943 -3 -1176 -13 -1184 -7 -6 -40 -12 -72 -14
l-60 -3 0 -565 0 -565 410 0 410 0 0 565 0 565 -97 3 c-74 2 -99 6 -110 19
-11 13 -14 176 -16 882 -2 476 -1 1002 3 1169 l7 302 307 -2 306 -3 3 -1164
c2 -1066 1 -1166 -14 -1182 -14 -16 -36 -19 -153 -21 l-136 -3 -3 -562 -2
-563 22 -5 c13 -3 199 -4 413 -3 l390 3 5 1750 5 1750 42 3 43 3 2 -1753 3
-1753 410 0 410 0 3 567 2 568 -222 2 -223 3 -3 1183 -2 1182 305 0 305 0 -2
-1182 -3 -1183 -30 -5 -30 -5 0 -565 0 -565 410 0 410 0 3 568 2 567 -139 0
c-104 0 -141 3 -150 14 -8 10 -10 327 -9 1182 l3 1169 308 3 307 2 0 -1174 c0
-953 -2 -1176 -13 -1184 -7 -6 -58 -13 -113 -14 l-99 -3 0 -565 0 -565 404 -3
c290 -1 408 1 417 9 12 9 14 108 14 554 0 299 -3 550 -6 559 -5 12 -20 16 -63
16 -31 0 -62 5 -69 12 -9 9 -12 286 -12 1185 l0 1173 308 -2 307 -3 3 -1163
c1 -790 -1 -1169 -8 -1183 -10 -18 -23 -19 -189 -19 -150 0 -180 -2 -185 -15
-7 -19 2 -1104 10 -1116 7 -12 811 -12 818 0 6 9 13 1442 15 2874 l1 627 34 0
c24 0 35 -5 38 -18 3 -11 6 -797 7 -1748 1 -951 6 -1732 10 -1737 4 -4 189 -6
412 -5 l404 3 0 565 0 565 -180 5 c-175 5 -180 6 -191 28 -8 16 -11 167 -9
530 1 279 2 801 3 1160 l2 652 310 0 310 0 0 -1175 c0 -1151 0 -1175 -19
-1185 -11 -5 -45 -10 -75 -10 l-56 0 2 -568 3 -567 410 0 410 0 0 565 0 565
-95 3 c-70 2 -99 7 -112 19 -17 15 -18 76 -18 1185 l0 1168 310 0 310 0 0
-1169 c0 -643 -3 -1176 -6 -1185 -5 -14 -28 -16 -150 -16 l-144 0 2 -567 3
-568 410 0 410 0 5 1750 5 1750 40 0 40 0 5 -1750 5 -1750 410 0 410 0 3 568
2 567 -214 0 c-182 0 -217 2 -230 16 -15 14 -16 131 -14 1182 l3 1167 310 0
310 0 3 -1164 c2 -1058 1 -1166 -14 -1182 -9 -10 -26 -19 -38 -21 l-21 -3 0
-565 0 -565 410 0 410 0 3 568 2 567 -133 0 c-117 0 -136 2 -150 18 -16 17
-17 114 -17 1185 l0 1167 308 -2 307 -3 3 -1169 c1 -855 -1 -1172 -9 -1182 -8
-10 -40 -14 -115 -14 l-104 0 2 -567 3 -568 197 -5 c108 -3 293 -3 410 0 l213
5 3 567 2 567 -67 3 -68 3 -6 140 c-9 191 -11 1852 -2 2059 l6 166 306 -2 306
-3 3 -1161 c2 -990 0 -1163 -12 -1180 -13 -17 -31 -19 -193 -24 l-178 -5 -2
-555 c-2 -305 1 -561 5 -567 11 -18 520 -20 583 -3 67 18 112 45 153 90 78 86
71 -81 71 1800 l0 1685 -28 55 c-37 71 -60 96 -122 128 l-50 27 -6175 2 -6175
3 -50 -24z"/>
</g>
</svg>
