<?xml version="1.0" standalone="no"?>
<!DOCTYPE svg PUBLIC "-//W3C//DTD SVG 20010904//EN"
 "http://www.w3.org/TR/2001/REC-SVG-20010904/DTD/svg10.dtd">
<svg version="1.0" xmlns="http://www.w3.org/2000/svg"
 width="1920.000000pt" height="1080.000000pt" viewBox="0 0 1920.000000 1080.000000"
 preserveAspectRatio="xMidYMid meet">

<g transform="translate(0.000000,1080.000000) scale(0.100000,-0.100000)"
fill="#000000" stroke="none">
<path d="M2765 8905 c-151 -34 -256 -110 -339 -249 -71 -119 -66 193 -66
-3754 0 -2327 3 -3578 10 -3613 36 -195 211 -366 407 -398 50 -9 1751 -11
6463 -9 l6395 3 60 23 c173 65 304 217 334 386 8 42 11 1133 11 3611 0 3520 0
3553 -20 3630 -24 93 -56 151 -123 222 -61 65 -128 109 -210 137 l-62 21
-6400 2 c-5312 1 -6410 -1 -6460 -12z m12611 -216 c172 -31 321 -164 388 -347
l21 -57 3 -3340 c2 -2302 -1 -3361 -8 -3409 -30 -197 -186 -371 -375 -421 -53
-13 -716 -15 -6205 -15 -5486 0 -6152 2 -6205 15 -143 38 -258 134 -328 274
l-42 84 0 3426 0 3426 36 75 c73 153 206 258 364 290 65 13 12280 12 12351 -1z"/>
<path d="M13514 6503 l-40 -4 -37 -127 c-21 -70 -37 -130 -37 -134 0 -5 18 -8
41 -8 32 0 42 4 46 20 4 16 14 20 51 20 29 0 49 -5 56 -16 8 -11 24 -14 53
-12 l41 3 -52 130 c-32 80 -58 130 -67 131 -7 0 -32 -1 -55 -3z m46 -154 c0
-5 -12 -9 -26 -9 -22 0 -24 3 -19 23 4 12 9 31 12 41 5 16 8 14 19 -13 8 -19
14 -37 14 -42z"/>
<path d="M13787 6496 c-51 -19 -64 -39 -72 -111 -12 -108 20 -147 125 -153 66
-4 71 -3 100 26 41 42 39 59 -11 67 -31 5 -45 3 -59 -10 -35 -32 -55 -16 -58
47 -3 49 0 58 17 68 17 8 24 7 41 -10 14 -14 33 -20 66 -20 42 0 45 1 38 23
-7 25 -32 55 -54 67 -32 16 -96 19 -133 6z"/>
<path d="M13267 6483 c-28 -4 -29 -5 -22 -54 l7 -49 -35 0 c-34 0 -36 2 -44
42 -9 43 -9 43 -48 40 -22 -2 -42 -6 -44 -8 -2 -2 4 -62 14 -134 l18 -130 31
0 c48 0 58 12 54 61 l-3 44 35 0 c33 0 35 -2 40 -40 l5 -40 45 3 c24 2 45 4
46 5 1 1 -7 58 -17 127 -10 69 -19 128 -19 133 0 7 -13 7 -63 0z"/>
<path d="M14035 6457 c-15 -90 -34 -232 -30 -235 2 -2 21 -6 43 -9 l40 -5 8
48 7 48 26 -54 c25 -52 28 -55 71 -61 25 -4 47 -5 49 -3 2 2 -8 33 -23 69 -14
36 -26 70 -26 77 0 6 19 34 41 61 47 55 43 67 -23 67 -30 0 -42 -7 -68 -37
l-32 -38 5 43 c6 46 5 46 -50 56 -30 5 -33 3 -38 -27z"/>
<path d="M12127 6083 c-4 -3 -7 -16 -7 -29 0 -15 -8 -24 -25 -28 -30 -8 -33
-26 -6 -33 19 -5 19 -5 0 -24 -23 -23 -26 -91 -4 -109 14 -11 13 -14 -5 -27
-25 -18 -26 -58 0 -80 19 -16 19 -17 -3 -28 -30 -15 -33 -49 -7 -68 l22 -15
-21 -11 c-27 -15 -27 -31 -1 -38 19 -5 19 -7 6 -22 -9 -10 -19 -31 -22 -48 -5
-26 -1 -37 20 -58 17 -16 26 -37 26 -56 0 -17 5 -40 11 -51 11 -20 13 -20 24
-5 11 15 13 16 19 2 7 -20 32 -19 40 2 6 14 8 14 22 -5 20 -29 50 -28 70 2 8
14 25 26 37 28 30 4 35 38 7 45 l-21 6 21 14 c12 9 20 25 20 44 0 22 5 29 18
29 21 0 52 30 52 49 0 8 8 6 25 -5 20 -13 30 -14 59 -4 20 6 38 20 41 31 6 19
8 19 19 4 18 -25 50 -15 54 17 2 19 8 25 20 21 28 -7 66 40 59 74 -3 17 0 31
9 38 25 18 29 81 8 112 -10 16 -19 44 -19 63 0 30 -3 35 -27 38 -22 3 -27 9
-30 35 -2 25 -8 33 -27 35 -13 2 -28 -1 -34 -7 -18 -18 -25 -13 -19 14 5 31
-13 33 -29 3 l-12 -22 -8 22 c-17 45 -95 51 -124 9 -15 -21 -15 -21 -15 -1 0
11 -3 23 -6 27 -10 9 -34 -4 -34 -19 0 -8 -9 -4 -25 11 -33 33 -87 34 -120 1
l-23 -24 -6 24 c-6 24 -17 30 -29 17z m327 -234 c14 -15 21 -31 16 -34 -6 -3
-10 -15 -10 -26 0 -11 -5 -17 -10 -14 -6 3 -13 -1 -16 -10 -4 -9 -13 -14 -20
-11 -8 3 -25 1 -38 -4 -21 -8 -24 -5 -35 31 -7 21 -17 39 -24 39 -7 0 -8 3 -2
8 6 4 16 18 23 32 11 22 18 25 52 22 27 -3 46 -13 64 -33z"/>
<path d="M14958 6082 c-15 -2 -34 -13 -42 -24 l-15 -21 -18 22 c-22 27 -50 20
-59 -14 -6 -23 -6 -23 -25 -4 -32 32 -69 18 -69 -27 0 -18 -4 -20 -26 -16 -24
4 -26 2 -22 -21 4 -20 0 -28 -14 -32 -26 -9 -51 -62 -46 -101 3 -23 0 -34 -9
-34 -44 0 -47 -131 -2 -145 17 -6 17 -8 4 -21 -23 -23 -19 -96 5 -122 12 -12
25 -22 30 -22 6 0 5 -9 -2 -20 -18 -28 1 -54 41 -58 22 -2 31 -8 31 -22 0 -44
92 -79 119 -46 10 12 20 10 61 -16 55 -34 93 -35 98 0 3 21 22 32 22 12 0 -5
18 -10 40 -10 42 0 80 26 80 56 0 8 4 13 9 9 31 -19 109 65 96 105 -5 16 -2
20 15 20 13 0 24 10 31 27 8 22 6 32 -10 54 l-21 28 23 3 c29 4 28 31 -2 38
-21 5 -22 7 -8 18 8 7 18 24 21 37 7 28 -17 95 -34 95 -6 0 -4 10 5 24 14 22
14 25 0 39 -9 9 -22 14 -30 11 -13 -5 -13 -3 0 22 19 36 3 58 -37 50 -25 -5
-27 -4 -18 18 14 37 -6 48 -34 20 -15 -14 -16 -13 -16 15 0 24 -4 31 -19 31
-10 0 -22 -8 -26 -17 -6 -16 -8 -16 -23 5 -19 25 -63 39 -104 34z m27 -242 c3
-10 12 -21 20 -24 10 -4 13 -14 9 -34 -4 -20 0 -34 11 -46 13 -13 15 -20 6
-29 -14 -14 -14 -74 0 -82 6 -5 2 -13 -11 -22 -16 -11 -21 -23 -18 -44 4 -27
3 -28 -40 -26 -54 2 -105 43 -89 72 6 11 4 22 -6 33 -8 9 -12 23 -10 30 3 6
-1 12 -8 12 -10 0 -10 3 -1 12 15 15 16 55 1 63 -7 5 -3 14 10 26 12 11 21 29
21 39 0 11 6 20 14 20 7 0 19 6 25 14 15 18 59 9 66 -14z"/>
<path d="M12889 6037 c-8 -17 -17 -23 -33 -20 -31 6 -58 -22 -50 -52 5 -20 2
-24 -20 -27 -33 -4 -36 -19 -8 -34 19 -10 20 -12 5 -26 -9 -10 -16 -33 -16
-58 0 -25 7 -48 16 -58 15 -14 14 -16 -6 -27 -32 -16 -34 -43 -2 -51 l26 -6
-20 -22 c-28 -29 -28 -89 -1 -116 15 -15 17 -21 6 -27 -18 -11 -36 -47 -36
-72 0 -30 21 -71 37 -71 7 0 13 -6 13 -13 0 -43 84 -63 119 -28 12 12 28 17
44 14 19 -4 28 1 37 17 6 12 9 24 7 26 -3 3 6 16 19 29 30 30 32 87 5 114 -18
18 -18 19 8 31 l26 12 -21 17 c-21 17 -21 18 -3 29 28 18 26 78 -3 93 -19 10
-19 12 -5 21 22 12 22 36 0 60 -15 17 -15 18 5 18 27 0 29 20 2 27 -19 5 -19
6 2 22 26 21 19 66 -12 76 -16 5 -18 9 -7 26 17 27 -3 55 -36 52 -20 -1 -27 4
-29 20 -5 33 -54 36 -69 4z"/>
<path d="M13377 6053 c-4 -3 -7 -15 -7 -25 0 -11 -7 -18 -19 -18 -27 0 -63
-48 -59 -79 2 -18 -3 -29 -17 -36 -34 -18 -51 -60 -38 -94 10 -27 9 -30 -10
-33 -29 -4 -46 -52 -29 -78 8 -13 8 -20 2 -20 -20 0 -60 -49 -60 -73 0 -14 7
-31 17 -38 14 -13 13 -14 -13 -19 -24 -4 -30 -11 -32 -38 -2 -18 1 -32 7 -32
6 0 11 -4 11 -9 0 -5 -9 -7 -20 -4 -27 7 -27 -23 -1 -32 17 -5 19 -13 14 -60
-4 -36 -2 -55 5 -55 6 0 13 8 15 18 4 14 6 14 12 -5 10 -30 33 -29 41 1 5 21
9 23 24 13 27 -16 90 14 90 44 0 21 1 21 18 6 25 -23 48 -21 66 5 12 17 18 20
28 10 16 -16 59 -15 85 3 19 13 21 13 26 -7 4 -16 11 -19 28 -15 16 4 27 -1
42 -19 14 -18 27 -24 43 -21 17 3 24 -2 28 -18 10 -40 66 -39 66 1 0 17 5 17
30 2 17 -11 22 -10 30 2 5 8 8 21 5 28 -2 6 0 12 5 12 5 0 14 9 20 20 18 33
-5 89 -42 105 -19 7 -26 15 -19 19 28 17 1 116 -35 130 -13 5 -15 9 -6 18 19
19 14 38 -10 39 -13 0 -17 3 -10 6 18 7 15 33 -5 33 -13 0 -14 3 -5 12 22 22
14 48 -13 48 -25 0 -25 1 -9 25 25 38 -6 105 -49 105 -19 0 -19 1 -3 19 25 28
5 63 -32 59 -19 -2 -30 3 -37 17 -8 15 -22 21 -62 23 -44 3 -53 0 -67 -20 -12
-17 -16 -18 -16 -6 0 18 -24 41 -33 31z m113 -325 c0 -4 7 -8 15 -8 13 0 13
-3 3 -20 -10 -16 -10 -24 -1 -40 17 -27 6 -50 -25 -50 -14 0 -34 -7 -44 -17
-23 -20 -24 -19 -30 39 -4 33 -1 51 8 59 8 6 14 24 14 39 0 19 6 30 18 33 16
3 42 -18 42 -35z"/>
<path d="M14006 6035 c-5 -21 -9 -23 -25 -14 -25 17 -71 3 -71 -20 0 -10 -11
-26 -25 -35 -31 -20 -34 -70 -6 -88 18 -11 17 -12 -7 -33 -23 -20 -25 -25 -14
-49 6 -14 19 -26 29 -26 14 0 14 -3 -5 -20 -27 -26 -28 -55 -3 -72 20 -14 20
-14 0 -26 -26 -16 -26 -68 1 -82 19 -10 19 -11 0 -30 -28 -28 -25 -64 5 -89
l26 -20 -23 -3 c-36 -5 -35 -35 1 -43 23 -5 31 -12 31 -29 0 -32 24 -61 44
-53 9 4 16 14 16 23 0 13 4 11 18 -7 22 -26 51 -21 59 11 4 15 11 19 24 15 22
-7 39 22 21 34 -8 5 -5 13 9 25 18 15 21 26 17 72 -5 62 4 68 51 33 16 -12 34
-19 39 -15 7 4 6 -5 -1 -23 -14 -39 5 -65 42 -56 21 5 24 4 14 -6 -24 -24 -16
-41 17 -34 23 5 30 3 30 -9 0 -8 9 -20 19 -26 26 -13 88 -13 96 1 5 7 13 5 25
-6 23 -21 40 -12 40 20 0 16 7 25 24 29 42 10 44 59 3 72 l-22 7 23 8 c28 11
29 29 0 29 l-21 0 21 23 c30 32 30 90 0 112 -21 15 -22 17 -5 26 24 14 21 48
-5 59 -13 5 -17 9 -11 9 7 1 20 12 29 26 14 21 14 30 4 55 -7 17 -19 30 -28
30 -12 0 -11 5 6 23 35 37 25 127 -13 127 -8 0 -15 8 -15 18 0 43 -61 58 -81
21 -8 -15 -14 -18 -22 -10 -27 27 -77 5 -77 -34 0 -11 -10 -26 -22 -34 -20
-13 -21 -14 -4 -26 16 -13 16 -14 0 -23 -20 -11 -12 -42 11 -42 15 0 15 -1 1
-16 -9 -8 -16 -24 -16 -35 0 -20 -10 -23 -46 -13 -15 4 -20 12 -17 29 7 32
-13 64 -43 71 -19 5 -22 9 -13 20 17 21 3 44 -27 44 -18 0 -25 4 -21 14 10 25
-17 50 -45 43 -22 -6 -27 -3 -32 18 -8 32 -22 32 -30 0z"/>
<path d="M2985 5116 c-63 -29 -126 -97 -151 -162 -18 -47 -19 -100 -19 -1719
l0 -1670 24 -52 c27 -61 84 -116 150 -147 43 -20 65 -21 320 -24 151 -2 285
-1 298 3 l23 5 -2 563 -3 562 -169 3 c-140 2 -173 5 -188 19 -17 15 -18 76
-18 1184 l0 1169 310 0 310 0 0 -1172 c0 -645 -4 -1178 -8 -1185 -4 -7 -36
-13 -72 -15 l-65 -3 0 -565 0 -565 410 0 410 0 0 565 0 565 -97 3 c-74 2 -99
6 -110 19 -11 13 -14 168 -17 832 -1 449 0 975 4 1169 l7 352 307 -2 306 -3 3
-1164 c2 -1066 1 -1166 -14 -1182 -14 -16 -36 -19 -153 -21 l-136 -3 -3 -562
-2 -563 22 -5 c13 -3 199 -4 413 -3 l390 3 5 1750 5 1750 42 3 43 3 2 -1753 3
-1753 410 0 410 0 3 567 2 568 -222 2 -223 3 -3 1183 -2 1182 305 0 305 0 -2
-1182 -3 -1183 -30 -5 -30 -5 -3 -559 c-2 -441 0 -561 10 -568 7 -4 194 -8
416 -8 l402 0 0 570 0 570 -139 0 c-104 0 -141 3 -150 14 -8 10 -10 327 -9
1182 l3 1169 308 3 307 2 0 -1174 c0 -953 -2 -1176 -13 -1184 -7 -6 -58 -13
-113 -14 l-99 -3 0 -565 0 -565 404 -3 c290 -1 408 1 417 9 12 9 14 108 14
554 0 299 -3 550 -6 559 -5 12 -20 16 -63 16 -31 0 -62 5 -69 12 -9 9 -12 286
-12 1185 l0 1173 308 -2 307 -3 3 -1163 c1 -790 -1 -1169 -8 -1183 -10 -18
-23 -19 -189 -19 -134 0 -180 -3 -184 -12 -6 -18 2 -1108 9 -1119 7 -12 811
-12 819 0 5 9 12 1384 14 2869 l1 632 34 0 c25 0 35 -5 39 -20 3 -10 6 -797 6
-1747 1 -950 5 -1731 10 -1736 4 -4 189 -6 412 -5 l404 3 5 330 c3 182 3 436
0 565 l-5 235 -176 3 c-136 2 -180 6 -188 16 -14 17 -16 319 -13 1539 l2 817
310 0 310 0 0 -1175 c0 -1151 0 -1175 -19 -1185 -11 -5 -45 -10 -75 -10 l-56
0 2 -568 3 -567 410 0 410 0 0 565 0 565 -95 3 c-69 2 -99 7 -112 19 -17 15
-18 80 -18 1184 l0 1169 308 0 309 0 5 -887 c3 -489 2 -1021 -1 -1183 l-6
-295 -148 -3 -147 -3 2 -567 3 -567 410 0 410 0 5 1750 5 1750 40 0 40 0 5
-1750 5 -1750 410 0 410 0 3 568 2 567 -214 0 c-182 0 -217 2 -230 16 -15 14
-16 131 -14 1182 l3 1167 310 0 310 0 3 -1164 c2 -1058 1 -1166 -14 -1182 -9
-10 -26 -19 -38 -21 l-21 -3 0 -565 0 -565 410 0 410 0 3 568 2 567 -133 0
c-117 0 -136 2 -150 18 -16 17 -17 114 -17 1185 l0 1167 308 -2 307 -3 3
-1169 c1 -855 -1 -1172 -9 -1182 -8 -10 -40 -14 -115 -14 l-104 0 2 -567 3
-568 200 -5 c110 -3 295 -3 410 0 l210 5 3 567 2 567 -67 3 -68 3 -6 190 c-9
273 -11 1722 -3 1968 l7 207 306 -2 306 -3 3 -1161 c2 -990 0 -1163 -12 -1180
-13 -17 -31 -19 -192 -24 l-178 -5 -3 -555 c-2 -305 0 -561 5 -567 12 -18 518
-20 587 -2 62 15 111 46 154 95 72 81 66 -73 69 1774 3 1847 7 1715 -64 1812
-21 30 -53 58 -86 75 l-53 28 -6175 2 -6175 3 -50 -24z"/>
</g>
</svg>
