<?xml version="1.0" standalone="no"?>
<!DOCTYPE svg PUBLIC "-//W3C//DTD SVG 20010904//EN"
 "http://www.w3.org/TR/2001/REC-SVG-20010904/DTD/svg10.dtd">
<svg version="1.0" xmlns="http://www.w3.org/2000/svg"
 width="1920.000000pt" height="1080.000000pt" viewBox="0 0 1920.000000 1080.000000"
 preserveAspectRatio="xMidYMid meet">

<g transform="translate(0.000000,1080.000000) scale(0.100000,-0.100000)"
fill="#000000" stroke="none">
<path d="M2719 8881 c-88 -28 -154 -69 -218 -135 -63 -66 -99 -129 -125 -215
-15 -50 -16 -372 -16 -3645 0 -2442 4 -3605 11 -3636 41 -179 203 -337 386
-375 59 -13 944 -15 6439 -15 4503 0 6388 3 6430 11 144 26 283 127 352 257
67 126 62 -193 62 3757 0 3439 -1 3583 -18 3646 -47 169 -180 303 -351 353
-50 15 -626 16 -6475 15 -6125 0 -6424 -1 -6477 -18z"/>
</g>
</svg>
