%TF.GenerationSoftware,Flux,Pcbnew,7.0.11-7.0.11~ubuntu20.04.1*%
%TF.CreationDate,2024-08-20T12:49:29+00:00*%
%TF.ProjectId,input,696e7075-742e-46b6-9963-61645f706362,rev?*%
%TF.SameCoordinates,Original*%
%TF.FileFunction,Legend,Top*%
%TF.FilePolarity,Positive*%
%FSLAX46Y46*%
G04 Gerber Fmt 4.6, Leading zero omitted, Abs format (unit mm)*
G04 Filename: known-fuchsia-translation-collar*
G04 Build it with Flux! Visit our site at: https://www.flux.ai (PCBNEW 7.0.11-7.0.11~ubuntu20.04.1) date 2024-08-20 12:49:29*
%MOMM*%
%LPD*%
G01*
G04 APERTURE LIST*
%ADD10C,0.095000*%
%ADD11C,0.060800*%
%ADD12C,0.093100*%
%ADD13C,0.076000*%
%ADD14C,0.120000*%
%ADD15C,0.127000*%
%ADD16C,0.050000*%
%ADD17C,0.100000*%
%ADD18C,0.200000*%
%ADD19C,0.152400*%
G04 APERTURE END LIST*
D10*
X90813684Y-37844860D02*
X90927970Y-37882955D01*
X90927970Y-37882955D02*
X91118446Y-37882955D01*
X91118446Y-37882955D02*
X91194637Y-37844860D01*
X91194637Y-37844860D02*
X91232732Y-37806764D01*
X91232732Y-37806764D02*
X91270827Y-37730574D01*
X91270827Y-37730574D02*
X91270827Y-37654383D01*
X91270827Y-37654383D02*
X91232732Y-37578193D01*
X91232732Y-37578193D02*
X91194637Y-37540098D01*
X91194637Y-37540098D02*
X91118446Y-37502002D01*
X91118446Y-37502002D02*
X90966065Y-37463907D01*
X90966065Y-37463907D02*
X90889875Y-37425812D01*
X90889875Y-37425812D02*
X90851780Y-37387717D01*
X90851780Y-37387717D02*
X90813684Y-37311526D01*
X90813684Y-37311526D02*
X90813684Y-37235336D01*
X90813684Y-37235336D02*
X90851780Y-37159145D01*
X90851780Y-37159145D02*
X90889875Y-37121050D01*
X90889875Y-37121050D02*
X90966065Y-37082955D01*
X90966065Y-37082955D02*
X91156542Y-37082955D01*
X91156542Y-37082955D02*
X91270827Y-37121050D01*
X91727970Y-37882955D02*
X91651780Y-37844860D01*
X91651780Y-37844860D02*
X91613685Y-37806764D01*
X91613685Y-37806764D02*
X91575589Y-37730574D01*
X91575589Y-37730574D02*
X91575589Y-37502002D01*
X91575589Y-37502002D02*
X91613685Y-37425812D01*
X91613685Y-37425812D02*
X91651780Y-37387717D01*
X91651780Y-37387717D02*
X91727970Y-37349621D01*
X91727970Y-37349621D02*
X91842256Y-37349621D01*
X91842256Y-37349621D02*
X91918447Y-37387717D01*
X91918447Y-37387717D02*
X91956542Y-37425812D01*
X91956542Y-37425812D02*
X91994637Y-37502002D01*
X91994637Y-37502002D02*
X91994637Y-37730574D01*
X91994637Y-37730574D02*
X91956542Y-37806764D01*
X91956542Y-37806764D02*
X91918447Y-37844860D01*
X91918447Y-37844860D02*
X91842256Y-37882955D01*
X91842256Y-37882955D02*
X91727970Y-37882955D01*
X92451780Y-37882955D02*
X92375590Y-37844860D01*
X92375590Y-37844860D02*
X92337495Y-37768669D01*
X92337495Y-37768669D02*
X92337495Y-37082955D01*
X93099400Y-37882955D02*
X93099400Y-37463907D01*
X93099400Y-37463907D02*
X93061305Y-37387717D01*
X93061305Y-37387717D02*
X92985114Y-37349621D01*
X92985114Y-37349621D02*
X92832733Y-37349621D01*
X92832733Y-37349621D02*
X92756543Y-37387717D01*
X93099400Y-37844860D02*
X93023209Y-37882955D01*
X93023209Y-37882955D02*
X92832733Y-37882955D01*
X92832733Y-37882955D02*
X92756543Y-37844860D01*
X92756543Y-37844860D02*
X92718447Y-37768669D01*
X92718447Y-37768669D02*
X92718447Y-37692479D01*
X92718447Y-37692479D02*
X92756543Y-37616288D01*
X92756543Y-37616288D02*
X92832733Y-37578193D01*
X92832733Y-37578193D02*
X93023209Y-37578193D01*
X93023209Y-37578193D02*
X93099400Y-37540098D01*
X93480353Y-37882955D02*
X93480353Y-37349621D01*
X93480353Y-37502002D02*
X93518448Y-37425812D01*
X93518448Y-37425812D02*
X93556543Y-37387717D01*
X93556543Y-37387717D02*
X93632734Y-37349621D01*
X93632734Y-37349621D02*
X93708924Y-37349621D01*
X94661305Y-37806764D02*
X94623209Y-37844860D01*
X94623209Y-37844860D02*
X94508924Y-37882955D01*
X94508924Y-37882955D02*
X94432733Y-37882955D01*
X94432733Y-37882955D02*
X94318447Y-37844860D01*
X94318447Y-37844860D02*
X94242257Y-37768669D01*
X94242257Y-37768669D02*
X94204162Y-37692479D01*
X94204162Y-37692479D02*
X94166066Y-37540098D01*
X94166066Y-37540098D02*
X94166066Y-37425812D01*
X94166066Y-37425812D02*
X94204162Y-37273431D01*
X94204162Y-37273431D02*
X94242257Y-37197240D01*
X94242257Y-37197240D02*
X94318447Y-37121050D01*
X94318447Y-37121050D02*
X94432733Y-37082955D01*
X94432733Y-37082955D02*
X94508924Y-37082955D01*
X94508924Y-37082955D02*
X94623209Y-37121050D01*
X94623209Y-37121050D02*
X94661305Y-37159145D01*
X95308924Y-37844860D02*
X95232733Y-37882955D01*
X95232733Y-37882955D02*
X95080352Y-37882955D01*
X95080352Y-37882955D02*
X95004162Y-37844860D01*
X95004162Y-37844860D02*
X94966066Y-37768669D01*
X94966066Y-37768669D02*
X94966066Y-37463907D01*
X94966066Y-37463907D02*
X95004162Y-37387717D01*
X95004162Y-37387717D02*
X95080352Y-37349621D01*
X95080352Y-37349621D02*
X95232733Y-37349621D01*
X95232733Y-37349621D02*
X95308924Y-37387717D01*
X95308924Y-37387717D02*
X95347019Y-37463907D01*
X95347019Y-37463907D02*
X95347019Y-37540098D01*
X95347019Y-37540098D02*
X94966066Y-37616288D01*
X95804161Y-37882955D02*
X95727971Y-37844860D01*
X95727971Y-37844860D02*
X95689876Y-37768669D01*
X95689876Y-37768669D02*
X95689876Y-37082955D01*
X96223209Y-37882955D02*
X96147019Y-37844860D01*
X96147019Y-37844860D02*
X96108924Y-37768669D01*
X96108924Y-37768669D02*
X96108924Y-37082955D01*
X92489875Y-20844860D02*
X92604161Y-20882955D01*
X92604161Y-20882955D02*
X92794637Y-20882955D01*
X92794637Y-20882955D02*
X92870828Y-20844860D01*
X92870828Y-20844860D02*
X92908923Y-20806764D01*
X92908923Y-20806764D02*
X92947018Y-20730574D01*
X92947018Y-20730574D02*
X92947018Y-20654383D01*
X92947018Y-20654383D02*
X92908923Y-20578193D01*
X92908923Y-20578193D02*
X92870828Y-20540098D01*
X92870828Y-20540098D02*
X92794637Y-20502002D01*
X92794637Y-20502002D02*
X92642256Y-20463907D01*
X92642256Y-20463907D02*
X92566066Y-20425812D01*
X92566066Y-20425812D02*
X92527971Y-20387717D01*
X92527971Y-20387717D02*
X92489875Y-20311526D01*
X92489875Y-20311526D02*
X92489875Y-20235336D01*
X92489875Y-20235336D02*
X92527971Y-20159145D01*
X92527971Y-20159145D02*
X92566066Y-20121050D01*
X92566066Y-20121050D02*
X92642256Y-20082955D01*
X92642256Y-20082955D02*
X92832733Y-20082955D01*
X92832733Y-20082955D02*
X92947018Y-20121050D01*
X93747019Y-20806764D02*
X93708923Y-20844860D01*
X93708923Y-20844860D02*
X93594638Y-20882955D01*
X93594638Y-20882955D02*
X93518447Y-20882955D01*
X93518447Y-20882955D02*
X93404161Y-20844860D01*
X93404161Y-20844860D02*
X93327971Y-20768669D01*
X93327971Y-20768669D02*
X93289876Y-20692479D01*
X93289876Y-20692479D02*
X93251780Y-20540098D01*
X93251780Y-20540098D02*
X93251780Y-20425812D01*
X93251780Y-20425812D02*
X93289876Y-20273431D01*
X93289876Y-20273431D02*
X93327971Y-20197240D01*
X93327971Y-20197240D02*
X93404161Y-20121050D01*
X93404161Y-20121050D02*
X93518447Y-20082955D01*
X93518447Y-20082955D02*
X93594638Y-20082955D01*
X93594638Y-20082955D02*
X93708923Y-20121050D01*
X93708923Y-20121050D02*
X93747019Y-20159145D01*
X94508923Y-20882955D02*
X94051780Y-20882955D01*
X94280352Y-20882955D02*
X94280352Y-20082955D01*
X94280352Y-20082955D02*
X94204161Y-20197240D01*
X94204161Y-20197240D02*
X94127971Y-20273431D01*
X94127971Y-20273431D02*
X94051780Y-20311526D01*
X96185138Y-35205940D02*
X96070852Y-35167844D01*
X96070852Y-35167844D02*
X95880376Y-35167844D01*
X95880376Y-35167844D02*
X95804185Y-35205940D01*
X95804185Y-35205940D02*
X95766090Y-35244035D01*
X95766090Y-35244035D02*
X95727995Y-35320225D01*
X95727995Y-35320225D02*
X95727995Y-35396416D01*
X95727995Y-35396416D02*
X95766090Y-35472606D01*
X95766090Y-35472606D02*
X95804185Y-35510701D01*
X95804185Y-35510701D02*
X95880376Y-35548797D01*
X95880376Y-35548797D02*
X96032757Y-35586892D01*
X96032757Y-35586892D02*
X96108947Y-35624987D01*
X96108947Y-35624987D02*
X96147042Y-35663082D01*
X96147042Y-35663082D02*
X96185138Y-35739273D01*
X96185138Y-35739273D02*
X96185138Y-35815463D01*
X96185138Y-35815463D02*
X96147042Y-35891654D01*
X96147042Y-35891654D02*
X96108947Y-35929749D01*
X96108947Y-35929749D02*
X96032757Y-35967844D01*
X96032757Y-35967844D02*
X95842280Y-35967844D01*
X95842280Y-35967844D02*
X95727995Y-35929749D01*
X95270852Y-35167844D02*
X95347042Y-35205940D01*
X95347042Y-35205940D02*
X95385137Y-35244035D01*
X95385137Y-35244035D02*
X95423233Y-35320225D01*
X95423233Y-35320225D02*
X95423233Y-35548797D01*
X95423233Y-35548797D02*
X95385137Y-35624987D01*
X95385137Y-35624987D02*
X95347042Y-35663082D01*
X95347042Y-35663082D02*
X95270852Y-35701178D01*
X95270852Y-35701178D02*
X95156566Y-35701178D01*
X95156566Y-35701178D02*
X95080375Y-35663082D01*
X95080375Y-35663082D02*
X95042280Y-35624987D01*
X95042280Y-35624987D02*
X95004185Y-35548797D01*
X95004185Y-35548797D02*
X95004185Y-35320225D01*
X95004185Y-35320225D02*
X95042280Y-35244035D01*
X95042280Y-35244035D02*
X95080375Y-35205940D01*
X95080375Y-35205940D02*
X95156566Y-35167844D01*
X95156566Y-35167844D02*
X95270852Y-35167844D01*
X94547042Y-35167844D02*
X94623232Y-35205940D01*
X94623232Y-35205940D02*
X94661327Y-35282130D01*
X94661327Y-35282130D02*
X94661327Y-35967844D01*
X93899422Y-35167844D02*
X93899422Y-35586892D01*
X93899422Y-35586892D02*
X93937517Y-35663082D01*
X93937517Y-35663082D02*
X94013708Y-35701178D01*
X94013708Y-35701178D02*
X94166089Y-35701178D01*
X94166089Y-35701178D02*
X94242279Y-35663082D01*
X93899422Y-35205940D02*
X93975613Y-35167844D01*
X93975613Y-35167844D02*
X94166089Y-35167844D01*
X94166089Y-35167844D02*
X94242279Y-35205940D01*
X94242279Y-35205940D02*
X94280375Y-35282130D01*
X94280375Y-35282130D02*
X94280375Y-35358320D01*
X94280375Y-35358320D02*
X94242279Y-35434511D01*
X94242279Y-35434511D02*
X94166089Y-35472606D01*
X94166089Y-35472606D02*
X93975613Y-35472606D01*
X93975613Y-35472606D02*
X93899422Y-35510701D01*
X93518469Y-35167844D02*
X93518469Y-35701178D01*
X93518469Y-35548797D02*
X93480374Y-35624987D01*
X93480374Y-35624987D02*
X93442279Y-35663082D01*
X93442279Y-35663082D02*
X93366088Y-35701178D01*
X93366088Y-35701178D02*
X93289898Y-35701178D01*
X92337517Y-35244035D02*
X92375613Y-35205940D01*
X92375613Y-35205940D02*
X92489898Y-35167844D01*
X92489898Y-35167844D02*
X92566089Y-35167844D01*
X92566089Y-35167844D02*
X92680375Y-35205940D01*
X92680375Y-35205940D02*
X92756565Y-35282130D01*
X92756565Y-35282130D02*
X92794660Y-35358320D01*
X92794660Y-35358320D02*
X92832756Y-35510701D01*
X92832756Y-35510701D02*
X92832756Y-35624987D01*
X92832756Y-35624987D02*
X92794660Y-35777368D01*
X92794660Y-35777368D02*
X92756565Y-35853559D01*
X92756565Y-35853559D02*
X92680375Y-35929749D01*
X92680375Y-35929749D02*
X92566089Y-35967844D01*
X92566089Y-35967844D02*
X92489898Y-35967844D01*
X92489898Y-35967844D02*
X92375613Y-35929749D01*
X92375613Y-35929749D02*
X92337517Y-35891654D01*
X91689898Y-35205940D02*
X91766089Y-35167844D01*
X91766089Y-35167844D02*
X91918470Y-35167844D01*
X91918470Y-35167844D02*
X91994660Y-35205940D01*
X91994660Y-35205940D02*
X92032756Y-35282130D01*
X92032756Y-35282130D02*
X92032756Y-35586892D01*
X92032756Y-35586892D02*
X91994660Y-35663082D01*
X91994660Y-35663082D02*
X91918470Y-35701178D01*
X91918470Y-35701178D02*
X91766089Y-35701178D01*
X91766089Y-35701178D02*
X91689898Y-35663082D01*
X91689898Y-35663082D02*
X91651803Y-35586892D01*
X91651803Y-35586892D02*
X91651803Y-35510701D01*
X91651803Y-35510701D02*
X92032756Y-35434511D01*
X91194661Y-35167844D02*
X91270851Y-35205940D01*
X91270851Y-35205940D02*
X91308946Y-35282130D01*
X91308946Y-35282130D02*
X91308946Y-35967844D01*
X90775613Y-35167844D02*
X90851803Y-35205940D01*
X90851803Y-35205940D02*
X90889898Y-35282130D01*
X90889898Y-35282130D02*
X90889898Y-35967844D01*
X94508901Y-52205940D02*
X94394615Y-52167844D01*
X94394615Y-52167844D02*
X94204139Y-52167844D01*
X94204139Y-52167844D02*
X94127948Y-52205940D01*
X94127948Y-52205940D02*
X94089853Y-52244035D01*
X94089853Y-52244035D02*
X94051758Y-52320225D01*
X94051758Y-52320225D02*
X94051758Y-52396416D01*
X94051758Y-52396416D02*
X94089853Y-52472606D01*
X94089853Y-52472606D02*
X94127948Y-52510701D01*
X94127948Y-52510701D02*
X94204139Y-52548797D01*
X94204139Y-52548797D02*
X94356520Y-52586892D01*
X94356520Y-52586892D02*
X94432710Y-52624987D01*
X94432710Y-52624987D02*
X94470805Y-52663082D01*
X94470805Y-52663082D02*
X94508901Y-52739273D01*
X94508901Y-52739273D02*
X94508901Y-52815463D01*
X94508901Y-52815463D02*
X94470805Y-52891654D01*
X94470805Y-52891654D02*
X94432710Y-52929749D01*
X94432710Y-52929749D02*
X94356520Y-52967844D01*
X94356520Y-52967844D02*
X94166043Y-52967844D01*
X94166043Y-52967844D02*
X94051758Y-52929749D01*
X93251757Y-52244035D02*
X93289853Y-52205940D01*
X93289853Y-52205940D02*
X93404138Y-52167844D01*
X93404138Y-52167844D02*
X93480329Y-52167844D01*
X93480329Y-52167844D02*
X93594615Y-52205940D01*
X93594615Y-52205940D02*
X93670805Y-52282130D01*
X93670805Y-52282130D02*
X93708900Y-52358320D01*
X93708900Y-52358320D02*
X93746996Y-52510701D01*
X93746996Y-52510701D02*
X93746996Y-52624987D01*
X93746996Y-52624987D02*
X93708900Y-52777368D01*
X93708900Y-52777368D02*
X93670805Y-52853559D01*
X93670805Y-52853559D02*
X93594615Y-52929749D01*
X93594615Y-52929749D02*
X93480329Y-52967844D01*
X93480329Y-52967844D02*
X93404138Y-52967844D01*
X93404138Y-52967844D02*
X93289853Y-52929749D01*
X93289853Y-52929749D02*
X93251757Y-52891654D01*
X92946996Y-52891654D02*
X92908900Y-52929749D01*
X92908900Y-52929749D02*
X92832710Y-52967844D01*
X92832710Y-52967844D02*
X92642234Y-52967844D01*
X92642234Y-52967844D02*
X92566043Y-52929749D01*
X92566043Y-52929749D02*
X92527948Y-52891654D01*
X92527948Y-52891654D02*
X92489853Y-52815463D01*
X92489853Y-52815463D02*
X92489853Y-52739273D01*
X92489853Y-52739273D02*
X92527948Y-52624987D01*
X92527948Y-52624987D02*
X92985091Y-52167844D01*
X92985091Y-52167844D02*
X92489853Y-52167844D01*
X45827784Y-52860160D02*
X45942070Y-52898255D01*
X45942070Y-52898255D02*
X46132546Y-52898255D01*
X46132546Y-52898255D02*
X46208737Y-52860160D01*
X46208737Y-52860160D02*
X46246832Y-52822064D01*
X46246832Y-52822064D02*
X46284927Y-52745874D01*
X46284927Y-52745874D02*
X46284927Y-52669683D01*
X46284927Y-52669683D02*
X46246832Y-52593493D01*
X46246832Y-52593493D02*
X46208737Y-52555398D01*
X46208737Y-52555398D02*
X46132546Y-52517302D01*
X46132546Y-52517302D02*
X45980165Y-52479207D01*
X45980165Y-52479207D02*
X45903975Y-52441112D01*
X45903975Y-52441112D02*
X45865880Y-52403017D01*
X45865880Y-52403017D02*
X45827784Y-52326826D01*
X45827784Y-52326826D02*
X45827784Y-52250636D01*
X45827784Y-52250636D02*
X45865880Y-52174445D01*
X45865880Y-52174445D02*
X45903975Y-52136350D01*
X45903975Y-52136350D02*
X45980165Y-52098255D01*
X45980165Y-52098255D02*
X46170642Y-52098255D01*
X46170642Y-52098255D02*
X46284927Y-52136350D01*
X46742070Y-52898255D02*
X46665880Y-52860160D01*
X46665880Y-52860160D02*
X46627785Y-52822064D01*
X46627785Y-52822064D02*
X46589689Y-52745874D01*
X46589689Y-52745874D02*
X46589689Y-52517302D01*
X46589689Y-52517302D02*
X46627785Y-52441112D01*
X46627785Y-52441112D02*
X46665880Y-52403017D01*
X46665880Y-52403017D02*
X46742070Y-52364921D01*
X46742070Y-52364921D02*
X46856356Y-52364921D01*
X46856356Y-52364921D02*
X46932547Y-52403017D01*
X46932547Y-52403017D02*
X46970642Y-52441112D01*
X46970642Y-52441112D02*
X47008737Y-52517302D01*
X47008737Y-52517302D02*
X47008737Y-52745874D01*
X47008737Y-52745874D02*
X46970642Y-52822064D01*
X46970642Y-52822064D02*
X46932547Y-52860160D01*
X46932547Y-52860160D02*
X46856356Y-52898255D01*
X46856356Y-52898255D02*
X46742070Y-52898255D01*
X47465880Y-52898255D02*
X47389690Y-52860160D01*
X47389690Y-52860160D02*
X47351595Y-52783969D01*
X47351595Y-52783969D02*
X47351595Y-52098255D01*
X48113500Y-52898255D02*
X48113500Y-52479207D01*
X48113500Y-52479207D02*
X48075405Y-52403017D01*
X48075405Y-52403017D02*
X47999214Y-52364921D01*
X47999214Y-52364921D02*
X47846833Y-52364921D01*
X47846833Y-52364921D02*
X47770643Y-52403017D01*
X48113500Y-52860160D02*
X48037309Y-52898255D01*
X48037309Y-52898255D02*
X47846833Y-52898255D01*
X47846833Y-52898255D02*
X47770643Y-52860160D01*
X47770643Y-52860160D02*
X47732547Y-52783969D01*
X47732547Y-52783969D02*
X47732547Y-52707779D01*
X47732547Y-52707779D02*
X47770643Y-52631588D01*
X47770643Y-52631588D02*
X47846833Y-52593493D01*
X47846833Y-52593493D02*
X48037309Y-52593493D01*
X48037309Y-52593493D02*
X48113500Y-52555398D01*
X48494453Y-52898255D02*
X48494453Y-52364921D01*
X48494453Y-52517302D02*
X48532548Y-52441112D01*
X48532548Y-52441112D02*
X48570643Y-52403017D01*
X48570643Y-52403017D02*
X48646834Y-52364921D01*
X48646834Y-52364921D02*
X48723024Y-52364921D01*
X49675405Y-52822064D02*
X49637309Y-52860160D01*
X49637309Y-52860160D02*
X49523024Y-52898255D01*
X49523024Y-52898255D02*
X49446833Y-52898255D01*
X49446833Y-52898255D02*
X49332547Y-52860160D01*
X49332547Y-52860160D02*
X49256357Y-52783969D01*
X49256357Y-52783969D02*
X49218262Y-52707779D01*
X49218262Y-52707779D02*
X49180166Y-52555398D01*
X49180166Y-52555398D02*
X49180166Y-52441112D01*
X49180166Y-52441112D02*
X49218262Y-52288731D01*
X49218262Y-52288731D02*
X49256357Y-52212540D01*
X49256357Y-52212540D02*
X49332547Y-52136350D01*
X49332547Y-52136350D02*
X49446833Y-52098255D01*
X49446833Y-52098255D02*
X49523024Y-52098255D01*
X49523024Y-52098255D02*
X49637309Y-52136350D01*
X49637309Y-52136350D02*
X49675405Y-52174445D01*
X50323024Y-52860160D02*
X50246833Y-52898255D01*
X50246833Y-52898255D02*
X50094452Y-52898255D01*
X50094452Y-52898255D02*
X50018262Y-52860160D01*
X50018262Y-52860160D02*
X49980166Y-52783969D01*
X49980166Y-52783969D02*
X49980166Y-52479207D01*
X49980166Y-52479207D02*
X50018262Y-52403017D01*
X50018262Y-52403017D02*
X50094452Y-52364921D01*
X50094452Y-52364921D02*
X50246833Y-52364921D01*
X50246833Y-52364921D02*
X50323024Y-52403017D01*
X50323024Y-52403017D02*
X50361119Y-52479207D01*
X50361119Y-52479207D02*
X50361119Y-52555398D01*
X50361119Y-52555398D02*
X49980166Y-52631588D01*
X50818261Y-52898255D02*
X50742071Y-52860160D01*
X50742071Y-52860160D02*
X50703976Y-52783969D01*
X50703976Y-52783969D02*
X50703976Y-52098255D01*
X51237309Y-52898255D02*
X51161119Y-52860160D01*
X51161119Y-52860160D02*
X51123024Y-52783969D01*
X51123024Y-52783969D02*
X51123024Y-52098255D01*
X47503975Y-35860160D02*
X47618261Y-35898255D01*
X47618261Y-35898255D02*
X47808737Y-35898255D01*
X47808737Y-35898255D02*
X47884928Y-35860160D01*
X47884928Y-35860160D02*
X47923023Y-35822064D01*
X47923023Y-35822064D02*
X47961118Y-35745874D01*
X47961118Y-35745874D02*
X47961118Y-35669683D01*
X47961118Y-35669683D02*
X47923023Y-35593493D01*
X47923023Y-35593493D02*
X47884928Y-35555398D01*
X47884928Y-35555398D02*
X47808737Y-35517302D01*
X47808737Y-35517302D02*
X47656356Y-35479207D01*
X47656356Y-35479207D02*
X47580166Y-35441112D01*
X47580166Y-35441112D02*
X47542071Y-35403017D01*
X47542071Y-35403017D02*
X47503975Y-35326826D01*
X47503975Y-35326826D02*
X47503975Y-35250636D01*
X47503975Y-35250636D02*
X47542071Y-35174445D01*
X47542071Y-35174445D02*
X47580166Y-35136350D01*
X47580166Y-35136350D02*
X47656356Y-35098255D01*
X47656356Y-35098255D02*
X47846833Y-35098255D01*
X47846833Y-35098255D02*
X47961118Y-35136350D01*
X48761119Y-35822064D02*
X48723023Y-35860160D01*
X48723023Y-35860160D02*
X48608738Y-35898255D01*
X48608738Y-35898255D02*
X48532547Y-35898255D01*
X48532547Y-35898255D02*
X48418261Y-35860160D01*
X48418261Y-35860160D02*
X48342071Y-35783969D01*
X48342071Y-35783969D02*
X48303976Y-35707779D01*
X48303976Y-35707779D02*
X48265880Y-35555398D01*
X48265880Y-35555398D02*
X48265880Y-35441112D01*
X48265880Y-35441112D02*
X48303976Y-35288731D01*
X48303976Y-35288731D02*
X48342071Y-35212540D01*
X48342071Y-35212540D02*
X48418261Y-35136350D01*
X48418261Y-35136350D02*
X48532547Y-35098255D01*
X48532547Y-35098255D02*
X48608738Y-35098255D01*
X48608738Y-35098255D02*
X48723023Y-35136350D01*
X48723023Y-35136350D02*
X48761119Y-35174445D01*
X49484928Y-35098255D02*
X49103976Y-35098255D01*
X49103976Y-35098255D02*
X49065880Y-35479207D01*
X49065880Y-35479207D02*
X49103976Y-35441112D01*
X49103976Y-35441112D02*
X49180166Y-35403017D01*
X49180166Y-35403017D02*
X49370642Y-35403017D01*
X49370642Y-35403017D02*
X49446833Y-35441112D01*
X49446833Y-35441112D02*
X49484928Y-35479207D01*
X49484928Y-35479207D02*
X49523023Y-35555398D01*
X49523023Y-35555398D02*
X49523023Y-35745874D01*
X49523023Y-35745874D02*
X49484928Y-35822064D01*
X49484928Y-35822064D02*
X49446833Y-35860160D01*
X49446833Y-35860160D02*
X49370642Y-35898255D01*
X49370642Y-35898255D02*
X49180166Y-35898255D01*
X49180166Y-35898255D02*
X49103976Y-35860160D01*
X49103976Y-35860160D02*
X49065880Y-35822064D01*
X51199238Y-20190640D02*
X51084952Y-20152544D01*
X51084952Y-20152544D02*
X50894476Y-20152544D01*
X50894476Y-20152544D02*
X50818285Y-20190640D01*
X50818285Y-20190640D02*
X50780190Y-20228735D01*
X50780190Y-20228735D02*
X50742095Y-20304925D01*
X50742095Y-20304925D02*
X50742095Y-20381116D01*
X50742095Y-20381116D02*
X50780190Y-20457306D01*
X50780190Y-20457306D02*
X50818285Y-20495401D01*
X50818285Y-20495401D02*
X50894476Y-20533497D01*
X50894476Y-20533497D02*
X51046857Y-20571592D01*
X51046857Y-20571592D02*
X51123047Y-20609687D01*
X51123047Y-20609687D02*
X51161142Y-20647782D01*
X51161142Y-20647782D02*
X51199238Y-20723973D01*
X51199238Y-20723973D02*
X51199238Y-20800163D01*
X51199238Y-20800163D02*
X51161142Y-20876354D01*
X51161142Y-20876354D02*
X51123047Y-20914449D01*
X51123047Y-20914449D02*
X51046857Y-20952544D01*
X51046857Y-20952544D02*
X50856380Y-20952544D01*
X50856380Y-20952544D02*
X50742095Y-20914449D01*
X50284952Y-20152544D02*
X50361142Y-20190640D01*
X50361142Y-20190640D02*
X50399237Y-20228735D01*
X50399237Y-20228735D02*
X50437333Y-20304925D01*
X50437333Y-20304925D02*
X50437333Y-20533497D01*
X50437333Y-20533497D02*
X50399237Y-20609687D01*
X50399237Y-20609687D02*
X50361142Y-20647782D01*
X50361142Y-20647782D02*
X50284952Y-20685878D01*
X50284952Y-20685878D02*
X50170666Y-20685878D01*
X50170666Y-20685878D02*
X50094475Y-20647782D01*
X50094475Y-20647782D02*
X50056380Y-20609687D01*
X50056380Y-20609687D02*
X50018285Y-20533497D01*
X50018285Y-20533497D02*
X50018285Y-20304925D01*
X50018285Y-20304925D02*
X50056380Y-20228735D01*
X50056380Y-20228735D02*
X50094475Y-20190640D01*
X50094475Y-20190640D02*
X50170666Y-20152544D01*
X50170666Y-20152544D02*
X50284952Y-20152544D01*
X49561142Y-20152544D02*
X49637332Y-20190640D01*
X49637332Y-20190640D02*
X49675427Y-20266830D01*
X49675427Y-20266830D02*
X49675427Y-20952544D01*
X48913522Y-20152544D02*
X48913522Y-20571592D01*
X48913522Y-20571592D02*
X48951617Y-20647782D01*
X48951617Y-20647782D02*
X49027808Y-20685878D01*
X49027808Y-20685878D02*
X49180189Y-20685878D01*
X49180189Y-20685878D02*
X49256379Y-20647782D01*
X48913522Y-20190640D02*
X48989713Y-20152544D01*
X48989713Y-20152544D02*
X49180189Y-20152544D01*
X49180189Y-20152544D02*
X49256379Y-20190640D01*
X49256379Y-20190640D02*
X49294475Y-20266830D01*
X49294475Y-20266830D02*
X49294475Y-20343020D01*
X49294475Y-20343020D02*
X49256379Y-20419211D01*
X49256379Y-20419211D02*
X49180189Y-20457306D01*
X49180189Y-20457306D02*
X48989713Y-20457306D01*
X48989713Y-20457306D02*
X48913522Y-20495401D01*
X48532569Y-20152544D02*
X48532569Y-20685878D01*
X48532569Y-20533497D02*
X48494474Y-20609687D01*
X48494474Y-20609687D02*
X48456379Y-20647782D01*
X48456379Y-20647782D02*
X48380188Y-20685878D01*
X48380188Y-20685878D02*
X48303998Y-20685878D01*
X47351617Y-20228735D02*
X47389713Y-20190640D01*
X47389713Y-20190640D02*
X47503998Y-20152544D01*
X47503998Y-20152544D02*
X47580189Y-20152544D01*
X47580189Y-20152544D02*
X47694475Y-20190640D01*
X47694475Y-20190640D02*
X47770665Y-20266830D01*
X47770665Y-20266830D02*
X47808760Y-20343020D01*
X47808760Y-20343020D02*
X47846856Y-20495401D01*
X47846856Y-20495401D02*
X47846856Y-20609687D01*
X47846856Y-20609687D02*
X47808760Y-20762068D01*
X47808760Y-20762068D02*
X47770665Y-20838259D01*
X47770665Y-20838259D02*
X47694475Y-20914449D01*
X47694475Y-20914449D02*
X47580189Y-20952544D01*
X47580189Y-20952544D02*
X47503998Y-20952544D01*
X47503998Y-20952544D02*
X47389713Y-20914449D01*
X47389713Y-20914449D02*
X47351617Y-20876354D01*
X46703998Y-20190640D02*
X46780189Y-20152544D01*
X46780189Y-20152544D02*
X46932570Y-20152544D01*
X46932570Y-20152544D02*
X47008760Y-20190640D01*
X47008760Y-20190640D02*
X47046856Y-20266830D01*
X47046856Y-20266830D02*
X47046856Y-20571592D01*
X47046856Y-20571592D02*
X47008760Y-20647782D01*
X47008760Y-20647782D02*
X46932570Y-20685878D01*
X46932570Y-20685878D02*
X46780189Y-20685878D01*
X46780189Y-20685878D02*
X46703998Y-20647782D01*
X46703998Y-20647782D02*
X46665903Y-20571592D01*
X46665903Y-20571592D02*
X46665903Y-20495401D01*
X46665903Y-20495401D02*
X47046856Y-20419211D01*
X46208761Y-20152544D02*
X46284951Y-20190640D01*
X46284951Y-20190640D02*
X46323046Y-20266830D01*
X46323046Y-20266830D02*
X46323046Y-20952544D01*
X45789713Y-20152544D02*
X45865903Y-20190640D01*
X45865903Y-20190640D02*
X45903998Y-20266830D01*
X45903998Y-20266830D02*
X45903998Y-20952544D01*
X49523001Y-37190640D02*
X49408715Y-37152544D01*
X49408715Y-37152544D02*
X49218239Y-37152544D01*
X49218239Y-37152544D02*
X49142048Y-37190640D01*
X49142048Y-37190640D02*
X49103953Y-37228735D01*
X49103953Y-37228735D02*
X49065858Y-37304925D01*
X49065858Y-37304925D02*
X49065858Y-37381116D01*
X49065858Y-37381116D02*
X49103953Y-37457306D01*
X49103953Y-37457306D02*
X49142048Y-37495401D01*
X49142048Y-37495401D02*
X49218239Y-37533497D01*
X49218239Y-37533497D02*
X49370620Y-37571592D01*
X49370620Y-37571592D02*
X49446810Y-37609687D01*
X49446810Y-37609687D02*
X49484905Y-37647782D01*
X49484905Y-37647782D02*
X49523001Y-37723973D01*
X49523001Y-37723973D02*
X49523001Y-37800163D01*
X49523001Y-37800163D02*
X49484905Y-37876354D01*
X49484905Y-37876354D02*
X49446810Y-37914449D01*
X49446810Y-37914449D02*
X49370620Y-37952544D01*
X49370620Y-37952544D02*
X49180143Y-37952544D01*
X49180143Y-37952544D02*
X49065858Y-37914449D01*
X48265857Y-37228735D02*
X48303953Y-37190640D01*
X48303953Y-37190640D02*
X48418238Y-37152544D01*
X48418238Y-37152544D02*
X48494429Y-37152544D01*
X48494429Y-37152544D02*
X48608715Y-37190640D01*
X48608715Y-37190640D02*
X48684905Y-37266830D01*
X48684905Y-37266830D02*
X48723000Y-37343020D01*
X48723000Y-37343020D02*
X48761096Y-37495401D01*
X48761096Y-37495401D02*
X48761096Y-37609687D01*
X48761096Y-37609687D02*
X48723000Y-37762068D01*
X48723000Y-37762068D02*
X48684905Y-37838259D01*
X48684905Y-37838259D02*
X48608715Y-37914449D01*
X48608715Y-37914449D02*
X48494429Y-37952544D01*
X48494429Y-37952544D02*
X48418238Y-37952544D01*
X48418238Y-37952544D02*
X48303953Y-37914449D01*
X48303953Y-37914449D02*
X48265857Y-37876354D01*
X47580143Y-37685878D02*
X47580143Y-37152544D01*
X47770619Y-37990640D02*
X47961096Y-37419211D01*
X47961096Y-37419211D02*
X47465857Y-37419211D01*
D11*
X-4549347Y30701548D02*
X-4159252Y30701548D01*
X-4354299Y30506501D02*
X-4354299Y30896596D01*
X-4427442Y24327167D02*
X-4281156Y24327167D01*
X-4427442Y24327167D02*
X-4281156Y24327167D01*
X-4549347Y30701548D02*
X-4159252Y30701548D01*
X-4354299Y30506501D02*
X-4354299Y30896596D01*
D10*
X621037Y33800692D02*
X735323Y33762597D01*
X735323Y33762597D02*
X773418Y33724501D01*
X773418Y33724501D02*
X811514Y33648311D01*
X811514Y33648311D02*
X811514Y33534025D01*
X811514Y33534025D02*
X773418Y33457835D01*
X773418Y33457835D02*
X735323Y33419740D01*
X735323Y33419740D02*
X659133Y33381644D01*
X659133Y33381644D02*
X354371Y33381644D01*
X354371Y33381644D02*
X354371Y34181644D01*
X354371Y34181644D02*
X621037Y34181644D01*
X621037Y34181644D02*
X697228Y34143549D01*
X697228Y34143549D02*
X735323Y34105454D01*
X735323Y34105454D02*
X773418Y34029263D01*
X773418Y34029263D02*
X773418Y33953073D01*
X773418Y33953073D02*
X735323Y33876882D01*
X735323Y33876882D02*
X697228Y33838787D01*
X697228Y33838787D02*
X621037Y33800692D01*
X621037Y33800692D02*
X354371Y33800692D01*
X1078180Y34181644D02*
X1611514Y34181644D01*
X1611514Y34181644D02*
X1078180Y33381644D01*
X1078180Y33381644D02*
X1611514Y33381644D01*
X2335323Y33381644D02*
X1878180Y33381644D01*
X2106752Y33381644D02*
X2106752Y34181644D01*
X2106752Y34181644D02*
X2030561Y34067359D01*
X2030561Y34067359D02*
X1954371Y33991168D01*
X1954371Y33991168D02*
X1878180Y33953073D01*
D12*
X6322866Y-26928051D02*
X6322866Y-27562718D01*
X6322866Y-27562718D02*
X6360200Y-27637384D01*
X6360200Y-27637384D02*
X6397533Y-27674718D01*
X6397533Y-27674718D02*
X6472200Y-27712051D01*
X6472200Y-27712051D02*
X6621533Y-27712051D01*
X6621533Y-27712051D02*
X6696200Y-27674718D01*
X6696200Y-27674718D02*
X6733533Y-27637384D01*
X6733533Y-27637384D02*
X6770866Y-27562718D01*
X6770866Y-27562718D02*
X6770866Y-26928051D01*
X7554866Y-27712051D02*
X7106866Y-27712051D01*
X7330866Y-27712051D02*
X7330866Y-26928051D01*
X7330866Y-26928051D02*
X7256199Y-27040051D01*
X7256199Y-27040051D02*
X7181533Y-27114718D01*
X7181533Y-27114718D02*
X7106866Y-27152051D01*
D10*
X12770676Y-23819355D02*
X12770676Y-24466974D01*
X12770676Y-24466974D02*
X12808771Y-24543164D01*
X12808771Y-24543164D02*
X12846866Y-24581260D01*
X12846866Y-24581260D02*
X12923057Y-24619355D01*
X12923057Y-24619355D02*
X13075438Y-24619355D01*
X13075438Y-24619355D02*
X13151628Y-24581260D01*
X13151628Y-24581260D02*
X13189723Y-24543164D01*
X13189723Y-24543164D02*
X13227819Y-24466974D01*
X13227819Y-24466974D02*
X13227819Y-23819355D01*
X14027818Y-24619355D02*
X13570675Y-24619355D01*
X13799247Y-24619355D02*
X13799247Y-23819355D01*
X13799247Y-23819355D02*
X13723056Y-23933640D01*
X13723056Y-23933640D02*
X13646866Y-24009831D01*
X13646866Y-24009831D02*
X13570675Y-24047926D01*
D13*
X-18584519Y-7732524D02*
X-18584519Y-8250619D01*
X-18584519Y-8250619D02*
X-18554042Y-8311571D01*
X-18554042Y-8311571D02*
X-18523566Y-8342048D01*
X-18523566Y-8342048D02*
X-18462614Y-8372524D01*
X-18462614Y-8372524D02*
X-18340709Y-8372524D01*
X-18340709Y-8372524D02*
X-18279757Y-8342048D01*
X-18279757Y-8342048D02*
X-18249280Y-8311571D01*
X-18249280Y-8311571D02*
X-18218804Y-8250619D01*
X-18218804Y-8250619D02*
X-18218804Y-7732524D01*
X-17944519Y-7793476D02*
X-17914043Y-7763000D01*
X-17914043Y-7763000D02*
X-17853090Y-7732524D01*
X-17853090Y-7732524D02*
X-17700709Y-7732524D01*
X-17700709Y-7732524D02*
X-17639757Y-7763000D01*
X-17639757Y-7763000D02*
X-17609281Y-7793476D01*
X-17609281Y-7793476D02*
X-17578804Y-7854428D01*
X-17578804Y-7854428D02*
X-17578804Y-7915381D01*
X-17578804Y-7915381D02*
X-17609281Y-8006809D01*
X-17609281Y-8006809D02*
X-17974995Y-8372524D01*
X-17974995Y-8372524D02*
X-17578804Y-8372524D01*
D10*
X-18706423Y-3145555D02*
X-18706423Y-3793174D01*
X-18706423Y-3793174D02*
X-18668328Y-3869364D01*
X-18668328Y-3869364D02*
X-18630233Y-3907460D01*
X-18630233Y-3907460D02*
X-18554042Y-3945555D01*
X-18554042Y-3945555D02*
X-18401661Y-3945555D01*
X-18401661Y-3945555D02*
X-18325471Y-3907460D01*
X-18325471Y-3907460D02*
X-18287376Y-3869364D01*
X-18287376Y-3869364D02*
X-18249280Y-3793174D01*
X-18249280Y-3793174D02*
X-18249280Y-3145555D01*
X-17906424Y-3221745D02*
X-17868328Y-3183650D01*
X-17868328Y-3183650D02*
X-17792138Y-3145555D01*
X-17792138Y-3145555D02*
X-17601662Y-3145555D01*
X-17601662Y-3145555D02*
X-17525471Y-3183650D01*
X-17525471Y-3183650D02*
X-17487376Y-3221745D01*
X-17487376Y-3221745D02*
X-17449281Y-3297936D01*
X-17449281Y-3297936D02*
X-17449281Y-3374126D01*
X-17449281Y-3374126D02*
X-17487376Y-3488412D01*
X-17487376Y-3488412D02*
X-17944519Y-3945555D01*
X-17944519Y-3945555D02*
X-17449281Y-3945555D01*
X-11762375Y23694744D02*
X-11762375Y24494744D01*
X-11762375Y24494744D02*
X-11571899Y24494744D01*
X-11571899Y24494744D02*
X-11457613Y24456649D01*
X-11457613Y24456649D02*
X-11381423Y24380459D01*
X-11381423Y24380459D02*
X-11343328Y24304268D01*
X-11343328Y24304268D02*
X-11305232Y24151887D01*
X-11305232Y24151887D02*
X-11305232Y24037601D01*
X-11305232Y24037601D02*
X-11343328Y23885220D01*
X-11343328Y23885220D02*
X-11381423Y23809030D01*
X-11381423Y23809030D02*
X-11457613Y23732840D01*
X-11457613Y23732840D02*
X-11571899Y23694744D01*
X-11571899Y23694744D02*
X-11762375Y23694744D01*
X-10543328Y23694744D02*
X-11000471Y23694744D01*
X-10771899Y23694744D02*
X-10771899Y24494744D01*
X-10771899Y24494744D02*
X-10848090Y24380459D01*
X-10848090Y24380459D02*
X-10924280Y24304268D01*
X-10924280Y24304268D02*
X-11000471Y24266173D01*
X-11762375Y23694744D02*
X-11762375Y24494744D01*
X-11762375Y24494744D02*
X-11571899Y24494744D01*
X-11571899Y24494744D02*
X-11457613Y24456649D01*
X-11457613Y24456649D02*
X-11381423Y24380459D01*
X-11381423Y24380459D02*
X-11343328Y24304268D01*
X-11343328Y24304268D02*
X-11305232Y24151887D01*
X-11305232Y24151887D02*
X-11305232Y24037601D01*
X-11305232Y24037601D02*
X-11343328Y23885220D01*
X-11343328Y23885220D02*
X-11381423Y23809030D01*
X-11381423Y23809030D02*
X-11457613Y23732840D01*
X-11457613Y23732840D02*
X-11571899Y23694744D01*
X-11571899Y23694744D02*
X-11762375Y23694744D01*
X-10543328Y23694744D02*
X-11000471Y23694744D01*
X-10771899Y23694744D02*
X-10771899Y24494744D01*
X-10771899Y24494744D02*
X-10848090Y24380459D01*
X-10848090Y24380459D02*
X-10924280Y24304268D01*
X-10924280Y24304268D02*
X-11000471Y24266173D01*
X24747876Y12909344D02*
X24747876Y12261725D01*
X24747876Y12261725D02*
X24785971Y12185535D01*
X24785971Y12185535D02*
X24824066Y12147440D01*
X24824066Y12147440D02*
X24900257Y12109344D01*
X24900257Y12109344D02*
X25052638Y12109344D01*
X25052638Y12109344D02*
X25128828Y12147440D01*
X25128828Y12147440D02*
X25166923Y12185535D01*
X25166923Y12185535D02*
X25205019Y12261725D01*
X25205019Y12261725D02*
X25205019Y12909344D01*
X25509780Y12909344D02*
X26005018Y12909344D01*
X26005018Y12909344D02*
X25738352Y12604582D01*
X25738352Y12604582D02*
X25852637Y12604582D01*
X25852637Y12604582D02*
X25928828Y12566487D01*
X25928828Y12566487D02*
X25966923Y12528392D01*
X25966923Y12528392D02*
X26005018Y12452201D01*
X26005018Y12452201D02*
X26005018Y12261725D01*
X26005018Y12261725D02*
X25966923Y12185535D01*
X25966923Y12185535D02*
X25928828Y12147440D01*
X25928828Y12147440D02*
X25852637Y12109344D01*
X25852637Y12109344D02*
X25624066Y12109344D01*
X25624066Y12109344D02*
X25547875Y12147440D01*
X25547875Y12147440D02*
X25509780Y12185535D01*
X-18344332Y-8453264D02*
X-18382428Y-8491360D01*
X-18382428Y-8491360D02*
X-18496713Y-8529455D01*
X-18496713Y-8529455D02*
X-18572904Y-8529455D01*
X-18572904Y-8529455D02*
X-18687190Y-8491360D01*
X-18687190Y-8491360D02*
X-18763380Y-8415169D01*
X-18763380Y-8415169D02*
X-18801475Y-8338979D01*
X-18801475Y-8338979D02*
X-18839571Y-8186598D01*
X-18839571Y-8186598D02*
X-18839571Y-8072312D01*
X-18839571Y-8072312D02*
X-18801475Y-7919931D01*
X-18801475Y-7919931D02*
X-18763380Y-7843740D01*
X-18763380Y-7843740D02*
X-18687190Y-7767550D01*
X-18687190Y-7767550D02*
X-18572904Y-7729455D01*
X-18572904Y-7729455D02*
X-18496713Y-7729455D01*
X-18496713Y-7729455D02*
X-18382428Y-7767550D01*
X-18382428Y-7767550D02*
X-18344332Y-7805645D01*
X-18077666Y-7729455D02*
X-17582428Y-7729455D01*
X-17582428Y-7729455D02*
X-17849094Y-8034217D01*
X-17849094Y-8034217D02*
X-17734809Y-8034217D01*
X-17734809Y-8034217D02*
X-17658618Y-8072312D01*
X-17658618Y-8072312D02*
X-17620523Y-8110407D01*
X-17620523Y-8110407D02*
X-17582428Y-8186598D01*
X-17582428Y-8186598D02*
X-17582428Y-8377074D01*
X-17582428Y-8377074D02*
X-17620523Y-8453264D01*
X-17620523Y-8453264D02*
X-17658618Y-8491360D01*
X-17658618Y-8491360D02*
X-17734809Y-8529455D01*
X-17734809Y-8529455D02*
X-17963380Y-8529455D01*
X-17963380Y-8529455D02*
X-18039571Y-8491360D01*
X-18039571Y-8491360D02*
X-18077666Y-8453264D01*
X-21248032Y-20051964D02*
X-21286128Y-20090060D01*
X-21286128Y-20090060D02*
X-21400413Y-20128155D01*
X-21400413Y-20128155D02*
X-21476604Y-20128155D01*
X-21476604Y-20128155D02*
X-21590890Y-20090060D01*
X-21590890Y-20090060D02*
X-21667080Y-20013869D01*
X-21667080Y-20013869D02*
X-21705175Y-19937679D01*
X-21705175Y-19937679D02*
X-21743271Y-19785298D01*
X-21743271Y-19785298D02*
X-21743271Y-19671012D01*
X-21743271Y-19671012D02*
X-21705175Y-19518631D01*
X-21705175Y-19518631D02*
X-21667080Y-19442440D01*
X-21667080Y-19442440D02*
X-21590890Y-19366250D01*
X-21590890Y-19366250D02*
X-21476604Y-19328155D01*
X-21476604Y-19328155D02*
X-21400413Y-19328155D01*
X-21400413Y-19328155D02*
X-21286128Y-19366250D01*
X-21286128Y-19366250D02*
X-21248032Y-19404345D01*
X-20486128Y-20128155D02*
X-20943271Y-20128155D01*
X-20714699Y-20128155D02*
X-20714699Y-19328155D01*
X-20714699Y-19328155D02*
X-20790890Y-19442440D01*
X-20790890Y-19442440D02*
X-20867080Y-19518631D01*
X-20867080Y-19518631D02*
X-20943271Y-19556726D01*
X25999967Y-947964D02*
X25961871Y-986060D01*
X25961871Y-986060D02*
X25847586Y-1024155D01*
X25847586Y-1024155D02*
X25771395Y-1024155D01*
X25771395Y-1024155D02*
X25657109Y-986060D01*
X25657109Y-986060D02*
X25580919Y-909869D01*
X25580919Y-909869D02*
X25542824Y-833679D01*
X25542824Y-833679D02*
X25504728Y-681298D01*
X25504728Y-681298D02*
X25504728Y-567012D01*
X25504728Y-567012D02*
X25542824Y-414631D01*
X25542824Y-414631D02*
X25580919Y-338440D01*
X25580919Y-338440D02*
X25657109Y-262250D01*
X25657109Y-262250D02*
X25771395Y-224155D01*
X25771395Y-224155D02*
X25847586Y-224155D01*
X25847586Y-224155D02*
X25961871Y-262250D01*
X25961871Y-262250D02*
X25999967Y-300345D01*
X26304728Y-300345D02*
X26342824Y-262250D01*
X26342824Y-262250D02*
X26419014Y-224155D01*
X26419014Y-224155D02*
X26609490Y-224155D01*
X26609490Y-224155D02*
X26685681Y-262250D01*
X26685681Y-262250D02*
X26723776Y-300345D01*
X26723776Y-300345D02*
X26761871Y-376536D01*
X26761871Y-376536D02*
X26761871Y-452726D01*
X26761871Y-452726D02*
X26723776Y-567012D01*
X26723776Y-567012D02*
X26266633Y-1024155D01*
X26266633Y-1024155D02*
X26761871Y-1024155D01*
X24067848Y-9388202D02*
X24067848Y-9769155D01*
X23801181Y-8969155D02*
X24067848Y-9388202D01*
X24067848Y-9388202D02*
X24334514Y-8969155D01*
X25020228Y-9769155D02*
X24563085Y-9769155D01*
X24791657Y-9769155D02*
X24791657Y-8969155D01*
X24791657Y-8969155D02*
X24715466Y-9083440D01*
X24715466Y-9083440D02*
X24639276Y-9159631D01*
X24639276Y-9159631D02*
X24563085Y-9197726D01*
X21915466Y-13969155D02*
X21915466Y-14121536D01*
X22220228Y-13969155D02*
X22220228Y-14121536D01*
X22982133Y-14769155D02*
X22524990Y-14769155D01*
X22753562Y-14769155D02*
X22753562Y-13969155D01*
X22753562Y-13969155D02*
X22677371Y-14083440D01*
X22677371Y-14083440D02*
X22601181Y-14159631D01*
X22601181Y-14159631D02*
X22524990Y-14197726D01*
X23286895Y-14045345D02*
X23324991Y-14007250D01*
X23324991Y-14007250D02*
X23401181Y-13969155D01*
X23401181Y-13969155D02*
X23591657Y-13969155D01*
X23591657Y-13969155D02*
X23667848Y-14007250D01*
X23667848Y-14007250D02*
X23705943Y-14045345D01*
X23705943Y-14045345D02*
X23744038Y-14121536D01*
X23744038Y-14121536D02*
X23744038Y-14197726D01*
X23744038Y-14197726D02*
X23705943Y-14312012D01*
X23705943Y-14312012D02*
X23248800Y-14769155D01*
X23248800Y-14769155D02*
X23744038Y-14769155D01*
X24315467Y-14769155D02*
X24315467Y-13969155D01*
X24315467Y-13969155D02*
X24582133Y-14540583D01*
X24582133Y-14540583D02*
X24848800Y-13969155D01*
X24848800Y-13969155D02*
X24848800Y-14769155D01*
X25229753Y-14769155D02*
X25229753Y-13969155D01*
X25229753Y-14350107D02*
X25686896Y-14350107D01*
X25686896Y-14769155D02*
X25686896Y-13969155D01*
X25991657Y-14235821D02*
X26410705Y-14235821D01*
X26410705Y-14235821D02*
X25991657Y-14769155D01*
X25991657Y-14769155D02*
X26410705Y-14769155D01*
X26677371Y-13969155D02*
X26677371Y-14121536D01*
X26982133Y-13969155D02*
X26982133Y-14121536D01*
X17051467Y-14247964D02*
X17013371Y-14286060D01*
X17013371Y-14286060D02*
X16899086Y-14324155D01*
X16899086Y-14324155D02*
X16822895Y-14324155D01*
X16822895Y-14324155D02*
X16708609Y-14286060D01*
X16708609Y-14286060D02*
X16632419Y-14209869D01*
X16632419Y-14209869D02*
X16594324Y-14133679D01*
X16594324Y-14133679D02*
X16556228Y-13981298D01*
X16556228Y-13981298D02*
X16556228Y-13867012D01*
X16556228Y-13867012D02*
X16594324Y-13714631D01*
X16594324Y-13714631D02*
X16632419Y-13638440D01*
X16632419Y-13638440D02*
X16708609Y-13562250D01*
X16708609Y-13562250D02*
X16822895Y-13524155D01*
X16822895Y-13524155D02*
X16899086Y-13524155D01*
X16899086Y-13524155D02*
X17013371Y-13562250D01*
X17013371Y-13562250D02*
X17051467Y-13600345D01*
X17737181Y-13790821D02*
X17737181Y-14324155D01*
X17546705Y-13486060D02*
X17356228Y-14057488D01*
X17356228Y-14057488D02*
X17851467Y-14057488D01*
X20118867Y-13006664D02*
X20080771Y-13044760D01*
X20080771Y-13044760D02*
X19966486Y-13082855D01*
X19966486Y-13082855D02*
X19890295Y-13082855D01*
X19890295Y-13082855D02*
X19776009Y-13044760D01*
X19776009Y-13044760D02*
X19699819Y-12968569D01*
X19699819Y-12968569D02*
X19661724Y-12892379D01*
X19661724Y-12892379D02*
X19623628Y-12739998D01*
X19623628Y-12739998D02*
X19623628Y-12625712D01*
X19623628Y-12625712D02*
X19661724Y-12473331D01*
X19661724Y-12473331D02*
X19699819Y-12397140D01*
X19699819Y-12397140D02*
X19776009Y-12320950D01*
X19776009Y-12320950D02*
X19890295Y-12282855D01*
X19890295Y-12282855D02*
X19966486Y-12282855D01*
X19966486Y-12282855D02*
X20080771Y-12320950D01*
X20080771Y-12320950D02*
X20118867Y-12359045D01*
X20842676Y-12282855D02*
X20461724Y-12282855D01*
X20461724Y-12282855D02*
X20423628Y-12663807D01*
X20423628Y-12663807D02*
X20461724Y-12625712D01*
X20461724Y-12625712D02*
X20537914Y-12587617D01*
X20537914Y-12587617D02*
X20728390Y-12587617D01*
X20728390Y-12587617D02*
X20804581Y-12625712D01*
X20804581Y-12625712D02*
X20842676Y-12663807D01*
X20842676Y-12663807D02*
X20880771Y-12739998D01*
X20880771Y-12739998D02*
X20880771Y-12930474D01*
X20880771Y-12930474D02*
X20842676Y-13006664D01*
X20842676Y-13006664D02*
X20804581Y-13044760D01*
X20804581Y-13044760D02*
X20728390Y-13082855D01*
X20728390Y-13082855D02*
X20537914Y-13082855D01*
X20537914Y-13082855D02*
X20461724Y-13044760D01*
X20461724Y-13044760D02*
X20423628Y-13006664D01*
D14*
%TO.C,*%
X69551400Y-29051800D02*
X69551400Y-30551800D01*
X68801400Y-29801800D02*
X70301400Y-29801800D01*
X73301400Y-25801800D02*
X74801400Y-25801800D01*
X74051400Y-25051800D02*
X74051400Y-26551800D01*
X70999400Y-21517800D02*
X70999400Y-36517800D01*
X115999400Y-21517800D02*
X115999400Y-36517800D01*
X70999400Y-21517800D02*
X115999400Y-21517800D01*
X70999400Y-36517800D02*
X115999400Y-36517800D01*
X117447400Y-43999064D02*
X117447404Y-42499064D01*
X118197402Y-43249066D02*
X116697402Y-43249062D01*
X113697391Y-47249054D02*
X112197391Y-47249050D01*
X112947389Y-47999052D02*
X112947393Y-46499052D01*
X115999380Y-51533060D02*
X115999420Y-36533060D01*
X70999380Y-51532940D02*
X70999420Y-36532940D01*
X115999380Y-51533060D02*
X70999380Y-51532940D01*
X115999420Y-36533060D02*
X70999420Y-36532940D01*
X24565500Y-44067100D02*
X24565500Y-45567100D01*
X23815500Y-44817100D02*
X25315500Y-44817100D01*
X28315500Y-40817100D02*
X29815500Y-40817100D01*
X29065500Y-40067100D02*
X29065500Y-41567100D01*
X26013500Y-36533100D02*
X26013500Y-51533100D01*
X71013500Y-36533100D02*
X71013500Y-51533100D01*
X26013500Y-36533100D02*
X71013500Y-36533100D01*
X26013500Y-51533100D02*
X71013500Y-51533100D01*
X72461500Y-28983764D02*
X72461504Y-27483764D01*
X73211502Y-28233766D02*
X71711502Y-28233762D01*
X68711491Y-32233754D02*
X67211491Y-32233750D01*
X67961489Y-32983752D02*
X67961493Y-31483752D01*
X71013480Y-36517760D02*
X71013520Y-21517760D01*
X26013480Y-36517640D02*
X26013520Y-21517640D01*
X71013480Y-36517760D02*
X26013480Y-36517640D01*
X71013520Y-21517760D02*
X26013520Y-21517640D01*
D15*
X-2889300Y31815200D02*
X-2889300Y23315200D01*
X-2889300Y23315200D02*
X5610700Y23315200D01*
X5610700Y23315200D02*
X5610700Y31815200D01*
X5610700Y31815200D02*
X-2889300Y31815200D01*
X3260700Y31815200D02*
X-539300Y31815200D01*
X-539300Y23315200D02*
X3260700Y23315200D01*
X5610700Y25665200D02*
X5610700Y29465200D01*
X-2889300Y29465200D02*
X-2889300Y25665200D01*
D16*
X-3639300Y32565200D02*
X-639300Y32565200D01*
X-639300Y32565200D02*
X-639300Y32065200D01*
X-639300Y32065200D02*
X3360700Y32065200D01*
X3360700Y32065200D02*
X3360700Y32565200D01*
X3360700Y32565200D02*
X6360700Y32565200D01*
X3360700Y23065200D02*
X-639300Y23065200D01*
X3360700Y22565200D02*
X3360700Y23065200D01*
X-639300Y23065200D02*
X-639300Y22565200D01*
X-639300Y22565200D02*
X-3639300Y22565200D01*
X6360700Y22565200D02*
X3360700Y22565200D01*
X5860700Y29565200D02*
X5860700Y25565200D01*
X6360700Y29565200D02*
X5860700Y29565200D01*
X5860700Y25565200D02*
X6360700Y25565200D01*
X6360700Y25565200D02*
X6360700Y22565200D01*
X6360700Y32565200D02*
X6360700Y29565200D01*
X-3139300Y25565200D02*
X-3139300Y29565200D01*
X-3139300Y29565200D02*
X-3639300Y29565200D01*
X-3639300Y25565200D02*
X-3139300Y25565200D01*
X-3639300Y22565200D02*
X-3639300Y25565200D01*
X-3639300Y29565200D02*
X-3639300Y32565200D01*
D14*
X13380200Y-30214200D02*
X15330200Y-30214200D01*
X13380200Y-30214200D02*
X11430200Y-30214200D01*
X13380200Y-25094200D02*
X15330200Y-25094200D01*
X13380200Y-25094200D02*
X9930200Y-25094200D01*
D16*
X9680200Y-24954200D02*
X9680200Y-30354200D01*
X9680200Y-30354200D02*
X17080200Y-30354200D01*
X17080200Y-30354200D02*
X17080200Y-24954200D01*
X17080200Y-24954200D02*
X9680200Y-24954200D01*
D17*
X-19946900Y-5780400D02*
X-18896900Y-4730400D01*
X-19946900Y-5780400D02*
X-19946900Y-11430400D01*
X-18896900Y-4730400D02*
X-16246900Y-4730400D01*
X-19946900Y-11430400D02*
X-16246900Y-11430400D01*
X-16246900Y-4730400D02*
X-16246900Y-11430400D01*
D14*
X-16186900Y-11490400D02*
X-16186900Y-10230400D01*
X-16186900Y-4670400D02*
X-16186900Y-5930400D01*
D16*
X-13696900Y-4480400D02*
X-22496900Y-4480400D01*
X-13696900Y-11680400D02*
X-13696900Y-4480400D01*
X-22496900Y-11680400D02*
X-13696900Y-11680400D01*
X-22496900Y-4480400D02*
X-22496900Y-11680400D01*
D14*
X-19946900Y-11490400D02*
X-16186900Y-11490400D01*
X-22196900Y-4670400D02*
X-16186900Y-4670400D01*
D17*
X-10794900Y22154900D02*
X-10294900Y22154900D01*
X-10794900Y21754900D02*
X-11394900Y22154900D01*
X-10794900Y22554900D02*
X-10794900Y21754900D01*
X-11394900Y22154900D02*
X-10794900Y22554900D01*
X-11394900Y22154900D02*
X-11394900Y21604900D01*
X-11394900Y22154900D02*
X-11394900Y22704900D01*
X-11794900Y22154900D02*
X-11394900Y22154900D01*
X-12444900Y21254900D02*
X-12444900Y23054900D01*
X-9644900Y21254900D02*
X-12444900Y21254900D01*
X-9644900Y23054900D02*
X-9644900Y21254900D01*
X-12444900Y23054900D02*
X-9644900Y23054900D01*
D14*
X-13244900Y23154900D02*
X-13244900Y21154900D01*
D16*
X-13244900Y23304900D02*
X-8844900Y23304900D01*
X-8844900Y23304900D02*
X-8844900Y21004900D01*
X-8844900Y21004900D02*
X-13244900Y21004900D01*
X-13244900Y23304900D02*
X-13244900Y21004900D01*
D14*
X-13244900Y21154900D02*
X-9394900Y21154900D01*
X-13244900Y23154900D02*
X-9394900Y23154900D01*
D18*
X21927400Y9439500D02*
X21923993Y9413618D01*
X21923993Y9413618D02*
X21914003Y9389500D01*
X21914003Y9389500D02*
X21898111Y9368789D01*
X21898111Y9368789D02*
X21877400Y9352897D01*
X21877400Y9352897D02*
X21853282Y9342907D01*
X21853282Y9342907D02*
X21827400Y9339500D01*
X21827400Y9339500D02*
X21801518Y9342907D01*
X21801518Y9342907D02*
X21777400Y9352897D01*
X21777400Y9352897D02*
X21756689Y9368789D01*
X21756689Y9368789D02*
X21740797Y9389500D01*
X21740797Y9389500D02*
X21730807Y9413618D01*
X21730807Y9413618D02*
X21727400Y9439500D01*
X21727400Y9439500D02*
X21730807Y9465382D01*
X21730807Y9465382D02*
X21740797Y9489500D01*
X21740797Y9489500D02*
X21756689Y9510211D01*
X21756689Y9510211D02*
X21777400Y9526103D01*
X21777400Y9526103D02*
X21801518Y9536093D01*
X21801518Y9536093D02*
X21827400Y9539500D01*
X21827400Y9539500D02*
X21853282Y9536093D01*
X21853282Y9536093D02*
X21877400Y9526103D01*
X21877400Y9526103D02*
X21898111Y9510211D01*
X21898111Y9510211D02*
X21914003Y9489500D01*
X21914003Y9489500D02*
X21923993Y9465382D01*
X21923993Y9465382D02*
X21927400Y9439500D01*
D15*
X29782400Y3339500D02*
X22782400Y3339500D01*
X29782400Y10339500D02*
X22782400Y10339500D01*
X29782400Y3339500D02*
X29782400Y10339500D01*
X22782400Y3339500D02*
X22782400Y10339500D01*
D18*
X21927400Y9439500D02*
X21923993Y9413618D01*
X21923993Y9413618D02*
X21914003Y9389500D01*
X21914003Y9389500D02*
X21898111Y9368789D01*
X21898111Y9368789D02*
X21877400Y9352897D01*
X21877400Y9352897D02*
X21853282Y9342907D01*
X21853282Y9342907D02*
X21827400Y9339500D01*
X21827400Y9339500D02*
X21801518Y9342907D01*
X21801518Y9342907D02*
X21777400Y9352897D01*
X21777400Y9352897D02*
X21756689Y9368789D01*
X21756689Y9368789D02*
X21740797Y9389500D01*
X21740797Y9389500D02*
X21730807Y9413618D01*
X21730807Y9413618D02*
X21727400Y9439500D01*
X21727400Y9439500D02*
X21730807Y9465382D01*
X21730807Y9465382D02*
X21740797Y9489500D01*
X21740797Y9489500D02*
X21756689Y9510211D01*
X21756689Y9510211D02*
X21777400Y9526103D01*
X21777400Y9526103D02*
X21801518Y9536093D01*
X21801518Y9536093D02*
X21827400Y9539500D01*
X21827400Y9539500D02*
X21853282Y9536093D01*
X21853282Y9536093D02*
X21877400Y9526103D01*
X21877400Y9526103D02*
X21898111Y9510211D01*
X21898111Y9510211D02*
X21914003Y9489500D01*
X21914003Y9489500D02*
X21923993Y9465382D01*
X21923993Y9465382D02*
X21927400Y9439500D01*
D15*
X29782400Y3339500D02*
X29312400Y3339500D01*
X29782400Y10339500D02*
X29312400Y10339500D01*
X22782400Y3339500D02*
X23252400Y3339500D01*
X22782400Y10339500D02*
X23252400Y10339500D01*
X29782400Y3339500D02*
X29782400Y3809500D01*
X29782400Y10339500D02*
X29782400Y9869500D01*
X22782400Y3339500D02*
X22782400Y3809500D01*
X22782400Y10339500D02*
X22782400Y9869500D01*
D16*
X22182400Y2739500D02*
X30382400Y2739500D01*
X22182400Y10939500D02*
X30382400Y10939500D01*
X22182400Y2739500D02*
X22182400Y10939500D01*
X30382400Y2739500D02*
X30382400Y10939500D01*
D14*
X-18351600Y-9084300D02*
X-18070400Y-9084300D01*
X-18351600Y-10104300D02*
X-18070400Y-10104300D01*
X-21255300Y-20683000D02*
X-20974100Y-20683000D01*
X-21255300Y-21703000D02*
X-20974100Y-21703000D01*
X25992700Y-1579000D02*
X26273900Y-1579000D01*
X25992700Y-2599000D02*
X26273900Y-2599000D01*
D19*
X26948800Y-10304000D02*
X21948800Y-10304000D01*
X21948800Y-10304000D02*
X21948800Y-13504000D01*
X21948800Y-13504000D02*
X26948800Y-13504000D01*
X26948800Y-13504000D02*
X26948800Y-10304000D01*
D14*
X17044200Y-14879000D02*
X17325400Y-14879000D01*
X17044200Y-15899000D02*
X17325400Y-15899000D01*
X20111600Y-13637700D02*
X20392800Y-13637700D01*
X20111600Y-14657700D02*
X20392800Y-14657700D01*
%TD*%
M02*
