%TF.GenerationSoftware,Flux,Pcbnew,7.0.11-7.0.11~ubuntu20.04.1*%
%TF.CreationDate,2024-08-20T12:49:29+00:00*%
%TF.ProjectId,input,696e7075-742e-46b6-9963-61645f706362,rev?*%
%TF.SameCoordinates,Original*%
%TF.FileFunction,Copper,L1,Top*%
%TF.FilePolarity,Positive*%
%FSLAX46Y46*%
G04 Gerber Fmt 4.6, Leading zero omitted, Abs format (unit mm)*
G04 Filename: known-fuchsia-translation-collar*
G04 Build it with Flux! Visit our site at: https://www.flux.ai (PCBNEW 7.0.11-7.0.11~ubuntu20.04.1) date 2024-08-20 12:49:29*
%MOMM*%
%LPD*%
G01*
G04 APERTURE LIST*
G04 Aperture macros list*
%AMFreePoly0*
4,1,5,1.500000,-1.500000,-1.500000,-1.500000,-1.500000,1.500000,1.500000,1.500000,1.500000,-1.500000,1.500000,-1.500000,$1*%
%AMFreePoly1*
4,1,5,1.250000,-1.250000,-1.250000,-1.250000,-1.250000,1.250000,1.250000,1.250000,1.250000,-1.250000,1.250000,-1.250000,$1*%
%AMFreePoly2*
4,1,101,0.838362,0.299687,0.847883,0.298749,0.857322,0.297191,0.866639,0.295018,0.875794,0.292241,0.884748,0.288871,0.893463,0.284923,0.901900,0.280413,0.910024,0.275361,0.917801,0.269788,0.925196,0.263719,0.932179,0.257179,0.938719,0.250196,0.944788,0.242801,0.950361,0.235024,0.955413,0.226900,0.959923,0.218463,0.963871,0.209748,0.967241,0.200794,0.970018,0.191639,
0.972191,0.182322,0.973749,0.172883,0.974687,0.163362,0.975000,0.153800,0.975000,-0.153800,0.974687,-0.163362,0.973749,-0.172883,0.972191,-0.182322,0.970018,-0.191639,0.967241,-0.200794,0.963871,-0.209748,0.959923,-0.218463,0.955413,-0.226900,0.950361,-0.235024,0.944788,-0.242801,0.938719,-0.250196,0.932179,-0.257179,0.925196,-0.263719,0.917801,-0.269788,0.910024,-0.275361,
0.901900,-0.280413,0.893463,-0.284923,0.884748,-0.288871,0.875794,-0.292241,0.866639,-0.295018,0.857322,-0.297191,0.847883,-0.298749,0.838362,-0.299687,0.828800,-0.300000,-0.828800,-0.300000,-0.838362,-0.299687,-0.847883,-0.298749,-0.857322,-0.297191,-0.866639,-0.295018,-0.875794,-0.292241,-0.884748,-0.288871,-0.893463,-0.284923,-0.901900,-0.280413,-0.910024,-0.275361,-0.917801,-0.269788,
-0.925196,-0.263719,-0.932179,-0.257179,-0.938719,-0.250196,-0.944788,-0.242801,-0.950361,-0.235024,-0.955413,-0.226900,-0.959923,-0.218463,-0.963871,-0.209748,-0.967241,-0.200794,-0.970018,-0.191639,-0.972191,-0.182322,-0.973749,-0.172883,-0.974687,-0.163362,-0.975000,-0.153800,-0.975000,0.153800,-0.974687,0.163362,-0.973749,0.172883,-0.972191,0.182322,-0.970018,0.191639,-0.967241,0.200794,
-0.963871,0.209748,-0.959923,0.218463,-0.955413,0.226900,-0.950361,0.235024,-0.944788,0.242801,-0.938719,0.250196,-0.932179,0.257179,-0.925196,0.263719,-0.917801,0.269788,-0.910024,0.275361,-0.901900,0.280413,-0.893463,0.284923,-0.884748,0.288871,-0.875794,0.292241,-0.866639,0.295018,-0.857322,0.297191,-0.847883,0.298749,-0.838362,0.299687,-0.828800,0.300000,0.828800,0.300000,
0.838362,0.299687,0.838362,0.299687,$1*%
%AMFreePoly3*
4,1,5,1.000000,-0.750000,-1.000000,-0.750000,-1.000000,0.750000,1.000000,0.750000,1.000000,-0.750000,1.000000,-0.750000,$1*%
%AMFreePoly4*
4,1,5,1.000000,-1.900000,-1.000000,-1.900000,-1.000000,1.900000,1.000000,1.900000,1.000000,-1.900000,1.000000,-1.900000,$1*%
%AMFreePoly5*
4,1,5,0.550000,-0.550000,-0.550000,-0.550000,-0.550000,0.550000,0.550000,0.550000,0.550000,-0.550000,0.550000,-0.550000,$1*%
%AMFreePoly6*
4,1,101,0.053270,0.404870,0.057223,0.404481,0.061142,0.403834,0.065010,0.402932,0.068811,0.401779,0.072529,0.400379,0.076147,0.398740,0.079650,0.396868,0.083023,0.394770,0.086252,0.392457,0.089322,0.389937,0.092221,0.387221,0.094937,0.384322,0.097457,0.381252,0.099770,0.378023,0.101868,0.374650,0.103740,0.371147,0.105379,0.367529,0.106779,0.363811,0.107932,0.360010,
0.108834,0.356142,0.109481,0.352223,0.109870,0.348270,0.110000,0.344300,0.110000,-0.344300,0.109870,-0.348270,0.109481,-0.352223,0.108834,-0.356142,0.107932,-0.360010,0.106779,-0.363811,0.105379,-0.367529,0.103740,-0.371147,0.101868,-0.374650,0.099770,-0.378023,0.097457,-0.381252,0.094937,-0.384322,0.092221,-0.387221,0.089322,-0.389937,0.086252,-0.392457,0.083023,-0.394770,
0.079650,-0.396868,0.076147,-0.398740,0.072529,-0.400379,0.068811,-0.401779,0.065010,-0.402932,0.061142,-0.403834,0.057223,-0.404481,0.053270,-0.404870,0.049300,-0.405000,-0.049300,-0.405000,-0.053270,-0.404870,-0.057223,-0.404481,-0.061142,-0.403834,-0.065010,-0.402932,-0.068811,-0.401779,-0.072529,-0.400379,-0.076147,-0.398740,-0.079650,-0.396868,-0.083023,-0.394770,-0.086252,-0.392457,
-0.089322,-0.389937,-0.092221,-0.387221,-0.094937,-0.384322,-0.097457,-0.381252,-0.099770,-0.378023,-0.101868,-0.374650,-0.103740,-0.371147,-0.105379,-0.367529,-0.106779,-0.363811,-0.107932,-0.360010,-0.108834,-0.356142,-0.109481,-0.352223,-0.109870,-0.348270,-0.110000,-0.344300,-0.110000,0.344300,-0.109870,0.348270,-0.109481,0.352223,-0.108834,0.356142,-0.107932,0.360010,-0.106779,0.363811,
-0.105379,0.367529,-0.103740,0.371147,-0.101868,0.374650,-0.099770,0.378023,-0.097457,0.381252,-0.094937,0.384322,-0.092221,0.387221,-0.089322,0.389937,-0.086252,0.392457,-0.083023,0.394770,-0.079650,0.396868,-0.076147,0.398740,-0.072529,0.400379,-0.068811,0.401779,-0.065010,0.402932,-0.061142,0.403834,-0.057223,0.404481,-0.053270,0.404870,-0.049300,0.405000,0.049300,0.405000,
0.053270,0.404870,0.053270,0.404870,$1*%
%AMFreePoly7*
4,1,101,0.348270,0.109870,0.352223,0.109481,0.356142,0.108834,0.360010,0.107932,0.363811,0.106779,0.367529,0.105379,0.371147,0.103740,0.374650,0.101868,0.378023,0.099770,0.381252,0.097457,0.384322,0.094937,0.387221,0.092221,0.389937,0.089322,0.392457,0.086252,0.394770,0.083023,0.396868,0.079650,0.398740,0.076147,0.400379,0.072529,0.401779,0.068811,0.402932,0.065010,
0.403834,0.061142,0.404481,0.057223,0.404870,0.053270,0.405000,0.049300,0.405000,-0.049300,0.404870,-0.053270,0.404481,-0.057223,0.403834,-0.061142,0.402932,-0.065010,0.401779,-0.068811,0.400379,-0.072529,0.398740,-0.076147,0.396868,-0.079650,0.394770,-0.083023,0.392457,-0.086252,0.389937,-0.089322,0.387221,-0.092221,0.384322,-0.094937,0.381252,-0.097457,0.378023,-0.099770,
0.374650,-0.101868,0.371147,-0.103740,0.367529,-0.105379,0.363811,-0.106779,0.360010,-0.107932,0.356142,-0.108834,0.352223,-0.109481,0.348270,-0.109870,0.344300,-0.110000,-0.344300,-0.110000,-0.348270,-0.109870,-0.352223,-0.109481,-0.356142,-0.108834,-0.360010,-0.107932,-0.363811,-0.106779,-0.367529,-0.105379,-0.371147,-0.103740,-0.374650,-0.101868,-0.378023,-0.099770,-0.381252,-0.097457,
-0.384322,-0.094937,-0.387221,-0.092221,-0.389937,-0.089322,-0.392457,-0.086252,-0.394770,-0.083023,-0.396868,-0.079650,-0.398740,-0.076147,-0.400379,-0.072529,-0.401779,-0.068811,-0.402932,-0.065010,-0.403834,-0.061142,-0.404481,-0.057223,-0.404870,-0.053270,-0.405000,-0.049300,-0.405000,0.049300,-0.404870,0.053270,-0.404481,0.057223,-0.403834,0.061142,-0.402932,0.065010,-0.401779,0.068811,
-0.400379,0.072529,-0.398740,0.076147,-0.396868,0.079650,-0.394770,0.083023,-0.392457,0.086252,-0.389937,0.089322,-0.387221,0.092221,-0.384322,0.094937,-0.381252,0.097457,-0.378023,0.099770,-0.374650,0.101868,-0.371147,0.103740,-0.367529,0.105379,-0.363811,0.106779,-0.360010,0.107932,-0.356142,0.108834,-0.352223,0.109481,-0.348270,0.109870,-0.344300,0.110000,0.344300,0.110000,
0.348270,0.109870,0.348270,0.109870,$1*%
%AMFreePoly8*
4,1,5,2.000000,-2.000000,-2.000000,-2.000000,-2.000000,2.000000,2.000000,2.000000,2.000000,-2.000000,2.000000,-2.000000,$1*%
%AMFreePoly9*
4,1,101,0.383457,0.474848,0.388093,0.474391,0.392690,0.473632,0.397228,0.472574,0.401686,0.471221,0.406047,0.469580,0.410291,0.467657,0.414400,0.465461,0.418357,0.463001,0.422144,0.460287,0.425745,0.457331,0.429146,0.454146,0.432331,0.450745,0.435287,0.447144,0.438001,0.443357,0.440461,0.439400,0.442657,0.435291,0.444580,0.431047,0.446221,0.426686,0.447574,0.422228,
0.448632,0.417690,0.449391,0.413093,0.449848,0.408457,0.450000,0.403800,0.450000,-0.403800,0.449848,-0.408457,0.449391,-0.413093,0.448632,-0.417690,0.447574,-0.422228,0.446221,-0.426686,0.444580,-0.431047,0.442657,-0.435291,0.440461,-0.439400,0.438001,-0.443357,0.435287,-0.447144,0.432331,-0.450745,0.429146,-0.454146,0.425745,-0.457331,0.422144,-0.460287,0.418357,-0.463001,
0.414400,-0.465461,0.410291,-0.467657,0.406047,-0.469580,0.401686,-0.471221,0.397228,-0.472574,0.392690,-0.473632,0.388093,-0.474391,0.383457,-0.474848,0.378800,-0.475000,-0.378800,-0.475000,-0.383457,-0.474848,-0.388093,-0.474391,-0.392690,-0.473632,-0.397228,-0.472574,-0.401686,-0.471221,-0.406047,-0.469580,-0.410291,-0.467657,-0.414400,-0.465461,-0.418357,-0.463001,-0.422144,-0.460287,
-0.425745,-0.457331,-0.429146,-0.454146,-0.432331,-0.450745,-0.435287,-0.447144,-0.438001,-0.443357,-0.440461,-0.439400,-0.442657,-0.435291,-0.444580,-0.431047,-0.446221,-0.426686,-0.447574,-0.422228,-0.448632,-0.417690,-0.449391,-0.413093,-0.449848,-0.408457,-0.450000,-0.403800,-0.450000,0.403800,-0.449848,0.408457,-0.449391,0.413093,-0.448632,0.417690,-0.447574,0.422228,-0.446221,0.426686,
-0.444580,0.431047,-0.442657,0.435291,-0.440461,0.439400,-0.438001,0.443357,-0.435287,0.447144,-0.432331,0.450745,-0.429146,0.454146,-0.425745,0.457331,-0.422144,0.460287,-0.418357,0.463001,-0.414400,0.465461,-0.410291,0.467657,-0.406047,0.469580,-0.401686,0.471221,-0.397228,0.472574,-0.392690,0.473632,-0.388093,0.474391,-0.383457,0.474848,-0.378800,0.475000,0.378800,0.475000,
0.383457,0.474848,0.383457,0.474848,$1*%
%AMFreePoly10*
4,1,5,0.950000,-1.200000,-0.950000,-1.200000,-0.950000,1.200000,0.950000,1.200000,0.950000,-1.200000,0.950000,-1.200000,$1*%
%AMFreePoly11*
4,1,129,0.022069,0.299187,0.036723,0.297744,0.051289,0.295583,0.065730,0.292711,0.080014,0.289133,0.094105,0.284858,0.107969,0.279898,0.121572,0.274263,0.134883,0.267967,0.147869,0.261026,0.160499,0.253456,0.172742,0.245275,0.184569,0.236504,0.195952,0.227163,0.206862,0.217274,0.217274,0.206862,0.227163,0.195952,0.236504,0.184569,0.245275,0.172742,0.253456,0.160499,
0.261026,0.147869,0.267967,0.134883,0.274263,0.121572,0.279898,0.107969,0.284858,0.094105,0.289133,0.080014,0.292711,0.065730,0.295583,0.051289,0.297744,0.036723,0.299187,0.022069,0.299910,0.007362,0.299910,-0.007362,0.299187,-0.022069,0.297744,-0.036723,0.295583,-0.051289,0.292711,-0.065730,0.289133,-0.080014,0.284858,-0.094105,0.279898,-0.107969,0.274263,-0.121572,
0.267967,-0.134883,0.261026,-0.147869,0.253456,-0.160499,0.245275,-0.172742,0.236504,-0.184569,0.227163,-0.195952,0.217274,-0.206862,0.206862,-0.217274,0.195952,-0.227163,0.184569,-0.236504,0.172742,-0.245275,0.160499,-0.253456,0.147869,-0.261026,0.134883,-0.267967,0.121572,-0.274263,0.107969,-0.279898,0.094105,-0.284858,0.080014,-0.289133,0.065730,-0.292711,0.051289,-0.295583,
0.036723,-0.297744,0.022069,-0.299187,0.007362,-0.299910,-0.007362,-0.299910,-0.022069,-0.299187,-0.036723,-0.297744,-0.051289,-0.295583,-0.065730,-0.292711,-0.080014,-0.289133,-0.094105,-0.284858,-0.107969,-0.279898,-0.121572,-0.274263,-0.134883,-0.267967,-0.147869,-0.261026,-0.160499,-0.253456,-0.172742,-0.245275,-0.184569,-0.236504,-0.195952,-0.227163,-0.206862,-0.217274,-0.217274,-0.206862,
-0.227163,-0.195952,-0.236504,-0.184569,-0.245275,-0.172742,-0.253456,-0.160499,-0.261026,-0.147869,-0.267967,-0.134883,-0.274263,-0.121572,-0.279898,-0.107969,-0.284858,-0.094105,-0.289133,-0.080014,-0.292711,-0.065730,-0.295583,-0.051289,-0.297744,-0.036723,-0.299187,-0.022069,-0.299910,-0.007362,-0.299910,0.007362,-0.299187,0.022069,-0.297744,0.036723,-0.295583,0.051289,-0.292711,0.065730,
-0.289133,0.080014,-0.284858,0.094105,-0.279898,0.107969,-0.274263,0.121572,-0.267967,0.134883,-0.261026,0.147869,-0.253456,0.160499,-0.245275,0.172742,-0.236504,0.184569,-0.227163,0.195952,-0.217274,0.206862,-0.206862,0.217274,-0.195952,0.227163,-0.184569,0.236504,-0.172742,0.245275,-0.160499,0.253456,-0.147869,0.261026,-0.134883,0.267967,-0.121572,0.274263,-0.107969,0.279898,
-0.094105,0.284858,-0.080014,0.289133,-0.065730,0.292711,-0.051289,0.295583,-0.036723,0.297744,-0.022069,0.299187,-0.007362,0.299910,0.007362,0.299910,0.022069,0.299187,0.022069,0.299187,$1*%
G04 Aperture macros list end*
%TA.AperFunction,ComponentPad*%
%ADD10FreePoly0,0.000000*%
%TD*%
%TA.AperFunction,ComponentPad*%
%ADD11C,3.000000*%
%TD*%
%TA.AperFunction,ComponentPad*%
%ADD12FreePoly0,180.000000*%
%TD*%
%TA.AperFunction,SMDPad,CuDef*%
%ADD13FreePoly1,0.000000*%
%TD*%
%TA.AperFunction,SMDPad,CuDef*%
%ADD14FreePoly2,0.000000*%
%TD*%
%TA.AperFunction,SMDPad,CuDef*%
%ADD15FreePoly3,0.000000*%
%TD*%
%TA.AperFunction,SMDPad,CuDef*%
%ADD16FreePoly4,0.000000*%
%TD*%
%TA.AperFunction,SMDPad,CuDef*%
%ADD17FreePoly5,0.000000*%
%TD*%
%TA.AperFunction,SMDPad,CuDef*%
%ADD18FreePoly6,0.000000*%
%TD*%
%TA.AperFunction,SMDPad,CuDef*%
%ADD19FreePoly7,0.000000*%
%TD*%
%TA.AperFunction,SMDPad,CuDef*%
%ADD20FreePoly8,0.000000*%
%TD*%
%TA.AperFunction,SMDPad,CuDef*%
%ADD21FreePoly9,0.000000*%
%TD*%
%TA.AperFunction,SMDPad,CuDef*%
%ADD22FreePoly10,0.000000*%
%TD*%
%TA.AperFunction,ComponentPad*%
%ADD23FreePoly11,0.000000*%
%TD*%
G04 APERTURE END LIST*
D10*
%TO.P,,e451f8dd-c0c8-4e03-b118-53d5f8021935__12693fdb-c4fb-dc1f-64a5-9d68fa3adabf*%
%TO.N,N/C*%
X73999400Y-29017800D03*
D11*
%TO.P,,e451f8dd-c0c8-4e03-b118-53d5f8021935__115bd2d6-b657-e743-88f7-dd43f7b96996*%
X112999400Y-29017800D03*
D12*
%TO.P,,0e3d493e-61ff-40f0-99ff-fa9defc471c7__12693fdb-c4fb-dc1f-64a5-9d68fa3adabf*%
X112999400Y-44033052D03*
D11*
%TO.P,,0e3d493e-61ff-40f0-99ff-fa9defc471c7__115bd2d6-b657-e743-88f7-dd43f7b96996*%
X73999400Y-44032948D03*
D10*
%TO.P,,50a39319-1c9d-477c-9e98-1f6998425f7a__12693fdb-c4fb-dc1f-64a5-9d68fa3adabf*%
X29013500Y-44033100D03*
D11*
%TO.P,,50a39319-1c9d-477c-9e98-1f6998425f7a__115bd2d6-b657-e743-88f7-dd43f7b96996*%
X68013500Y-44033100D03*
D12*
%TO.P,,19f2db59-160f-4435-a590-40f79bed2ec5__12693fdb-c4fb-dc1f-64a5-9d68fa3adabf*%
X68013500Y-29017752D03*
D11*
%TO.P,,19f2db59-160f-4435-a590-40f79bed2ec5__115bd2d6-b657-e743-88f7-dd43f7b96996*%
X29013500Y-29017648D03*
D13*
%TO.P,,84113815-0100-43ee-8f20-6fec29388cff__b124d3f5-a2aa-4a86-a539-6b749311e238*%
X-2139300Y31065200D03*
%TO.P,,84113815-0100-43ee-8f20-6fec29388cff__2115f338-3bab-4386-8d6b-7124826fcf58*%
X-2139300Y24065200D03*
%TO.P,,84113815-0100-43ee-8f20-6fec29388cff__90b6595b-e792-4624-b1d1-d470e71d1a4e.defaultFootprint.mounts.fef2ba02338403870d37d6445a2b4807*%
X4860700Y24065200D03*
%TO.P,,84113815-0100-43ee-8f20-6fec29388cff__90b6595b-e792-4624-b1d1-d470e71d1a4e.defaultFootprint.mounts.7105320c6fddc83e3ef53b8880e5f568*%
X4860700Y31065200D03*
D14*
%TO.P,,5fa07325-a297-4edf-9c01-044c726b7084__a0fb1efc-d313-3b51-6a95-712133b05d10*%
X10905200Y-25749200D03*
%TO.P,,5fa07325-a297-4edf-9c01-044c726b7084__80a99845-8ad7-34f5-1f41-2fb805502c34*%
X15855200Y-28289200D03*
%TO.P,,5fa07325-a297-4edf-9c01-044c726b7084__787cd935-0a55-34d7-8eae-1aa23a1a9e06*%
X10905200Y-28289200D03*
%TO.P,,5fa07325-a297-4edf-9c01-044c726b7084__5ac761a3-15ad-fd89-5e89-0e30ccb31e93*%
X10905200Y-29559200D03*
%TO.P,,5fa07325-a297-4edf-9c01-044c726b7084__52e25491-3991-1208-1e57-e9ed5e84a3f1*%
X10905200Y-27019200D03*
%TO.P,,5fa07325-a297-4edf-9c01-044c726b7084__5254d2fb-99ee-57c2-6783-35105f702ebc*%
X15855200Y-25749200D03*
%TO.P,,5fa07325-a297-4edf-9c01-044c726b7084__446ec1b9-a7f3-deee-ac19-ff05bb2fc3c6*%
X15855200Y-27019200D03*
%TO.P,,5fa07325-a297-4edf-9c01-044c726b7084__1f444c1a-32fe-5a3c-09a7-fc4d154c7d32*%
X15855200Y-29559200D03*
D15*
%TO.P,,51a75e6f-67ab-49ee-a780-96a6a7c698dc__ecef58b0-6aa1-9f61-97d2-6901b27afeed*%
X-21246900Y-5780400D03*
%TO.P,,51a75e6f-67ab-49ee-a780-96a6a7c698dc__7a2732fe-0801-bce4-3fd6-87669f80dc90*%
X-21246900Y-10380400D03*
%TO.P,,51a75e6f-67ab-49ee-a780-96a6a7c698dc__232671a1-e135-dab4-eda0-9d55a02977d2*%
X-21246900Y-8080400D03*
D16*
%TO.P,,51a75e6f-67ab-49ee-a780-96a6a7c698dc__0e966c23-631b-43ee-8992-c7101c490bb2*%
X-14946900Y-8080400D03*
D17*
%TO.P,,44e8f2e4-7085-4e69-a622-f6976f2544e8__f88ff00a-d7c0-f5a4-c8a1-dc709ad79337*%
X-12444900Y22154900D03*
%TO.P,,44e8f2e4-7085-4e69-a622-f6976f2544e8__d00550b8-0674-09ee-564a-fff79f785a20*%
X-9644900Y22154900D03*
D18*
%TO.P,,e3f7da95-bed7-4591-a656-cb95071ae444__f6322683-4f25-4ab2-8b59-819ba1f21987*%
X28082400Y10284500D03*
%TO.P,,e3f7da95-bed7-4591-a656-cb95071ae444__ef72a659-0900-4361-a1bd-b617436d5436*%
X28882400Y3394500D03*
%TO.P,,e3f7da95-bed7-4591-a656-cb95071ae444__e46fcd8a-1336-47b7-a3e6-d2ed1b447b76*%
X26482400Y3394500D03*
%TO.P,,e3f7da95-bed7-4591-a656-cb95071ae444__e2f239ff-c5b9-4300-a0b3-a6cbf510cbe8*%
X28482400Y10284500D03*
%TO.P,,e3f7da95-bed7-4591-a656-cb95071ae444__dfbfa8cf-c2a3-40c7-9527-8afb3ec3fc4a*%
X27282400Y10284500D03*
D19*
%TO.P,,e3f7da95-bed7-4591-a656-cb95071ae444__dee97023-a1c6-46c5-851f-747b7815d8d8*%
X29727400Y6239500D03*
D18*
%TO.P,,e3f7da95-bed7-4591-a656-cb95071ae444__d0eb5734-24b1-41d8-807d-1871b2d5bfc0*%
X26082400Y3394500D03*
D19*
%TO.P,,e3f7da95-bed7-4591-a656-cb95071ae444__cdbb2127-5ac7-4fcc-aa48-5e10d88b8d1b*%
X22837400Y5439500D03*
%TO.P,,e3f7da95-bed7-4591-a656-cb95071ae444__cab275f0-86c9-4fa0-94f4-cf846a002df2*%
X22837400Y7039500D03*
%TO.P,,e3f7da95-bed7-4591-a656-cb95071ae444__c8fb8a58-ee94-4fc6-924e-fb7e22decf35*%
X22837400Y7839500D03*
D18*
%TO.P,,e3f7da95-bed7-4591-a656-cb95071ae444__c7db6ce4-01ce-4091-babe-ba607b7755a2*%
X24882400Y3394500D03*
D19*
%TO.P,,e3f7da95-bed7-4591-a656-cb95071ae444__c4f79a2e-9c80-40a2-84f6-ff59a4eaf160*%
X29727400Y8639500D03*
D18*
%TO.P,,e3f7da95-bed7-4591-a656-cb95071ae444__c3a5e4e6-b95f-412e-b580-7762745f0b9f*%
X25682400Y10284500D03*
D19*
%TO.P,,e3f7da95-bed7-4591-a656-cb95071ae444__c396adaf-c712-4fcd-aa3e-a30f5bfee5d0*%
X22837400Y5839500D03*
D18*
%TO.P,,e3f7da95-bed7-4591-a656-cb95071ae444__bae36247-0248-4992-865c-073d7c331ddf*%
X28882400Y10284500D03*
D19*
%TO.P,,e3f7da95-bed7-4591-a656-cb95071ae444__b8f34018-73a5-4213-b26f-d540dd3f3309*%
X29727400Y4639500D03*
%TO.P,,e3f7da95-bed7-4591-a656-cb95071ae444__b597feda-80d4-4252-b0e4-d48ecf8300d7*%
X22837400Y9039500D03*
D18*
%TO.P,,e3f7da95-bed7-4591-a656-cb95071ae444__afa7a209-f2bf-4277-bef3-d1fe334e8eb0*%
X24082400Y10284500D03*
%TO.P,,e3f7da95-bed7-4591-a656-cb95071ae444__afa5d72b-baa2-4f06-8bf4-f5fd80786d3f*%
X23682400Y10284500D03*
D19*
%TO.P,,e3f7da95-bed7-4591-a656-cb95071ae444__a05ebcc7-ad56-4389-a8cd-05fc9931b88e*%
X22837400Y8639500D03*
%TO.P,,e3f7da95-bed7-4591-a656-cb95071ae444__9e444e6b-c70c-4193-8edd-d5ff5a60163b*%
X29727400Y8239500D03*
D18*
%TO.P,,e3f7da95-bed7-4591-a656-cb95071ae444__9de9bbf8-18a7-467d-8ff5-8854d8986fd5*%
X28482400Y3394500D03*
%TO.P,,e3f7da95-bed7-4591-a656-cb95071ae444__9a1fa482-7d32-4399-b741-ed74257b9924*%
X26882400Y3394500D03*
D19*
%TO.P,,e3f7da95-bed7-4591-a656-cb95071ae444__91462c4c-e980-402f-9fe5-63239d6d5b60*%
X29727400Y5839500D03*
D18*
%TO.P,,e3f7da95-bed7-4591-a656-cb95071ae444__8fa0c758-b1d6-4caa-b7f3-dc35aef2f23a*%
X24882400Y10284500D03*
D19*
%TO.P,,e3f7da95-bed7-4591-a656-cb95071ae444__8f2cebf9-04dd-4424-84ff-422f62876a41*%
X29727400Y9039500D03*
D18*
%TO.P,,e3f7da95-bed7-4591-a656-cb95071ae444__8e37bb5c-4a3f-4876-b59e-9efe10d2483a*%
X28082400Y3394500D03*
D19*
%TO.P,,e3f7da95-bed7-4591-a656-cb95071ae444__88e47f59-b6cb-4fbb-b44b-612587dd08a6*%
X22837400Y9439500D03*
D18*
%TO.P,,e3f7da95-bed7-4591-a656-cb95071ae444__84d99a73-f496-44e9-acf1-a6792dda73c6*%
X27682400Y3394500D03*
D19*
%TO.P,,e3f7da95-bed7-4591-a656-cb95071ae444__81363cb2-5e19-42ce-8d65-738c406bbdf1*%
X22837400Y5039500D03*
%TO.P,,e3f7da95-bed7-4591-a656-cb95071ae444__8116033a-d86d-4389-a48f-d216251118bc*%
X22837400Y6639500D03*
D18*
%TO.P,,e3f7da95-bed7-4591-a656-cb95071ae444__7fb2e938-cb22-4397-83a4-d5d93f22713a*%
X26082400Y10284500D03*
%TO.P,,e3f7da95-bed7-4591-a656-cb95071ae444__7db4d389-6362-4e1d-a927-422d025ff5a2*%
X24082400Y3394500D03*
D19*
%TO.P,,e3f7da95-bed7-4591-a656-cb95071ae444__77a1f500-842e-4eb4-b7cd-10d91f9b251d*%
X29727400Y5039500D03*
%TO.P,,e3f7da95-bed7-4591-a656-cb95071ae444__5911e007-9fee-47eb-b955-a4bf9f63169e*%
X29727400Y9439500D03*
%TO.P,,e3f7da95-bed7-4591-a656-cb95071ae444__57e4d762-4d64-4c01-afad-98c6bf57aa53*%
X29727400Y7439500D03*
D18*
%TO.P,,e3f7da95-bed7-4591-a656-cb95071ae444__4bad1136-aa68-4e2b-8633-cea369abf857*%
X24482400Y3394500D03*
D19*
%TO.P,,e3f7da95-bed7-4591-a656-cb95071ae444__4a01f517-0814-46c4-9af4-ed7f156149fe*%
X29727400Y7039500D03*
D18*
%TO.P,,e3f7da95-bed7-4591-a656-cb95071ae444__495e78bf-081b-41db-83d3-e18c84bbddd0*%
X27682400Y10284500D03*
D19*
%TO.P,,e3f7da95-bed7-4591-a656-cb95071ae444__4541f02c-af5e-4f35-a1d7-9d41fe3bc85d*%
X29727400Y6639500D03*
%TO.P,,e3f7da95-bed7-4591-a656-cb95071ae444__44e8bd70-f0a4-4dee-a7fb-1c2d17fa74c4*%
X22837400Y7439500D03*
D18*
%TO.P,,e3f7da95-bed7-4591-a656-cb95071ae444__4019ad0a-d64d-4e7f-b971-2167f9c64371*%
X27282400Y3394500D03*
%TO.P,,e3f7da95-bed7-4591-a656-cb95071ae444__39630d33-aef3-45f7-94d4-f5bc3253fe39*%
X23682400Y3394500D03*
D20*
%TO.P,,e3f7da95-bed7-4591-a656-cb95071ae444__3615bc76-ed30-4c61-871b-1447ce2c1ee1*%
X26282400Y6839500D03*
D18*
%TO.P,,e3f7da95-bed7-4591-a656-cb95071ae444__34a24109-2c6d-4c17-a59a-4ed339bba92c*%
X24482400Y10284500D03*
D19*
%TO.P,,e3f7da95-bed7-4591-a656-cb95071ae444__27adf565-f57c-46bf-a8d1-e4763fb8dacd*%
X22837400Y6239500D03*
%TO.P,,e3f7da95-bed7-4591-a656-cb95071ae444__27a842b8-6f6c-44d1-b837-fc8e5053ef02*%
X29727400Y5439500D03*
D18*
%TO.P,,e3f7da95-bed7-4591-a656-cb95071ae444__26274eac-a5dd-488f-ba92-c7f12a3babe5*%
X25282400Y10284500D03*
%TO.P,,e3f7da95-bed7-4591-a656-cb95071ae444__17dd8299-fd1e-4752-b240-498ba078a158*%
X25282400Y3394500D03*
D19*
%TO.P,,e3f7da95-bed7-4591-a656-cb95071ae444__1347cad1-f2a3-4761-abbf-c054ad30e9f2*%
X22837400Y4639500D03*
%TO.P,,e3f7da95-bed7-4591-a656-cb95071ae444__12974bb5-c17a-4b32-9df0-6c32d88badb0*%
X29727400Y7839500D03*
D18*
%TO.P,,e3f7da95-bed7-4591-a656-cb95071ae444__127f8cfa-513c-4cb8-b8d4-5c8fc276dee1*%
X26882400Y10284500D03*
%TO.P,,e3f7da95-bed7-4591-a656-cb95071ae444__11ea75ad-cfdf-4366-9c2a-14283cd25d67*%
X25682400Y3394500D03*
D19*
%TO.P,,e3f7da95-bed7-4591-a656-cb95071ae444__0dea3be4-b633-4ab6-97d5-a1b6a38e8545*%
X22837400Y8239500D03*
D18*
%TO.P,,e3f7da95-bed7-4591-a656-cb95071ae444__0b19efc8-89b5-4d08-ae8f-1281103c68dc*%
X26482400Y10284500D03*
D19*
%TO.P,,e3f7da95-bed7-4591-a656-cb95071ae444__07c6aad3-7e1d-437e-99b4-10315935db02*%
X29727400Y4239500D03*
%TO.P,,e3f7da95-bed7-4591-a656-cb95071ae444__00c37983-b41d-439c-96b5-a87b33908b89*%
X22837400Y4239500D03*
D21*
%TO.P,,c8ef8adc-7817-4721-a58f-a7a4f8c333ce__e5e04a27-c5c4-f2e6-5799-708eb3f01464*%
X-17436000Y-9594300D03*
%TO.P,,c8ef8adc-7817-4721-a58f-a7a4f8c333ce__5237503d-4662-b83a-7859-31969858b9c0*%
X-18986000Y-9594300D03*
%TO.P,,9a4734ee-4ca1-4653-9ae6-b1f78f1312bc__e5e04a27-c5c4-f2e6-5799-708eb3f01464*%
X-20339700Y-21193000D03*
%TO.P,,9a4734ee-4ca1-4653-9ae6-b1f78f1312bc__5237503d-4662-b83a-7859-31969858b9c0*%
X-21889700Y-21193000D03*
%TO.P,,c295079b-ca27-4254-88e4-a1ebb35d370c__e5e04a27-c5c4-f2e6-5799-708eb3f01464*%
X26908300Y-2089000D03*
%TO.P,,c295079b-ca27-4254-88e4-a1ebb35d370c__5237503d-4662-b83a-7859-31969858b9c0*%
X25358300Y-2089000D03*
D22*
%TO.P,,388982ad-fbce-41fd-a86e-cd1bae255a57__6f6021a1-08d7-4960-b836-5ec5ef644fad*%
X26498800Y-11904000D03*
%TO.P,,388982ad-fbce-41fd-a86e-cd1bae255a57__5a89376c-da38-4d1f-a27d-b5cbf065176c*%
X22398800Y-11904000D03*
D21*
%TO.P,,6f0057f8-b4e9-422c-8a36-a38ac8defdc5__e5e04a27-c5c4-f2e6-5799-708eb3f01464*%
X17959800Y-15389000D03*
%TO.P,,6f0057f8-b4e9-422c-8a36-a38ac8defdc5__5237503d-4662-b83a-7859-31969858b9c0*%
X16409800Y-15389000D03*
%TO.P,,bbcb8756-1b96-46c7-8f4a-bb18793a581c__e5e04a27-c5c4-f2e6-5799-708eb3f01464*%
X21027200Y-14147700D03*
%TO.P,,bbcb8756-1b96-46c7-8f4a-bb18793a581c__5237503d-4662-b83a-7859-31969858b9c0*%
X19477200Y-14147700D03*
D23*
%TO.P,,72837dc9-12c5-48d5-9c63-da7d7c8de742.via5.9*%
%TO.N,GND*%
X158600000Y-24400000D03*
%TO.P,,72837dc9-12c5-48d5-9c63-da7d7c8de742.via5.8*%
X143600000Y-24400000D03*
%TO.P,,72837dc9-12c5-48d5-9c63-da7d7c8de742.via5.7*%
X128600000Y-24400000D03*
%TO.P,,72837dc9-12c5-48d5-9c63-da7d7c8de742.via5.6*%
X113600000Y-24400000D03*
%TO.P,,72837dc9-12c5-48d5-9c63-da7d7c8de742.via5.5*%
X98600000Y-24400000D03*
%TO.P,,72837dc9-12c5-48d5-9c63-da7d7c8de742.via5.4*%
X83600000Y-24400000D03*
%TO.P,,72837dc9-12c5-48d5-9c63-da7d7c8de742.via5.3*%
X68600000Y-24400000D03*
%TO.P,,72837dc9-12c5-48d5-9c63-da7d7c8de742.via5.2*%
X53600000Y-24400000D03*
%TO.P,,72837dc9-12c5-48d5-9c63-da7d7c8de742.via5.1*%
X38600000Y-24400000D03*
%TO.P,,72837dc9-12c5-48d5-9c63-da7d7c8de742.via4.9*%
X158600000Y-39400000D03*
%TO.P,,72837dc9-12c5-48d5-9c63-da7d7c8de742.via4.8*%
X143600000Y-39400000D03*
%TO.P,,72837dc9-12c5-48d5-9c63-da7d7c8de742.via4.7*%
X128600000Y-39400000D03*
%TO.P,,72837dc9-12c5-48d5-9c63-da7d7c8de742.via4.6*%
X113600000Y-39400000D03*
%TO.P,,72837dc9-12c5-48d5-9c63-da7d7c8de742.via4.5*%
X98600000Y-39400000D03*
%TO.P,,72837dc9-12c5-48d5-9c63-da7d7c8de742.via4.4*%
X83600000Y-39400000D03*
%TO.P,,72837dc9-12c5-48d5-9c63-da7d7c8de742.via4.3*%
X68600000Y-39400000D03*
%TO.P,,72837dc9-12c5-48d5-9c63-da7d7c8de742.via4.2*%
X53600000Y-39400000D03*
%TO.P,,72837dc9-12c5-48d5-9c63-da7d7c8de742.via4.1*%
X38600000Y-39400000D03*
%TO.P,,72837dc9-12c5-48d5-9c63-da7d7c8de742.via3.9*%
X158600000Y-54400000D03*
%TO.P,,72837dc9-12c5-48d5-9c63-da7d7c8de742.via3.8*%
X143600000Y-54400000D03*
%TO.P,,72837dc9-12c5-48d5-9c63-da7d7c8de742.via3.7*%
X128600000Y-54400000D03*
%TO.P,,72837dc9-12c5-48d5-9c63-da7d7c8de742.via3.6*%
X113600000Y-54400000D03*
%TO.P,,72837dc9-12c5-48d5-9c63-da7d7c8de742.via3.5*%
X98600000Y-54400000D03*
%TO.P,,72837dc9-12c5-48d5-9c63-da7d7c8de742.via3.4*%
X83600000Y-54400000D03*
%TO.P,,72837dc9-12c5-48d5-9c63-da7d7c8de742.via3.3*%
X68600000Y-54400000D03*
%TO.P,,72837dc9-12c5-48d5-9c63-da7d7c8de742.via3.2*%
X53600000Y-54400000D03*
%TO.P,,72837dc9-12c5-48d5-9c63-da7d7c8de742.via3.1*%
X38600000Y-54400000D03*
%TO.P,,72837dc9-12c5-48d5-9c63-da7d7c8de742.via2.9*%
X158600000Y-69400000D03*
%TO.P,,72837dc9-12c5-48d5-9c63-da7d7c8de742.via2.8*%
X143600000Y-69400000D03*
%TO.P,,72837dc9-12c5-48d5-9c63-da7d7c8de742.via2.7*%
X128600000Y-69400000D03*
%TO.P,,72837dc9-12c5-48d5-9c63-da7d7c8de742.via2.6*%
X113600000Y-69400000D03*
%TO.P,,72837dc9-12c5-48d5-9c63-da7d7c8de742.via2.5*%
X98600000Y-69400000D03*
%TO.P,,72837dc9-12c5-48d5-9c63-da7d7c8de742.via2.4*%
X83600000Y-69400000D03*
%TO.P,,72837dc9-12c5-48d5-9c63-da7d7c8de742.via2.3*%
X68600000Y-69400000D03*
%TO.P,,72837dc9-12c5-48d5-9c63-da7d7c8de742.via2.2*%
X53600000Y-69400000D03*
%TO.P,,72837dc9-12c5-48d5-9c63-da7d7c8de742.via2.1*%
X38600000Y-69400000D03*
%TO.P,,72837dc9-12c5-48d5-9c63-da7d7c8de742.via1.9*%
X158600000Y-84400000D03*
%TO.P,,72837dc9-12c5-48d5-9c63-da7d7c8de742.via1.8*%
X143600000Y-84400000D03*
%TO.P,,72837dc9-12c5-48d5-9c63-da7d7c8de742.via1.7*%
X128600000Y-84400000D03*
%TO.P,,72837dc9-12c5-48d5-9c63-da7d7c8de742.via1.6*%
X113600000Y-84400000D03*
%TO.P,,72837dc9-12c5-48d5-9c63-da7d7c8de742.via1.5*%
X98600000Y-84400000D03*
%TO.P,,72837dc9-12c5-48d5-9c63-da7d7c8de742.via1.4*%
X83600000Y-84400000D03*
%TO.P,,72837dc9-12c5-48d5-9c63-da7d7c8de742.via1.3*%
X68600000Y-84400000D03*
%TO.P,,72837dc9-12c5-48d5-9c63-da7d7c8de742.via1.2*%
X53600000Y-84400000D03*
%TO.P,,72837dc9-12c5-48d5-9c63-da7d7c8de742.via1.1*%
X38600000Y-84400000D03*
%TD*%
%TA.AperFunction,Conductor*%
%TO.N,GND*%
G36*
X91961000Y-99150000D02*
G01*
X79162000Y-99150000D01*
X68152000Y-99148000D01*
X58801000Y-99145000D01*
X50976000Y-99140000D01*
X44547000Y-99133000D01*
X39381000Y-99124000D01*
X35348000Y-99112000D01*
X32318000Y-99097000D01*
X30157000Y-99078000D01*
X28739000Y-99056000D01*
X28738000Y-99056000D01*
X27917000Y-99030000D01*
X27913000Y-99030000D01*
X27623000Y-99004000D01*
X27611000Y-99002000D01*
X27192000Y-98892000D01*
X27185000Y-98890000D01*
X26786000Y-98739000D01*
X26779000Y-98736000D01*
X26373000Y-98536000D01*
X26366000Y-98533000D01*
X25993000Y-98303000D01*
X25987000Y-98299000D01*
X25618000Y-98025000D01*
X25613000Y-98021000D01*
X25293000Y-97735000D01*
X25288000Y-97730000D01*
X24966000Y-97389000D01*
X24961000Y-97383000D01*
X24692000Y-97042000D01*
X24688000Y-97037000D01*
X24447000Y-96666000D01*
X24444000Y-96660000D01*
X24241000Y-96273000D01*
X24238000Y-96267000D01*
X24076000Y-95867000D01*
X24074000Y-95859000D01*
X23960000Y-95463000D01*
X23957000Y-95446000D01*
X23943000Y-95185000D01*
X23943000Y-95182000D01*
X23928000Y-94390000D01*
X23928000Y-94389000D01*
X23913000Y-93118000D01*
X23900000Y-91360000D01*
X23889000Y-89110000D01*
X23879000Y-86360000D01*
X23870000Y-83110000D01*
X23863000Y-79351000D01*
X23857000Y-75080000D01*
X23853000Y-70291000D01*
X23851000Y-64980000D01*
X23850000Y-59141000D01*
X23850000Y-51558000D01*
X23851000Y-45111000D01*
X23852709Y-42033000D01*
X27014000Y-42033000D01*
X27014000Y-46033000D01*
X31014000Y-46033000D01*
X31014000Y-43937000D01*
X67270000Y-43937000D01*
X67270000Y-44129000D01*
X67322000Y-44322000D01*
X67323000Y-44324000D01*
X67417000Y-44488000D01*
X67419000Y-44491000D01*
X67557000Y-44628000D01*
X67558000Y-44629000D01*
X67722000Y-44724000D01*
X67725000Y-44725000D01*
X67919000Y-44777000D01*
X68108000Y-44777000D01*
X68302000Y-44725000D01*
X68305000Y-44724000D01*
X68469000Y-44629000D01*
X68470000Y-44628000D01*
X68608000Y-44491000D01*
X68610000Y-44488000D01*
X68704000Y-44324000D01*
X68705000Y-44322000D01*
X68757000Y-44129000D01*
X68757000Y-43937000D01*
X68756729Y-43936000D01*
X73256000Y-43936000D01*
X73256000Y-44130000D01*
X73306000Y-44320000D01*
X73307000Y-44321000D01*
X73403000Y-44489000D01*
X73404000Y-44490000D01*
X73543000Y-44628000D01*
X73544000Y-44629000D01*
X73708000Y-44724000D01*
X73711000Y-44725000D01*
X73905000Y-44777000D01*
X74095000Y-44777000D01*
X74288000Y-44725000D01*
X74287000Y-44725000D01*
X74457000Y-44627000D01*
X74593000Y-44491000D01*
X74691000Y-44321000D01*
X74743000Y-44129000D01*
X74743000Y-43937000D01*
X74691000Y-43745000D01*
X74593000Y-43575000D01*
X74457000Y-43439000D01*
X74287000Y-43341000D01*
X74288000Y-43341000D01*
X74095000Y-43289000D01*
X73905000Y-43289000D01*
X73711000Y-43341000D01*
X73708000Y-43342000D01*
X73544000Y-43437000D01*
X73543000Y-43438000D01*
X73404000Y-43576000D01*
X73403000Y-43577000D01*
X73307000Y-43745000D01*
X73306000Y-43746000D01*
X73256000Y-43936000D01*
X68756729Y-43936000D01*
X68705000Y-43745000D01*
X68608000Y-43576000D01*
X68469000Y-43437000D01*
X68305000Y-43342000D01*
X68302000Y-43341000D01*
X68112000Y-43290000D01*
X67915000Y-43290000D01*
X67725000Y-43341000D01*
X67722000Y-43342000D01*
X67558000Y-43437000D01*
X67419000Y-43576000D01*
X67322000Y-43745000D01*
X67270000Y-43937000D01*
X31014000Y-43937000D01*
X31014000Y-42033000D01*
X110999000Y-42033000D01*
X110999000Y-46033000D01*
X114999000Y-46033000D01*
X114999000Y-42033000D01*
X110999000Y-42033000D01*
X31014000Y-42033000D01*
X27014000Y-42033000D01*
X23852709Y-42033000D01*
X23854000Y-39708000D01*
X23858000Y-35255000D01*
X23865000Y-31661000D01*
X23867044Y-31018000D01*
X66013000Y-31018000D01*
X70013000Y-31018000D01*
X70014000Y-27018000D01*
X71999000Y-27018000D01*
X71999000Y-31018000D01*
X75999000Y-31018000D01*
X75999000Y-28759000D01*
X111012000Y-28759000D01*
X111012000Y-29277000D01*
X111149000Y-29786000D01*
X111410000Y-30239000D01*
X111780000Y-30609000D01*
X112228000Y-30868000D01*
X112231000Y-30869000D01*
X112741000Y-31005000D01*
X113258000Y-31005000D01*
X113768000Y-30869000D01*
X113767000Y-30869000D01*
X114219000Y-30609000D01*
X114220000Y-30608000D01*
X114589000Y-30238000D01*
X114590000Y-30237000D01*
X114850000Y-29789000D01*
X114987000Y-29277000D01*
X114987000Y-28759000D01*
X114850000Y-28249000D01*
X114849000Y-28246000D01*
X114590000Y-27799000D01*
X114589000Y-27798000D01*
X114220000Y-27428000D01*
X114219000Y-27427000D01*
X113767000Y-27167000D01*
X113768000Y-27167000D01*
X113258000Y-27031000D01*
X112741000Y-27031000D01*
X112231000Y-27167000D01*
X112228000Y-27168000D01*
X111780000Y-27427000D01*
X111410000Y-27797000D01*
X111149000Y-28250000D01*
X111012000Y-28759000D01*
X75999000Y-28759000D01*
X75999000Y-27018000D01*
X71999000Y-27018000D01*
X70014000Y-27018000D01*
X66014000Y-27018000D01*
X66013000Y-31018000D01*
X23867044Y-31018000D01*
X23874000Y-28830000D01*
X23874395Y-28759000D01*
X27026000Y-28759000D01*
X27026000Y-29276000D01*
X27163000Y-29786000D01*
X27424000Y-30239000D01*
X27792000Y-30607000D01*
X28245000Y-30868000D01*
X28755000Y-31005000D01*
X29272000Y-31005000D01*
X29783000Y-30868000D01*
X29782000Y-30868000D01*
X30235000Y-30607000D01*
X30603000Y-30239000D01*
X30864000Y-29786000D01*
X31001000Y-29276000D01*
X31001000Y-28759000D01*
X30864000Y-28250000D01*
X30603000Y-27797000D01*
X30233000Y-27427000D01*
X29785000Y-27168000D01*
X29782000Y-27167000D01*
X29272000Y-27030000D01*
X28755000Y-27030000D01*
X28245000Y-27167000D01*
X28242000Y-27168000D01*
X27794000Y-27427000D01*
X27424000Y-27797000D01*
X27163000Y-28250000D01*
X27026000Y-28759000D01*
X23874395Y-28759000D01*
X23886000Y-26672000D01*
X23902000Y-25094000D01*
X23922000Y-24005000D01*
X23922000Y-24004000D01*
X23945000Y-23314000D01*
X23945000Y-23311000D01*
X23973000Y-22924000D01*
X23974000Y-22916000D01*
X24002000Y-22754000D01*
X24005000Y-22744000D01*
X24062000Y-22567000D01*
X24062000Y-22565000D01*
X24130000Y-22374000D01*
X24131000Y-22372000D01*
X24208000Y-22179000D01*
X24209000Y-22176000D01*
X24283000Y-22012000D01*
X24284000Y-22009000D01*
X24372000Y-21829000D01*
X24374000Y-21826000D01*
X24464000Y-21662000D01*
X24466000Y-21659000D01*
X24556000Y-21512000D01*
X24664000Y-21350000D01*
X24666000Y-21348000D01*
X24777000Y-21195000D01*
X24779000Y-21191000D01*
X24913000Y-21025000D01*
X24914000Y-21023000D01*
X25039000Y-20878000D01*
X25041000Y-20875000D01*
X25183000Y-20721000D01*
X25185000Y-20719000D01*
X25338000Y-20567000D01*
X25340000Y-20565000D01*
X25504000Y-20413000D01*
X25506000Y-20411000D01*
X25648000Y-20290000D01*
X25650000Y-20288000D01*
X25816000Y-20158000D01*
X25818000Y-20156000D01*
X25979000Y-20041000D01*
X25981000Y-20039000D01*
X26132000Y-19941000D01*
X26135000Y-19939000D01*
X26317000Y-19831000D01*
X26321000Y-19829000D01*
X26481000Y-19745000D01*
X26483000Y-19744000D01*
X26675000Y-19653000D01*
X26678000Y-19652000D01*
X26867000Y-19570000D01*
X26870000Y-19569000D01*
X27050000Y-19501000D01*
X27053000Y-19500000D01*
X27245000Y-19435000D01*
X27256000Y-19432000D01*
X27437000Y-19400000D01*
X27445000Y-19399000D01*
X27921000Y-19368000D01*
X27923000Y-19368000D01*
X28928000Y-19340000D01*
X28929000Y-19340000D01*
X30610000Y-19318000D01*
X30611000Y-19318000D01*
X33172000Y-19300000D01*
X36807000Y-19286000D01*
X41705000Y-19276000D01*
X48063000Y-19269000D01*
X56073000Y-19264000D01*
X65931000Y-19262000D01*
X77828000Y-19260000D01*
X91959000Y-19260000D01*
X105510000Y-19258000D01*
X117030000Y-19257000D01*
X126681000Y-19258000D01*
X134630000Y-19261000D01*
X141042000Y-19267000D01*
X146079000Y-19275000D01*
X149911000Y-19287000D01*
X152697000Y-19302000D01*
X154601000Y-19322000D01*
X154602000Y-19322000D01*
X155788000Y-19346000D01*
X155790000Y-19346000D01*
X156432000Y-19375000D01*
X156439000Y-19376000D01*
X156643000Y-19403000D01*
X156657000Y-19407000D01*
X157042000Y-19537000D01*
X157048000Y-19539000D01*
X157412000Y-19699000D01*
X157418000Y-19702000D01*
X157781000Y-19897000D01*
X157786000Y-19901000D01*
X158133000Y-20127000D01*
X158138000Y-20131000D01*
X158450000Y-20375000D01*
X158455000Y-20379000D01*
X158749000Y-20652000D01*
X158753000Y-20656000D01*
X159025000Y-20952000D01*
X159029000Y-20957000D01*
X159275000Y-21277000D01*
X159278000Y-21282000D01*
X159497000Y-21620000D01*
X159500000Y-21626000D01*
X159690000Y-21984000D01*
X159693000Y-21990000D01*
X159849000Y-22360000D01*
X159852000Y-22366000D01*
X159976000Y-22748000D01*
X159978000Y-22756000D01*
X160011000Y-22916000D01*
X160012000Y-22924000D01*
X160041000Y-23227000D01*
X160042000Y-23231000D01*
X160070000Y-23830000D01*
X160070000Y-23832000D01*
X160092000Y-24786000D01*
X160092000Y-24787000D01*
X160110000Y-26228000D01*
X160124000Y-28262000D01*
X160124000Y-28263000D01*
X160134000Y-31000000D01*
X160141000Y-34553000D01*
X160146000Y-39033000D01*
X160148000Y-44551000D01*
X160150000Y-51219000D01*
X160150000Y-59149000D01*
X160151000Y-68162000D01*
X160151000Y-75560000D01*
X160147000Y-81506000D01*
X160138000Y-86166000D01*
X160120000Y-89701000D01*
X160091000Y-92272000D01*
X160091000Y-92273000D01*
X160048000Y-94048000D01*
X160048000Y-94050000D01*
X159991000Y-95172000D01*
X159990000Y-95177000D01*
X159915000Y-95817000D01*
X159913000Y-95828000D01*
X159828000Y-96138000D01*
X159822000Y-96155000D01*
X159713000Y-96350000D01*
X159712000Y-96353000D01*
X159566000Y-96590000D01*
X159567000Y-96590000D01*
X159386000Y-96899000D01*
X159383000Y-96905000D01*
X159181000Y-97192000D01*
X159178000Y-97196000D01*
X158960000Y-97460000D01*
X158957000Y-97463000D01*
X158705000Y-97728000D01*
X158701000Y-97732000D01*
X158444000Y-97965000D01*
X158440000Y-97968000D01*
X158154000Y-98192000D01*
X158150000Y-98195000D01*
X157860000Y-98392000D01*
X157855000Y-98395000D01*
X157541000Y-98576000D01*
X157536000Y-98579000D01*
X157222000Y-98731000D01*
X157217000Y-98733000D01*
X156889000Y-98863000D01*
X156883000Y-98865000D01*
X156552000Y-98969000D01*
X156546000Y-98971000D01*
X156238000Y-99039000D01*
X156225000Y-99041000D01*
X155757000Y-99059000D01*
X155754000Y-99059000D01*
X154474000Y-99076000D01*
X152366000Y-99091000D01*
X152365000Y-99091000D01*
X149408000Y-99104000D01*
X145575000Y-99115000D01*
X140839000Y-99125000D01*
X135173000Y-99133000D01*
X128550000Y-99139000D01*
X120946000Y-99144000D01*
X112330000Y-99147000D01*
X102678000Y-99149000D01*
X91961000Y-99150000D01*
G37*
%TD.AperFunction*%
%TD*%
M02*
