M48
; DRILL file {KiCad 7.0.11-7.0.11~ubuntu20.04.1} date Tue Aug 20 15:22:07 2024
; FORMAT={-:-/ absolute / metric / decimal}
; #@! TF.CreationDate,2024-08-20T15:22:07+00:00
; #@! TF.GenerationSoftware,Kicad,Pcbnew,7.0.11-7.0.11~ubuntu20.04.1
; #@! TF.FileFunction,MixedPlating,1,4
FMAT,2
METRIC
; #@! TA.AperFunction,Plated,PTH,ComponentDrill
T1C0.300
; #@! TA.AperFunction,Plated,PTH,ComponentDrill
T2C1.500
%
G90
G05
T1
X38.6Y-24.4
X38.6Y-39.4
X38.6Y-54.4
X38.6Y-69.4
X38.6Y-84.4
X53.6Y-24.4
X53.6Y-39.4
X53.6Y-54.4
X53.6Y-69.4
X53.6Y-84.4
X68.6Y-24.4
X68.6Y-39.4
X68.6Y-54.4
X68.6Y-69.4
X68.6Y-84.4
X83.6Y-24.4
X83.6Y-54.4
X83.6Y-69.4
X83.6Y-84.4
X98.6Y-24.4
X98.6Y-54.4
X98.6Y-69.4
X98.6Y-84.4
X112.999Y-43.272
X113.6Y-24.4
X113.6Y-54.4
X113.6Y-69.4
X113.6Y-84.4
X116.237Y-38.074
X116.237Y-40.172
X121.728Y-31.704
X124.49Y-25.244
X128.181Y-25.563
X128.6Y-39.4
X128.6Y-54.4
X128.6Y-69.4
X128.6Y-84.4
X129.286Y-26.522
X129.723Y-28.414
X129.986Y-22.687
X129.986Y-27.759
X132.093Y-31.304
X133.694Y-30.263
X133.694Y-30.904
X133.802Y-29.704
X133.802Y-31.704
X134.494Y-23.298
X134.894Y-24.027
X136.326Y-24.458
X137.694Y-23.841
X138.494Y-35.124
X140.398Y-35.305
X141.376Y-28.043
X141.609Y-30.504
X141.827Y-29.504
X142.434Y-36.111
X143.405Y-37.083
X143.6Y-24.4
X143.6Y-54.4
X143.6Y-69.4
X143.6Y-84.4
X143.631Y-30.504
X143.858Y-35.57
X144.142Y-29.504
X144.542Y-37.346
X144.676Y-36.93
X145.742Y-35.82
X147.238Y-35.832
X151.889Y-35.375
X152.494Y-39.189
X152.715Y-37.732
X154.449Y-35.38
X156.456Y-37.221
X158.6Y-24.4
X158.6Y-39.4
X158.6Y-54.4
X158.6Y-69.4
X158.6Y-84.4
T2
X29.013Y-30.364
X29.013Y-45.379
X68.013Y-30.364
X68.013Y-45.379
X73.999Y-30.364
X73.999Y-45.379
X112.999Y-30.364
X112.999Y-45.379
M30
