%TF.GenerationSoftware,Flux,Pcbnew,7.0.11-7.0.11~ubuntu20.04.1*%
%TF.CreationDate,2024-08-20T14:11:11+00:00*%
%TF.ProjectId,input,696e7075-742e-46b6-9963-61645f706362,rev?*%
%TF.SameCoordinates,Original*%
%TF.FileFunction,Soldermask,Bot*%
%TF.FilePolarity,Negative*%
%FSLAX46Y46*%
G04 Gerber Fmt 4.6, Leading zero omitted, Abs format (unit mm)*
G04 Filename: known-fuchsia-translation-collar*
G04 Build it with Flux! Visit our site at: https://www.flux.ai (PCBNEW 7.0.11-7.0.11~ubuntu20.04.1) date 2024-08-20 14:11:11*
%MOMM*%
%LPD*%
G01*
G04 APERTURE LIST*
G04 APERTURE END LIST*
%TO.C,*%
G36*
X75499400Y-27517800D02*
G01*
X75499400Y-30517800D01*
X72499400Y-30517800D01*
X72499400Y-29036206D01*
X73249626Y-29036206D01*
X73251432Y-29072973D01*
X73255040Y-29109608D01*
X73260442Y-29146021D01*
X73267623Y-29182126D01*
X73276568Y-29217835D01*
X73287254Y-29253061D01*
X73299655Y-29287721D01*
X73313743Y-29321731D01*
X73329482Y-29355008D01*
X73346835Y-29387474D01*
X73365760Y-29419048D01*
X73386211Y-29449656D01*
X73408140Y-29479224D01*
X73431493Y-29507680D01*
X73456215Y-29534955D01*
X73482245Y-29560985D01*
X73509520Y-29585707D01*
X73537976Y-29609060D01*
X73567544Y-29630989D01*
X73598152Y-29651440D01*
X73629726Y-29670365D01*
X73662192Y-29687718D01*
X73695469Y-29703457D01*
X73729479Y-29717545D01*
X73764139Y-29729946D01*
X73799365Y-29740632D01*
X73835074Y-29749577D01*
X73871179Y-29756758D01*
X73907592Y-29762160D01*
X73944227Y-29765768D01*
X73980994Y-29767574D01*
X74017806Y-29767574D01*
X74054573Y-29765768D01*
X74091208Y-29762160D01*
X74127621Y-29756758D01*
X74163726Y-29749577D01*
X74199435Y-29740632D01*
X74234661Y-29729946D01*
X74269321Y-29717545D01*
X74303331Y-29703457D01*
X74336608Y-29687718D01*
X74369074Y-29670365D01*
X74400648Y-29651440D01*
X74431256Y-29630989D01*
X74460824Y-29609060D01*
X74489280Y-29585707D01*
X74516555Y-29560985D01*
X74542585Y-29534955D01*
X74567307Y-29507680D01*
X74590660Y-29479224D01*
X74612589Y-29449656D01*
X74633040Y-29419048D01*
X74651965Y-29387474D01*
X74669318Y-29355008D01*
X74685057Y-29321731D01*
X74699145Y-29287721D01*
X74711546Y-29253061D01*
X74722232Y-29217835D01*
X74731177Y-29182126D01*
X74738358Y-29146021D01*
X74743760Y-29109608D01*
X74747368Y-29072973D01*
X74749174Y-29036206D01*
X74749174Y-28999394D01*
X74747368Y-28962627D01*
X74743760Y-28925992D01*
X74738358Y-28889579D01*
X74731177Y-28853474D01*
X74722232Y-28817765D01*
X74711546Y-28782539D01*
X74699145Y-28747879D01*
X74685057Y-28713869D01*
X74669318Y-28680592D01*
X74651965Y-28648126D01*
X74633040Y-28616552D01*
X74612589Y-28585944D01*
X74590660Y-28556376D01*
X74567307Y-28527920D01*
X74542585Y-28500645D01*
X74516555Y-28474615D01*
X74489280Y-28449893D01*
X74460824Y-28426540D01*
X74431256Y-28404611D01*
X74400648Y-28384160D01*
X74369074Y-28365235D01*
X74336608Y-28347882D01*
X74303331Y-28332143D01*
X74269321Y-28318055D01*
X74234661Y-28305654D01*
X74199435Y-28294968D01*
X74163726Y-28286023D01*
X74127621Y-28278842D01*
X74091208Y-28273440D01*
X74054573Y-28269832D01*
X74017806Y-28268026D01*
X73980994Y-28268026D01*
X73944227Y-28269832D01*
X73907592Y-28273440D01*
X73871179Y-28278842D01*
X73835074Y-28286023D01*
X73799365Y-28294968D01*
X73764139Y-28305654D01*
X73729479Y-28318055D01*
X73695469Y-28332143D01*
X73662192Y-28347882D01*
X73629726Y-28365235D01*
X73598152Y-28384160D01*
X73567544Y-28404611D01*
X73537976Y-28426540D01*
X73509520Y-28449893D01*
X73482245Y-28474615D01*
X73456215Y-28500645D01*
X73431493Y-28527920D01*
X73408140Y-28556376D01*
X73386211Y-28585944D01*
X73365760Y-28616552D01*
X73346835Y-28648126D01*
X73329482Y-28680592D01*
X73313743Y-28713869D01*
X73299655Y-28747879D01*
X73287254Y-28782539D01*
X73276568Y-28817765D01*
X73267623Y-28853474D01*
X73260442Y-28889579D01*
X73255040Y-28925992D01*
X73251432Y-28962627D01*
X73249626Y-28999394D01*
X73249626Y-29036206D01*
X72499400Y-29036206D01*
X72499400Y-27517800D01*
X75499400Y-27517800D01*
G37*
G36*
X113109747Y-27521864D02*
G01*
X113183016Y-27529081D01*
X113255843Y-27539884D01*
X113328052Y-27554247D01*
X113399469Y-27572136D01*
X113469923Y-27593508D01*
X113539243Y-27618311D01*
X113607262Y-27646485D01*
X113673817Y-27677964D01*
X113738747Y-27712670D01*
X113801896Y-27750520D01*
X113863112Y-27791423D01*
X113922247Y-27835280D01*
X113979159Y-27881987D01*
X114033711Y-27931429D01*
X114085771Y-27983489D01*
X114135213Y-28038041D01*
X114181920Y-28094953D01*
X114225777Y-28154088D01*
X114266680Y-28215304D01*
X114304530Y-28278453D01*
X114339236Y-28343383D01*
X114370715Y-28409938D01*
X114398889Y-28477957D01*
X114423692Y-28547277D01*
X114445064Y-28617731D01*
X114462953Y-28689148D01*
X114477316Y-28761357D01*
X114488119Y-28834184D01*
X114495336Y-28907453D01*
X114498948Y-28980988D01*
X114498948Y-29054612D01*
X114495336Y-29128147D01*
X114488119Y-29201416D01*
X114477316Y-29274243D01*
X114462953Y-29346452D01*
X114445064Y-29417869D01*
X114423692Y-29488323D01*
X114398889Y-29557643D01*
X114370715Y-29625662D01*
X114339236Y-29692217D01*
X114304530Y-29757147D01*
X114266680Y-29820296D01*
X114225777Y-29881512D01*
X114181920Y-29940647D01*
X114135213Y-29997559D01*
X114085771Y-30052111D01*
X114033711Y-30104171D01*
X113979159Y-30153613D01*
X113922247Y-30200320D01*
X113863112Y-30244177D01*
X113801896Y-30285080D01*
X113738747Y-30322930D01*
X113673817Y-30357636D01*
X113607262Y-30389115D01*
X113539243Y-30417289D01*
X113469923Y-30442092D01*
X113399469Y-30463464D01*
X113328052Y-30481353D01*
X113255843Y-30495716D01*
X113183016Y-30506519D01*
X113109747Y-30513736D01*
X113036212Y-30517348D01*
X112962588Y-30517348D01*
X112889053Y-30513736D01*
X112815784Y-30506519D01*
X112742957Y-30495716D01*
X112670748Y-30481353D01*
X112599331Y-30463464D01*
X112528877Y-30442092D01*
X112459557Y-30417289D01*
X112391538Y-30389115D01*
X112324983Y-30357636D01*
X112260053Y-30322930D01*
X112196904Y-30285080D01*
X112135688Y-30244177D01*
X112076553Y-30200320D01*
X112019641Y-30153613D01*
X111965089Y-30104171D01*
X111913029Y-30052111D01*
X111863587Y-29997559D01*
X111816880Y-29940647D01*
X111773023Y-29881512D01*
X111732120Y-29820296D01*
X111694270Y-29757147D01*
X111659564Y-29692217D01*
X111628085Y-29625662D01*
X111599911Y-29557643D01*
X111575108Y-29488323D01*
X111553736Y-29417869D01*
X111535847Y-29346452D01*
X111521484Y-29274243D01*
X111510681Y-29201416D01*
X111503464Y-29128147D01*
X111499852Y-29054612D01*
X111499852Y-29036206D01*
X112249626Y-29036206D01*
X112251432Y-29072973D01*
X112255040Y-29109608D01*
X112260442Y-29146021D01*
X112267623Y-29182126D01*
X112276568Y-29217835D01*
X112287254Y-29253061D01*
X112299655Y-29287721D01*
X112313743Y-29321731D01*
X112329482Y-29355008D01*
X112346835Y-29387474D01*
X112365760Y-29419048D01*
X112386211Y-29449656D01*
X112408140Y-29479224D01*
X112431493Y-29507680D01*
X112456215Y-29534955D01*
X112482245Y-29560985D01*
X112509520Y-29585707D01*
X112537976Y-29609060D01*
X112567544Y-29630989D01*
X112598152Y-29651440D01*
X112629726Y-29670365D01*
X112662192Y-29687718D01*
X112695469Y-29703457D01*
X112729479Y-29717545D01*
X112764139Y-29729946D01*
X112799365Y-29740632D01*
X112835074Y-29749577D01*
X112871179Y-29756758D01*
X112907592Y-29762160D01*
X112944227Y-29765768D01*
X112980994Y-29767574D01*
X113017806Y-29767574D01*
X113054573Y-29765768D01*
X113091208Y-29762160D01*
X113127621Y-29756758D01*
X113163726Y-29749577D01*
X113199435Y-29740632D01*
X113234661Y-29729946D01*
X113269321Y-29717545D01*
X113303331Y-29703457D01*
X113336608Y-29687718D01*
X113369074Y-29670365D01*
X113400648Y-29651440D01*
X113431256Y-29630989D01*
X113460824Y-29609060D01*
X113489280Y-29585707D01*
X113516555Y-29560985D01*
X113542585Y-29534955D01*
X113567307Y-29507680D01*
X113590660Y-29479224D01*
X113612589Y-29449656D01*
X113633040Y-29419048D01*
X113651965Y-29387474D01*
X113669318Y-29355008D01*
X113685057Y-29321731D01*
X113699145Y-29287721D01*
X113711546Y-29253061D01*
X113722232Y-29217835D01*
X113731177Y-29182126D01*
X113738358Y-29146021D01*
X113743760Y-29109608D01*
X113747368Y-29072973D01*
X113749174Y-29036206D01*
X113749174Y-28999394D01*
X113747368Y-28962627D01*
X113743760Y-28925992D01*
X113738358Y-28889579D01*
X113731177Y-28853474D01*
X113722232Y-28817765D01*
X113711546Y-28782539D01*
X113699145Y-28747879D01*
X113685057Y-28713869D01*
X113669318Y-28680592D01*
X113651965Y-28648126D01*
X113633040Y-28616552D01*
X113612589Y-28585944D01*
X113590660Y-28556376D01*
X113567307Y-28527920D01*
X113542585Y-28500645D01*
X113516555Y-28474615D01*
X113489280Y-28449893D01*
X113460824Y-28426540D01*
X113431256Y-28404611D01*
X113400648Y-28384160D01*
X113369074Y-28365235D01*
X113336608Y-28347882D01*
X113303331Y-28332143D01*
X113269321Y-28318055D01*
X113234661Y-28305654D01*
X113199435Y-28294968D01*
X113163726Y-28286023D01*
X113127621Y-28278842D01*
X113091208Y-28273440D01*
X113054573Y-28269832D01*
X113017806Y-28268026D01*
X112980994Y-28268026D01*
X112944227Y-28269832D01*
X112907592Y-28273440D01*
X112871179Y-28278842D01*
X112835074Y-28286023D01*
X112799365Y-28294968D01*
X112764139Y-28305654D01*
X112729479Y-28318055D01*
X112695469Y-28332143D01*
X112662192Y-28347882D01*
X112629726Y-28365235D01*
X112598152Y-28384160D01*
X112567544Y-28404611D01*
X112537976Y-28426540D01*
X112509520Y-28449893D01*
X112482245Y-28474615D01*
X112456215Y-28500645D01*
X112431493Y-28527920D01*
X112408140Y-28556376D01*
X112386211Y-28585944D01*
X112365760Y-28616552D01*
X112346835Y-28648126D01*
X112329482Y-28680592D01*
X112313743Y-28713869D01*
X112299655Y-28747879D01*
X112287254Y-28782539D01*
X112276568Y-28817765D01*
X112267623Y-28853474D01*
X112260442Y-28889579D01*
X112255040Y-28925992D01*
X112251432Y-28962627D01*
X112249626Y-28999394D01*
X112249626Y-29036206D01*
X111499852Y-29036206D01*
X111499852Y-28980988D01*
X111503464Y-28907453D01*
X111510681Y-28834184D01*
X111521484Y-28761357D01*
X111535847Y-28689148D01*
X111553736Y-28617731D01*
X111575108Y-28547277D01*
X111599911Y-28477957D01*
X111628085Y-28409938D01*
X111659564Y-28343383D01*
X111694270Y-28278453D01*
X111732120Y-28215304D01*
X111773023Y-28154088D01*
X111816880Y-28094953D01*
X111863587Y-28038041D01*
X111913029Y-27983489D01*
X111965089Y-27931429D01*
X112019641Y-27881987D01*
X112076553Y-27835280D01*
X112135688Y-27791423D01*
X112196904Y-27750520D01*
X112260053Y-27712670D01*
X112324983Y-27677964D01*
X112391538Y-27646485D01*
X112459557Y-27618311D01*
X112528877Y-27593508D01*
X112599331Y-27572136D01*
X112670748Y-27554247D01*
X112742957Y-27539884D01*
X112815784Y-27529081D01*
X112889053Y-27521864D01*
X112962588Y-27518252D01*
X113036212Y-27518252D01*
X113109747Y-27521864D01*
G37*
G36*
X114499400Y-42533052D02*
G01*
X114499400Y-45533052D01*
X111499400Y-45533052D01*
X111499400Y-44051458D01*
X112249626Y-44051458D01*
X112251432Y-44088225D01*
X112255040Y-44124860D01*
X112260442Y-44161273D01*
X112267623Y-44197378D01*
X112276568Y-44233086D01*
X112287254Y-44268313D01*
X112299655Y-44302973D01*
X112313743Y-44336983D01*
X112329482Y-44370260D01*
X112346835Y-44402725D01*
X112365760Y-44434300D01*
X112386211Y-44464908D01*
X112408140Y-44494475D01*
X112431493Y-44522931D01*
X112456215Y-44550207D01*
X112482245Y-44576237D01*
X112509520Y-44600958D01*
X112537976Y-44624312D01*
X112567544Y-44646240D01*
X112598152Y-44666692D01*
X112629726Y-44685617D01*
X112662192Y-44702970D01*
X112695469Y-44718709D01*
X112729479Y-44732796D01*
X112764139Y-44745198D01*
X112799365Y-44755884D01*
X112835074Y-44764828D01*
X112871179Y-44772010D01*
X112907592Y-44777411D01*
X112944227Y-44781020D01*
X112980994Y-44782826D01*
X113017806Y-44782826D01*
X113054573Y-44781020D01*
X113091208Y-44777411D01*
X113127621Y-44772010D01*
X113163726Y-44764828D01*
X113199435Y-44755884D01*
X113234661Y-44745198D01*
X113269321Y-44732796D01*
X113303331Y-44718709D01*
X113336608Y-44702970D01*
X113369074Y-44685617D01*
X113400648Y-44666692D01*
X113431256Y-44646240D01*
X113460824Y-44624312D01*
X113489280Y-44600958D01*
X113516555Y-44576237D01*
X113542585Y-44550207D01*
X113567307Y-44522931D01*
X113590660Y-44494475D01*
X113612589Y-44464908D01*
X113633040Y-44434300D01*
X113651965Y-44402725D01*
X113669318Y-44370260D01*
X113685057Y-44336983D01*
X113699145Y-44302973D01*
X113711546Y-44268313D01*
X113722232Y-44233086D01*
X113731177Y-44197378D01*
X113738358Y-44161273D01*
X113743760Y-44124860D01*
X113747368Y-44088225D01*
X113749174Y-44051458D01*
X113749174Y-44014646D01*
X113747368Y-43977878D01*
X113743760Y-43941244D01*
X113738358Y-43904830D01*
X113731177Y-43868726D01*
X113722232Y-43833017D01*
X113711546Y-43797790D01*
X113699145Y-43763130D01*
X113695354Y-43753980D01*
X113685057Y-43729121D01*
X113669318Y-43695843D01*
X113651965Y-43663378D01*
X113633040Y-43631804D01*
X113612589Y-43601196D01*
X113590660Y-43571628D01*
X113567307Y-43543172D01*
X113542585Y-43515896D01*
X113516555Y-43489866D01*
X113489280Y-43465145D01*
X113460824Y-43441792D01*
X113431256Y-43419863D01*
X113400648Y-43399412D01*
X113369074Y-43380487D01*
X113336608Y-43363134D01*
X113303331Y-43347394D01*
X113269321Y-43333307D01*
X113234661Y-43320906D01*
X113199435Y-43310220D01*
X113163726Y-43301275D01*
X113127621Y-43294094D01*
X113091208Y-43288692D01*
X113054573Y-43285084D01*
X113017806Y-43283278D01*
X112980994Y-43283278D01*
X112944227Y-43285084D01*
X112907592Y-43288692D01*
X112871179Y-43294094D01*
X112835074Y-43301275D01*
X112799365Y-43310220D01*
X112764139Y-43320906D01*
X112729479Y-43333307D01*
X112695469Y-43347394D01*
X112662192Y-43363134D01*
X112629726Y-43380487D01*
X112598152Y-43399412D01*
X112567544Y-43419863D01*
X112537976Y-43441792D01*
X112509520Y-43465145D01*
X112482245Y-43489866D01*
X112456215Y-43515896D01*
X112431493Y-43543172D01*
X112408140Y-43571628D01*
X112386211Y-43601196D01*
X112365760Y-43631804D01*
X112346835Y-43663378D01*
X112329482Y-43695843D01*
X112313743Y-43729121D01*
X112299655Y-43763130D01*
X112287254Y-43797790D01*
X112276568Y-43833017D01*
X112267623Y-43868726D01*
X112260442Y-43904830D01*
X112255040Y-43941244D01*
X112251432Y-43977878D01*
X112249626Y-44014646D01*
X112249626Y-44051458D01*
X111499400Y-44051458D01*
X111499400Y-42533052D01*
X114499400Y-42533052D01*
G37*
G36*
X74109747Y-42537013D02*
G01*
X74183016Y-42544229D01*
X74255843Y-42555032D01*
X74328052Y-42569395D01*
X74399469Y-42587284D01*
X74469923Y-42608656D01*
X74539243Y-42633459D01*
X74607262Y-42661634D01*
X74673817Y-42693112D01*
X74738747Y-42727818D01*
X74801896Y-42765668D01*
X74863112Y-42806571D01*
X74922247Y-42850429D01*
X74979159Y-42897135D01*
X75033711Y-42946578D01*
X75085771Y-42998637D01*
X75135213Y-43053189D01*
X75181920Y-43110101D01*
X75225777Y-43169236D01*
X75266680Y-43230452D01*
X75304530Y-43293601D01*
X75339236Y-43358531D01*
X75370715Y-43425086D01*
X75398889Y-43493106D01*
X75423692Y-43562426D01*
X75445064Y-43632879D01*
X75462953Y-43704296D01*
X75477316Y-43776505D01*
X75488119Y-43849332D01*
X75495336Y-43922601D01*
X75498948Y-43996136D01*
X75498948Y-44069760D01*
X75495336Y-44143295D01*
X75488119Y-44216564D01*
X75477316Y-44289391D01*
X75462953Y-44361600D01*
X75445064Y-44433017D01*
X75423692Y-44503471D01*
X75398889Y-44572791D01*
X75370715Y-44640810D01*
X75339236Y-44707365D01*
X75304530Y-44772296D01*
X75266680Y-44835445D01*
X75225777Y-44896661D01*
X75181920Y-44955796D01*
X75135213Y-45012708D01*
X75085771Y-45067259D01*
X75033711Y-45119319D01*
X74979159Y-45168762D01*
X74922247Y-45215468D01*
X74863112Y-45259325D01*
X74801896Y-45300229D01*
X74738747Y-45338079D01*
X74673817Y-45372785D01*
X74607262Y-45404263D01*
X74539243Y-45432437D01*
X74469923Y-45457241D01*
X74399469Y-45478612D01*
X74328052Y-45496501D01*
X74255843Y-45510865D01*
X74183016Y-45521668D01*
X74109747Y-45528884D01*
X74036212Y-45532496D01*
X73962588Y-45532496D01*
X73889053Y-45528884D01*
X73815784Y-45521668D01*
X73742957Y-45510865D01*
X73670748Y-45496501D01*
X73599331Y-45478612D01*
X73528877Y-45457241D01*
X73459557Y-45432437D01*
X73391538Y-45404263D01*
X73324983Y-45372785D01*
X73260053Y-45338079D01*
X73196904Y-45300229D01*
X73135688Y-45259325D01*
X73076553Y-45215468D01*
X73019641Y-45168762D01*
X72965089Y-45119319D01*
X72913029Y-45067259D01*
X72863587Y-45012708D01*
X72816880Y-44955796D01*
X72773023Y-44896661D01*
X72732120Y-44835445D01*
X72694270Y-44772296D01*
X72659564Y-44707365D01*
X72628085Y-44640810D01*
X72599911Y-44572791D01*
X72575108Y-44503471D01*
X72553736Y-44433017D01*
X72535847Y-44361600D01*
X72521484Y-44289391D01*
X72510681Y-44216564D01*
X72503464Y-44143295D01*
X72499852Y-44069760D01*
X72499852Y-44051354D01*
X73249626Y-44051354D01*
X73251432Y-44088122D01*
X73255040Y-44124756D01*
X73260442Y-44161170D01*
X73267623Y-44197274D01*
X73276568Y-44232983D01*
X73287254Y-44268210D01*
X73299655Y-44302870D01*
X73313743Y-44336879D01*
X73329482Y-44370157D01*
X73346835Y-44402622D01*
X73365760Y-44434196D01*
X73386211Y-44464804D01*
X73408140Y-44494372D01*
X73431493Y-44522828D01*
X73456215Y-44550104D01*
X73482245Y-44576134D01*
X73509520Y-44600855D01*
X73537976Y-44624208D01*
X73567544Y-44646137D01*
X73598152Y-44666588D01*
X73629726Y-44685513D01*
X73662192Y-44702866D01*
X73695469Y-44718606D01*
X73729479Y-44732693D01*
X73764139Y-44745094D01*
X73799365Y-44755780D01*
X73835074Y-44764725D01*
X73871179Y-44771906D01*
X73907592Y-44777308D01*
X73944227Y-44780916D01*
X73980994Y-44782722D01*
X74017806Y-44782722D01*
X74054573Y-44780916D01*
X74091208Y-44777308D01*
X74127621Y-44771906D01*
X74163726Y-44764725D01*
X74199435Y-44755780D01*
X74234661Y-44745094D01*
X74269321Y-44732693D01*
X74303331Y-44718606D01*
X74336608Y-44702866D01*
X74369074Y-44685513D01*
X74400648Y-44666588D01*
X74431256Y-44646137D01*
X74460824Y-44624208D01*
X74489280Y-44600855D01*
X74516555Y-44576134D01*
X74542585Y-44550104D01*
X74567307Y-44522828D01*
X74590660Y-44494372D01*
X74612589Y-44464804D01*
X74633040Y-44434196D01*
X74651965Y-44402622D01*
X74669318Y-44370157D01*
X74685057Y-44336879D01*
X74699145Y-44302870D01*
X74711546Y-44268210D01*
X74722232Y-44232983D01*
X74731177Y-44197274D01*
X74738358Y-44161170D01*
X74743760Y-44124756D01*
X74747368Y-44088122D01*
X74749174Y-44051354D01*
X74749174Y-44014542D01*
X74747368Y-43977775D01*
X74743760Y-43941140D01*
X74738358Y-43904727D01*
X74731177Y-43868622D01*
X74722232Y-43832914D01*
X74711546Y-43797687D01*
X74699145Y-43763027D01*
X74685057Y-43729017D01*
X74669318Y-43695740D01*
X74651965Y-43663275D01*
X74633040Y-43631700D01*
X74612589Y-43601092D01*
X74590660Y-43571525D01*
X74567307Y-43543069D01*
X74542585Y-43515793D01*
X74516555Y-43489763D01*
X74489280Y-43465042D01*
X74460824Y-43441688D01*
X74431256Y-43419760D01*
X74400648Y-43399308D01*
X74369074Y-43380383D01*
X74336608Y-43363030D01*
X74303331Y-43347291D01*
X74269321Y-43333204D01*
X74234661Y-43320802D01*
X74199435Y-43310116D01*
X74163726Y-43301172D01*
X74127621Y-43293990D01*
X74091208Y-43288589D01*
X74054573Y-43284980D01*
X74017806Y-43283174D01*
X73980994Y-43283174D01*
X73944227Y-43284980D01*
X73907592Y-43288589D01*
X73871179Y-43293990D01*
X73835074Y-43301172D01*
X73799365Y-43310116D01*
X73764139Y-43320802D01*
X73729479Y-43333204D01*
X73695469Y-43347291D01*
X73662192Y-43363030D01*
X73629726Y-43380383D01*
X73598152Y-43399308D01*
X73567544Y-43419760D01*
X73537976Y-43441688D01*
X73509520Y-43465042D01*
X73482245Y-43489763D01*
X73456215Y-43515793D01*
X73431493Y-43543069D01*
X73408140Y-43571525D01*
X73386211Y-43601092D01*
X73365760Y-43631700D01*
X73346835Y-43663275D01*
X73329482Y-43695740D01*
X73313743Y-43729017D01*
X73299655Y-43763027D01*
X73287254Y-43797687D01*
X73276568Y-43832914D01*
X73267623Y-43868622D01*
X73260442Y-43904727D01*
X73255040Y-43941140D01*
X73251432Y-43977775D01*
X73249626Y-44014542D01*
X73249626Y-44051354D01*
X72499852Y-44051354D01*
X72499852Y-43996136D01*
X72503464Y-43922601D01*
X72510681Y-43849332D01*
X72521484Y-43776505D01*
X72535847Y-43704296D01*
X72553736Y-43632879D01*
X72575108Y-43562426D01*
X72599911Y-43493106D01*
X72628085Y-43425086D01*
X72659564Y-43358531D01*
X72694270Y-43293601D01*
X72732120Y-43230452D01*
X72773023Y-43169236D01*
X72816880Y-43110101D01*
X72863587Y-43053189D01*
X72913029Y-42998637D01*
X72965089Y-42946578D01*
X73019641Y-42897135D01*
X73076553Y-42850429D01*
X73135688Y-42806571D01*
X73196904Y-42765668D01*
X73260053Y-42727818D01*
X73324983Y-42693112D01*
X73391538Y-42661634D01*
X73459557Y-42633459D01*
X73528877Y-42608656D01*
X73599331Y-42587284D01*
X73670748Y-42569395D01*
X73742957Y-42555032D01*
X73815784Y-42544229D01*
X73889053Y-42537013D01*
X73962588Y-42533400D01*
X74036212Y-42533400D01*
X74109747Y-42537013D01*
G37*
G36*
X30513500Y-42533100D02*
G01*
X30513500Y-45533100D01*
X27513500Y-45533100D01*
X27513500Y-44051506D01*
X28263726Y-44051506D01*
X28265532Y-44088273D01*
X28269140Y-44124908D01*
X28274542Y-44161321D01*
X28281723Y-44197426D01*
X28290668Y-44233135D01*
X28301354Y-44268361D01*
X28313755Y-44303021D01*
X28327843Y-44337031D01*
X28343582Y-44370308D01*
X28360935Y-44402774D01*
X28379860Y-44434348D01*
X28400311Y-44464956D01*
X28422240Y-44494524D01*
X28445593Y-44522980D01*
X28470315Y-44550255D01*
X28496345Y-44576285D01*
X28523620Y-44601007D01*
X28552076Y-44624360D01*
X28581644Y-44646289D01*
X28612252Y-44666740D01*
X28643826Y-44685665D01*
X28676292Y-44703018D01*
X28709569Y-44718757D01*
X28743579Y-44732845D01*
X28778239Y-44745246D01*
X28813465Y-44755932D01*
X28849174Y-44764877D01*
X28885279Y-44772058D01*
X28921692Y-44777460D01*
X28958327Y-44781068D01*
X28995094Y-44782874D01*
X29031906Y-44782874D01*
X29068673Y-44781068D01*
X29105308Y-44777460D01*
X29141721Y-44772058D01*
X29177826Y-44764877D01*
X29213535Y-44755932D01*
X29248761Y-44745246D01*
X29283421Y-44732845D01*
X29317431Y-44718757D01*
X29350708Y-44703018D01*
X29383174Y-44685665D01*
X29414748Y-44666740D01*
X29445356Y-44646289D01*
X29474924Y-44624360D01*
X29503380Y-44601007D01*
X29530655Y-44576285D01*
X29556685Y-44550255D01*
X29581407Y-44522980D01*
X29604760Y-44494524D01*
X29626689Y-44464956D01*
X29647140Y-44434348D01*
X29666065Y-44402774D01*
X29683418Y-44370308D01*
X29699157Y-44337031D01*
X29713245Y-44303021D01*
X29725646Y-44268361D01*
X29736332Y-44233135D01*
X29745277Y-44197426D01*
X29752458Y-44161321D01*
X29757860Y-44124908D01*
X29761468Y-44088273D01*
X29763274Y-44051506D01*
X29763274Y-44014694D01*
X29761468Y-43977927D01*
X29757860Y-43941292D01*
X29752458Y-43904879D01*
X29745277Y-43868774D01*
X29736332Y-43833065D01*
X29725646Y-43797839D01*
X29713245Y-43763179D01*
X29699157Y-43729169D01*
X29683418Y-43695892D01*
X29666065Y-43663426D01*
X29647140Y-43631852D01*
X29626689Y-43601244D01*
X29604760Y-43571676D01*
X29581407Y-43543220D01*
X29556685Y-43515945D01*
X29530655Y-43489915D01*
X29503380Y-43465193D01*
X29474924Y-43441840D01*
X29445356Y-43419911D01*
X29414748Y-43399460D01*
X29383174Y-43380535D01*
X29350708Y-43363182D01*
X29317431Y-43347443D01*
X29283421Y-43333355D01*
X29248761Y-43320954D01*
X29213535Y-43310268D01*
X29177826Y-43301323D01*
X29141721Y-43294142D01*
X29105308Y-43288740D01*
X29068673Y-43285132D01*
X29031906Y-43283326D01*
X28995094Y-43283326D01*
X28958327Y-43285132D01*
X28921692Y-43288740D01*
X28885279Y-43294142D01*
X28849174Y-43301323D01*
X28813465Y-43310268D01*
X28778239Y-43320954D01*
X28743579Y-43333355D01*
X28709569Y-43347443D01*
X28676292Y-43363182D01*
X28643826Y-43380535D01*
X28612252Y-43399460D01*
X28581644Y-43419911D01*
X28552076Y-43441840D01*
X28523620Y-43465193D01*
X28496345Y-43489915D01*
X28470315Y-43515945D01*
X28445593Y-43543220D01*
X28422240Y-43571676D01*
X28400311Y-43601244D01*
X28379860Y-43631852D01*
X28360935Y-43663426D01*
X28343582Y-43695892D01*
X28327843Y-43729169D01*
X28313755Y-43763179D01*
X28301354Y-43797839D01*
X28290668Y-43833065D01*
X28281723Y-43868774D01*
X28274542Y-43904879D01*
X28269140Y-43941292D01*
X28265532Y-43977927D01*
X28263726Y-44014694D01*
X28263726Y-44051506D01*
X27513500Y-44051506D01*
X27513500Y-42533100D01*
X30513500Y-42533100D01*
G37*
G36*
X68123847Y-42537164D02*
G01*
X68197116Y-42544381D01*
X68269943Y-42555184D01*
X68342152Y-42569547D01*
X68413569Y-42587436D01*
X68484023Y-42608808D01*
X68553343Y-42633611D01*
X68621362Y-42661785D01*
X68687917Y-42693264D01*
X68752847Y-42727970D01*
X68815996Y-42765820D01*
X68877212Y-42806723D01*
X68936347Y-42850580D01*
X68993259Y-42897287D01*
X69047811Y-42946729D01*
X69099871Y-42998789D01*
X69149313Y-43053341D01*
X69196020Y-43110253D01*
X69239877Y-43169388D01*
X69280780Y-43230604D01*
X69318630Y-43293753D01*
X69353336Y-43358683D01*
X69384815Y-43425238D01*
X69412989Y-43493257D01*
X69437792Y-43562577D01*
X69459164Y-43633031D01*
X69477053Y-43704448D01*
X69491416Y-43776657D01*
X69502219Y-43849484D01*
X69509436Y-43922753D01*
X69513048Y-43996288D01*
X69513048Y-44069912D01*
X69509436Y-44143447D01*
X69502219Y-44216716D01*
X69491416Y-44289543D01*
X69477053Y-44361752D01*
X69459164Y-44433169D01*
X69437792Y-44503623D01*
X69412989Y-44572943D01*
X69384815Y-44640962D01*
X69353336Y-44707517D01*
X69318630Y-44772447D01*
X69280780Y-44835596D01*
X69239877Y-44896812D01*
X69196020Y-44955947D01*
X69149313Y-45012859D01*
X69099871Y-45067411D01*
X69047811Y-45119471D01*
X68993259Y-45168913D01*
X68936347Y-45215620D01*
X68877212Y-45259477D01*
X68815996Y-45300380D01*
X68752847Y-45338230D01*
X68687917Y-45372936D01*
X68621362Y-45404415D01*
X68553343Y-45432589D01*
X68484023Y-45457392D01*
X68413569Y-45478764D01*
X68342152Y-45496653D01*
X68269943Y-45511016D01*
X68197116Y-45521819D01*
X68123847Y-45529036D01*
X68050312Y-45532648D01*
X67976688Y-45532648D01*
X67903153Y-45529036D01*
X67829884Y-45521819D01*
X67757057Y-45511016D01*
X67684848Y-45496653D01*
X67613431Y-45478764D01*
X67542977Y-45457392D01*
X67473657Y-45432589D01*
X67405638Y-45404415D01*
X67339083Y-45372936D01*
X67274153Y-45338230D01*
X67211004Y-45300380D01*
X67149788Y-45259477D01*
X67090653Y-45215620D01*
X67033741Y-45168913D01*
X66979189Y-45119471D01*
X66927129Y-45067411D01*
X66877687Y-45012859D01*
X66830980Y-44955947D01*
X66787123Y-44896812D01*
X66746220Y-44835596D01*
X66708370Y-44772447D01*
X66673664Y-44707517D01*
X66642185Y-44640962D01*
X66614011Y-44572943D01*
X66589208Y-44503623D01*
X66567836Y-44433169D01*
X66549947Y-44361752D01*
X66535584Y-44289543D01*
X66524781Y-44216716D01*
X66517564Y-44143447D01*
X66513952Y-44069912D01*
X66513952Y-44051506D01*
X67263726Y-44051506D01*
X67265532Y-44088273D01*
X67269140Y-44124908D01*
X67274542Y-44161321D01*
X67281723Y-44197426D01*
X67290668Y-44233135D01*
X67301354Y-44268361D01*
X67313755Y-44303021D01*
X67327843Y-44337031D01*
X67343582Y-44370308D01*
X67360935Y-44402774D01*
X67379860Y-44434348D01*
X67400311Y-44464956D01*
X67422240Y-44494524D01*
X67445593Y-44522980D01*
X67470315Y-44550255D01*
X67496345Y-44576285D01*
X67523620Y-44601007D01*
X67552076Y-44624360D01*
X67581644Y-44646289D01*
X67612252Y-44666740D01*
X67643826Y-44685665D01*
X67676292Y-44703018D01*
X67709569Y-44718757D01*
X67743579Y-44732845D01*
X67778239Y-44745246D01*
X67813465Y-44755932D01*
X67849174Y-44764877D01*
X67885279Y-44772058D01*
X67921692Y-44777460D01*
X67958327Y-44781068D01*
X67995094Y-44782874D01*
X68031906Y-44782874D01*
X68068673Y-44781068D01*
X68105308Y-44777460D01*
X68141721Y-44772058D01*
X68177826Y-44764877D01*
X68213535Y-44755932D01*
X68248761Y-44745246D01*
X68283421Y-44732845D01*
X68317431Y-44718757D01*
X68350708Y-44703018D01*
X68383174Y-44685665D01*
X68414748Y-44666740D01*
X68445356Y-44646289D01*
X68474924Y-44624360D01*
X68503380Y-44601007D01*
X68530655Y-44576285D01*
X68556685Y-44550255D01*
X68581407Y-44522980D01*
X68604760Y-44494524D01*
X68626689Y-44464956D01*
X68647140Y-44434348D01*
X68666065Y-44402774D01*
X68683418Y-44370308D01*
X68699157Y-44337031D01*
X68713245Y-44303021D01*
X68725646Y-44268361D01*
X68736332Y-44233135D01*
X68745277Y-44197426D01*
X68752458Y-44161321D01*
X68757860Y-44124908D01*
X68761468Y-44088273D01*
X68763274Y-44051506D01*
X68763274Y-44014694D01*
X68761468Y-43977927D01*
X68757860Y-43941292D01*
X68752458Y-43904879D01*
X68745277Y-43868774D01*
X68736332Y-43833065D01*
X68725646Y-43797839D01*
X68713245Y-43763179D01*
X68699157Y-43729169D01*
X68683418Y-43695892D01*
X68666065Y-43663426D01*
X68647140Y-43631852D01*
X68626689Y-43601244D01*
X68604760Y-43571676D01*
X68581407Y-43543220D01*
X68556685Y-43515945D01*
X68530655Y-43489915D01*
X68503380Y-43465193D01*
X68474924Y-43441840D01*
X68445356Y-43419911D01*
X68414748Y-43399460D01*
X68383174Y-43380535D01*
X68350708Y-43363182D01*
X68317431Y-43347443D01*
X68283421Y-43333355D01*
X68248761Y-43320954D01*
X68213535Y-43310268D01*
X68177826Y-43301323D01*
X68141721Y-43294142D01*
X68105308Y-43288740D01*
X68068673Y-43285132D01*
X68031906Y-43283326D01*
X67995094Y-43283326D01*
X67958327Y-43285132D01*
X67921692Y-43288740D01*
X67885279Y-43294142D01*
X67849174Y-43301323D01*
X67813465Y-43310268D01*
X67778239Y-43320954D01*
X67743579Y-43333355D01*
X67709569Y-43347443D01*
X67676292Y-43363182D01*
X67643826Y-43380535D01*
X67612252Y-43399460D01*
X67581644Y-43419911D01*
X67552076Y-43441840D01*
X67523620Y-43465193D01*
X67496345Y-43489915D01*
X67470315Y-43515945D01*
X67445593Y-43543220D01*
X67422240Y-43571676D01*
X67400311Y-43601244D01*
X67379860Y-43631852D01*
X67360935Y-43663426D01*
X67343582Y-43695892D01*
X67327843Y-43729169D01*
X67313755Y-43763179D01*
X67301354Y-43797839D01*
X67290668Y-43833065D01*
X67281723Y-43868774D01*
X67274542Y-43904879D01*
X67269140Y-43941292D01*
X67265532Y-43977927D01*
X67263726Y-44014694D01*
X67263726Y-44051506D01*
X66513952Y-44051506D01*
X66513952Y-43996288D01*
X66517564Y-43922753D01*
X66524781Y-43849484D01*
X66535584Y-43776657D01*
X66549947Y-43704448D01*
X66567836Y-43633031D01*
X66589208Y-43562577D01*
X66614011Y-43493257D01*
X66642185Y-43425238D01*
X66673664Y-43358683D01*
X66708370Y-43293753D01*
X66746220Y-43230604D01*
X66787123Y-43169388D01*
X66830980Y-43110253D01*
X66877687Y-43053341D01*
X66927129Y-42998789D01*
X66979189Y-42946729D01*
X67033741Y-42897287D01*
X67090653Y-42850580D01*
X67149788Y-42806723D01*
X67211004Y-42765820D01*
X67274153Y-42727970D01*
X67339083Y-42693264D01*
X67405638Y-42661785D01*
X67473657Y-42633611D01*
X67542977Y-42608808D01*
X67613431Y-42587436D01*
X67684848Y-42569547D01*
X67757057Y-42555184D01*
X67829884Y-42544381D01*
X67903153Y-42537164D01*
X67976688Y-42533552D01*
X68050312Y-42533552D01*
X68123847Y-42537164D01*
G37*
G36*
X69513500Y-27517752D02*
G01*
X69513500Y-30517752D01*
X66513500Y-30517752D01*
X66513500Y-29036158D01*
X67263726Y-29036158D01*
X67265532Y-29072925D01*
X67269140Y-29109560D01*
X67274542Y-29145973D01*
X67281723Y-29182078D01*
X67290668Y-29217786D01*
X67301354Y-29253013D01*
X67313755Y-29287673D01*
X67327843Y-29321683D01*
X67343582Y-29354960D01*
X67360935Y-29387425D01*
X67379860Y-29419000D01*
X67400311Y-29449608D01*
X67422240Y-29479175D01*
X67445593Y-29507631D01*
X67470315Y-29534907D01*
X67496345Y-29560937D01*
X67523620Y-29585658D01*
X67552076Y-29609012D01*
X67581644Y-29630940D01*
X67612252Y-29651392D01*
X67643826Y-29670317D01*
X67676292Y-29687670D01*
X67709569Y-29703409D01*
X67743579Y-29717496D01*
X67778239Y-29729898D01*
X67813465Y-29740584D01*
X67849174Y-29749528D01*
X67885279Y-29756710D01*
X67921692Y-29762111D01*
X67958327Y-29765720D01*
X67995094Y-29767526D01*
X68031906Y-29767526D01*
X68068673Y-29765720D01*
X68105308Y-29762111D01*
X68141721Y-29756710D01*
X68177826Y-29749528D01*
X68213535Y-29740584D01*
X68248761Y-29729898D01*
X68283421Y-29717496D01*
X68317431Y-29703409D01*
X68350708Y-29687670D01*
X68383174Y-29670317D01*
X68414748Y-29651392D01*
X68445356Y-29630940D01*
X68474924Y-29609012D01*
X68503380Y-29585658D01*
X68530655Y-29560937D01*
X68556685Y-29534907D01*
X68581407Y-29507631D01*
X68604760Y-29479175D01*
X68626689Y-29449608D01*
X68647140Y-29419000D01*
X68666065Y-29387425D01*
X68683418Y-29354960D01*
X68699157Y-29321683D01*
X68713245Y-29287673D01*
X68725646Y-29253013D01*
X68736332Y-29217786D01*
X68745277Y-29182078D01*
X68752458Y-29145973D01*
X68757860Y-29109560D01*
X68761468Y-29072925D01*
X68763274Y-29036158D01*
X68763274Y-28999346D01*
X68761468Y-28962578D01*
X68757860Y-28925944D01*
X68752458Y-28889530D01*
X68745277Y-28853426D01*
X68736332Y-28817717D01*
X68725646Y-28782490D01*
X68713245Y-28747830D01*
X68709454Y-28738680D01*
X68699157Y-28713821D01*
X68683418Y-28680543D01*
X68666065Y-28648078D01*
X68647140Y-28616504D01*
X68626689Y-28585896D01*
X68604760Y-28556328D01*
X68581407Y-28527872D01*
X68556685Y-28500596D01*
X68530655Y-28474566D01*
X68503380Y-28449845D01*
X68474924Y-28426492D01*
X68445356Y-28404563D01*
X68414748Y-28384112D01*
X68383174Y-28365187D01*
X68350708Y-28347834D01*
X68317431Y-28332094D01*
X68283421Y-28318007D01*
X68248761Y-28305606D01*
X68213535Y-28294920D01*
X68177826Y-28285975D01*
X68141721Y-28278794D01*
X68105308Y-28273392D01*
X68068673Y-28269784D01*
X68031906Y-28267978D01*
X67995094Y-28267978D01*
X67958327Y-28269784D01*
X67921692Y-28273392D01*
X67885279Y-28278794D01*
X67849174Y-28285975D01*
X67813465Y-28294920D01*
X67778239Y-28305606D01*
X67743579Y-28318007D01*
X67709569Y-28332094D01*
X67676292Y-28347834D01*
X67643826Y-28365187D01*
X67612252Y-28384112D01*
X67581644Y-28404563D01*
X67552076Y-28426492D01*
X67523620Y-28449845D01*
X67496345Y-28474566D01*
X67470315Y-28500596D01*
X67445593Y-28527872D01*
X67422240Y-28556328D01*
X67400311Y-28585896D01*
X67379860Y-28616504D01*
X67360935Y-28648078D01*
X67343582Y-28680543D01*
X67327843Y-28713821D01*
X67313755Y-28747830D01*
X67301354Y-28782490D01*
X67290668Y-28817717D01*
X67281723Y-28853426D01*
X67274542Y-28889530D01*
X67269140Y-28925944D01*
X67265532Y-28962578D01*
X67263726Y-28999346D01*
X67263726Y-29036158D01*
X66513500Y-29036158D01*
X66513500Y-27517752D01*
X69513500Y-27517752D01*
G37*
G36*
X29123847Y-27521713D02*
G01*
X29197116Y-27528929D01*
X29269943Y-27539732D01*
X29342152Y-27554095D01*
X29413569Y-27571984D01*
X29484023Y-27593356D01*
X29553343Y-27618159D01*
X29621362Y-27646334D01*
X29687917Y-27677812D01*
X29752847Y-27712518D01*
X29815996Y-27750368D01*
X29877212Y-27791271D01*
X29936347Y-27835129D01*
X29993259Y-27881835D01*
X30047811Y-27931278D01*
X30099871Y-27983337D01*
X30149313Y-28037889D01*
X30196020Y-28094801D01*
X30239877Y-28153936D01*
X30280780Y-28215152D01*
X30318630Y-28278301D01*
X30353336Y-28343231D01*
X30384815Y-28409786D01*
X30412989Y-28477806D01*
X30437792Y-28547126D01*
X30459164Y-28617579D01*
X30477053Y-28688996D01*
X30491416Y-28761205D01*
X30502219Y-28834032D01*
X30509436Y-28907301D01*
X30513048Y-28980836D01*
X30513048Y-29054460D01*
X30509436Y-29127995D01*
X30502219Y-29201264D01*
X30491416Y-29274091D01*
X30477053Y-29346300D01*
X30459164Y-29417717D01*
X30437792Y-29488171D01*
X30412989Y-29557491D01*
X30384815Y-29625510D01*
X30353336Y-29692065D01*
X30318630Y-29756996D01*
X30280780Y-29820145D01*
X30239877Y-29881361D01*
X30196020Y-29940496D01*
X30149313Y-29997408D01*
X30099871Y-30051959D01*
X30047811Y-30104019D01*
X29993259Y-30153462D01*
X29936347Y-30200168D01*
X29877212Y-30244025D01*
X29815996Y-30284929D01*
X29752847Y-30322779D01*
X29687917Y-30357485D01*
X29621362Y-30388963D01*
X29553343Y-30417137D01*
X29484023Y-30441941D01*
X29413569Y-30463312D01*
X29342152Y-30481201D01*
X29269943Y-30495565D01*
X29197116Y-30506368D01*
X29123847Y-30513584D01*
X29050312Y-30517196D01*
X28976688Y-30517196D01*
X28903153Y-30513584D01*
X28829884Y-30506368D01*
X28757057Y-30495565D01*
X28684848Y-30481201D01*
X28613431Y-30463312D01*
X28542977Y-30441941D01*
X28473657Y-30417137D01*
X28405638Y-30388963D01*
X28339083Y-30357485D01*
X28274153Y-30322779D01*
X28211004Y-30284929D01*
X28149788Y-30244025D01*
X28090653Y-30200168D01*
X28033741Y-30153462D01*
X27979189Y-30104019D01*
X27927129Y-30051959D01*
X27877687Y-29997408D01*
X27830980Y-29940496D01*
X27787123Y-29881361D01*
X27746220Y-29820145D01*
X27708370Y-29756996D01*
X27673664Y-29692065D01*
X27642185Y-29625510D01*
X27614011Y-29557491D01*
X27589208Y-29488171D01*
X27567836Y-29417717D01*
X27549947Y-29346300D01*
X27535584Y-29274091D01*
X27524781Y-29201264D01*
X27517564Y-29127995D01*
X27513952Y-29054460D01*
X27513952Y-29036054D01*
X28263726Y-29036054D01*
X28265532Y-29072822D01*
X28269140Y-29109456D01*
X28274542Y-29145870D01*
X28281723Y-29181974D01*
X28290668Y-29217683D01*
X28301354Y-29252910D01*
X28313755Y-29287570D01*
X28327843Y-29321579D01*
X28343582Y-29354857D01*
X28360935Y-29387322D01*
X28379860Y-29418896D01*
X28400311Y-29449504D01*
X28422240Y-29479072D01*
X28445593Y-29507528D01*
X28470315Y-29534804D01*
X28496345Y-29560834D01*
X28523620Y-29585555D01*
X28552076Y-29608908D01*
X28581644Y-29630837D01*
X28612252Y-29651288D01*
X28643826Y-29670213D01*
X28676292Y-29687566D01*
X28709569Y-29703306D01*
X28743579Y-29717393D01*
X28778239Y-29729794D01*
X28813465Y-29740480D01*
X28849174Y-29749425D01*
X28885279Y-29756606D01*
X28921692Y-29762008D01*
X28958327Y-29765616D01*
X28995094Y-29767422D01*
X29031906Y-29767422D01*
X29068673Y-29765616D01*
X29105308Y-29762008D01*
X29141721Y-29756606D01*
X29177826Y-29749425D01*
X29213535Y-29740480D01*
X29248761Y-29729794D01*
X29283421Y-29717393D01*
X29317431Y-29703306D01*
X29350708Y-29687566D01*
X29383174Y-29670213D01*
X29414748Y-29651288D01*
X29445356Y-29630837D01*
X29474924Y-29608908D01*
X29503380Y-29585555D01*
X29530655Y-29560834D01*
X29556685Y-29534804D01*
X29581407Y-29507528D01*
X29604760Y-29479072D01*
X29626689Y-29449504D01*
X29647140Y-29418896D01*
X29666065Y-29387322D01*
X29683418Y-29354857D01*
X29699157Y-29321579D01*
X29713245Y-29287570D01*
X29725646Y-29252910D01*
X29736332Y-29217683D01*
X29745277Y-29181974D01*
X29752458Y-29145870D01*
X29757860Y-29109456D01*
X29761468Y-29072822D01*
X29763274Y-29036054D01*
X29763274Y-28999242D01*
X29761468Y-28962475D01*
X29757860Y-28925840D01*
X29752458Y-28889427D01*
X29745277Y-28853322D01*
X29736332Y-28817614D01*
X29725646Y-28782387D01*
X29713245Y-28747727D01*
X29699157Y-28713717D01*
X29683418Y-28680440D01*
X29666065Y-28647975D01*
X29647140Y-28616400D01*
X29626689Y-28585792D01*
X29604760Y-28556225D01*
X29581407Y-28527769D01*
X29556685Y-28500493D01*
X29530655Y-28474463D01*
X29503380Y-28449742D01*
X29474924Y-28426388D01*
X29445356Y-28404460D01*
X29414748Y-28384008D01*
X29383174Y-28365083D01*
X29350708Y-28347730D01*
X29317431Y-28331991D01*
X29283421Y-28317904D01*
X29248761Y-28305502D01*
X29213535Y-28294816D01*
X29177826Y-28285872D01*
X29141721Y-28278690D01*
X29105308Y-28273289D01*
X29068673Y-28269680D01*
X29031906Y-28267874D01*
X28995094Y-28267874D01*
X28958327Y-28269680D01*
X28921692Y-28273289D01*
X28885279Y-28278690D01*
X28849174Y-28285872D01*
X28813465Y-28294816D01*
X28778239Y-28305502D01*
X28743579Y-28317904D01*
X28709569Y-28331991D01*
X28676292Y-28347730D01*
X28643826Y-28365083D01*
X28612252Y-28384008D01*
X28581644Y-28404460D01*
X28552076Y-28426388D01*
X28523620Y-28449742D01*
X28496345Y-28474463D01*
X28470315Y-28500493D01*
X28445593Y-28527769D01*
X28422240Y-28556225D01*
X28400311Y-28585792D01*
X28379860Y-28616400D01*
X28360935Y-28647975D01*
X28343582Y-28680440D01*
X28327843Y-28713717D01*
X28313755Y-28747727D01*
X28301354Y-28782387D01*
X28290668Y-28817614D01*
X28281723Y-28853322D01*
X28274542Y-28889427D01*
X28269140Y-28925840D01*
X28265532Y-28962475D01*
X28263726Y-28999242D01*
X28263726Y-29036054D01*
X27513952Y-29036054D01*
X27513952Y-28980836D01*
X27517564Y-28907301D01*
X27524781Y-28834032D01*
X27535584Y-28761205D01*
X27549947Y-28688996D01*
X27567836Y-28617579D01*
X27589208Y-28547126D01*
X27614011Y-28477806D01*
X27642185Y-28409786D01*
X27673664Y-28343231D01*
X27708370Y-28278301D01*
X27746220Y-28215152D01*
X27787123Y-28153936D01*
X27830980Y-28094801D01*
X27877687Y-28037889D01*
X27927129Y-27983337D01*
X27979189Y-27931278D01*
X28033741Y-27881835D01*
X28090653Y-27835129D01*
X28149788Y-27791271D01*
X28211004Y-27750368D01*
X28274153Y-27712518D01*
X28339083Y-27677812D01*
X28405638Y-27646334D01*
X28473657Y-27618159D01*
X28542977Y-27593356D01*
X28613431Y-27571984D01*
X28684848Y-27554095D01*
X28757057Y-27539732D01*
X28829884Y-27528929D01*
X28903153Y-27521713D01*
X28976688Y-27518100D01*
X29050312Y-27518100D01*
X29123847Y-27521713D01*
G37*
%TD*%
M02*
