M48
; DRILL file {KiCad 7.0.11-7.0.11~ubuntu20.04.1} date Tue Aug 20 14:11:11 2024
; FORMAT={-:-/ absolute / metric / decimal}
; #@! TF.CreationDate,2024-08-20T14:11:11+00:00
; #@! TF.GenerationSoftware,Kicad,Pcbnew,7.0.11-7.0.11~ubuntu20.04.1
; #@! TF.FileFunction,MixedPlating,1,4
FMAT,2
METRIC
; #@! TA.AperFunction,Plated,PTH,ComponentDrill
T1C0.300
; #@! TA.AperFunction,Plated,PTH,ComponentDrill
T2C1.500
%
G90
G05
T1
X38.6Y-24.4
X38.6Y-39.4
X38.6Y-54.4
X38.6Y-69.4
X38.6Y-84.4
X53.6Y-24.4
X53.6Y-39.4
X53.6Y-54.4
X53.6Y-69.4
X53.6Y-84.4
X68.6Y-24.4
X68.6Y-39.4
X68.6Y-54.4
X68.6Y-69.4
X68.6Y-84.4
X83.6Y-24.4
X83.6Y-39.4
X83.6Y-54.4
X83.6Y-69.4
X83.6Y-84.4
X98.6Y-24.4
X98.6Y-39.4
X98.6Y-54.4
X98.6Y-69.4
X98.6Y-84.4
X112.999Y-41.926
X113.6Y-24.4
X113.6Y-54.4
X113.6Y-69.4
X113.6Y-84.4
X128.6Y-39.4
X128.6Y-54.4
X128.6Y-69.4
X128.6Y-84.4
X131.441Y-29.4
X143.6Y-54.4
X143.6Y-69.4
X143.6Y-84.4
X158.6Y-24.4
X158.6Y-39.4
X158.6Y-54.4
X158.6Y-69.4
X158.6Y-84.4
T2
X29.013Y-29.018
X29.013Y-44.033
X68.013Y-29.018
X68.013Y-44.033
X73.999Y-29.018
X73.999Y-44.033
X112.999Y-29.018
X112.999Y-44.033
M30
