%TF.GenerationSoftware,Flux,Pcbnew,7.0.11-7.0.11~ubuntu20.04.1*%
%TF.CreationDate,2024-08-20T14:11:11+00:00*%
%TF.ProjectId,input,696e7075-742e-46b6-9963-61645f706362,rev?*%
%TF.SameCoordinates,Original*%
%TF.FileFunction,Paste,Top*%
%TF.FilePolarity,Positive*%
%FSLAX46Y46*%
G04 Gerber Fmt 4.6, Leading zero omitted, Abs format (unit mm)*
G04 Filename: known-fuchsia-translation-collar*
G04 Build it with Flux! Visit our site at: https://www.flux.ai (PCBNEW 7.0.11-7.0.11~ubuntu20.04.1) date 2024-08-20 14:11:11*
%MOMM*%
%LPD*%
G01*
G04 APERTURE LIST*
G04 Aperture macros list*
%AMFreePoly0*
4,1,5,1.250000,-1.250000,-1.250000,-1.250000,-1.250000,1.250000,1.250000,1.250000,1.250000,-1.250000,1.250000,-1.250000,$1*%
%AMFreePoly1*
4,1,101,0.838362,0.299687,0.847883,0.298749,0.857322,0.297191,0.866639,0.295018,0.875794,0.292241,0.884748,0.288871,0.893463,0.284923,0.901900,0.280413,0.910024,0.275361,0.917801,0.269788,0.925196,0.263719,0.932179,0.257179,0.938719,0.250196,0.944788,0.242801,0.950361,0.235024,0.955413,0.226900,0.959923,0.218463,0.963871,0.209748,0.967241,0.200794,0.970018,0.191639,
0.972191,0.182322,0.973749,0.172883,0.974687,0.163362,0.975000,0.153800,0.975000,-0.153800,0.974687,-0.163362,0.973749,-0.172883,0.972191,-0.182322,0.970018,-0.191639,0.967241,-0.200794,0.963871,-0.209748,0.959923,-0.218463,0.955413,-0.226900,0.950361,-0.235024,0.944788,-0.242801,0.938719,-0.250196,0.932179,-0.257179,0.925196,-0.263719,0.917801,-0.269788,0.910024,-0.275361,
0.901900,-0.280413,0.893463,-0.284923,0.884748,-0.288871,0.875794,-0.292241,0.866639,-0.295018,0.857322,-0.297191,0.847883,-0.298749,0.838362,-0.299687,0.828800,-0.300000,-0.828800,-0.300000,-0.838362,-0.299687,-0.847883,-0.298749,-0.857322,-0.297191,-0.866639,-0.295018,-0.875794,-0.292241,-0.884748,-0.288871,-0.893463,-0.284923,-0.901900,-0.280413,-0.910024,-0.275361,-0.917801,-0.269788,
-0.925196,-0.263719,-0.932179,-0.257179,-0.938719,-0.250196,-0.944788,-0.242801,-0.950361,-0.235024,-0.955413,-0.226900,-0.959923,-0.218463,-0.963871,-0.209748,-0.967241,-0.200794,-0.970018,-0.191639,-0.972191,-0.182322,-0.973749,-0.172883,-0.974687,-0.163362,-0.975000,-0.153800,-0.975000,0.153800,-0.974687,0.163362,-0.973749,0.172883,-0.972191,0.182322,-0.970018,0.191639,-0.967241,0.200794,
-0.963871,0.209748,-0.959923,0.218463,-0.955413,0.226900,-0.950361,0.235024,-0.944788,0.242801,-0.938719,0.250196,-0.932179,0.257179,-0.925196,0.263719,-0.917801,0.269788,-0.910024,0.275361,-0.901900,0.280413,-0.893463,0.284923,-0.884748,0.288871,-0.875794,0.292241,-0.866639,0.295018,-0.857322,0.297191,-0.847883,0.298749,-0.838362,0.299687,-0.828800,0.300000,0.828800,0.300000,
0.838362,0.299687,0.838362,0.299687,$1*%
%AMFreePoly2*
4,1,5,1.000000,-0.750000,-1.000000,-0.750000,-1.000000,0.750000,1.000000,0.750000,1.000000,-0.750000,1.000000,-0.750000,$1*%
%AMFreePoly3*
4,1,5,1.000000,-1.900000,-1.000000,-1.900000,-1.000000,1.900000,1.000000,1.900000,1.000000,-1.900000,1.000000,-1.900000,$1*%
%AMFreePoly4*
4,1,5,0.550000,-0.550000,-0.550000,-0.550000,-0.550000,0.550000,0.550000,0.550000,0.550000,-0.550000,0.550000,-0.550000,$1*%
%AMFreePoly5*
4,1,101,0.053270,0.404870,0.057223,0.404481,0.061142,0.403834,0.065010,0.402932,0.068811,0.401779,0.072529,0.400379,0.076147,0.398740,0.079650,0.396868,0.083023,0.394770,0.086252,0.392457,0.089322,0.389937,0.092221,0.387221,0.094937,0.384322,0.097457,0.381252,0.099770,0.378023,0.101868,0.374650,0.103740,0.371147,0.105379,0.367529,0.106779,0.363811,0.107932,0.360010,
0.108834,0.356142,0.109481,0.352223,0.109870,0.348270,0.110000,0.344300,0.110000,-0.344300,0.109870,-0.348270,0.109481,-0.352223,0.108834,-0.356142,0.107932,-0.360010,0.106779,-0.363811,0.105379,-0.367529,0.103740,-0.371147,0.101868,-0.374650,0.099770,-0.378023,0.097457,-0.381252,0.094937,-0.384322,0.092221,-0.387221,0.089322,-0.389937,0.086252,-0.392457,0.083023,-0.394770,
0.079650,-0.396868,0.076147,-0.398740,0.072529,-0.400379,0.068811,-0.401779,0.065010,-0.402932,0.061142,-0.403834,0.057223,-0.404481,0.053270,-0.404870,0.049300,-0.405000,-0.049300,-0.405000,-0.053270,-0.404870,-0.057223,-0.404481,-0.061142,-0.403834,-0.065010,-0.402932,-0.068811,-0.401779,-0.072529,-0.400379,-0.076147,-0.398740,-0.079650,-0.396868,-0.083023,-0.394770,-0.086252,-0.392457,
-0.089322,-0.389937,-0.092221,-0.387221,-0.094937,-0.384322,-0.097457,-0.381252,-0.099770,-0.378023,-0.101868,-0.374650,-0.103740,-0.371147,-0.105379,-0.367529,-0.106779,-0.363811,-0.107932,-0.360010,-0.108834,-0.356142,-0.109481,-0.352223,-0.109870,-0.348270,-0.110000,-0.344300,-0.110000,0.344300,-0.109870,0.348270,-0.109481,0.352223,-0.108834,0.356142,-0.107932,0.360010,-0.106779,0.363811,
-0.105379,0.367529,-0.103740,0.371147,-0.101868,0.374650,-0.099770,0.378023,-0.097457,0.381252,-0.094937,0.384322,-0.092221,0.387221,-0.089322,0.389937,-0.086252,0.392457,-0.083023,0.394770,-0.079650,0.396868,-0.076147,0.398740,-0.072529,0.400379,-0.068811,0.401779,-0.065010,0.402932,-0.061142,0.403834,-0.057223,0.404481,-0.053270,0.404870,-0.049300,0.405000,0.049300,0.405000,
0.053270,0.404870,0.053270,0.404870,$1*%
%AMFreePoly6*
4,1,101,0.348270,0.109870,0.352223,0.109481,0.356142,0.108834,0.360010,0.107932,0.363811,0.106779,0.367529,0.105379,0.371147,0.103740,0.374650,0.101868,0.378023,0.099770,0.381252,0.097457,0.384322,0.094937,0.387221,0.092221,0.389937,0.089322,0.392457,0.086252,0.394770,0.083023,0.396868,0.079650,0.398740,0.076147,0.400379,0.072529,0.401779,0.068811,0.402932,0.065010,
0.403834,0.061142,0.404481,0.057223,0.404870,0.053270,0.405000,0.049300,0.405000,-0.049300,0.404870,-0.053270,0.404481,-0.057223,0.403834,-0.061142,0.402932,-0.065010,0.401779,-0.068811,0.400379,-0.072529,0.398740,-0.076147,0.396868,-0.079650,0.394770,-0.083023,0.392457,-0.086252,0.389937,-0.089322,0.387221,-0.092221,0.384322,-0.094937,0.381252,-0.097457,0.378023,-0.099770,
0.374650,-0.101868,0.371147,-0.103740,0.367529,-0.105379,0.363811,-0.106779,0.360010,-0.107932,0.356142,-0.108834,0.352223,-0.109481,0.348270,-0.109870,0.344300,-0.110000,-0.344300,-0.110000,-0.348270,-0.109870,-0.352223,-0.109481,-0.356142,-0.108834,-0.360010,-0.107932,-0.363811,-0.106779,-0.367529,-0.105379,-0.371147,-0.103740,-0.374650,-0.101868,-0.378023,-0.099770,-0.381252,-0.097457,
-0.384322,-0.094937,-0.387221,-0.092221,-0.389937,-0.089322,-0.392457,-0.086252,-0.394770,-0.083023,-0.396868,-0.079650,-0.398740,-0.076147,-0.400379,-0.072529,-0.401779,-0.068811,-0.402932,-0.065010,-0.403834,-0.061142,-0.404481,-0.057223,-0.404870,-0.053270,-0.405000,-0.049300,-0.405000,0.049300,-0.404870,0.053270,-0.404481,0.057223,-0.403834,0.061142,-0.402932,0.065010,-0.401779,0.068811,
-0.400379,0.072529,-0.398740,0.076147,-0.396868,0.079650,-0.394770,0.083023,-0.392457,0.086252,-0.389937,0.089322,-0.387221,0.092221,-0.384322,0.094937,-0.381252,0.097457,-0.378023,0.099770,-0.374650,0.101868,-0.371147,0.103740,-0.367529,0.105379,-0.363811,0.106779,-0.360010,0.107932,-0.356142,0.108834,-0.352223,0.109481,-0.348270,0.109870,-0.344300,0.110000,0.344300,0.110000,
0.348270,0.109870,0.348270,0.109870,$1*%
%AMFreePoly7*
4,1,5,2.000000,-2.000000,-2.000000,-2.000000,-2.000000,2.000000,2.000000,2.000000,2.000000,-2.000000,2.000000,-2.000000,$1*%
%AMFreePoly8*
4,1,101,0.383457,0.474848,0.388093,0.474391,0.392690,0.473632,0.397228,0.472574,0.401686,0.471221,0.406047,0.469580,0.410291,0.467657,0.414400,0.465461,0.418357,0.463001,0.422144,0.460287,0.425745,0.457331,0.429146,0.454146,0.432331,0.450745,0.435287,0.447144,0.438001,0.443357,0.440461,0.439400,0.442657,0.435291,0.444580,0.431047,0.446221,0.426686,0.447574,0.422228,
0.448632,0.417690,0.449391,0.413093,0.449848,0.408457,0.450000,0.403800,0.450000,-0.403800,0.449848,-0.408457,0.449391,-0.413093,0.448632,-0.417690,0.447574,-0.422228,0.446221,-0.426686,0.444580,-0.431047,0.442657,-0.435291,0.440461,-0.439400,0.438001,-0.443357,0.435287,-0.447144,0.432331,-0.450745,0.429146,-0.454146,0.425745,-0.457331,0.422144,-0.460287,0.418357,-0.463001,
0.414400,-0.465461,0.410291,-0.467657,0.406047,-0.469580,0.401686,-0.471221,0.397228,-0.472574,0.392690,-0.473632,0.388093,-0.474391,0.383457,-0.474848,0.378800,-0.475000,-0.378800,-0.475000,-0.383457,-0.474848,-0.388093,-0.474391,-0.392690,-0.473632,-0.397228,-0.472574,-0.401686,-0.471221,-0.406047,-0.469580,-0.410291,-0.467657,-0.414400,-0.465461,-0.418357,-0.463001,-0.422144,-0.460287,
-0.425745,-0.457331,-0.429146,-0.454146,-0.432331,-0.450745,-0.435287,-0.447144,-0.438001,-0.443357,-0.440461,-0.439400,-0.442657,-0.435291,-0.444580,-0.431047,-0.446221,-0.426686,-0.447574,-0.422228,-0.448632,-0.417690,-0.449391,-0.413093,-0.449848,-0.408457,-0.450000,-0.403800,-0.450000,0.403800,-0.449848,0.408457,-0.449391,0.413093,-0.448632,0.417690,-0.447574,0.422228,-0.446221,0.426686,
-0.444580,0.431047,-0.442657,0.435291,-0.440461,0.439400,-0.438001,0.443357,-0.435287,0.447144,-0.432331,0.450745,-0.429146,0.454146,-0.425745,0.457331,-0.422144,0.460287,-0.418357,0.463001,-0.414400,0.465461,-0.410291,0.467657,-0.406047,0.469580,-0.401686,0.471221,-0.397228,0.472574,-0.392690,0.473632,-0.388093,0.474391,-0.383457,0.474848,-0.378800,0.475000,0.378800,0.475000,
0.383457,0.474848,0.383457,0.474848,$1*%
%AMFreePoly9*
4,1,5,0.950000,-1.200000,-0.950000,-1.200000,-0.950000,1.200000,0.950000,1.200000,0.950000,-1.200000,0.950000,-1.200000,$1*%
%AMFreePoly10*
4,1,101,0.333457,0.474848,0.338093,0.474391,0.342690,0.473632,0.347228,0.472574,0.351686,0.471221,0.356047,0.469580,0.360291,0.467657,0.364400,0.465461,0.368357,0.463001,0.372144,0.460287,0.375745,0.457331,0.379146,0.454146,0.382331,0.450745,0.385287,0.447144,0.388001,0.443357,0.390461,0.439400,0.392657,0.435291,0.394580,0.431047,0.396221,0.426686,0.397574,0.422228,
0.398632,0.417690,0.399391,0.413093,0.399848,0.408457,0.400000,0.403800,0.400000,-0.403800,0.399848,-0.408457,0.399391,-0.413093,0.398632,-0.417690,0.397574,-0.422228,0.396221,-0.426686,0.394580,-0.431047,0.392657,-0.435291,0.390461,-0.439400,0.388001,-0.443357,0.385287,-0.447144,0.382331,-0.450745,0.379146,-0.454146,0.375745,-0.457331,0.372144,-0.460287,0.368357,-0.463001,
0.364400,-0.465461,0.360291,-0.467657,0.356047,-0.469580,0.351686,-0.471221,0.347228,-0.472574,0.342690,-0.473632,0.338093,-0.474391,0.333457,-0.474848,0.328800,-0.475000,-0.328800,-0.475000,-0.333457,-0.474848,-0.338093,-0.474391,-0.342690,-0.473632,-0.347228,-0.472574,-0.351686,-0.471221,-0.356047,-0.469580,-0.360291,-0.467657,-0.364400,-0.465461,-0.368357,-0.463001,-0.372144,-0.460287,
-0.375745,-0.457331,-0.379146,-0.454146,-0.382331,-0.450745,-0.385287,-0.447144,-0.388001,-0.443357,-0.390461,-0.439400,-0.392657,-0.435291,-0.394580,-0.431047,-0.396221,-0.426686,-0.397574,-0.422228,-0.398632,-0.417690,-0.399391,-0.413093,-0.399848,-0.408457,-0.400000,-0.403800,-0.400000,0.403800,-0.399848,0.408457,-0.399391,0.413093,-0.398632,0.417690,-0.397574,0.422228,-0.396221,0.426686,
-0.394580,0.431047,-0.392657,0.435291,-0.390461,0.439400,-0.388001,0.443357,-0.385287,0.447144,-0.382331,0.450745,-0.379146,0.454146,-0.375745,0.457331,-0.372144,0.460287,-0.368357,0.463001,-0.364400,0.465461,-0.360291,0.467657,-0.356047,0.469580,-0.351686,0.471221,-0.347228,0.472574,-0.342690,0.473632,-0.338093,0.474391,-0.333457,0.474848,-0.328800,0.475000,0.328800,0.475000,
0.333457,0.474848,0.333457,0.474848,$1*%
%AMFreePoly11*
4,1,5,0.114300,-0.393700,-0.114300,-0.393700,-0.114300,0.393700,0.114300,0.393700,0.114300,-0.393700,0.114300,-0.393700,$1*%
%AMFreePoly12*
4,1,5,0.393700,-0.393700,-0.393700,-0.393700,-0.393700,0.393700,0.393700,0.393700,0.393700,-0.393700,0.393700,-0.393700,$1*%
G04 Aperture macros list end*
%ADD10FreePoly0,0.000000*%
%ADD11FreePoly1,90.000000*%
%ADD12FreePoly2,90.000000*%
%ADD13FreePoly3,90.000000*%
%ADD14FreePoly4,0.000000*%
%ADD15FreePoly5,0.000000*%
%ADD16FreePoly6,0.000000*%
%ADD17FreePoly7,0.000000*%
%ADD18FreePoly8,0.000000*%
%ADD19FreePoly9,0.000000*%
%ADD20FreePoly10,0.000000*%
%ADD21FreePoly11,0.000000*%
%ADD22FreePoly11,90.000000*%
%ADD23FreePoly12,0.000000*%
G04 APERTURE END LIST*
D10*
%TO.C,*%
X149455800Y-22730800D03*
X149455800Y-29730800D03*
X156455800Y-29730800D03*
X156455800Y-22730800D03*
D11*
X142871809Y-30507807D03*
X145411791Y-25557798D03*
X145411809Y-30507798D03*
X146681809Y-30507793D03*
X144141809Y-30507802D03*
X142871791Y-25557807D03*
X144141791Y-25557802D03*
X146681791Y-25557793D03*
D12*
X119427912Y-27067808D03*
X124027912Y-27067792D03*
X121727912Y-27067800D03*
D13*
X121727888Y-20767800D03*
D14*
X118927900Y-33364900D03*
X121727900Y-33364900D03*
D15*
X138093800Y-24712800D03*
X138893800Y-31602800D03*
X136493800Y-31602800D03*
X138493800Y-24712800D03*
X137293800Y-24712800D03*
D16*
X139738800Y-28757800D03*
D15*
X136093800Y-31602800D03*
D16*
X132848800Y-29557800D03*
X132848800Y-27957800D03*
X132848800Y-27157800D03*
D15*
X134893800Y-31602800D03*
D16*
X139738800Y-26357800D03*
D15*
X135693800Y-24712800D03*
D16*
X132848800Y-29157800D03*
D15*
X138893800Y-24712800D03*
D16*
X139738800Y-30357800D03*
X132848800Y-25957800D03*
D15*
X134093800Y-24712800D03*
X133693800Y-24712800D03*
D16*
X132848800Y-26357800D03*
X139738800Y-26757800D03*
D15*
X138493800Y-31602800D03*
X136893800Y-31602800D03*
D16*
X139738800Y-29157800D03*
D15*
X134893800Y-24712800D03*
D16*
X139738800Y-25957800D03*
D15*
X138093800Y-31602800D03*
D16*
X132848800Y-25557800D03*
D15*
X137693800Y-31602800D03*
D16*
X132848800Y-29957800D03*
X132848800Y-28357800D03*
D15*
X136093800Y-24712800D03*
X134093800Y-31602800D03*
D16*
X139738800Y-29957800D03*
X139738800Y-25557800D03*
X139738800Y-27557800D03*
D15*
X134493800Y-31602800D03*
D16*
X139738800Y-27957800D03*
D15*
X137693800Y-24712800D03*
D16*
X139738800Y-28357800D03*
X132848800Y-27557800D03*
D15*
X137293800Y-31602800D03*
X133693800Y-31602800D03*
D17*
X136293800Y-28157800D03*
D15*
X134493800Y-24712800D03*
D16*
X132848800Y-28757800D03*
X139738800Y-29557800D03*
D15*
X135293800Y-24712800D03*
X135293800Y-31602800D03*
D16*
X132848800Y-30357800D03*
X139738800Y-27157800D03*
D15*
X136893800Y-24712800D03*
X135693800Y-31602800D03*
D16*
X132848800Y-26757800D03*
D15*
X136493800Y-24712800D03*
D16*
X139738800Y-30757800D03*
X132848800Y-30757800D03*
D18*
X124802900Y-31602800D03*
X123252900Y-31602800D03*
X124802900Y-29957800D03*
X123252900Y-29957800D03*
X130786100Y-21340900D03*
X129236100Y-21340900D03*
D19*
X130836100Y-31602800D03*
X126736100Y-31602800D03*
D18*
X130786100Y-25957800D03*
X129236100Y-25957800D03*
X130786100Y-27957800D03*
X129236100Y-27957800D03*
D20*
X129186100Y-22730800D03*
X130836100Y-22730800D03*
D18*
X130836100Y-24216900D03*
X129286100Y-24216900D03*
D21*
X156455800Y-39435200D03*
D22*
X157065500Y-37225500D03*
D21*
X156455800Y-36615800D03*
X155255800Y-36615800D03*
D22*
X157065500Y-37625500D03*
D21*
X156055800Y-39435200D03*
D23*
X155655800Y-38025500D03*
D21*
X156055800Y-36615800D03*
X154855800Y-39435200D03*
D22*
X157065500Y-38425500D03*
D21*
X155655800Y-36615800D03*
D22*
X154246100Y-38425500D03*
X157065500Y-38825500D03*
X154246100Y-38025500D03*
X154246100Y-37625500D03*
X154246100Y-37225500D03*
D21*
X154855800Y-36615800D03*
D22*
X154246100Y-38825500D03*
X157065500Y-38025500D03*
D21*
X155255800Y-39435200D03*
X155655800Y-39435200D03*
D20*
X150239100Y-35583800D03*
X151889100Y-35583800D03*
X150239100Y-37225500D03*
X151889100Y-37225500D03*
X150239100Y-38825500D03*
X151889100Y-38825500D03*
X150239100Y-40444900D03*
X151889100Y-40444900D03*
X138493800Y-40444900D03*
X140143800Y-40444900D03*
X138493800Y-38825500D03*
X140143800Y-38825500D03*
X138493800Y-37225500D03*
X140143800Y-37225500D03*
X138493800Y-35583800D03*
X140143800Y-35583800D03*
D21*
X145741800Y-39435200D03*
D22*
X146351500Y-37225500D03*
D21*
X145741800Y-36615800D03*
X144541800Y-36615800D03*
D22*
X146351500Y-37625500D03*
D21*
X145341800Y-39435200D03*
D23*
X144941800Y-38025500D03*
D21*
X145341800Y-36615800D03*
X144141800Y-39435200D03*
D22*
X146351500Y-38425500D03*
D21*
X144941800Y-36615800D03*
D22*
X143532100Y-38425500D03*
X146351500Y-38825500D03*
X143532100Y-38025500D03*
X143532100Y-37625500D03*
X143532100Y-37225500D03*
D21*
X144141800Y-36615800D03*
D22*
X143532100Y-38825500D03*
X146351500Y-38025500D03*
D21*
X144541800Y-39435200D03*
X144941800Y-39435200D03*
%TD*%
M02*
