%TF.GenerationSoftware,Flux,Pcbnew,7.0.11-7.0.11~ubuntu20.04.1*%
%TF.CreationDate,2024-08-20T16:18:27+00:00*%
%TF.ProjectId,input,696e7075-742e-46b6-9963-61645f706362,rev?*%
%TF.SameCoordinates,Original*%
%TF.FileFunction,Profile,NP*%
%FSLAX46Y46*%
G04 Gerber Fmt 4.6, Leading zero omitted, Abs format (unit mm)*
G04 Filename: known-fuchsia-translation-collar*
G04 Build it with Flux! Visit our site at: https://www.flux.ai (PCBNEW 7.0.11-7.0.11~ubuntu20.04.1) date 2024-08-20 16:18:27*
%MOMM*%
%LPD*%
G01*
G04 APERTURE LIST*
%TA.AperFunction,Profile*%
%ADD10C,0.050000*%
%TD*%
G04 APERTURE END LIST*
D10*
X27190000Y-19190000D02*
X26974468Y-19262778D01*
X26974468Y-19262778D02*
X26767407Y-19341389D01*
X26767407Y-19341389D02*
X26568125Y-19426250D01*
X26568125Y-19426250D02*
X26375926Y-19517778D01*
X26375926Y-19517778D02*
X26190116Y-19616389D01*
X26190116Y-19616389D02*
X26010000Y-19722500D01*
X26010000Y-19722500D02*
X25834884Y-19836528D01*
X25834884Y-19836528D02*
X25664074Y-19958889D01*
X25664074Y-19958889D02*
X25496875Y-20090000D01*
X25496875Y-20090000D02*
X25332593Y-20230278D01*
X25332593Y-20230278D02*
X25170532Y-20380139D01*
X25170532Y-20380139D02*
X25010000Y-20540000D01*
X25010000Y-20540000D02*
X24858027Y-20704525D01*
X24858027Y-20704525D02*
X24716713Y-20868704D01*
X24716713Y-20868704D02*
X24585469Y-21033438D01*
X24585469Y-21033438D02*
X24463704Y-21199630D01*
X24463704Y-21199630D02*
X24350828Y-21368183D01*
X24350828Y-21368183D02*
X24246250Y-21540000D01*
X24246250Y-21540000D02*
X24149381Y-21715984D01*
X24149381Y-21715984D02*
X24059630Y-21897037D01*
X24059630Y-21897037D02*
X23976406Y-22084063D01*
X23976406Y-22084063D02*
X23899120Y-22277963D01*
X23899120Y-22277963D02*
X23827182Y-22479641D01*
X23827182Y-22479641D02*
X23760000Y-22690000D01*
X23760000Y-22690000D02*
X23725341Y-22887170D01*
X23725341Y-22887170D02*
X23696065Y-23290694D01*
X23696065Y-23290694D02*
X23671719Y-23993594D01*
X23671719Y-23993594D02*
X23651852Y-25088889D01*
X23651852Y-25088889D02*
X23636013Y-26669601D01*
X23636013Y-26669601D02*
X23623750Y-28828750D01*
X23623750Y-28828750D02*
X23614612Y-31659358D01*
X23614612Y-31659358D02*
X23608148Y-35254444D01*
X23608148Y-35254444D02*
X23603906Y-39707031D01*
X23603906Y-39707031D02*
X23601435Y-45110139D01*
X23601435Y-45110139D02*
X23600284Y-51556788D01*
X23600284Y-51556788D02*
X23600000Y-59140000D01*
X23600000Y-59140000D02*
X23600828Y-64979392D01*
X23600828Y-64979392D02*
X23603287Y-70290972D01*
X23603287Y-70290972D02*
X23607344Y-75079844D01*
X23607344Y-75079844D02*
X23612963Y-79351111D01*
X23612963Y-79351111D02*
X23620110Y-83109878D01*
X23620110Y-83109878D02*
X23628750Y-86361250D01*
X23628750Y-86361250D02*
X23638848Y-89110330D01*
X23638848Y-89110330D02*
X23650370Y-91362222D01*
X23650370Y-91362222D02*
X23663281Y-93122031D01*
X23663281Y-93122031D02*
X23677546Y-94394861D01*
X23677546Y-94394861D02*
X23693131Y-95185816D01*
X23693131Y-95185816D02*
X23710000Y-95500000D01*
X23710000Y-95500000D02*
X23837130Y-95942552D01*
X23837130Y-95942552D02*
X24011204Y-96372917D01*
X24011204Y-96372917D02*
X24228750Y-96787656D01*
X24228750Y-96787656D02*
X24486296Y-97183333D01*
X24486296Y-97183333D02*
X24780370Y-97556510D01*
X24780370Y-97556510D02*
X25107500Y-97903750D01*
X25107500Y-97903750D02*
X25464213Y-98221615D01*
X25464213Y-98221615D02*
X25847037Y-98506667D01*
X25847037Y-98506667D02*
X26252500Y-98755469D01*
X26252500Y-98755469D02*
X26677130Y-98964583D01*
X26677130Y-98964583D02*
X27117454Y-99130573D01*
X27117454Y-99130573D02*
X27570000Y-99250000D01*
X27570000Y-99250000D02*
X27911481Y-99280260D01*
X27911481Y-99280260D02*
X28728519Y-99306250D01*
X28728519Y-99306250D02*
X30152500Y-99328281D01*
X30152500Y-99328281D02*
X32314815Y-99346667D01*
X32314815Y-99346667D02*
X35346852Y-99361719D01*
X35346852Y-99361719D02*
X39380000Y-99373750D01*
X39380000Y-99373750D02*
X44545648Y-99383073D01*
X44545648Y-99383073D02*
X50975185Y-99390000D01*
X50975185Y-99390000D02*
X58800000Y-99394844D01*
X58800000Y-99394844D02*
X68151481Y-99397917D01*
X68151481Y-99397917D02*
X79161019Y-99399531D01*
X79161019Y-99399531D02*
X91960000Y-99400000D01*
X91960000Y-99400000D02*
X102676568Y-99399363D01*
X102676568Y-99399363D02*
X112329213Y-99397407D01*
X112329213Y-99397407D02*
X120944844Y-99394063D01*
X120944844Y-99394063D02*
X128550370Y-99389259D01*
X128550370Y-99389259D02*
X135172703Y-99382928D01*
X135172703Y-99382928D02*
X140838750Y-99375000D01*
X140838750Y-99375000D02*
X145575422Y-99365405D01*
X145575422Y-99365405D02*
X149409630Y-99354074D01*
X149409630Y-99354074D02*
X152368281Y-99340938D01*
X152368281Y-99340938D02*
X154478287Y-99325926D01*
X154478287Y-99325926D02*
X155766557Y-99308970D01*
X155766557Y-99308970D02*
X156260000Y-99290000D01*
X156260000Y-99290000D02*
X156618582Y-99209641D01*
X156618582Y-99209641D02*
X156972824Y-99099630D01*
X156972824Y-99099630D02*
X157320469Y-98961562D01*
X157320469Y-98961562D02*
X157659259Y-98797037D01*
X157659259Y-98797037D02*
X157986939Y-98607650D01*
X157986939Y-98607650D02*
X158301250Y-98395000D01*
X158301250Y-98395000D02*
X158599936Y-98160683D01*
X158599936Y-98160683D02*
X158880741Y-97906296D01*
X158880741Y-97906296D02*
X159141406Y-97633438D01*
X159141406Y-97633438D02*
X159379676Y-97343704D01*
X159379676Y-97343704D02*
X159593293Y-97038692D01*
X159593293Y-97038692D02*
X159780000Y-96720000D01*
X159780000Y-96720000D02*
X159932946Y-96470428D01*
X159932946Y-96470428D02*
X160058565Y-96242593D01*
X160058565Y-96242593D02*
X160159531Y-95872813D01*
X160159531Y-95872813D02*
X160238519Y-95197407D01*
X160238519Y-95197407D02*
X160298200Y-94052697D01*
X160298200Y-94052697D02*
X160341250Y-92275000D01*
X160341250Y-92275000D02*
X160370341Y-89700637D01*
X160370341Y-89700637D02*
X160388148Y-86165926D01*
X160388148Y-86165926D02*
X160397344Y-81507188D01*
X160397344Y-81507188D02*
X160400602Y-75560741D01*
X160400602Y-75560741D02*
X160400596Y-68162905D01*
X160400596Y-68162905D02*
X160400000Y-59150000D01*
X160400000Y-59150000D02*
X160399705Y-51220359D01*
X160399705Y-51220359D02*
X160398472Y-44552037D01*
X160398472Y-44552037D02*
X160395781Y-39033438D01*
X160395781Y-39033438D02*
X160391111Y-34552963D01*
X160391111Y-34552963D02*
X160383941Y-30999016D01*
X160383941Y-30999016D02*
X160373750Y-28260000D01*
X160373750Y-28260000D02*
X160360017Y-26224317D01*
X160360017Y-26224317D02*
X160342222Y-24780370D01*
X160342222Y-24780370D02*
X160319844Y-23816563D01*
X160319844Y-23816563D02*
X160292361Y-23221296D01*
X160292361Y-23221296D02*
X160259253Y-22882975D01*
X160259253Y-22882975D02*
X160220000Y-22690000D01*
X160220000Y-22690000D02*
X160084861Y-22275075D01*
X160084861Y-22275075D02*
X159915556Y-21876435D01*
X159915556Y-21876435D02*
X159713750Y-21495781D01*
X159713750Y-21495781D02*
X159481111Y-21134815D01*
X159481111Y-21134815D02*
X159219306Y-20795237D01*
X159219306Y-20795237D02*
X158930000Y-20478750D01*
X158930000Y-20478750D02*
X158614861Y-20187054D01*
X158614861Y-20187054D02*
X158275556Y-19921852D01*
X158275556Y-19921852D02*
X157913750Y-19684844D01*
X157913750Y-19684844D02*
X157531111Y-19477731D01*
X157531111Y-19477731D02*
X157129306Y-19302216D01*
X157129306Y-19302216D02*
X156710000Y-19160000D01*
X156710000Y-19160000D02*
X156447946Y-19125347D01*
X156447946Y-19125347D02*
X155801898Y-19096111D01*
X155801898Y-19096111D02*
X154607031Y-19071875D01*
X154607031Y-19071875D02*
X152698519Y-19052222D01*
X152698519Y-19052222D02*
X149911534Y-19036736D01*
X149911534Y-19036736D02*
X146081250Y-19025000D01*
X146081250Y-19025000D02*
X141042841Y-19016597D01*
X141042841Y-19016597D02*
X134631481Y-19011111D01*
X134631481Y-19011111D02*
X126682344Y-19008125D01*
X126682344Y-19008125D02*
X117030602Y-19007222D01*
X117030602Y-19007222D02*
X105511429Y-19007986D01*
X105511429Y-19007986D02*
X91960000Y-19010000D01*
X91960000Y-19010000D02*
X77828958Y-19010295D01*
X77828958Y-19010295D02*
X65931667Y-19011528D01*
X65931667Y-19011528D02*
X56074375Y-19014219D01*
X56074375Y-19014219D02*
X48063333Y-19018889D01*
X48063333Y-19018889D02*
X41704792Y-19026059D01*
X41704792Y-19026059D02*
X36805000Y-19036250D01*
X36805000Y-19036250D02*
X33170208Y-19049983D01*
X33170208Y-19049983D02*
X30606667Y-19067778D01*
X30606667Y-19067778D02*
X28920625Y-19090156D01*
X28920625Y-19090156D02*
X27918333Y-19117639D01*
X27918333Y-19117639D02*
X27406042Y-19150747D01*
X27406042Y-19150747D02*
X27190000Y-19190000D01*
M02*
