%TF.GenerationSoftware,Flux,Pcbnew,7.0.11-7.0.11~ubuntu20.04.1*%
%TF.CreationDate,2024-08-20T18:53:49+00:00*%
%TF.ProjectId,input,696e7075-742e-46b6-9963-61645f706362,rev?*%
%TF.SameCoordinates,Original*%
%TF.FileFunction,Copper,L1,Top*%
%TF.FilePolarity,Positive*%
%FSLAX46Y46*%
G04 Gerber Fmt 4.6, Leading zero omitted, Abs format (unit mm)*
G04 Filename: known-fuchsia-translation-collar*
G04 Build it with Flux! Visit our site at: https://www.flux.ai (PCBNEW 7.0.11-7.0.11~ubuntu20.04.1) date 2024-08-20 18:53:49*
%MOMM*%
%LPD*%
G01*
G04 APERTURE LIST*
G04 Aperture macros list*
%AMFreePoly0*
4,1,5,0.114300,-0.393700,-0.114300,-0.393700,-0.114300,0.393700,0.114300,0.393700,0.114300,-0.393700,0.114300,-0.393700,$1*%
%AMFreePoly1*
4,1,5,0.393700,-0.393700,-0.393700,-0.393700,-0.393700,0.393700,0.393700,0.393700,0.393700,-0.393700,0.393700,-0.393700,$1*%
%AMFreePoly2*
4,1,101,0.333457,0.474848,0.338093,0.474391,0.342690,0.473632,0.347228,0.472574,0.351686,0.471221,0.356047,0.469580,0.360291,0.467657,0.364400,0.465461,0.368357,0.463001,0.372144,0.460287,0.375745,0.457331,0.379146,0.454146,0.382331,0.450745,0.385287,0.447144,0.388001,0.443357,0.390461,0.439400,0.392657,0.435291,0.394580,0.431047,0.396221,0.426686,0.397574,0.422228,
0.398632,0.417690,0.399391,0.413093,0.399848,0.408457,0.400000,0.403800,0.400000,-0.403800,0.399848,-0.408457,0.399391,-0.413093,0.398632,-0.417690,0.397574,-0.422228,0.396221,-0.426686,0.394580,-0.431047,0.392657,-0.435291,0.390461,-0.439400,0.388001,-0.443357,0.385287,-0.447144,0.382331,-0.450745,0.379146,-0.454146,0.375745,-0.457331,0.372144,-0.460287,0.368357,-0.463001,
0.364400,-0.465461,0.360291,-0.467657,0.356047,-0.469580,0.351686,-0.471221,0.347228,-0.472574,0.342690,-0.473632,0.338093,-0.474391,0.333457,-0.474848,0.328800,-0.475000,-0.328800,-0.475000,-0.333457,-0.474848,-0.338093,-0.474391,-0.342690,-0.473632,-0.347228,-0.472574,-0.351686,-0.471221,-0.356047,-0.469580,-0.360291,-0.467657,-0.364400,-0.465461,-0.368357,-0.463001,-0.372144,-0.460287,
-0.375745,-0.457331,-0.379146,-0.454146,-0.382331,-0.450745,-0.385287,-0.447144,-0.388001,-0.443357,-0.390461,-0.439400,-0.392657,-0.435291,-0.394580,-0.431047,-0.396221,-0.426686,-0.397574,-0.422228,-0.398632,-0.417690,-0.399391,-0.413093,-0.399848,-0.408457,-0.400000,-0.403800,-0.400000,0.403800,-0.399848,0.408457,-0.399391,0.413093,-0.398632,0.417690,-0.397574,0.422228,-0.396221,0.426686,
-0.394580,0.431047,-0.392657,0.435291,-0.390461,0.439400,-0.388001,0.443357,-0.385287,0.447144,-0.382331,0.450745,-0.379146,0.454146,-0.375745,0.457331,-0.372144,0.460287,-0.368357,0.463001,-0.364400,0.465461,-0.360291,0.467657,-0.356047,0.469580,-0.351686,0.471221,-0.347228,0.472574,-0.342690,0.473632,-0.338093,0.474391,-0.333457,0.474848,-0.328800,0.475000,0.328800,0.475000,
0.333457,0.474848,0.333457,0.474848,$1*%
%AMFreePoly3*
4,1,5,1.500000,-1.500000,-1.500000,-1.500000,-1.500000,1.500000,1.500000,1.500000,1.500000,-1.500000,1.500000,-1.500000,$1*%
%AMFreePoly4*
4,1,5,0.950000,-1.200000,-0.950000,-1.200000,-0.950000,1.200000,0.950000,1.200000,0.950000,-1.200000,0.950000,-1.200000,$1*%
%AMFreePoly5*
4,1,5,0.550000,-0.550000,-0.550000,-0.550000,-0.550000,0.550000,0.550000,0.550000,0.550000,-0.550000,0.550000,-0.550000,$1*%
%AMFreePoly6*
4,1,101,0.383457,0.474848,0.388093,0.474391,0.392690,0.473632,0.397228,0.472574,0.401686,0.471221,0.406047,0.469580,0.410291,0.467657,0.414400,0.465461,0.418357,0.463001,0.422144,0.460287,0.425745,0.457331,0.429146,0.454146,0.432331,0.450745,0.435287,0.447144,0.438001,0.443357,0.440461,0.439400,0.442657,0.435291,0.444580,0.431047,0.446221,0.426686,0.447574,0.422228,
0.448632,0.417690,0.449391,0.413093,0.449848,0.408457,0.450000,0.403800,0.450000,-0.403800,0.449848,-0.408457,0.449391,-0.413093,0.448632,-0.417690,0.447574,-0.422228,0.446221,-0.426686,0.444580,-0.431047,0.442657,-0.435291,0.440461,-0.439400,0.438001,-0.443357,0.435287,-0.447144,0.432331,-0.450745,0.429146,-0.454146,0.425745,-0.457331,0.422144,-0.460287,0.418357,-0.463001,
0.414400,-0.465461,0.410291,-0.467657,0.406047,-0.469580,0.401686,-0.471221,0.397228,-0.472574,0.392690,-0.473632,0.388093,-0.474391,0.383457,-0.474848,0.378800,-0.475000,-0.378800,-0.475000,-0.383457,-0.474848,-0.388093,-0.474391,-0.392690,-0.473632,-0.397228,-0.472574,-0.401686,-0.471221,-0.406047,-0.469580,-0.410291,-0.467657,-0.414400,-0.465461,-0.418357,-0.463001,-0.422144,-0.460287,
-0.425745,-0.457331,-0.429146,-0.454146,-0.432331,-0.450745,-0.435287,-0.447144,-0.438001,-0.443357,-0.440461,-0.439400,-0.442657,-0.435291,-0.444580,-0.431047,-0.446221,-0.426686,-0.447574,-0.422228,-0.448632,-0.417690,-0.449391,-0.413093,-0.449848,-0.408457,-0.450000,-0.403800,-0.450000,0.403800,-0.449848,0.408457,-0.449391,0.413093,-0.448632,0.417690,-0.447574,0.422228,-0.446221,0.426686,
-0.444580,0.431047,-0.442657,0.435291,-0.440461,0.439400,-0.438001,0.443357,-0.435287,0.447144,-0.432331,0.450745,-0.429146,0.454146,-0.425745,0.457331,-0.422144,0.460287,-0.418357,0.463001,-0.414400,0.465461,-0.410291,0.467657,-0.406047,0.469580,-0.401686,0.471221,-0.397228,0.472574,-0.392690,0.473632,-0.388093,0.474391,-0.383457,0.474848,-0.378800,0.475000,0.378800,0.475000,
0.383457,0.474848,0.383457,0.474848,$1*%
%AMFreePoly7*
4,1,5,1.000000,-1.900000,-1.000000,-1.900000,-1.000000,1.900000,1.000000,1.900000,1.000000,-1.900000,1.000000,-1.900000,$1*%
%AMFreePoly8*
4,1,5,1.000000,-0.750000,-1.000000,-0.750000,-1.000000,0.750000,1.000000,0.750000,1.000000,-0.750000,1.000000,-0.750000,$1*%
%AMFreePoly9*
4,1,101,0.838362,0.299687,0.847883,0.298749,0.857322,0.297191,0.866639,0.295018,0.875794,0.292241,0.884748,0.288871,0.893463,0.284923,0.901900,0.280413,0.910024,0.275361,0.917801,0.269788,0.925196,0.263719,0.932179,0.257179,0.938719,0.250196,0.944788,0.242801,0.950361,0.235024,0.955413,0.226900,0.959923,0.218463,0.963871,0.209748,0.967241,0.200794,0.970018,0.191639,
0.972191,0.182322,0.973749,0.172883,0.974687,0.163362,0.975000,0.153800,0.975000,-0.153800,0.974687,-0.163362,0.973749,-0.172883,0.972191,-0.182322,0.970018,-0.191639,0.967241,-0.200794,0.963871,-0.209748,0.959923,-0.218463,0.955413,-0.226900,0.950361,-0.235024,0.944788,-0.242801,0.938719,-0.250196,0.932179,-0.257179,0.925196,-0.263719,0.917801,-0.269788,0.910024,-0.275361,
0.901900,-0.280413,0.893463,-0.284923,0.884748,-0.288871,0.875794,-0.292241,0.866639,-0.295018,0.857322,-0.297191,0.847883,-0.298749,0.838362,-0.299687,0.828800,-0.300000,-0.828800,-0.300000,-0.838362,-0.299687,-0.847883,-0.298749,-0.857322,-0.297191,-0.866639,-0.295018,-0.875794,-0.292241,-0.884748,-0.288871,-0.893463,-0.284923,-0.901900,-0.280413,-0.910024,-0.275361,-0.917801,-0.269788,
-0.925196,-0.263719,-0.932179,-0.257179,-0.938719,-0.250196,-0.944788,-0.242801,-0.950361,-0.235024,-0.955413,-0.226900,-0.959923,-0.218463,-0.963871,-0.209748,-0.967241,-0.200794,-0.970018,-0.191639,-0.972191,-0.182322,-0.973749,-0.172883,-0.974687,-0.163362,-0.975000,-0.153800,-0.975000,0.153800,-0.974687,0.163362,-0.973749,0.172883,-0.972191,0.182322,-0.970018,0.191639,-0.967241,0.200794,
-0.963871,0.209748,-0.959923,0.218463,-0.955413,0.226900,-0.950361,0.235024,-0.944788,0.242801,-0.938719,0.250196,-0.932179,0.257179,-0.925196,0.263719,-0.917801,0.269788,-0.910024,0.275361,-0.901900,0.280413,-0.893463,0.284923,-0.884748,0.288871,-0.875794,0.292241,-0.866639,0.295018,-0.857322,0.297191,-0.847883,0.298749,-0.838362,0.299687,-0.828800,0.300000,0.828800,0.300000,
0.838362,0.299687,0.838362,0.299687,$1*%
%AMFreePoly10*
4,1,5,1.250000,-1.250000,-1.250000,-1.250000,-1.250000,1.250000,1.250000,1.250000,1.250000,-1.250000,1.250000,-1.250000,$1*%
%AMFreePoly11*
4,1,101,0.348270,0.109870,0.352223,0.109481,0.356142,0.108834,0.360010,0.107932,0.363811,0.106779,0.367529,0.105379,0.371147,0.103740,0.374650,0.101868,0.378023,0.099770,0.381252,0.097457,0.384322,0.094937,0.387221,0.092221,0.389937,0.089322,0.392457,0.086252,0.394770,0.083023,0.396868,0.079650,0.398740,0.076147,0.400379,0.072529,0.401779,0.068811,0.402932,0.065010,
0.403834,0.061142,0.404481,0.057223,0.404870,0.053270,0.405000,0.049300,0.405000,-0.049300,0.404870,-0.053270,0.404481,-0.057223,0.403834,-0.061142,0.402932,-0.065010,0.401779,-0.068811,0.400379,-0.072529,0.398740,-0.076147,0.396868,-0.079650,0.394770,-0.083023,0.392457,-0.086252,0.389937,-0.089322,0.387221,-0.092221,0.384322,-0.094937,0.381252,-0.097457,0.378023,-0.099770,
0.374650,-0.101868,0.371147,-0.103740,0.367529,-0.105379,0.363811,-0.106779,0.360010,-0.107932,0.356142,-0.108834,0.352223,-0.109481,0.348270,-0.109870,0.344300,-0.110000,-0.344300,-0.110000,-0.348270,-0.109870,-0.352223,-0.109481,-0.356142,-0.108834,-0.360010,-0.107932,-0.363811,-0.106779,-0.367529,-0.105379,-0.371147,-0.103740,-0.374650,-0.101868,-0.378023,-0.099770,-0.381252,-0.097457,
-0.384322,-0.094937,-0.387221,-0.092221,-0.389937,-0.089322,-0.392457,-0.086252,-0.394770,-0.083023,-0.396868,-0.079650,-0.398740,-0.076147,-0.400379,-0.072529,-0.401779,-0.068811,-0.402932,-0.065010,-0.403834,-0.061142,-0.404481,-0.057223,-0.404870,-0.053270,-0.405000,-0.049300,-0.405000,0.049300,-0.404870,0.053270,-0.404481,0.057223,-0.403834,0.061142,-0.402932,0.065010,-0.401779,0.068811,
-0.400379,0.072529,-0.398740,0.076147,-0.396868,0.079650,-0.394770,0.083023,-0.392457,0.086252,-0.389937,0.089322,-0.387221,0.092221,-0.384322,0.094937,-0.381252,0.097457,-0.378023,0.099770,-0.374650,0.101868,-0.371147,0.103740,-0.367529,0.105379,-0.363811,0.106779,-0.360010,0.107932,-0.356142,0.108834,-0.352223,0.109481,-0.348270,0.109870,-0.344300,0.110000,0.344300,0.110000,
0.348270,0.109870,0.348270,0.109870,$1*%
%AMFreePoly12*
4,1,101,0.053270,0.404870,0.057223,0.404481,0.061142,0.403834,0.065010,0.402932,0.068811,0.401779,0.072529,0.400379,0.076147,0.398740,0.079650,0.396868,0.083023,0.394770,0.086252,0.392457,0.089322,0.389937,0.092221,0.387221,0.094937,0.384322,0.097457,0.381252,0.099770,0.378023,0.101868,0.374650,0.103740,0.371147,0.105379,0.367529,0.106779,0.363811,0.107932,0.360010,
0.108834,0.356142,0.109481,0.352223,0.109870,0.348270,0.110000,0.344300,0.110000,-0.344300,0.109870,-0.348270,0.109481,-0.352223,0.108834,-0.356142,0.107932,-0.360010,0.106779,-0.363811,0.105379,-0.367529,0.103740,-0.371147,0.101868,-0.374650,0.099770,-0.378023,0.097457,-0.381252,0.094937,-0.384322,0.092221,-0.387221,0.089322,-0.389937,0.086252,-0.392457,0.083023,-0.394770,
0.079650,-0.396868,0.076147,-0.398740,0.072529,-0.400379,0.068811,-0.401779,0.065010,-0.402932,0.061142,-0.403834,0.057223,-0.404481,0.053270,-0.404870,0.049300,-0.405000,-0.049300,-0.405000,-0.053270,-0.404870,-0.057223,-0.404481,-0.061142,-0.403834,-0.065010,-0.402932,-0.068811,-0.401779,-0.072529,-0.400379,-0.076147,-0.398740,-0.079650,-0.396868,-0.083023,-0.394770,-0.086252,-0.392457,
-0.089322,-0.389937,-0.092221,-0.387221,-0.094937,-0.384322,-0.097457,-0.381252,-0.099770,-0.378023,-0.101868,-0.374650,-0.103740,-0.371147,-0.105379,-0.367529,-0.106779,-0.363811,-0.107932,-0.360010,-0.108834,-0.356142,-0.109481,-0.352223,-0.109870,-0.348270,-0.110000,-0.344300,-0.110000,0.344300,-0.109870,0.348270,-0.109481,0.352223,-0.108834,0.356142,-0.107932,0.360010,-0.106779,0.363811,
-0.105379,0.367529,-0.103740,0.371147,-0.101868,0.374650,-0.099770,0.378023,-0.097457,0.381252,-0.094937,0.384322,-0.092221,0.387221,-0.089322,0.389937,-0.086252,0.392457,-0.083023,0.394770,-0.079650,0.396868,-0.076147,0.398740,-0.072529,0.400379,-0.068811,0.401779,-0.065010,0.402932,-0.061142,0.403834,-0.057223,0.404481,-0.053270,0.404870,-0.049300,0.405000,0.049300,0.405000,
0.053270,0.404870,0.053270,0.404870,$1*%
%AMFreePoly13*
4,1,5,2.000000,-2.000000,-2.000000,-2.000000,-2.000000,2.000000,2.000000,2.000000,2.000000,-2.000000,2.000000,-2.000000,$1*%
%AMFreePoly14*
4,1,129,0.022069,0.299187,0.036723,0.297744,0.051289,0.295583,0.065730,0.292711,0.080014,0.289133,0.094105,0.284858,0.107969,0.279898,0.121572,0.274263,0.134883,0.267967,0.147869,0.261026,0.160499,0.253456,0.172742,0.245275,0.184569,0.236504,0.195952,0.227163,0.206862,0.217274,0.217274,0.206862,0.227163,0.195952,0.236504,0.184569,0.245275,0.172742,0.253456,0.160499,
0.261026,0.147869,0.267967,0.134883,0.274263,0.121572,0.279898,0.107969,0.284858,0.094105,0.289133,0.080014,0.292711,0.065730,0.295583,0.051289,0.297744,0.036723,0.299187,0.022069,0.299910,0.007362,0.299910,-0.007362,0.299187,-0.022069,0.297744,-0.036723,0.295583,-0.051289,0.292711,-0.065730,0.289133,-0.080014,0.284858,-0.094105,0.279898,-0.107969,0.274263,-0.121572,
0.267967,-0.134883,0.261026,-0.147869,0.253456,-0.160499,0.245275,-0.172742,0.236504,-0.184569,0.227163,-0.195952,0.217274,-0.206862,0.206862,-0.217274,0.195952,-0.227163,0.184569,-0.236504,0.172742,-0.245275,0.160499,-0.253456,0.147869,-0.261026,0.134883,-0.267967,0.121572,-0.274263,0.107969,-0.279898,0.094105,-0.284858,0.080014,-0.289133,0.065730,-0.292711,0.051289,-0.295583,
0.036723,-0.297744,0.022069,-0.299187,0.007362,-0.299910,-0.007362,-0.299910,-0.022069,-0.299187,-0.036723,-0.297744,-0.051289,-0.295583,-0.065730,-0.292711,-0.080014,-0.289133,-0.094105,-0.284858,-0.107969,-0.279898,-0.121572,-0.274263,-0.134883,-0.267967,-0.147869,-0.261026,-0.160499,-0.253456,-0.172742,-0.245275,-0.184569,-0.236504,-0.195952,-0.227163,-0.206862,-0.217274,-0.217274,-0.206862,
-0.227163,-0.195952,-0.236504,-0.184569,-0.245275,-0.172742,-0.253456,-0.160499,-0.261026,-0.147869,-0.267967,-0.134883,-0.274263,-0.121572,-0.279898,-0.107969,-0.284858,-0.094105,-0.289133,-0.080014,-0.292711,-0.065730,-0.295583,-0.051289,-0.297744,-0.036723,-0.299187,-0.022069,-0.299910,-0.007362,-0.299910,0.007362,-0.299187,0.022069,-0.297744,0.036723,-0.295583,0.051289,-0.292711,0.065730,
-0.289133,0.080014,-0.284858,0.094105,-0.279898,0.107969,-0.274263,0.121572,-0.267967,0.134883,-0.261026,0.147869,-0.253456,0.160499,-0.245275,0.172742,-0.236504,0.184569,-0.227163,0.195952,-0.217274,0.206862,-0.206862,0.217274,-0.195952,0.227163,-0.184569,0.236504,-0.172742,0.245275,-0.160499,0.253456,-0.147869,0.261026,-0.134883,0.267967,-0.121572,0.274263,-0.107969,0.279898,
-0.094105,0.284858,-0.080014,0.289133,-0.065730,0.292711,-0.051289,0.295583,-0.036723,0.297744,-0.022069,0.299187,-0.007362,0.299910,0.007362,0.299910,0.022069,0.299187,0.022069,0.299187,$1*%
G04 Aperture macros list end*
%TA.AperFunction,SMDPad,CuDef*%
%ADD10FreePoly0,0.000000*%
%TD*%
%TA.AperFunction,SMDPad,CuDef*%
%ADD11FreePoly0,90.000000*%
%TD*%
%TA.AperFunction,SMDPad,CuDef*%
%ADD12FreePoly1,0.000000*%
%TD*%
%TA.AperFunction,SMDPad,CuDef*%
%ADD13FreePoly2,0.000000*%
%TD*%
%TA.AperFunction,ComponentPad*%
%ADD14C,3.000000*%
%TD*%
%TA.AperFunction,ComponentPad*%
%ADD15FreePoly3,180.000000*%
%TD*%
%TA.AperFunction,SMDPad,CuDef*%
%ADD16FreePoly4,0.000000*%
%TD*%
%TA.AperFunction,SMDPad,CuDef*%
%ADD17FreePoly5,0.000000*%
%TD*%
%TA.AperFunction,SMDPad,CuDef*%
%ADD18FreePoly6,0.000000*%
%TD*%
%TA.AperFunction,ComponentPad*%
%ADD19FreePoly3,0.000000*%
%TD*%
%TA.AperFunction,SMDPad,CuDef*%
%ADD20FreePoly7,90.000000*%
%TD*%
%TA.AperFunction,SMDPad,CuDef*%
%ADD21FreePoly8,90.000000*%
%TD*%
%TA.AperFunction,SMDPad,CuDef*%
%ADD22FreePoly9,90.000000*%
%TD*%
%TA.AperFunction,SMDPad,CuDef*%
%ADD23FreePoly10,0.000000*%
%TD*%
%TA.AperFunction,SMDPad,CuDef*%
%ADD24FreePoly11,0.000000*%
%TD*%
%TA.AperFunction,SMDPad,CuDef*%
%ADD25FreePoly12,0.000000*%
%TD*%
%TA.AperFunction,SMDPad,CuDef*%
%ADD26FreePoly13,0.000000*%
%TD*%
%TA.AperFunction,ComponentPad*%
%ADD27FreePoly14,0.000000*%
%TD*%
%TA.AperFunction,Conductor*%
%ADD28C,0.150000*%
%TD*%
%TA.AperFunction,Conductor*%
%ADD29C,0.254000*%
%TD*%
%TA.AperFunction,Conductor*%
%ADD30C,0.500000*%
%TD*%
G04 APERTURE END LIST*
D10*
%TO.P,,073cc950-6c71-443a-9322-2e7668835131__0f95fc20-73a3-4d5c-9f20-9b2c3a2d1114*%
%TO.N,N/C*%
X144941800Y-40781300D03*
%TO.P,,073cc950-6c71-443a-9322-2e7668835131__13275f22-2589-4b9e-84cb-a41fe6969974*%
X144541800Y-40781300D03*
D11*
%TO.P,,073cc950-6c71-443a-9322-2e7668835131__21855e35-a205-480d-90cc-26ee7b6ecae7*%
X146351500Y-39371600D03*
%TO.P,,073cc950-6c71-443a-9322-2e7668835131__23afd9b1-21ff-4237-918f-55c73ae491e1*%
X143532100Y-40171600D03*
D10*
%TO.P,,073cc950-6c71-443a-9322-2e7668835131__2ff434c6-2087-42a2-b924-88dcadc641fa*%
X144141800Y-37961900D03*
D11*
%TO.P,,073cc950-6c71-443a-9322-2e7668835131__3875d7e8-40bb-40dd-8d10-b787a17460ea*%
X143532100Y-38571600D03*
%TO.P,,073cc950-6c71-443a-9322-2e7668835131__550f0480-7ad6-426c-bb4b-62c76ff51d41*%
X143532100Y-38971600D03*
%TO.P,,073cc950-6c71-443a-9322-2e7668835131__5627d4f6-bbac-4a07-92fa-aab1b83fbf5c*%
X143532100Y-39371600D03*
%TO.P,,073cc950-6c71-443a-9322-2e7668835131__649e8e26-f034-464a-aec8-0fa2d44f2da4*%
X146351500Y-40171600D03*
%TO.P,,073cc950-6c71-443a-9322-2e7668835131__6847a6fb-aa16-4868-98ad-a8635ba40107*%
X143532100Y-39771600D03*
D10*
%TO.P,,073cc950-6c71-443a-9322-2e7668835131__6a5266b9-e4cc-4c1e-9ef7-ce866f11f3f4*%
X144941800Y-37961900D03*
D11*
%TO.P,,073cc950-6c71-443a-9322-2e7668835131__7d6b18bb-3cdc-455e-bd89-5f8bac60bb99*%
X146351500Y-39771600D03*
D10*
%TO.P,,073cc950-6c71-443a-9322-2e7668835131__8dbdfc4d-83e2-4ce3-8ef5-7e65c7696155*%
X144141800Y-40781300D03*
%TO.P,,073cc950-6c71-443a-9322-2e7668835131__af778648-58a6-46e2-9b79-b8a6f3633d6c*%
X145341800Y-37961900D03*
D12*
%TO.P,,073cc950-6c71-443a-9322-2e7668835131__b4d24a05-13df-4354-809f-8439bd124ede*%
X144941800Y-39371600D03*
D10*
%TO.P,,073cc950-6c71-443a-9322-2e7668835131__d4fe8a5e-bc24-4c2a-b733-52b1b4d4bacd*%
X145341800Y-40781300D03*
D11*
%TO.P,,073cc950-6c71-443a-9322-2e7668835131__db58a2cc-74fe-4b42-a416-b53f9534a62f*%
X146351500Y-38971600D03*
D10*
%TO.P,,073cc950-6c71-443a-9322-2e7668835131__dffd5e19-b646-4974-8540-93b1015e4ae7*%
X144541800Y-37961900D03*
%TO.P,,073cc950-6c71-443a-9322-2e7668835131__f0d7f6dd-0ed0-4289-9aea-4d089b44dd94*%
X145741800Y-37961900D03*
D11*
%TO.P,,073cc950-6c71-443a-9322-2e7668835131__f3a96713-f06c-48d4-a12d-4d8e12178168*%
X146351500Y-38571600D03*
D10*
%TO.P,,073cc950-6c71-443a-9322-2e7668835131__fed3ffd0-6ad7-45a7-80e0-48a27a4eb266*%
X145741800Y-40781300D03*
D13*
%TO.P,,0c880e7a-a050-486d-a3de-b376f36c6530__880f28ef-cf41-0acc-4a98-ce0afa37b0c2*%
X151889100Y-36929900D03*
%TO.P,,0c880e7a-a050-486d-a3de-b376f36c6530__dff57d78-487b-f832-db06-4405c23ce37c*%
X150239100Y-36929900D03*
D14*
%TO.P,,0e3d493e-61ff-40f0-99ff-fa9defc471c7__115bd2d6-b657-e743-88f7-dd43f7b96996*%
X73999400Y-45379048D03*
D15*
%TO.P,,0e3d493e-61ff-40f0-99ff-fa9defc471c7__12693fdb-c4fb-dc1f-64a5-9d68fa3adabf*%
X112999400Y-45379152D03*
D13*
%TO.P,,197bb698-d3bf-483e-b157-e704c5b495e2__880f28ef-cf41-0acc-4a98-ce0afa37b0c2*%
X151889100Y-40171600D03*
%TO.P,,197bb698-d3bf-483e-b157-e704c5b495e2__dff57d78-487b-f832-db06-4405c23ce37c*%
X150239100Y-40171600D03*
D14*
%TO.P,,19f2db59-160f-4435-a590-40f79bed2ec5__115bd2d6-b657-e743-88f7-dd43f7b96996*%
X29013500Y-30363748D03*
D15*
%TO.P,,19f2db59-160f-4435-a590-40f79bed2ec5__12693fdb-c4fb-dc1f-64a5-9d68fa3adabf*%
X68013500Y-30363852D03*
D13*
%TO.P,,3327187a-bf36-4a82-98c6-e37a4466c5c3__880f28ef-cf41-0acc-4a98-ce0afa37b0c2*%
X151889100Y-41791000D03*
%TO.P,,3327187a-bf36-4a82-98c6-e37a4466c5c3__dff57d78-487b-f832-db06-4405c23ce37c*%
X150239100Y-41791000D03*
D16*
%TO.P,,388982ad-fbce-41fd-a86e-cd1bae255a57__5a89376c-da38-4d1f-a27d-b5cbf065176c*%
X126736100Y-32948900D03*
%TO.P,,388982ad-fbce-41fd-a86e-cd1bae255a57__6f6021a1-08d7-4960-b836-5ec5ef644fad*%
X130836100Y-32948900D03*
D13*
%TO.P,,3a0028c9-57ff-495c-8791-e8a885d666e9__880f28ef-cf41-0acc-4a98-ce0afa37b0c2*%
X140143800Y-41791000D03*
%TO.P,,3a0028c9-57ff-495c-8791-e8a885d666e9__dff57d78-487b-f832-db06-4405c23ce37c*%
X138493800Y-41791000D03*
%TO.P,,3f642a56-7be4-48f4-baf0-064a932f1dc0__880f28ef-cf41-0acc-4a98-ce0afa37b0c2*%
X140143800Y-40171600D03*
%TO.P,,3f642a56-7be4-48f4-baf0-064a932f1dc0__dff57d78-487b-f832-db06-4405c23ce37c*%
X138493800Y-40171600D03*
D17*
%TO.P,,44e8f2e4-7085-4e69-a622-f6976f2544e8__d00550b8-0674-09ee-564a-fff79f785a20*%
X121727900Y-34711000D03*
%TO.P,,44e8f2e4-7085-4e69-a622-f6976f2544e8__f88ff00a-d7c0-f5a4-c8a1-dc709ad79337*%
X118927900Y-34711000D03*
D13*
%TO.P,,4b6e6ae5-0936-4a05-a8a6-c6857fb5a947__880f28ef-cf41-0acc-4a98-ce0afa37b0c2*%
X140143800Y-38571600D03*
%TO.P,,4b6e6ae5-0936-4a05-a8a6-c6857fb5a947__dff57d78-487b-f832-db06-4405c23ce37c*%
X138493800Y-38571600D03*
D18*
%TO.P,,4d18b037-9b5c-4621-8eb3-2c67941d212e__5237503d-4662-b83a-7859-31969858b9c0*%
X129286100Y-25563000D03*
%TO.P,,4d18b037-9b5c-4621-8eb3-2c67941d212e__e5e04a27-c5c4-f2e6-5799-708eb3f01464*%
X130836100Y-25563000D03*
D14*
%TO.P,,50a39319-1c9d-477c-9e98-1f6998425f7a__115bd2d6-b657-e743-88f7-dd43f7b96996*%
X68013500Y-45379200D03*
D19*
%TO.P,,50a39319-1c9d-477c-9e98-1f6998425f7a__12693fdb-c4fb-dc1f-64a5-9d68fa3adabf*%
X29013500Y-45379200D03*
D20*
%TO.P,,51a75e6f-67ab-49ee-a780-96a6a7c698dc__0e966c23-631b-43ee-8992-c7101c490bb2*%
X121727888Y-22113900D03*
D21*
%TO.P,,51a75e6f-67ab-49ee-a780-96a6a7c698dc__232671a1-e135-dab4-eda0-9d55a02977d2*%
X121727912Y-28413900D03*
%TO.P,,51a75e6f-67ab-49ee-a780-96a6a7c698dc__7a2732fe-0801-bce4-3fd6-87669f80dc90*%
X124027912Y-28413892D03*
%TO.P,,51a75e6f-67ab-49ee-a780-96a6a7c698dc__ecef58b0-6aa1-9f61-97d2-6901b27afeed*%
X119427912Y-28413908D03*
D22*
%TO.P,,5fa07325-a297-4edf-9c01-044c726b7084__1f444c1a-32fe-5a3c-09a7-fc4d154c7d32*%
X146681791Y-26903893D03*
%TO.P,,5fa07325-a297-4edf-9c01-044c726b7084__446ec1b9-a7f3-deee-ac19-ff05bb2fc3c6*%
X144141791Y-26903902D03*
%TO.P,,5fa07325-a297-4edf-9c01-044c726b7084__5254d2fb-99ee-57c2-6783-35105f702ebc*%
X142871791Y-26903907D03*
%TO.P,,5fa07325-a297-4edf-9c01-044c726b7084__52e25491-3991-1208-1e57-e9ed5e84a3f1*%
X144141809Y-31853902D03*
%TO.P,,5fa07325-a297-4edf-9c01-044c726b7084__5ac761a3-15ad-fd89-5e89-0e30ccb31e93*%
X146681809Y-31853893D03*
%TO.P,,5fa07325-a297-4edf-9c01-044c726b7084__787cd935-0a55-34d7-8eae-1aa23a1a9e06*%
X145411809Y-31853898D03*
%TO.P,,5fa07325-a297-4edf-9c01-044c726b7084__80a99845-8ad7-34f5-1f41-2fb805502c34*%
X145411791Y-26903898D03*
%TO.P,,5fa07325-a297-4edf-9c01-044c726b7084__a0fb1efc-d313-3b51-6a95-712133b05d10*%
X142871809Y-31853907D03*
D18*
%TO.P,,6f0057f8-b4e9-422c-8a36-a38ac8defdc5__5237503d-4662-b83a-7859-31969858b9c0*%
X129236100Y-27303900D03*
%TO.P,,6f0057f8-b4e9-422c-8a36-a38ac8defdc5__e5e04a27-c5c4-f2e6-5799-708eb3f01464*%
X130786100Y-27303900D03*
D13*
%TO.P,,81972f9b-6feb-4319-92a1-3c6035bfb51b__880f28ef-cf41-0acc-4a98-ce0afa37b0c2*%
X151889100Y-38571600D03*
%TO.P,,81972f9b-6feb-4319-92a1-3c6035bfb51b__dff57d78-487b-f832-db06-4405c23ce37c*%
X150239100Y-38571600D03*
D23*
%TO.P,,84113815-0100-43ee-8f20-6fec29388cff__2115f338-3bab-4386-8d6b-7124826fcf58*%
X149455800Y-31076900D03*
%TO.P,,84113815-0100-43ee-8f20-6fec29388cff__b124d3f5-a2aa-4a86-a539-6b749311e238*%
X149455800Y-24076900D03*
%TO.P,,84113815-0100-43ee-8f20-6fec29388cff__90b6595b-e792-4624-b1d1-d470e71d1a4e.defaultFootprint.mounts.fef2ba02338403870d37d6445a2b4807*%
X156455800Y-31076900D03*
%TO.P,,84113815-0100-43ee-8f20-6fec29388cff__90b6595b-e792-4624-b1d1-d470e71d1a4e.defaultFootprint.mounts.7105320c6fddc83e3ef53b8880e5f568*%
X156455800Y-24076900D03*
D18*
%TO.P,,9a4734ee-4ca1-4653-9ae6-b1f78f1312bc__5237503d-4662-b83a-7859-31969858b9c0*%
X123252900Y-31303900D03*
%TO.P,,9a4734ee-4ca1-4653-9ae6-b1f78f1312bc__e5e04a27-c5c4-f2e6-5799-708eb3f01464*%
X124802900Y-31303900D03*
D10*
%TO.P,,a75de4a2-496a-47f1-af0b-1455ac562fbc__0f95fc20-73a3-4d5c-9f20-9b2c3a2d1114*%
X155655800Y-40781300D03*
%TO.P,,a75de4a2-496a-47f1-af0b-1455ac562fbc__13275f22-2589-4b9e-84cb-a41fe6969974*%
X155255800Y-40781300D03*
D11*
%TO.P,,a75de4a2-496a-47f1-af0b-1455ac562fbc__21855e35-a205-480d-90cc-26ee7b6ecae7*%
X157065500Y-39371600D03*
%TO.P,,a75de4a2-496a-47f1-af0b-1455ac562fbc__23afd9b1-21ff-4237-918f-55c73ae491e1*%
X154246100Y-40171600D03*
D10*
%TO.P,,a75de4a2-496a-47f1-af0b-1455ac562fbc__2ff434c6-2087-42a2-b924-88dcadc641fa*%
X154855800Y-37961900D03*
D11*
%TO.P,,a75de4a2-496a-47f1-af0b-1455ac562fbc__3875d7e8-40bb-40dd-8d10-b787a17460ea*%
X154246100Y-38571600D03*
%TO.P,,a75de4a2-496a-47f1-af0b-1455ac562fbc__550f0480-7ad6-426c-bb4b-62c76ff51d41*%
X154246100Y-38971600D03*
%TO.P,,a75de4a2-496a-47f1-af0b-1455ac562fbc__5627d4f6-bbac-4a07-92fa-aab1b83fbf5c*%
X154246100Y-39371600D03*
%TO.P,,a75de4a2-496a-47f1-af0b-1455ac562fbc__649e8e26-f034-464a-aec8-0fa2d44f2da4*%
X157065500Y-40171600D03*
%TO.P,,a75de4a2-496a-47f1-af0b-1455ac562fbc__6847a6fb-aa16-4868-98ad-a8635ba40107*%
X154246100Y-39771600D03*
D10*
%TO.P,,a75de4a2-496a-47f1-af0b-1455ac562fbc__6a5266b9-e4cc-4c1e-9ef7-ce866f11f3f4*%
X155655800Y-37961900D03*
D11*
%TO.P,,a75de4a2-496a-47f1-af0b-1455ac562fbc__7d6b18bb-3cdc-455e-bd89-5f8bac60bb99*%
X157065500Y-39771600D03*
D10*
%TO.P,,a75de4a2-496a-47f1-af0b-1455ac562fbc__8dbdfc4d-83e2-4ce3-8ef5-7e65c7696155*%
X154855800Y-40781300D03*
%TO.P,,a75de4a2-496a-47f1-af0b-1455ac562fbc__af778648-58a6-46e2-9b79-b8a6f3633d6c*%
X156055800Y-37961900D03*
D12*
%TO.P,,a75de4a2-496a-47f1-af0b-1455ac562fbc__b4d24a05-13df-4354-809f-8439bd124ede*%
X155655800Y-39371600D03*
D10*
%TO.P,,a75de4a2-496a-47f1-af0b-1455ac562fbc__d4fe8a5e-bc24-4c2a-b733-52b1b4d4bacd*%
X156055800Y-40781300D03*
D11*
%TO.P,,a75de4a2-496a-47f1-af0b-1455ac562fbc__db58a2cc-74fe-4b42-a416-b53f9534a62f*%
X157065500Y-38971600D03*
D10*
%TO.P,,a75de4a2-496a-47f1-af0b-1455ac562fbc__dffd5e19-b646-4974-8540-93b1015e4ae7*%
X155255800Y-37961900D03*
%TO.P,,a75de4a2-496a-47f1-af0b-1455ac562fbc__f0d7f6dd-0ed0-4289-9aea-4d089b44dd94*%
X156455800Y-37961900D03*
D11*
%TO.P,,a75de4a2-496a-47f1-af0b-1455ac562fbc__f3a96713-f06c-48d4-a12d-4d8e12178168*%
X157065500Y-38571600D03*
D10*
%TO.P,,a75de4a2-496a-47f1-af0b-1455ac562fbc__fed3ffd0-6ad7-45a7-80e0-48a27a4eb266*%
X156455800Y-40781300D03*
D18*
%TO.P,,bbcb8756-1b96-46c7-8f4a-bb18793a581c__5237503d-4662-b83a-7859-31969858b9c0*%
X129236100Y-29303900D03*
%TO.P,,bbcb8756-1b96-46c7-8f4a-bb18793a581c__e5e04a27-c5c4-f2e6-5799-708eb3f01464*%
X130786100Y-29303900D03*
D13*
%TO.P,,bd538fcc-b6e3-462a-a92c-fd3866ffc361__880f28ef-cf41-0acc-4a98-ce0afa37b0c2*%
X130836100Y-24076900D03*
%TO.P,,bd538fcc-b6e3-462a-a92c-fd3866ffc361__dff57d78-487b-f832-db06-4405c23ce37c*%
X129186100Y-24076900D03*
D18*
%TO.P,,c295079b-ca27-4254-88e4-a1ebb35d370c__5237503d-4662-b83a-7859-31969858b9c0*%
X129236100Y-22687000D03*
%TO.P,,c295079b-ca27-4254-88e4-a1ebb35d370c__e5e04a27-c5c4-f2e6-5799-708eb3f01464*%
X130786100Y-22687000D03*
%TO.P,,c8ef8adc-7817-4721-a58f-a7a4f8c333ce__5237503d-4662-b83a-7859-31969858b9c0*%
X123252900Y-32948900D03*
%TO.P,,c8ef8adc-7817-4721-a58f-a7a4f8c333ce__e5e04a27-c5c4-f2e6-5799-708eb3f01464*%
X124802900Y-32948900D03*
D24*
%TO.P,,e3f7da95-bed7-4591-a656-cb95071ae444__00c37983-b41d-439c-96b5-a87b33908b89*%
X132848800Y-32103900D03*
%TO.P,,e3f7da95-bed7-4591-a656-cb95071ae444__07c6aad3-7e1d-437e-99b4-10315935db02*%
X139738800Y-32103900D03*
D25*
%TO.P,,e3f7da95-bed7-4591-a656-cb95071ae444__0b19efc8-89b5-4d08-ae8f-1281103c68dc*%
X136493800Y-26058900D03*
D24*
%TO.P,,e3f7da95-bed7-4591-a656-cb95071ae444__0dea3be4-b633-4ab6-97d5-a1b6a38e8545*%
X132848800Y-28103900D03*
D25*
%TO.P,,e3f7da95-bed7-4591-a656-cb95071ae444__11ea75ad-cfdf-4366-9c2a-14283cd25d67*%
X135693800Y-32948900D03*
%TO.P,,e3f7da95-bed7-4591-a656-cb95071ae444__127f8cfa-513c-4cb8-b8d4-5c8fc276dee1*%
X136893800Y-26058900D03*
D24*
%TO.P,,e3f7da95-bed7-4591-a656-cb95071ae444__12974bb5-c17a-4b32-9df0-6c32d88badb0*%
X139738800Y-28503900D03*
%TO.P,,e3f7da95-bed7-4591-a656-cb95071ae444__1347cad1-f2a3-4761-abbf-c054ad30e9f2*%
X132848800Y-31703900D03*
D25*
%TO.P,,e3f7da95-bed7-4591-a656-cb95071ae444__17dd8299-fd1e-4752-b240-498ba078a158*%
X135293800Y-32948900D03*
%TO.P,,e3f7da95-bed7-4591-a656-cb95071ae444__26274eac-a5dd-488f-ba92-c7f12a3babe5*%
X135293800Y-26058900D03*
D24*
%TO.P,,e3f7da95-bed7-4591-a656-cb95071ae444__27a842b8-6f6c-44d1-b837-fc8e5053ef02*%
X139738800Y-30903900D03*
%TO.P,,e3f7da95-bed7-4591-a656-cb95071ae444__27adf565-f57c-46bf-a8d1-e4763fb8dacd*%
X132848800Y-30103900D03*
D25*
%TO.P,,e3f7da95-bed7-4591-a656-cb95071ae444__34a24109-2c6d-4c17-a59a-4ed339bba92c*%
X134493800Y-26058900D03*
D26*
%TO.P,,e3f7da95-bed7-4591-a656-cb95071ae444__3615bc76-ed30-4c61-871b-1447ce2c1ee1*%
X136293800Y-29503900D03*
D25*
%TO.P,,e3f7da95-bed7-4591-a656-cb95071ae444__39630d33-aef3-45f7-94d4-f5bc3253fe39*%
X133693800Y-32948900D03*
%TO.P,,e3f7da95-bed7-4591-a656-cb95071ae444__4019ad0a-d64d-4e7f-b971-2167f9c64371*%
X137293800Y-32948900D03*
D24*
%TO.P,,e3f7da95-bed7-4591-a656-cb95071ae444__44e8bd70-f0a4-4dee-a7fb-1c2d17fa74c4*%
X132848800Y-28903900D03*
%TO.P,,e3f7da95-bed7-4591-a656-cb95071ae444__4541f02c-af5e-4f35-a1d7-9d41fe3bc85d*%
X139738800Y-29703900D03*
D25*
%TO.P,,e3f7da95-bed7-4591-a656-cb95071ae444__495e78bf-081b-41db-83d3-e18c84bbddd0*%
X137693800Y-26058900D03*
D24*
%TO.P,,e3f7da95-bed7-4591-a656-cb95071ae444__4a01f517-0814-46c4-9af4-ed7f156149fe*%
X139738800Y-29303900D03*
D25*
%TO.P,,e3f7da95-bed7-4591-a656-cb95071ae444__4bad1136-aa68-4e2b-8633-cea369abf857*%
X134493800Y-32948900D03*
D24*
%TO.P,,e3f7da95-bed7-4591-a656-cb95071ae444__57e4d762-4d64-4c01-afad-98c6bf57aa53*%
X139738800Y-28903900D03*
%TO.P,,e3f7da95-bed7-4591-a656-cb95071ae444__5911e007-9fee-47eb-b955-a4bf9f63169e*%
X139738800Y-26903900D03*
%TO.P,,e3f7da95-bed7-4591-a656-cb95071ae444__77a1f500-842e-4eb4-b7cd-10d91f9b251d*%
X139738800Y-31303900D03*
D25*
%TO.P,,e3f7da95-bed7-4591-a656-cb95071ae444__7db4d389-6362-4e1d-a927-422d025ff5a2*%
X134093800Y-32948900D03*
%TO.P,,e3f7da95-bed7-4591-a656-cb95071ae444__7fb2e938-cb22-4397-83a4-d5d93f22713a*%
X136093800Y-26058900D03*
D24*
%TO.P,,e3f7da95-bed7-4591-a656-cb95071ae444__8116033a-d86d-4389-a48f-d216251118bc*%
X132848800Y-29703900D03*
%TO.P,,e3f7da95-bed7-4591-a656-cb95071ae444__81363cb2-5e19-42ce-8d65-738c406bbdf1*%
X132848800Y-31303900D03*
D25*
%TO.P,,e3f7da95-bed7-4591-a656-cb95071ae444__84d99a73-f496-44e9-acf1-a6792dda73c6*%
X137693800Y-32948900D03*
D24*
%TO.P,,e3f7da95-bed7-4591-a656-cb95071ae444__88e47f59-b6cb-4fbb-b44b-612587dd08a6*%
X132848800Y-26903900D03*
D25*
%TO.P,,e3f7da95-bed7-4591-a656-cb95071ae444__8e37bb5c-4a3f-4876-b59e-9efe10d2483a*%
X138093800Y-32948900D03*
D24*
%TO.P,,e3f7da95-bed7-4591-a656-cb95071ae444__8f2cebf9-04dd-4424-84ff-422f62876a41*%
X139738800Y-27303900D03*
D25*
%TO.P,,e3f7da95-bed7-4591-a656-cb95071ae444__8fa0c758-b1d6-4caa-b7f3-dc35aef2f23a*%
X134893800Y-26058900D03*
D24*
%TO.P,,e3f7da95-bed7-4591-a656-cb95071ae444__91462c4c-e980-402f-9fe5-63239d6d5b60*%
X139738800Y-30503900D03*
D25*
%TO.P,,e3f7da95-bed7-4591-a656-cb95071ae444__9a1fa482-7d32-4399-b741-ed74257b9924*%
X136893800Y-32948900D03*
%TO.P,,e3f7da95-bed7-4591-a656-cb95071ae444__9de9bbf8-18a7-467d-8ff5-8854d8986fd5*%
X138493800Y-32948900D03*
D24*
%TO.P,,e3f7da95-bed7-4591-a656-cb95071ae444__9e444e6b-c70c-4193-8edd-d5ff5a60163b*%
X139738800Y-28103900D03*
%TO.P,,e3f7da95-bed7-4591-a656-cb95071ae444__a05ebcc7-ad56-4389-a8cd-05fc9931b88e*%
X132848800Y-27703900D03*
D25*
%TO.P,,e3f7da95-bed7-4591-a656-cb95071ae444__afa5d72b-baa2-4f06-8bf4-f5fd80786d3f*%
X133693800Y-26058900D03*
%TO.P,,e3f7da95-bed7-4591-a656-cb95071ae444__afa7a209-f2bf-4277-bef3-d1fe334e8eb0*%
X134093800Y-26058900D03*
D24*
%TO.P,,e3f7da95-bed7-4591-a656-cb95071ae444__b597feda-80d4-4252-b0e4-d48ecf8300d7*%
X132848800Y-27303900D03*
%TO.P,,e3f7da95-bed7-4591-a656-cb95071ae444__b8f34018-73a5-4213-b26f-d540dd3f3309*%
X139738800Y-31703900D03*
D25*
%TO.P,,e3f7da95-bed7-4591-a656-cb95071ae444__bae36247-0248-4992-865c-073d7c331ddf*%
X138893800Y-26058900D03*
D24*
%TO.P,,e3f7da95-bed7-4591-a656-cb95071ae444__c396adaf-c712-4fcd-aa3e-a30f5bfee5d0*%
X132848800Y-30503900D03*
D25*
%TO.P,,e3f7da95-bed7-4591-a656-cb95071ae444__c3a5e4e6-b95f-412e-b580-7762745f0b9f*%
X135693800Y-26058900D03*
D24*
%TO.P,,e3f7da95-bed7-4591-a656-cb95071ae444__c4f79a2e-9c80-40a2-84f6-ff59a4eaf160*%
X139738800Y-27703900D03*
D25*
%TO.P,,e3f7da95-bed7-4591-a656-cb95071ae444__c7db6ce4-01ce-4091-babe-ba607b7755a2*%
X134893800Y-32948900D03*
D24*
%TO.P,,e3f7da95-bed7-4591-a656-cb95071ae444__c8fb8a58-ee94-4fc6-924e-fb7e22decf35*%
X132848800Y-28503900D03*
%TO.P,,e3f7da95-bed7-4591-a656-cb95071ae444__cab275f0-86c9-4fa0-94f4-cf846a002df2*%
X132848800Y-29303900D03*
%TO.P,,e3f7da95-bed7-4591-a656-cb95071ae444__cdbb2127-5ac7-4fcc-aa48-5e10d88b8d1b*%
X132848800Y-30903900D03*
D25*
%TO.P,,e3f7da95-bed7-4591-a656-cb95071ae444__d0eb5734-24b1-41d8-807d-1871b2d5bfc0*%
X136093800Y-32948900D03*
D24*
%TO.P,,e3f7da95-bed7-4591-a656-cb95071ae444__dee97023-a1c6-46c5-851f-747b7815d8d8*%
X139738800Y-30103900D03*
D25*
%TO.P,,e3f7da95-bed7-4591-a656-cb95071ae444__dfbfa8cf-c2a3-40c7-9527-8afb3ec3fc4a*%
X137293800Y-26058900D03*
%TO.P,,e3f7da95-bed7-4591-a656-cb95071ae444__e2f239ff-c5b9-4300-a0b3-a6cbf510cbe8*%
X138493800Y-26058900D03*
%TO.P,,e3f7da95-bed7-4591-a656-cb95071ae444__e46fcd8a-1336-47b7-a3e6-d2ed1b447b76*%
X136493800Y-32948900D03*
%TO.P,,e3f7da95-bed7-4591-a656-cb95071ae444__ef72a659-0900-4361-a1bd-b617436d5436*%
X138893800Y-32948900D03*
%TO.P,,e3f7da95-bed7-4591-a656-cb95071ae444__f6322683-4f25-4ab2-8b59-819ba1f21987*%
X138093800Y-26058900D03*
D14*
%TO.P,,e451f8dd-c0c8-4e03-b118-53d5f8021935__115bd2d6-b657-e743-88f7-dd43f7b96996*%
X112999400Y-30363900D03*
D19*
%TO.P,,e451f8dd-c0c8-4e03-b118-53d5f8021935__12693fdb-c4fb-dc1f-64a5-9d68fa3adabf*%
X73999400Y-30363900D03*
D13*
%TO.P,,e9999ece-f284-4618-8ca8-442b0b23ceb0__880f28ef-cf41-0acc-4a98-ce0afa37b0c2*%
X140143800Y-36929900D03*
%TO.P,,e9999ece-f284-4618-8ca8-442b0b23ceb0__dff57d78-487b-f832-db06-4405c23ce37c*%
X138493800Y-36929900D03*
D27*
%TO.P,,bbbf30b3-9873-4fe5-b4c3-b39d2e447d0f*%
%TO.N,Net 4*%
X141826700Y-29503900D03*
%TO.P,,f4466d34-46a7-45ea-b7e0-6d1b0d63d8e5*%
X143630900Y-30503900D03*
%TO.P,,4addef58-ce5b-4f6e-9c3b-0c5e941d127a*%
%TO.N,Net 15*%
X151889100Y-35375000D03*
%TO.P,,bc277776-3523-466e-8d04-19807279af40*%
X133693800Y-30903900D03*
%TO.P,,48359bd7-5aa0-4d27-be46-b5f0f4328bb1*%
%TO.N,Net 9*%
X141609300Y-30503900D03*
%TO.P,,9d514dd2-9041-49ca-9001-572e5a2f632f*%
X144141800Y-29503900D03*
%TO.P,,652212e0-ca75-48e6-ac04-650d2bb1c32f*%
%TO.N,Net 13*%
X134493800Y-23298100D03*
%TO.P,,fc8a629c-66fa-428f-af50-df6c2aa4a2c8*%
X129286200Y-26521700D03*
%TO.P,,98618f4d-3d50-4f8a-b51a-35eb3024b96f*%
%TO.N,Net 25*%
X145741800Y-35820200D03*
%TO.P,,b80b9b30-023e-438c-9dce-f25ad5418e55*%
X143404800Y-37082700D03*
%TO.P,,099ab4a3-0a46-4b22-8d8f-05a5ac5ed203*%
%TO.N,Net 1*%
X112999400Y-43272400D03*
%TO.P,,7ba50dd5-295e-4b5c-84c6-54fd7ae59c15*%
%TO.N,Net 11*%
X134893800Y-31853900D03*
%TO.P,,e3245ece-997a-4ab4-85c1-bea46d4174bd*%
X140986400Y-25563000D03*
%TO.P,,068633ea-07e7-4ef2-9775-bd7d20369155*%
%TO.N,GND*%
X132093400Y-31303900D03*
%TO.P,,09d70f1e-0490-4152-b114-34ecc0f13cb7*%
X116237500Y-38074300D03*
%TO.P,,24eae689-f2e0-48bf-b9c5-9c99b5c514cb*%
X128181200Y-25563000D03*
%TO.P,,2e294ba3-a775-4dba-9010-58254922cd1c*%
X144541800Y-37346100D03*
%TO.P,,42e1734d-4f8b-4df3-91f6-04b7e9b18aed*%
X129986300Y-22687000D03*
%TO.P,,68d1197b-e2d7-4d41-93ff-3061c7cf25ca*%
X143857600Y-35570500D03*
%TO.P,,a73506f4-fe2d-4446-832a-4136c74beb99*%
X129986300Y-27758700D03*
%TO.P,,d4fa95b2-7c94-4e16-8ce9-f39f1caf8f61*%
X116237500Y-40171600D03*
%TO.P,,72837dc9-12c5-48d5-9c63-da7d7c8de742.via5.9*%
X158600000Y-24400000D03*
%TO.P,,72837dc9-12c5-48d5-9c63-da7d7c8de742.via5.6*%
X113600000Y-24400000D03*
%TO.P,,72837dc9-12c5-48d5-9c63-da7d7c8de742.via5.5*%
X98600000Y-24400000D03*
%TO.P,,72837dc9-12c5-48d5-9c63-da7d7c8de742.via5.4*%
X83600000Y-24400000D03*
%TO.P,,72837dc9-12c5-48d5-9c63-da7d7c8de742.via5.3*%
X68600000Y-24400000D03*
%TO.P,,72837dc9-12c5-48d5-9c63-da7d7c8de742.via5.2*%
X53600000Y-24400000D03*
%TO.P,,72837dc9-12c5-48d5-9c63-da7d7c8de742.via5.1*%
X38600000Y-24400000D03*
%TO.P,,72837dc9-12c5-48d5-9c63-da7d7c8de742.via4.7*%
X128600000Y-39400000D03*
%TO.P,,72837dc9-12c5-48d5-9c63-da7d7c8de742.via4.3*%
X68600000Y-39400000D03*
%TO.P,,72837dc9-12c5-48d5-9c63-da7d7c8de742.via4.2*%
X53600000Y-39400000D03*
%TO.P,,72837dc9-12c5-48d5-9c63-da7d7c8de742.via4.1*%
X38600000Y-39400000D03*
%TO.P,,72837dc9-12c5-48d5-9c63-da7d7c8de742.via3.9*%
X158600000Y-54400000D03*
%TO.P,,72837dc9-12c5-48d5-9c63-da7d7c8de742.via3.8*%
X143600000Y-54400000D03*
%TO.P,,72837dc9-12c5-48d5-9c63-da7d7c8de742.via3.1*%
X38600000Y-54400000D03*
%TO.P,,72837dc9-12c5-48d5-9c63-da7d7c8de742.via2.9*%
X158600000Y-69400000D03*
%TO.P,,72837dc9-12c5-48d5-9c63-da7d7c8de742.via1.9*%
X158600000Y-84400000D03*
%TO.P,,4fc21115-44cb-454f-bff9-aa9950d0e15b*%
%TO.N,Net 2*%
X121727800Y-31703900D03*
%TO.P,,b66481bb-3f86-4e09-b66c-99d8daf08b00*%
X152917400Y-50233300D03*
%TO.P,,e96e7674-8023-4316-8a9d-f1f316b69e02*%
X137693800Y-23841300D03*
%TO.P,,50a466c0-6cb2-4e63-9706-74ed4aec7d22*%
%TO.N,Net 19*%
X152715500Y-37731600D03*
%TO.P,,7e407534-6350-40f2-bb9c-7c5f4e48b82b*%
X133693800Y-30262900D03*
%TO.P,,496fee7f-b3b8-4d78-9d7a-cf39840a1cef*%
%TO.N,Net 14*%
X129722700Y-28413900D03*
%TO.P,,9a3f9170-06b4-4f47-8d17-ec8aa27c2c91*%
X134893800Y-24026900D03*
%TO.P,,4cf99831-c033-4911-a269-b1f8d499c90d*%
%TO.N,Net 24*%
X138493800Y-35124200D03*
%TO.P,,529d1853-e150-4d19-9e1c-4cbb64743e69*%
X133802200Y-31703900D03*
%TO.P,,cfec5897-d8ef-48e4-abaa-4c81e6aef7c7*%
X144676000Y-36929900D03*
%TO.P,,f4ec8133-6b39-462f-902a-9c7e9a66c970*%
X142433700Y-36111500D03*
%TO.P,,068dbab4-919f-401d-a513-649ef6411ae5*%
%TO.N,Net 18*%
X149453300Y-47214500D03*
%TO.P,,0d9bf52f-7618-44d0-8fb1-e30c4a2b586e*%
X149453200Y-46238200D03*
%TO.P,,5bf55a37-d01e-4726-a3fe-4ca6c4702bbe*%
X149453300Y-50233400D03*
%TO.P,,6c684f02-c192-45a5-b134-dd79c2e22df7*%
X149453300Y-51114100D03*
%TO.P,,6ca2c0fd-a156-4a32-a296-7a397e1400f8*%
X149453200Y-45485900D03*
%TO.P,,6cf82a2d-4c7d-4d5f-b19a-9e0ac11696d0*%
X122142000Y-59991200D03*
%TO.P,,74c712e0-40be-41f9-bbe5-6ebba091905f*%
X149453300Y-49192900D03*
%TO.P,,89d4ac9b-0198-41a3-9338-4572abf46cc2*%
X149453300Y-52257000D03*
%TO.P,,a711c6e8-6044-4fe3-9542-2b5ef53073b5*%
X149453200Y-44552800D03*
%TO.P,,b3c0083b-8107-4b18-9004-d7183d7db9cf*%
X149453300Y-48230500D03*
%TO.P,,447eadfa-0318-4df5-8e78-a3bea300dfbf*%
%TO.N,Net 26*%
X133802200Y-29703900D03*
%TO.P,,846338c8-1d1c-4549-b9c9-33892391554c*%
X152494300Y-39188800D03*
%TO.P,,fbd46849-0b43-4bb7-bf67-352cfc1ad039*%
X156455800Y-37220700D03*
%TO.P,,72837dc9-12c5-48d5-9c63-da7d7c8de742.via.island.30*%
%TO.N,GND*%
X57022300Y-55448400D03*
%TO.P,,72837dc9-12c5-48d5-9c63-da7d7c8de742.via.island.29*%
X49248200Y-56868100D03*
%TO.P,,72837dc9-12c5-48d5-9c63-da7d7c8de742.via.island.28*%
X43561700Y-56962400D03*
%TO.P,,72837dc9-12c5-48d5-9c63-da7d7c8de742.via.island.27*%
X64478200Y-55077800D03*
%TO.P,,72837dc9-12c5-48d5-9c63-da7d7c8de742.via.island.26*%
X67205000Y-57682300D03*
%TO.P,,72837dc9-12c5-48d5-9c63-da7d7c8de742.via.island.25*%
X124490200Y-25244000D03*
%TO.P,,72837dc9-12c5-48d5-9c63-da7d7c8de742.via.island.24*%
X72534600Y-57940400D03*
%TO.P,,72837dc9-12c5-48d5-9c63-da7d7c8de742.via.island.23*%
X78133200Y-57714300D03*
%TO.P,,72837dc9-12c5-48d5-9c63-da7d7c8de742.via.island.22*%
X149057600Y-41967200D03*
%TO.P,,72837dc9-12c5-48d5-9c63-da7d7c8de742.via.island.21*%
X82190600Y-58190400D03*
%TO.P,,72837dc9-12c5-48d5-9c63-da7d7c8de742.via.island.20*%
X33744700Y-58114700D03*
%TO.P,,72837dc9-12c5-48d5-9c63-da7d7c8de742.via.island.19*%
X141375900Y-28042100D03*
%TO.P,,72837dc9-12c5-48d5-9c63-da7d7c8de742.via.island.18*%
X86523300Y-59096900D03*
%TO.P,,72837dc9-12c5-48d5-9c63-da7d7c8de742.via.island.17*%
X73857500Y-83472100D03*
%TO.P,,72837dc9-12c5-48d5-9c63-da7d7c8de742.via.island.16*%
X42117200Y-85618900D03*
%TO.P,,72837dc9-12c5-48d5-9c63-da7d7c8de742.via.island.15*%
X139683300Y-24860200D03*
%TO.P,,72837dc9-12c5-48d5-9c63-da7d7c8de742.via.island.14*%
X91670200Y-59386900D03*
%TO.P,,72837dc9-12c5-48d5-9c63-da7d7c8de742.via.island.13*%
X78665500Y-88104100D03*
%TO.P,,72837dc9-12c5-48d5-9c63-da7d7c8de742.via.island.12*%
X67970000Y-76142000D03*
%TO.P,,72837dc9-12c5-48d5-9c63-da7d7c8de742.via.island.11*%
X146555200Y-56969000D03*
%TO.P,,72837dc9-12c5-48d5-9c63-da7d7c8de742.via.island.10*%
X123347800Y-60527200D03*
%TO.P,,72837dc9-12c5-48d5-9c63-da7d7c8de742.via.island.9*%
X151210700Y-54497500D03*
%TO.P,,72837dc9-12c5-48d5-9c63-da7d7c8de742.via.island.8*%
X147238300Y-35831800D03*
%TO.P,,72837dc9-12c5-48d5-9c63-da7d7c8de742.via.island.7*%
X136326500Y-24457600D03*
%TO.P,,72837dc9-12c5-48d5-9c63-da7d7c8de742.via.island.6*%
X140398100Y-35304800D03*
%TO.P,,72837dc9-12c5-48d5-9c63-da7d7c8de742.via.island.5*%
X125121100Y-87150600D03*
%TO.P,,72837dc9-12c5-48d5-9c63-da7d7c8de742.via.island.4*%
X154448800Y-35379700D03*
%TO.P,,72837dc9-12c5-48d5-9c63-da7d7c8de742.via.island.3*%
X124470000Y-90607500D03*
%TO.P,,72837dc9-12c5-48d5-9c63-da7d7c8de742.via.island.2*%
X136816600Y-58565000D03*
%TO.P,,72837dc9-12c5-48d5-9c63-da7d7c8de742.via.island.1*%
X142413700Y-90575300D03*
%TO.P,,72837dc9-12c5-48d5-9c63-da7d7c8de742.via.island.0*%
X116273100Y-85953700D03*
%TD*%
D28*
%TO.N,Net 4*%
X141826700Y-29503900D02*
X141752900Y-29503900D01*
X141152800Y-30103900D02*
X139738800Y-30103900D01*
D29*
X144141900Y-31014900D02*
X143630900Y-30503900D01*
X144141800Y-31853900D02*
X144141800Y-31014900D01*
D28*
X141752900Y-29503900D02*
X141152900Y-30103900D01*
D29*
%TO.N,Net 8*%
X144141800Y-26903900D02*
X144141800Y-28785300D01*
X144141800Y-28785200D02*
X141372800Y-31554200D01*
D28*
X141372800Y-31554200D02*
X140781800Y-31554200D01*
X140781700Y-31554100D02*
X140632000Y-31703900D01*
X140632000Y-31703900D02*
X139738800Y-31703900D01*
%TO.N,Net 15*%
X132848800Y-30503900D02*
X133293800Y-30503900D01*
X151889100Y-35375100D02*
X151889100Y-36929900D01*
X133293800Y-30503900D02*
X133693800Y-30903900D01*
%TO.N,Net 9*%
X145411800Y-28233900D02*
X144141800Y-29503900D01*
X145411800Y-26903900D02*
X145411800Y-28233900D01*
X141609400Y-30503900D02*
X139738800Y-30503900D01*
%TO.N,Net 13*%
X128604100Y-27303900D02*
X126736100Y-29171900D01*
D29*
X129236100Y-27303900D02*
X128604100Y-27303900D01*
D28*
X126736100Y-32948900D02*
X126736100Y-29171900D01*
X129236100Y-26571900D02*
X129286200Y-26521700D01*
X129236100Y-27303900D02*
X129236100Y-26571900D01*
X134493800Y-23298100D02*
X134493800Y-26058900D01*
%TO.N,Net 25*%
X140315800Y-40171700D02*
X143404800Y-37082800D01*
X140143800Y-40171600D02*
X140315800Y-40171600D01*
X145741800Y-35820300D02*
X145741800Y-37961900D01*
D29*
%TO.N,Net 1*%
X112999400Y-45379200D02*
X112999400Y-43272400D01*
D28*
%TO.N,Net 7*%
X142871800Y-31853900D02*
X142704400Y-31853900D01*
X141609400Y-32948900D02*
X138893800Y-32948900D01*
X142704400Y-31853900D02*
X141609400Y-32948900D01*
%TO.N,Net 10*%
X129286100Y-25563000D02*
X130244700Y-26521600D01*
X131748300Y-26903900D02*
X131748300Y-27758700D01*
X132093400Y-28103900D02*
X132848800Y-28103900D01*
X130244800Y-26521600D02*
X131366000Y-26521600D01*
X131748200Y-27758700D02*
X132093400Y-28103900D01*
X131366000Y-26521700D02*
X131748200Y-26903900D01*
X130836100Y-24076900D02*
X130772200Y-24076900D01*
X130772200Y-24076900D02*
X129286200Y-25563000D01*
D29*
%TO.N,Net 11*%
X142472400Y-24076900D02*
X140986400Y-25563000D01*
D28*
X134093800Y-32428500D02*
X134093800Y-32948900D01*
X134157400Y-32364900D02*
X134093800Y-32428500D01*
X134893800Y-31853900D02*
X134382800Y-32364900D01*
X134382700Y-32365000D02*
X134157300Y-32365000D01*
D29*
X149455800Y-24076900D02*
X142472400Y-24076900D01*
%TO.N,GND*%
X73999400Y-45379000D02*
X104093000Y-45379000D01*
D28*
X131383500Y-23301500D02*
X130761700Y-23301500D01*
D29*
X73999200Y-45379200D02*
X73999400Y-45379000D01*
D28*
X130441100Y-27303900D02*
X129986300Y-27758700D01*
X142703000Y-38571500D02*
X143532000Y-38571500D01*
X143532000Y-38571500D02*
X143532200Y-38571300D01*
D29*
X68013500Y-45379200D02*
X73999300Y-45379200D01*
D28*
X131748300Y-25012100D02*
X131748300Y-23666300D01*
X130786100Y-30396500D02*
X132093500Y-31703900D01*
X130786100Y-27303900D02*
X130441100Y-27303900D01*
X130786100Y-29303900D02*
X130786100Y-30396500D01*
X131197300Y-25563000D02*
X131748300Y-25012000D01*
X132093400Y-31703900D02*
X132093400Y-32193500D01*
X128845500Y-24853200D02*
X128845500Y-24898600D01*
X151042000Y-40988100D02*
X152494400Y-40988100D01*
X129986300Y-22687000D02*
X130786100Y-22687000D01*
D29*
X107681000Y-41791000D02*
X116237500Y-41791000D01*
D28*
X155255800Y-36111500D02*
X155255800Y-37961900D01*
X140316100Y-41075700D02*
X140634900Y-40756900D01*
X132093400Y-31303900D02*
X132093400Y-31703900D01*
D29*
X104093100Y-45379000D02*
X107681100Y-41791000D01*
D28*
X130836100Y-25563000D02*
X131197300Y-25563000D01*
X129576100Y-24853200D02*
X128845500Y-24853200D01*
X128845500Y-24898600D02*
X128181100Y-25563000D01*
X142144600Y-39247200D02*
X142144600Y-39129800D01*
X138822300Y-41791000D02*
X139537700Y-41075600D01*
X150221200Y-31076900D02*
X155255800Y-36111500D01*
X129986300Y-24076900D02*
X129986300Y-24442900D01*
X131748300Y-23666300D02*
X131383500Y-23301500D01*
X140634900Y-40756900D02*
X142144700Y-39247100D01*
X144541800Y-37346100D02*
X144541800Y-37961900D01*
X132093400Y-32193500D02*
X132848800Y-32948900D01*
X129986300Y-24443000D02*
X129576100Y-24853200D01*
X138493800Y-41791000D02*
X138822400Y-41791000D01*
X139537700Y-41075700D02*
X140316100Y-41075700D01*
X130786100Y-22687000D02*
X130786300Y-22686800D01*
X146681800Y-31853900D02*
X146681800Y-32746300D01*
X152494400Y-40988100D02*
X152494400Y-39569500D01*
X150239100Y-41791000D02*
X151041900Y-40988200D01*
X132848800Y-32948900D02*
X136293800Y-29503900D01*
D29*
X131229400Y-41791000D02*
X116237500Y-41791000D01*
D28*
X142144700Y-39129700D02*
X142702900Y-38571500D01*
X152494300Y-39569600D02*
X153492300Y-38571600D01*
X146681800Y-32746300D02*
X143857600Y-35570500D01*
D29*
X131229400Y-41791000D02*
X132848800Y-40171600D01*
X119427900Y-28413900D02*
X119427900Y-31520500D01*
D28*
X149455800Y-31076900D02*
X150221200Y-31076900D01*
X130761700Y-23301500D02*
X129986300Y-24076900D01*
D29*
X116237500Y-34711000D02*
X116237500Y-38074400D01*
X119427900Y-31520600D02*
X116237500Y-34711000D01*
X116237500Y-40171600D02*
X116237500Y-41791000D01*
D28*
X153492300Y-38571600D02*
X154246100Y-38571600D01*
X132093400Y-32193500D02*
X132093600Y-32193300D01*
X132848800Y-40171500D02*
X132848800Y-32948900D01*
D29*
%TO.N,Net 3*%
X29013500Y-45379200D02*
X29013500Y-30363800D01*
X29013500Y-30363800D02*
X29013700Y-30363600D01*
D28*
%TO.N,Net 2*%
X134093800Y-24026900D02*
X134093800Y-26058900D01*
X137693800Y-26058900D02*
X137693800Y-23841300D01*
X131703200Y-21636300D02*
X134093800Y-24026900D01*
D29*
X121727900Y-28413900D02*
X121728100Y-28413700D01*
X138493800Y-38571500D02*
X138493800Y-36929900D01*
X140177400Y-23666300D02*
X137868800Y-23666300D01*
X121727900Y-22113900D02*
X121727900Y-28413900D01*
D28*
X129236100Y-22123000D02*
X129722700Y-21636400D01*
D29*
X147993200Y-36929900D02*
X146351500Y-38571500D01*
X121727900Y-28413900D02*
X121727900Y-29778900D01*
D28*
X128663100Y-22114000D02*
X129236100Y-22687000D01*
X129722700Y-21636400D02*
X131703300Y-21636400D01*
X158202300Y-38571300D02*
X158202300Y-44948300D01*
D29*
X142871800Y-26360700D02*
X140177400Y-23666300D01*
X135693800Y-32103900D02*
X135693800Y-32948900D01*
D28*
X134093800Y-24026900D02*
X133693800Y-24026900D01*
D29*
X139738800Y-32103900D02*
X135693800Y-32103900D01*
D28*
X154967200Y-38571600D02*
X154855800Y-38460200D01*
X157065500Y-38571600D02*
X158202300Y-38571300D01*
X158202400Y-44948300D02*
X152917400Y-50233300D01*
D29*
X129236100Y-22687000D02*
X129236100Y-24027000D01*
D28*
X123252900Y-31303900D02*
X122127900Y-31303900D01*
D29*
X150239100Y-40171600D02*
X150239100Y-38571600D01*
D28*
X133693800Y-24026900D02*
X133693800Y-26058900D01*
X157065500Y-38571600D02*
X154967300Y-38571600D01*
D29*
X138493800Y-40171600D02*
X138493800Y-38571600D01*
D28*
X134093800Y-26058900D02*
X134094000Y-26058700D01*
X122127800Y-31303900D02*
X121727800Y-31703900D01*
D29*
X137868800Y-23666300D02*
X137693800Y-23841300D01*
D28*
X121727800Y-22113900D02*
X128663000Y-22113900D01*
X135693800Y-34556700D02*
X135693800Y-32948900D01*
X154855800Y-38460200D02*
X154855800Y-37961900D01*
D29*
X150239200Y-36929900D02*
X147993300Y-36929900D01*
X129236100Y-24026900D02*
X129186100Y-24076900D01*
X142871800Y-26904000D02*
X142871800Y-26360600D01*
D28*
X129236100Y-22687000D02*
X129236100Y-22123000D01*
D29*
X121727900Y-29778900D02*
X123252900Y-31303900D01*
X150239100Y-38571500D02*
X150239100Y-36929900D01*
D28*
X138493800Y-36929900D02*
X138067000Y-36929900D01*
X138067000Y-36929900D02*
X135693800Y-34556700D01*
%TO.N,Net 19*%
X132848800Y-30103900D02*
X133534800Y-30103900D01*
X133534800Y-30103900D02*
X133693800Y-30262900D01*
X152715500Y-37745200D02*
X151889100Y-38571600D01*
X152715500Y-37731600D02*
X152715500Y-37745200D01*
%TO.N,Net 14*%
X129186100Y-30363900D02*
X129186100Y-29353900D01*
X130836100Y-32013900D02*
X129186100Y-30363900D01*
X129236100Y-28900500D02*
X129722700Y-28413900D01*
X130836100Y-32948900D02*
X130836100Y-32013900D01*
X134893800Y-24026900D02*
X134893800Y-26058900D01*
X129186100Y-29353900D02*
X129236100Y-29303900D01*
X129236100Y-29303900D02*
X129236100Y-28900500D01*
%TO.N,Net 24*%
X144676000Y-37080400D02*
X144941800Y-37346200D01*
D29*
X140143800Y-36929900D02*
X141615400Y-36929900D01*
D28*
X144676000Y-36929900D02*
X144676000Y-37080300D01*
X133802200Y-31703900D02*
X132848800Y-31703900D01*
D29*
X141615300Y-36929900D02*
X142433700Y-36111500D01*
D28*
X144941800Y-37346100D02*
X144941800Y-37961900D01*
X140143800Y-36774200D02*
X138493800Y-35124200D01*
X140143800Y-36929900D02*
X140143800Y-36774300D01*
D29*
%TO.N,Net 16*%
X152632300Y-41791000D02*
X153178700Y-41244600D01*
X153178700Y-39285200D02*
X153492300Y-38971600D01*
X153492300Y-38971600D02*
X154246100Y-38971600D01*
X153178600Y-41244700D02*
X153178600Y-39285300D01*
X151889100Y-41791000D02*
X152632300Y-41791000D01*
D28*
%TO.N,Net 21*%
X143141200Y-36416700D02*
X144676000Y-36416700D01*
X140143800Y-38571600D02*
X140986400Y-38571600D01*
X145341800Y-37082700D02*
X145341800Y-37961900D01*
X140986400Y-38571600D02*
X143141200Y-36416800D01*
X144676000Y-36416800D02*
X145341800Y-37082600D01*
%TO.N,Net 17*%
X142433700Y-39240800D02*
X142702900Y-38971600D01*
X140189700Y-41791000D02*
X142433700Y-39547000D01*
X140143800Y-41791000D02*
X140189600Y-41791000D01*
X142433700Y-39546900D02*
X142433700Y-39240900D01*
X142702900Y-38971600D02*
X143532100Y-38971600D01*
%TO.N,Net 6*%
X119748700Y-33890200D02*
X118927900Y-34711000D01*
X124802900Y-32948900D02*
X124802900Y-33115100D01*
X124027900Y-28413900D02*
X124027900Y-32173900D01*
X124802900Y-33115100D02*
X124027900Y-33890100D01*
X124027900Y-33890100D02*
X119748700Y-33890100D01*
X124027900Y-32173900D02*
X124802900Y-32948900D01*
D29*
%TO.N,Net 5*%
X121727900Y-34711000D02*
X121727900Y-37071600D01*
X119427900Y-39371600D02*
X83007100Y-39371600D01*
X121727900Y-37071600D02*
X119427900Y-39371600D01*
X73999200Y-30363900D02*
X73999400Y-30363700D01*
X83007000Y-39371600D02*
X73999300Y-30363900D01*
X68013500Y-30363900D02*
X73999300Y-30363900D01*
D30*
%TO.N,Net 18*%
X40873100Y-61251300D02*
X40873100Y-91577700D01*
X83751800Y-80191000D02*
X84096000Y-80535200D01*
X64456200Y-60455800D02*
X61737600Y-60455800D01*
X89240800Y-85267300D02*
X86058400Y-85267300D01*
X47012600Y-79838000D02*
X47012600Y-64376600D01*
X98635400Y-59632800D02*
X97554200Y-60714000D01*
X52282200Y-85267200D02*
X51708400Y-85841000D01*
X79384500Y-80154900D02*
X79384500Y-86607700D01*
X63075200Y-79837900D02*
X63075200Y-62399500D01*
X84258700Y-84544200D02*
X84191100Y-84611800D01*
D28*
X156055800Y-40781300D02*
X156055800Y-42344300D01*
X152462500Y-45221400D02*
X149453300Y-48230600D01*
X150843200Y-43162800D02*
X149453200Y-44552800D01*
D30*
X70055100Y-78239300D02*
X68201500Y-78239300D01*
X48597100Y-92353200D02*
X52377900Y-92353200D01*
D29*
X39871900Y-59580900D02*
X38947600Y-60505200D01*
D30*
X84096500Y-83612700D02*
X83626700Y-84082500D01*
D29*
X38845900Y-93529600D02*
X44373900Y-93529600D01*
X43550000Y-84544200D02*
X42236800Y-83231000D01*
D30*
X77387000Y-84573700D02*
X78080600Y-85267300D01*
X50468200Y-61251300D02*
X50469600Y-84082500D01*
X88085300Y-86281400D02*
X88019700Y-86281400D01*
X96247300Y-60561400D02*
X93934300Y-60561400D01*
X31393200Y-90972200D02*
X31738800Y-91317800D01*
D28*
X29721700Y-59634900D02*
X28219100Y-61137500D01*
D30*
X88875900Y-92041900D02*
X88875900Y-87072100D01*
X68013500Y-79125900D02*
X69042500Y-80154900D01*
X57061500Y-60561400D02*
X57061500Y-93462000D01*
D29*
X72863100Y-94185600D02*
X72863100Y-84082500D01*
D30*
X59426400Y-60978200D02*
X58953400Y-60505200D01*
X83626700Y-59632900D02*
X82670900Y-59632900D01*
D29*
X46107600Y-55572500D02*
X46107600Y-59634900D01*
D30*
X90031500Y-61567100D02*
X89909900Y-61445500D01*
X53429700Y-61116500D02*
X53429700Y-61445500D01*
X73951700Y-79324400D02*
X73951700Y-64017800D01*
X70981400Y-60561400D02*
X70981400Y-82187800D01*
D28*
X154855800Y-41898500D02*
X153178700Y-43575700D01*
D29*
X37953400Y-94320800D02*
X45009000Y-94320800D01*
D30*
X29214100Y-61116500D02*
X29214100Y-92041900D01*
X48597100Y-81239600D02*
X48597100Y-61695000D01*
X89104600Y-59632900D02*
X88078600Y-59632900D01*
X87720300Y-59991200D02*
X87720300Y-83491000D01*
D29*
X37953400Y-59941200D02*
X35828600Y-59941200D01*
X46107600Y-50479300D02*
X41014400Y-55572500D01*
X90452700Y-58284900D02*
X89104700Y-59632900D01*
X36114500Y-81127300D02*
X36114700Y-61873300D01*
D30*
X72863100Y-79889100D02*
X73386900Y-79889100D01*
X66414300Y-88575700D02*
X66055900Y-88934100D01*
D29*
X35264600Y-81239600D02*
X36002200Y-81239600D01*
D28*
X143337700Y-40171600D02*
X142433700Y-41075600D01*
D29*
X35210700Y-59634900D02*
X33442900Y-59634900D01*
X144541800Y-41885000D02*
X134169600Y-52257200D01*
D30*
X60034500Y-91317800D02*
X61048100Y-91317800D01*
X69712100Y-76361900D02*
X68013500Y-78060500D01*
X99901800Y-59632800D02*
X98635400Y-59632800D01*
X99386500Y-61347900D02*
X99386500Y-80154900D01*
D28*
X154855800Y-40781300D02*
X154855800Y-41898500D01*
D30*
X98567600Y-92032600D02*
X98567600Y-85909200D01*
X75409100Y-82187800D02*
X75647500Y-82426200D01*
X72241900Y-86428400D02*
X71601800Y-85788300D01*
D28*
X151704400Y-43987000D02*
X149453200Y-46238200D01*
D30*
X61618200Y-79889000D02*
X62264400Y-80535200D01*
X42753000Y-92285500D02*
X42996600Y-92041900D01*
X70055200Y-61584500D02*
X68051600Y-59580900D01*
X67462700Y-73769500D02*
X70055100Y-76361900D01*
X69221300Y-70461900D02*
X69221300Y-61763300D01*
X52377800Y-87553200D02*
X51995400Y-87170800D01*
X95835000Y-85841000D02*
X95564800Y-86111200D01*
X32538400Y-83098400D02*
X32538400Y-59941200D01*
X68456500Y-79837900D02*
X70055100Y-78239300D01*
X82670900Y-59632900D02*
X81775100Y-60528700D01*
X43822800Y-59635000D02*
X43516600Y-59941200D01*
X99386500Y-80154900D02*
X100478500Y-80154900D01*
X74534600Y-84611800D02*
X74534600Y-94185600D01*
D29*
X36997900Y-82026300D02*
X36997900Y-61228900D01*
D30*
X81557800Y-92353200D02*
X81557800Y-86281400D01*
X30494500Y-61873300D02*
X30494500Y-91663300D01*
X31462300Y-61251300D02*
X31116500Y-61251300D01*
X32538400Y-59941100D02*
X30389400Y-59941100D01*
D28*
X100076400Y-59458200D02*
X99901800Y-59632800D01*
D29*
X35264600Y-61116500D02*
X35264600Y-81239500D01*
D30*
X102487200Y-60455800D02*
X98825800Y-60455800D01*
X69375500Y-92041900D02*
X69131900Y-92285500D01*
D29*
X36997900Y-61228900D02*
X36885500Y-61116500D01*
X134169600Y-55917600D02*
X77387000Y-55917600D01*
D28*
X153492300Y-45486000D02*
X153160300Y-45486000D01*
D30*
X100342000Y-83749100D02*
X100478400Y-83612700D01*
D29*
X44373900Y-85840900D02*
X44321300Y-85788300D01*
D30*
X76779500Y-59991200D02*
X76779500Y-83475400D01*
D28*
X157623900Y-42943500D02*
X149453300Y-51114100D01*
D29*
X147329200Y-44552800D02*
X134157400Y-57724600D01*
D30*
X63886000Y-83563300D02*
X63953600Y-83495700D01*
X86161000Y-82426200D02*
X86161000Y-60714000D01*
X34296800Y-92285500D02*
X34296800Y-85788300D01*
X35264600Y-93529600D02*
X35264600Y-84682400D01*
X78774600Y-59632900D02*
X77137800Y-59632900D01*
X77387000Y-61695000D02*
X77387000Y-84573800D01*
X93099300Y-59632900D02*
X92741000Y-59991200D01*
X28219100Y-61137400D02*
X28219100Y-92353200D01*
D28*
X152494300Y-42570000D02*
X150564500Y-42570000D01*
X157065500Y-39771600D02*
X157623900Y-39771600D01*
X152827000Y-42237200D02*
X152494300Y-42570000D01*
D30*
X58818300Y-61918500D02*
X58345300Y-61445500D01*
X96110700Y-62266900D02*
X95428300Y-61584500D01*
X49357700Y-89792600D02*
X50468300Y-90903100D01*
X84191100Y-93108900D02*
X84612200Y-93530000D01*
X28219100Y-92353100D02*
X30684100Y-94818100D01*
D29*
X146979000Y-43986900D02*
X134169600Y-56796300D01*
X38793300Y-93477000D02*
X38845900Y-93529600D01*
D30*
X55912800Y-94320800D02*
X63886000Y-94320800D01*
D29*
X66056000Y-83476600D02*
X64988400Y-84544200D01*
D30*
X96280600Y-84714000D02*
X96110800Y-84544200D01*
D28*
X133911600Y-49339000D02*
X40443800Y-49339000D01*
D30*
X69042500Y-82202000D02*
X68013500Y-83231000D01*
X96110800Y-84544200D02*
X96110800Y-62267000D01*
X60769000Y-59580900D02*
X60408800Y-59941100D01*
X83626700Y-94195600D02*
X83751900Y-94320800D01*
X32913800Y-84682400D02*
X31462400Y-83231000D01*
X78515200Y-66487500D02*
X78515200Y-73160700D01*
D29*
X144141800Y-41239600D02*
X134169600Y-51211800D01*
D30*
X82676400Y-81508300D02*
X85343600Y-81508300D01*
X99386500Y-84714000D02*
X96280500Y-84714000D01*
X100341900Y-94320800D02*
X100341900Y-83749200D01*
X69221300Y-69389200D02*
X67576500Y-69389200D01*
D28*
X95057200Y-58917900D02*
X94342200Y-59632900D01*
D30*
X77732700Y-86825100D02*
X77387000Y-87170800D01*
X72863100Y-61959100D02*
X72863100Y-79889100D01*
D29*
X144541800Y-40781300D02*
X144541800Y-41884900D01*
D30*
X51708500Y-85841000D02*
X48597100Y-85841000D01*
X31116500Y-61251300D02*
X30494500Y-61873300D01*
X85343600Y-81508300D02*
X85343600Y-61274300D01*
D29*
X44321300Y-85788300D02*
X43873500Y-85788300D01*
X45009100Y-84714000D02*
X44839300Y-84544200D01*
D30*
X81775100Y-84544200D02*
X81004900Y-84544200D01*
X60913000Y-88004900D02*
X60913000Y-88258500D01*
D28*
X143164000Y-39771600D02*
X141690800Y-41244800D01*
X141690900Y-42700000D02*
X133911600Y-50479400D01*
D30*
X94541100Y-92353200D02*
X98246900Y-92353200D01*
D29*
X134169600Y-51211800D02*
X50468200Y-51211800D01*
D30*
X31393200Y-84544200D02*
X31393200Y-90972200D01*
X90031500Y-93461900D02*
X90031500Y-61567100D01*
D28*
X142433700Y-41075600D02*
X142433700Y-41827200D01*
D30*
X74534600Y-94185600D02*
X81920000Y-94185600D01*
X43516500Y-82426200D02*
X44321300Y-83231000D01*
X74746600Y-62085200D02*
X74534600Y-61873200D01*
X83751900Y-94320800D02*
X90930300Y-94320800D01*
X61618200Y-61873300D02*
X61618200Y-79889100D01*
X68013500Y-83231000D02*
X67727500Y-83231000D01*
D29*
X151931300Y-44552800D02*
X151931300Y-44736600D01*
D30*
X60912900Y-88258500D02*
X60237300Y-88934100D01*
X68013500Y-89978500D02*
X66414300Y-91577700D01*
D29*
X38793300Y-84682500D02*
X38793300Y-93476900D01*
D30*
X100478400Y-83612700D02*
X96794000Y-83612700D01*
X48597100Y-85841000D02*
X48597100Y-92353200D01*
X33190700Y-86825100D02*
X32291900Y-86825100D01*
X96409400Y-91317800D02*
X97748600Y-89978600D01*
D28*
X153492300Y-41662300D02*
X152917300Y-42237300D01*
D30*
X58953500Y-60505200D02*
X57117700Y-60505200D01*
D29*
X34296800Y-82026300D02*
X36998000Y-82026300D01*
D30*
X88911800Y-60455800D02*
X88389400Y-60978200D01*
D28*
X155655800Y-42075600D02*
X153178600Y-44552800D01*
X151363400Y-43575700D02*
X149453200Y-45485900D01*
D29*
X72498500Y-55147900D02*
X68013500Y-59632900D01*
D30*
X72174300Y-93461900D02*
X72241900Y-93529500D01*
X70981400Y-82187800D02*
X75409200Y-82187800D01*
X31462300Y-83231000D02*
X31462300Y-61251200D01*
X29214100Y-92041900D02*
X30701900Y-93529700D01*
X85902800Y-60455800D02*
X82970800Y-60455800D01*
X32291900Y-86825100D02*
X32291900Y-89797100D01*
X50191700Y-87170800D02*
X49357700Y-88004900D01*
X84612300Y-79837900D02*
X84612300Y-62635900D01*
X49357700Y-82026200D02*
X49357700Y-61145400D01*
D28*
X30147900Y-59634900D02*
X29721700Y-59634900D01*
D29*
X42236900Y-60455800D02*
X41722300Y-59941200D01*
D30*
X68291500Y-71892300D02*
X66414300Y-73769500D01*
X74746600Y-81127200D02*
X74746600Y-62085200D01*
X58818300Y-84544200D02*
X58818300Y-61918400D01*
D28*
X153160300Y-45486000D02*
X149453300Y-49193000D01*
D30*
X67576500Y-69389100D02*
X66414300Y-70551300D01*
X101787400Y-61565900D02*
X101495800Y-61274300D01*
D28*
X152827000Y-42904500D02*
X150711200Y-42904500D01*
D29*
X147248600Y-38971600D02*
X147648600Y-39371600D01*
D30*
X101701400Y-81508300D02*
X101787500Y-81422200D01*
D29*
X145741800Y-43575600D02*
X134169600Y-55147800D01*
D30*
X70055100Y-83612700D02*
X70055100Y-61584500D01*
D28*
X156455900Y-42522400D02*
X153492300Y-45486000D01*
D30*
X92741000Y-94226800D02*
X92835000Y-94320800D01*
X68013500Y-60528700D02*
X67126500Y-61415700D01*
D28*
X154246100Y-39771600D02*
X153717500Y-39771600D01*
D30*
X77137800Y-59632900D02*
X76779500Y-59991200D01*
D29*
X144141800Y-40781300D02*
X144141800Y-41239700D01*
D30*
X87963700Y-84544200D02*
X84258700Y-84544200D01*
X81775100Y-60528700D02*
X81775100Y-82426300D01*
D28*
X134157400Y-59458200D02*
X100076400Y-59458200D01*
D30*
X31116600Y-92285500D02*
X34296800Y-92285500D01*
X79167100Y-86825100D02*
X77732700Y-86825100D01*
X84612300Y-62635900D02*
X84655300Y-62592900D01*
X58007400Y-92353200D02*
X62534600Y-92353200D01*
X63075200Y-93529800D02*
X63075200Y-84611800D01*
X75647500Y-82426200D02*
X75647500Y-60664200D01*
X35264600Y-84682500D02*
X32913800Y-84682500D01*
X80449000Y-93461900D02*
X81557700Y-92353200D01*
X52377800Y-92353200D02*
X52377800Y-87553200D01*
X67361500Y-63429400D02*
X66414300Y-64376600D01*
X78587600Y-79358100D02*
X79384400Y-80154900D01*
D29*
X45009100Y-94320800D02*
X45009100Y-84714000D01*
X66414300Y-59632800D02*
X66055900Y-59991200D01*
D28*
X153492300Y-39371600D02*
X153492300Y-41662400D01*
D30*
X60408900Y-82140300D02*
X60912900Y-82644300D01*
X61048100Y-88140100D02*
X60912900Y-88004900D01*
D28*
X153178700Y-43575700D02*
X151363400Y-43575700D01*
D29*
X145341800Y-40781300D02*
X145341800Y-42904500D01*
D30*
X88875900Y-87072000D02*
X88085300Y-86281400D01*
D28*
X157065500Y-42621200D02*
X149453300Y-50233400D01*
D30*
X86058300Y-85267400D02*
X85214400Y-86111300D01*
D28*
X153178700Y-44552800D02*
X151931300Y-44552800D01*
D30*
X84096000Y-80535200D02*
X84096000Y-80354200D01*
X81919900Y-84689000D02*
X81775100Y-84544200D01*
X57061500Y-93461900D02*
X57129100Y-93529500D01*
D29*
X144941800Y-42487100D02*
X134169600Y-53259300D01*
D30*
X57117700Y-60505200D02*
X57061500Y-60561400D01*
D28*
X150564600Y-42570000D02*
X147648600Y-45486000D01*
D30*
X51467400Y-84697600D02*
X51483800Y-84714000D01*
D29*
X85534900Y-57724700D02*
X83626700Y-59632900D01*
X70524900Y-84082500D02*
X70055100Y-83612700D01*
D28*
X141304700Y-41946000D02*
X133911700Y-49339000D01*
X156055900Y-42344200D02*
X153178700Y-45221400D01*
D30*
X88019700Y-86281400D02*
X86161000Y-88140100D01*
D29*
X71601700Y-59941000D02*
X70981400Y-60561400D01*
D30*
X83626700Y-84082400D02*
X83626700Y-94195600D01*
X57028500Y-59580900D02*
X56048000Y-60561400D01*
X49357700Y-88004800D02*
X49357700Y-89792600D01*
X96794100Y-83612700D02*
X96656700Y-83475300D01*
X75063600Y-84082800D02*
X74534600Y-84611800D01*
D28*
X157065500Y-39371600D02*
X157870500Y-39371600D01*
D29*
X73363400Y-59941100D02*
X71601800Y-59941100D01*
X39863000Y-83495700D02*
X39863000Y-83612700D01*
X41722400Y-59941200D02*
X40483200Y-59941200D01*
D30*
X68059200Y-68227000D02*
X69221400Y-69389200D01*
X54323700Y-59991200D02*
X54373700Y-59941200D01*
X70055200Y-86825200D02*
X70055200Y-85616200D01*
X56047900Y-60561400D02*
X56047900Y-94185600D01*
D28*
X157870500Y-43839800D02*
X149453300Y-52257000D01*
D30*
X77387000Y-87170800D02*
X77387000Y-91663300D01*
X40165200Y-92285500D02*
X42753000Y-92285500D01*
X89058400Y-85084900D02*
X89240800Y-85267300D01*
X48343700Y-83040200D02*
X49357700Y-82026200D01*
X67226300Y-67415100D02*
X66414300Y-68227100D01*
X66414300Y-71534600D02*
X68148500Y-71534600D01*
X30684000Y-94818100D02*
X36114600Y-94818100D01*
D29*
X147329200Y-44552800D02*
X147329200Y-39554600D01*
D30*
X98825800Y-60455800D02*
X98567600Y-60714000D01*
X88078700Y-59632800D02*
X87720300Y-59991200D01*
X45935100Y-62602100D02*
X45935100Y-80154900D01*
D28*
X143532100Y-40171600D02*
X143337700Y-40171600D01*
D30*
X72863100Y-81127200D02*
X74746700Y-81127200D01*
X98567600Y-81508300D02*
X101701400Y-81508300D01*
X86161000Y-89770700D02*
X87355400Y-90965100D01*
D29*
X151931300Y-44736500D02*
X149453300Y-47214500D01*
D30*
X68177900Y-65621700D02*
X67312100Y-66487500D01*
X70055200Y-85616300D02*
X68051600Y-83612700D01*
X82762400Y-81422300D02*
X82676400Y-81508300D01*
D29*
X43873500Y-85788300D02*
X41580900Y-83495700D01*
X40483200Y-59941200D02*
X39863000Y-60561400D01*
D30*
X61048100Y-81508300D02*
X63953600Y-81508300D01*
X83751900Y-61584500D02*
X83751900Y-80191100D01*
X89058400Y-62209800D02*
X89058400Y-85084800D01*
D29*
X34296800Y-60561400D02*
X34296800Y-82026200D01*
D28*
X157870500Y-39371600D02*
X157870500Y-43839800D01*
D30*
X96997900Y-88524700D02*
X96588500Y-88934100D01*
X51467500Y-61251300D02*
X51467500Y-84697700D01*
D29*
X55699200Y-52257100D02*
X52383800Y-55572500D01*
D30*
X80108900Y-88258500D02*
X80108900Y-88488300D01*
X102662300Y-82644300D02*
X102662300Y-60630700D01*
X84191100Y-61145300D02*
X83751900Y-61584500D01*
X31738800Y-91317800D02*
X33121600Y-91317800D01*
X73951800Y-64017800D02*
X73363400Y-63429400D01*
X47646400Y-93529700D02*
X53661200Y-93529500D01*
X97554200Y-82449900D02*
X97748600Y-82644300D01*
X47012600Y-84082700D02*
X47012600Y-94320700D01*
X54323600Y-94320800D02*
X54323600Y-59991200D01*
D29*
X146351500Y-40171600D02*
X146351500Y-43735600D01*
X37953400Y-84082600D02*
X37953400Y-94320800D01*
D30*
X69221300Y-61763300D02*
X69042500Y-61584500D01*
X47012600Y-64376500D02*
X46505600Y-63869500D01*
D29*
X63726200Y-53259300D02*
X57404600Y-59580900D01*
X41014400Y-49822700D02*
X35264600Y-55572500D01*
D30*
X68013500Y-59632900D02*
X68013500Y-60528700D01*
X66414300Y-84544300D02*
X66414300Y-88575700D01*
X87598700Y-83612700D02*
X84096500Y-83612700D01*
X95041800Y-61584500D02*
X94541200Y-62085100D01*
D29*
X133911600Y-50479300D02*
X46107600Y-50479300D01*
X146351500Y-39371600D02*
X147146300Y-39371600D01*
D30*
X50468200Y-90903100D02*
X50468200Y-88934100D01*
X94342200Y-59632900D02*
X93099400Y-59632900D01*
X68336400Y-85788300D02*
X68013500Y-86111200D01*
X33536300Y-90903200D02*
X33536300Y-87170800D01*
X76779600Y-83475400D02*
X77387000Y-84082800D01*
D28*
X141690900Y-41244700D02*
X141690900Y-42237300D01*
X155255800Y-41909800D02*
X153178600Y-43987000D01*
D30*
X64988400Y-60988000D02*
X64456200Y-60455800D01*
X59088600Y-90371800D02*
X60034600Y-91317800D01*
X87720300Y-83491100D02*
X87598700Y-83612700D01*
D29*
X147648600Y-44805900D02*
X134169600Y-58284900D01*
D30*
X84096000Y-80354100D02*
X84612200Y-79837900D01*
X94541100Y-62085200D02*
X94541100Y-92353200D01*
D29*
X33443000Y-82550900D02*
X33536400Y-82644300D01*
D30*
X68051600Y-83612700D02*
X68051600Y-79876100D01*
X71601800Y-79865800D02*
X72863100Y-81127100D01*
D29*
X50468200Y-51211900D02*
X46107600Y-55572500D01*
D30*
X66414300Y-73769500D02*
X67462700Y-73769500D01*
X74534600Y-61873200D02*
X72949000Y-61873200D01*
X86161000Y-88140100D02*
X86161000Y-89770700D01*
X67966000Y-91577700D02*
X68051600Y-91663300D01*
D28*
X141497100Y-42237300D02*
X133911700Y-49822700D01*
D30*
X62547400Y-59580900D02*
X60769000Y-59580900D01*
D29*
X42236800Y-83231000D02*
X42236800Y-60455800D01*
X134157400Y-57724700D02*
X85535000Y-57724700D01*
X81611200Y-56796300D02*
X78774600Y-59632900D01*
D30*
X45716900Y-61251300D02*
X45009100Y-61959100D01*
X93517500Y-60978200D02*
X93517500Y-93030000D01*
X89909900Y-61445500D02*
X89822700Y-61445500D01*
X52777600Y-59941200D02*
X51467500Y-61251300D01*
X68051600Y-91663300D02*
X68051600Y-90478100D01*
X68148600Y-71534700D02*
X69221400Y-70461900D01*
X70524900Y-90965100D02*
X71601700Y-92041900D01*
X69132000Y-87748400D02*
X70055200Y-86825200D01*
X79891600Y-91663300D02*
X79891600Y-88475900D01*
X67727500Y-83231000D02*
X66414300Y-84544200D01*
D29*
X41014500Y-59580900D02*
X39871900Y-59580900D01*
D30*
X30701900Y-93529600D02*
X35264700Y-93529600D01*
D28*
X152917400Y-42237300D02*
X152827000Y-42237300D01*
D30*
X85343600Y-61274300D02*
X85214600Y-61145300D01*
X97748600Y-87822700D02*
X96998000Y-87072100D01*
D29*
X35264600Y-55572500D02*
X35264600Y-59580900D01*
D30*
X51483800Y-84714000D02*
X47646400Y-84714000D01*
X67612100Y-70551300D02*
X68953100Y-71892300D01*
D28*
X141690900Y-42237300D02*
X141497100Y-42237300D01*
D30*
X46315400Y-80535200D02*
X47012600Y-79838000D01*
X66055800Y-88934100D02*
X66056000Y-93461900D01*
D28*
X153717400Y-42014100D02*
X152827000Y-42904500D01*
D30*
X66414300Y-70551300D02*
X67612100Y-70551300D01*
D29*
X36002200Y-81239600D02*
X36114600Y-81127200D01*
D30*
X80543600Y-64331500D02*
X78805000Y-62592900D01*
X97748600Y-89978600D02*
X97748600Y-87822800D01*
X46578200Y-61959100D02*
X45935200Y-62602100D01*
X68916600Y-73233100D02*
X68112800Y-73233100D01*
X62534600Y-92353200D02*
X62534600Y-86111200D01*
X95428300Y-61584500D02*
X95041900Y-61584500D01*
D29*
X144941800Y-40781300D02*
X144941800Y-42487100D01*
D30*
X98567600Y-60713900D02*
X98567600Y-81508200D01*
X78587600Y-73233200D02*
X78587600Y-79358000D01*
D29*
X68051500Y-54076700D02*
X62547300Y-59580900D01*
D30*
X47012600Y-94320800D02*
X54323600Y-94320800D01*
X62143600Y-61347900D02*
X61618300Y-61873200D01*
X48343600Y-83231000D02*
X48343600Y-83040200D01*
D29*
X145341800Y-42904500D02*
X134169600Y-54076700D01*
D30*
X82762400Y-60664200D02*
X82762400Y-81422200D01*
X79312000Y-60978200D02*
X78103800Y-60978200D01*
D29*
X35828600Y-59941200D02*
X35264600Y-60505200D01*
D28*
X153178700Y-45221400D02*
X152462500Y-45221400D01*
D30*
X67984400Y-64376600D02*
X69229600Y-65621800D01*
D29*
X44839300Y-84544200D02*
X43550100Y-84544200D01*
D30*
X69131900Y-92285500D02*
X69131900Y-87748500D01*
X71601800Y-61145400D02*
X71601800Y-79865900D01*
X64988400Y-82644300D02*
X64988400Y-60987900D01*
X69229500Y-65621800D02*
X68177900Y-65621800D01*
X68796700Y-63429400D02*
X67361500Y-63429400D01*
X53429600Y-61445500D02*
X52282200Y-62592900D01*
X48153500Y-61251300D02*
X45716900Y-61251300D01*
X30389500Y-59941100D02*
X29214100Y-61116500D01*
X98499400Y-85841000D02*
X95835000Y-85841000D01*
X42996600Y-92041900D02*
X42996600Y-88004900D01*
X78804900Y-62592900D02*
X78804900Y-66197700D01*
D28*
X141304700Y-41244700D02*
X141304700Y-41945900D01*
D30*
X70055100Y-76362000D02*
X69712100Y-76362000D01*
X75488500Y-93302900D02*
X75647500Y-93461900D01*
X60912900Y-82644300D02*
X64988300Y-82644300D01*
X80109000Y-88488200D02*
X78225400Y-90371800D01*
D29*
X41580900Y-61959100D02*
X40873100Y-61251300D01*
D28*
X150711200Y-42904500D02*
X134157400Y-59458300D01*
D30*
X43516600Y-59941200D02*
X43516600Y-82426200D01*
X54373700Y-59941200D02*
X52777500Y-59941200D01*
X72948900Y-61873300D02*
X72863100Y-61959100D01*
D29*
X146351500Y-38971600D02*
X147248700Y-38971600D01*
D30*
X33536300Y-87170800D02*
X33190700Y-86825200D01*
D29*
X39863000Y-60561400D02*
X39863000Y-83495700D01*
X52383800Y-55572500D02*
X52383800Y-59283700D01*
D30*
X48026700Y-81810000D02*
X48597100Y-81239600D01*
D28*
X141690900Y-42570000D02*
X141690900Y-42700000D01*
D29*
X64988400Y-94185600D02*
X72863000Y-94185600D01*
D30*
X69042500Y-80154900D02*
X69042500Y-82202100D01*
X48153400Y-59941100D02*
X47386600Y-59941100D01*
X95564800Y-86111200D02*
X95564800Y-91317800D01*
D28*
X155655800Y-40781300D02*
X155655800Y-42075700D01*
D30*
X67126600Y-61415700D02*
X67126600Y-61759300D01*
X96997900Y-87072100D02*
X96997900Y-88524700D01*
X75647500Y-93461900D02*
X80449100Y-93461900D01*
X63886000Y-94320800D02*
X63886000Y-83563200D01*
X85535000Y-92353200D02*
X88564600Y-92353200D01*
X59088600Y-85841000D02*
X59088600Y-90371800D01*
X85214500Y-86111300D02*
X85214500Y-92032700D01*
X51995400Y-87170800D02*
X50191800Y-87170800D01*
X78103800Y-60978200D02*
X77387000Y-61695000D01*
X68013500Y-78060500D02*
X68013500Y-79125900D01*
X48026700Y-82026200D02*
X48026700Y-81810000D01*
X40873100Y-91577700D02*
X40165300Y-92285500D01*
D29*
X39863000Y-83612700D02*
X38793200Y-84682500D01*
D30*
X78515200Y-73160800D02*
X78587600Y-73233200D01*
X66414300Y-68227000D02*
X68059100Y-68227000D01*
X92835100Y-94320800D02*
X100341900Y-94320800D01*
X99460100Y-61274300D02*
X99386500Y-61347900D01*
D28*
X157623900Y-39771600D02*
X157623900Y-42943600D01*
D30*
X89963500Y-93529900D02*
X90031500Y-93461900D01*
D29*
X133911700Y-49822700D02*
X41014500Y-49822700D01*
D30*
X58345300Y-62331900D02*
X58075100Y-62602100D01*
D29*
X134169600Y-53259300D02*
X63726200Y-53259300D01*
D30*
X79891500Y-88475900D02*
X80108900Y-88258500D01*
X88389400Y-84118400D02*
X87963600Y-84544200D01*
X46107600Y-59634900D02*
X43822800Y-59634900D01*
X80543600Y-62209800D02*
X79312000Y-60978200D01*
D29*
X64988400Y-84544200D02*
X64988400Y-94185600D01*
D30*
X66414300Y-64376600D02*
X67984300Y-64376600D01*
X61048100Y-91317800D02*
X61048100Y-88140000D01*
X81557800Y-86281400D02*
X80543600Y-85267200D01*
X42996600Y-88004900D02*
X41816800Y-86825100D01*
X84612200Y-93529900D02*
X89963600Y-93529900D01*
X67312200Y-66487500D02*
X68116400Y-66487500D01*
X93517500Y-93029900D02*
X93790500Y-93302900D01*
X95564800Y-91317800D02*
X96409400Y-91317800D01*
X84191100Y-84611800D02*
X84191100Y-93108800D01*
D28*
X155255800Y-40781300D02*
X155255800Y-41909800D01*
D30*
X85214500Y-61145300D02*
X84191100Y-61145300D01*
X72241900Y-93529400D02*
X72241900Y-86428400D01*
X68013500Y-86111200D02*
X68013500Y-89978600D01*
X66056000Y-93461900D02*
X72174300Y-93461900D01*
X77387000Y-84082800D02*
X75063600Y-84082800D01*
X68116400Y-66487500D02*
X69044000Y-67415100D01*
X70524900Y-88004800D02*
X70524900Y-90965100D01*
X44321300Y-83231000D02*
X48343700Y-83231000D01*
X79384500Y-86607700D02*
X79167100Y-86825100D01*
D29*
X147329200Y-39554600D02*
X147146300Y-39371600D01*
X34353000Y-60505200D02*
X34296800Y-60561400D01*
D30*
X44321300Y-81508300D02*
X44839300Y-82026300D01*
X30494500Y-91663300D02*
X31116700Y-92285500D01*
D28*
X154246100Y-39371600D02*
X153492300Y-39371600D01*
D30*
X75647500Y-60664300D02*
X75488500Y-60505300D01*
X81775100Y-82426200D02*
X86160900Y-82426200D01*
X75488500Y-60505300D02*
X72241900Y-60505300D01*
X45009100Y-81239600D02*
X47534100Y-81239600D01*
X67126600Y-61759400D02*
X68796600Y-63429400D01*
X91065500Y-94185600D02*
X91065500Y-60455800D01*
X48597100Y-61694900D02*
X48153500Y-61251300D01*
X63953600Y-83495700D02*
X59426400Y-83495500D01*
X90930300Y-94320800D02*
X91065500Y-94185600D01*
D29*
X44374000Y-93529600D02*
X44374000Y-85841000D01*
D30*
X68051600Y-90478100D02*
X70524900Y-88004800D01*
X60408800Y-59941100D02*
X60408800Y-82140300D01*
D28*
X134169600Y-58917800D02*
X95057200Y-58917800D01*
D30*
X63953600Y-61415600D02*
X63886000Y-61348000D01*
X63075200Y-84611800D02*
X63007600Y-84544200D01*
D29*
X146351500Y-39771600D02*
X146956500Y-39771600D01*
D30*
X62264400Y-85841000D02*
X59088600Y-85841000D01*
X89822600Y-61445500D02*
X89058400Y-62209700D01*
D28*
X143532100Y-39371600D02*
X143177700Y-39371600D01*
D29*
X35264600Y-59580900D02*
X35210600Y-59634900D01*
X35264600Y-60505200D02*
X34353000Y-60505200D01*
D30*
X47534000Y-81239600D02*
X47646400Y-81127200D01*
X77387000Y-91663300D02*
X79891600Y-91663300D01*
X97748600Y-82644300D02*
X102662200Y-82644300D01*
D29*
X146979000Y-39794000D02*
X146979000Y-43987000D01*
D28*
X153717500Y-39771600D02*
X153717500Y-42014000D01*
D30*
X82970800Y-60455800D02*
X82762400Y-60664200D01*
X45935200Y-80154900D02*
X46315400Y-80535100D01*
D28*
X154246000Y-42095300D02*
X153178600Y-43162700D01*
D30*
X46822400Y-60505200D02*
X45067400Y-60505200D01*
X96656700Y-60970800D02*
X96247300Y-60561400D01*
X52086600Y-59580900D02*
X52086600Y-59632900D01*
D29*
X52383800Y-59283700D02*
X52086600Y-59580900D01*
D30*
X52282200Y-62592900D02*
X52282200Y-85267300D01*
X47646400Y-62592900D02*
X47012600Y-61959100D01*
X58075000Y-62602100D02*
X58075000Y-92285700D01*
X32935600Y-83495600D02*
X32538400Y-83098400D01*
X97554200Y-60714000D02*
X97554200Y-82450000D01*
D29*
X68013500Y-59632900D02*
X66414300Y-59632900D01*
D28*
X147648600Y-45485900D02*
X147601400Y-45485900D01*
D30*
X102662300Y-60630800D02*
X102487300Y-60455800D01*
X78805000Y-66197700D02*
X78515200Y-66487500D01*
D28*
X40443800Y-49338900D02*
X30147800Y-59634900D01*
D30*
X66056000Y-76093800D02*
X68916600Y-73233200D01*
X44321300Y-61251300D02*
X44321300Y-81508300D01*
X59426400Y-83495600D02*
X59426400Y-60978200D01*
X73386900Y-79889100D02*
X73951700Y-79324300D01*
X36114600Y-94818100D02*
X36114600Y-83495700D01*
X99386500Y-93302900D02*
X99386500Y-84713900D01*
X47386600Y-59941100D02*
X46822500Y-60505200D01*
D29*
X38947500Y-60505200D02*
X38947500Y-83088600D01*
X36885600Y-61116500D02*
X35264600Y-61116500D01*
D30*
X47012600Y-61959100D02*
X46578200Y-61959100D01*
X53661300Y-61348100D02*
X53429700Y-61116500D01*
X101495700Y-61274300D02*
X99460100Y-61274300D01*
D28*
X142433700Y-41827200D02*
X141690900Y-42570000D01*
D30*
X57404600Y-59580900D02*
X57028400Y-59580900D01*
X33121600Y-91317900D02*
X33536400Y-90903100D01*
X98247000Y-92353200D02*
X98567600Y-92032600D01*
X71601700Y-92041900D02*
X69375500Y-92041900D01*
D29*
X33536400Y-82644400D02*
X37953400Y-82644400D01*
X41580900Y-83495700D02*
X41580900Y-61959100D01*
D30*
X81005000Y-84544200D02*
X80543600Y-84082800D01*
D28*
X153178600Y-43987000D02*
X151704400Y-43987000D01*
D30*
X63007700Y-84544200D02*
X58818300Y-84544200D01*
D29*
X147648600Y-39371600D02*
X147648600Y-44805800D01*
D28*
X156455800Y-40781300D02*
X156455800Y-42522500D01*
D30*
X47646400Y-84714000D02*
X47646400Y-93529800D01*
D29*
X146956600Y-39771600D02*
X146979000Y-39794000D01*
X134169600Y-54076700D02*
X68051600Y-54076700D01*
D30*
X69044000Y-67415100D02*
X67226200Y-67415100D01*
X62534600Y-86111200D02*
X62264400Y-85841000D01*
X34296800Y-85788400D02*
X32637400Y-85788400D01*
X68051700Y-79876100D02*
X68013500Y-79837900D01*
D29*
X134169600Y-52257200D02*
X55699200Y-52257200D01*
D30*
X75488500Y-85267300D02*
X75488500Y-93302900D01*
D29*
X77387000Y-55917500D02*
X73363400Y-59941100D01*
D30*
X44839300Y-82026300D02*
X48026700Y-82026200D01*
X91065500Y-60455800D02*
X88911700Y-60455800D01*
X68201400Y-78239200D02*
X66056000Y-76093800D01*
D29*
X134169600Y-55147800D02*
X72498600Y-55147800D01*
D30*
X47646400Y-81127200D02*
X47646400Y-62593000D01*
X96656700Y-83475400D02*
X96656700Y-60970800D01*
D28*
X143532100Y-39771600D02*
X143163900Y-39771600D01*
D30*
X52086600Y-59632900D02*
X50468200Y-61251300D01*
D29*
X146351600Y-43735600D02*
X134169600Y-55917600D01*
D30*
X68112900Y-73233200D02*
X66414300Y-71534600D01*
X63075200Y-62399500D02*
X63007600Y-62331900D01*
X87355400Y-89542300D02*
X87963600Y-88934100D01*
X88389400Y-60978200D02*
X88389400Y-84118400D01*
D29*
X33442900Y-59634900D02*
X33442900Y-82550900D01*
D30*
X61737500Y-60455900D02*
X61048100Y-61145300D01*
X66414400Y-91577700D02*
X67966000Y-91577700D01*
X87355400Y-90965100D02*
X87355400Y-89542300D01*
D29*
X134169600Y-58284900D02*
X90452600Y-58284900D01*
D30*
X36114700Y-83495700D02*
X32935700Y-83495700D01*
D28*
X157065500Y-40171600D02*
X157065500Y-42621200D01*
X153178600Y-43162800D02*
X150843200Y-43162800D01*
D30*
X58075000Y-92285600D02*
X58007400Y-92353200D01*
X56048000Y-94185600D02*
X55912800Y-94320800D01*
X81920000Y-94185600D02*
X81920000Y-84689000D01*
X80543600Y-85267200D02*
X80543600Y-64331600D01*
X101787400Y-81422200D02*
X101787400Y-61566000D01*
X93790500Y-93302900D02*
X99386500Y-93302900D01*
X50469600Y-84082600D02*
X47012600Y-84082800D01*
X32637400Y-85788400D02*
X31393200Y-84544200D01*
D29*
X72863100Y-84082500D02*
X70524900Y-84082500D01*
D30*
X49357700Y-61145300D02*
X48153500Y-59941100D01*
X68013500Y-79837900D02*
X68456500Y-79837900D01*
D29*
X145741800Y-40781300D02*
X145741800Y-43575700D01*
D30*
X63886000Y-61348000D02*
X62143600Y-61348000D01*
D28*
X154246100Y-40171600D02*
X154246100Y-42095200D01*
D29*
X66055900Y-59991200D02*
X66055900Y-83476600D01*
D30*
X86161000Y-60714000D02*
X85902800Y-60455800D01*
X62378000Y-80535200D02*
X63075200Y-79838000D01*
X92741100Y-59991200D02*
X92741100Y-94226800D01*
X45067400Y-60505300D02*
X44321400Y-61251300D01*
D29*
X41014400Y-55572500D02*
X41014600Y-59580900D01*
D30*
X45009100Y-61959100D02*
X45009100Y-81239700D01*
X57129000Y-93529500D02*
X63075200Y-93529900D01*
X85214500Y-92032600D02*
X85535100Y-92353200D01*
X78080500Y-85267300D02*
X75488500Y-85267300D01*
D28*
X143177800Y-39371500D02*
X141304600Y-41244700D01*
D29*
X38947600Y-83088500D02*
X37953400Y-84082700D01*
D30*
X58345300Y-61445500D02*
X58345300Y-62331900D01*
X68953000Y-71892200D02*
X68291600Y-71892200D01*
X100478400Y-80154900D02*
X100478400Y-62399500D01*
D28*
X147601400Y-45486000D02*
X134169600Y-58917800D01*
D30*
X53661300Y-93529600D02*
X53661300Y-61348000D01*
X88564600Y-92353200D02*
X88875900Y-92041900D01*
X98567500Y-85909200D02*
X98499300Y-85841000D01*
D29*
X134169600Y-56796300D02*
X81611200Y-56796300D01*
D30*
X63953600Y-81508400D02*
X63953600Y-61415700D01*
X72241900Y-60505400D02*
X71601700Y-61145500D01*
X32292000Y-89797200D02*
X32637600Y-90142800D01*
X71601800Y-85788300D02*
X68336400Y-85788300D01*
X62264400Y-80535200D02*
X62378000Y-80535200D01*
X93934300Y-60561400D02*
X93517500Y-60978200D01*
X61048100Y-61145300D02*
X61048100Y-81508300D01*
X80543600Y-84082800D02*
X80543600Y-62209800D01*
D29*
X37953400Y-82644400D02*
X37953400Y-59941200D01*
D28*
%TO.N,Net 26*%
X151889100Y-39794000D02*
X152494300Y-39188800D01*
X151889100Y-40171600D02*
X151889100Y-39794000D01*
X156455800Y-37220700D02*
X156455800Y-37961900D01*
X132848800Y-29703900D02*
X133802200Y-29703900D01*
X152494300Y-39188800D02*
X152494500Y-39188600D01*
X156455800Y-37961900D02*
X156456000Y-37961700D01*
%TD*%
%TA.AperFunction,Conductor*%
%TO.N,GND*%
G36*
X68081000Y-76933000D02*
G01*
X67957000Y-76933000D01*
X67179000Y-76155000D01*
X67179000Y-76031000D01*
X67859000Y-75351000D01*
X67983000Y-75351000D01*
X68761000Y-76129000D01*
X68761000Y-76253000D01*
X68081000Y-76933000D01*
G37*
%TD.AperFunction*%
%TA.AperFunction,Conductor*%
G36*
X78322000Y-89214000D02*
G01*
X78137000Y-89137000D01*
X78137000Y-87663000D01*
X78225000Y-87575000D01*
X79169000Y-87575000D01*
X79207000Y-87577000D01*
X79213000Y-87576000D01*
X79277000Y-87566000D01*
X79281000Y-87565000D01*
X79330000Y-87560000D01*
X79334000Y-87559000D01*
X79340000Y-87557000D01*
X79350000Y-87555000D01*
X79473000Y-87527000D01*
X79582000Y-87724000D01*
X79343000Y-87963000D01*
X79333000Y-87972000D01*
X79329000Y-87977000D01*
X79301000Y-88015000D01*
X79299000Y-88017000D01*
X79257000Y-88071000D01*
X79256000Y-88072000D01*
X79252000Y-88082000D01*
X79245000Y-88093000D01*
X79233000Y-88111000D01*
X79216000Y-88153000D01*
X79214000Y-88157000D01*
X79184000Y-88219000D01*
X79177000Y-88245000D01*
X79174000Y-88254000D01*
X79167000Y-88272000D01*
X79163000Y-88301000D01*
X79162000Y-88307000D01*
X79145000Y-88376000D01*
X79125000Y-88412000D01*
X78322000Y-89214000D01*
G37*
%TD.AperFunction*%
%TA.AperFunction,Conductor*%
G36*
X91768000Y-60175000D02*
G01*
X91681000Y-60022000D01*
X91670000Y-60007000D01*
X91664000Y-59997000D01*
X91662000Y-59994000D01*
X91614000Y-59946000D01*
X91571000Y-59899000D01*
X91563000Y-59892000D01*
X91561000Y-59890000D01*
X91551000Y-59882000D01*
X91545000Y-59876000D01*
X91499000Y-59845000D01*
X91497000Y-59844000D01*
X91439000Y-59802000D01*
X91434000Y-59799000D01*
X91427000Y-59797000D01*
X91416000Y-59790000D01*
X91406000Y-59785000D01*
X91359000Y-59767000D01*
X91357000Y-59766000D01*
X91273000Y-59731000D01*
X91270000Y-59731000D01*
X91258000Y-59728000D01*
X91257000Y-59728000D01*
X91252000Y-59727000D01*
X91097000Y-59703000D01*
X91049000Y-59706000D01*
X90182000Y-59706000D01*
X90105000Y-59521000D01*
X90690000Y-58935000D01*
X90745000Y-58912000D01*
X92497000Y-58912000D01*
X92574000Y-59097000D01*
X92199000Y-59472000D01*
X92181000Y-59488000D01*
X92176000Y-59494000D01*
X92140000Y-59545000D01*
X92138000Y-59548000D01*
X92101000Y-59595000D01*
X92099000Y-59600000D01*
X92093000Y-59611000D01*
X92084000Y-59623000D01*
X92079000Y-59632000D01*
X92055000Y-59690000D01*
X92053000Y-59696000D01*
X92033000Y-59735000D01*
X92027000Y-59756000D01*
X92024000Y-59766000D01*
X92016000Y-59785000D01*
X92011000Y-59823000D01*
X92009000Y-59831000D01*
X91994000Y-59895000D01*
X91993000Y-59943000D01*
X91991000Y-59956000D01*
X91991000Y-60115000D01*
X91768000Y-60175000D01*
G37*
%TD.AperFunction*%
%TA.AperFunction,Conductor*%
G36*
X43562000Y-87509000D02*
G01*
X42332000Y-86279000D01*
X42325000Y-86273000D01*
X42325000Y-86272000D01*
X42223000Y-86191000D01*
X42219000Y-86188000D01*
X42076000Y-86118000D01*
X42075000Y-86117000D01*
X41913000Y-86078000D01*
X41914000Y-86078000D01*
X41709000Y-86075000D01*
X41623000Y-85988000D01*
X41623000Y-84688000D01*
X41808000Y-84611000D01*
X43439000Y-86241000D01*
X43442000Y-86244000D01*
X43476000Y-86283000D01*
X43531000Y-86312000D01*
X43540000Y-86318000D01*
X43589000Y-86354000D01*
X43620000Y-86364000D01*
X43633000Y-86370000D01*
X43653000Y-86381000D01*
X43690000Y-86393000D01*
X43747000Y-86472000D01*
X43747000Y-87432000D01*
X43562000Y-87509000D01*
G37*
%TD.AperFunction*%
%TA.AperFunction,Conductor*%
G36*
X140348000Y-26053000D02*
G01*
X140433000Y-26138000D01*
X140319000Y-26337000D01*
X140154000Y-26294000D01*
X139592000Y-26294000D01*
X139504000Y-26206000D01*
X139504000Y-25687000D01*
X139499000Y-25644000D01*
X139492000Y-25586000D01*
X139492000Y-25584000D01*
X139462000Y-25502000D01*
X139429000Y-25423000D01*
X139426000Y-25419000D01*
X139377000Y-25360000D01*
X139376000Y-25359000D01*
X139357000Y-25335000D01*
X139354000Y-25331000D01*
X139286000Y-25265000D01*
X139284000Y-25264000D01*
X139198000Y-25215000D01*
X139161000Y-25198000D01*
X139126000Y-25183000D01*
X139118000Y-25181000D01*
X139015000Y-25154000D01*
X138774000Y-25154000D01*
X138713000Y-25170000D01*
X138675000Y-25170000D01*
X138614000Y-25154000D01*
X138357000Y-25154000D01*
X138269000Y-25066000D01*
X138269000Y-24426000D01*
X138292000Y-24371000D01*
X138347000Y-24316000D01*
X138402000Y-24293000D01*
X139886000Y-24293000D01*
X139941000Y-24316000D01*
X140461000Y-24836000D01*
X140461000Y-24960000D01*
X140349000Y-25072000D01*
X140241000Y-25260000D01*
X140189000Y-25458000D01*
X140189000Y-25669000D01*
X140241000Y-25867000D01*
X140243000Y-25871000D01*
X140348000Y-26053000D01*
G37*
%TD.AperFunction*%
%TA.AperFunction,Conductor*%
G36*
X74559000Y-83526000D02*
G01*
X73986000Y-84099000D01*
X73976000Y-84108000D01*
X73972000Y-84113000D01*
X73939000Y-84158000D01*
X73938000Y-84160000D01*
X73899000Y-84209000D01*
X73896000Y-84214000D01*
X73893000Y-84221000D01*
X73886000Y-84231000D01*
X73882000Y-84237000D01*
X73875000Y-84250000D01*
X73856000Y-84297000D01*
X73827000Y-84356000D01*
X73821000Y-84377000D01*
X73817000Y-84388000D01*
X73812000Y-84401000D01*
X73810000Y-84410000D01*
X73806000Y-84439000D01*
X73753000Y-84651000D01*
X73490000Y-84619000D01*
X73490000Y-84146000D01*
X73491000Y-84133000D01*
X73496000Y-84105000D01*
X73491000Y-84063000D01*
X73490000Y-84053000D01*
X73490000Y-84043000D01*
X73484000Y-84005000D01*
X73483000Y-84002000D01*
X73473000Y-83916000D01*
X73469000Y-83905000D01*
X73465000Y-83891000D01*
X73430000Y-83818000D01*
X73430000Y-83817000D01*
X73392000Y-83734000D01*
X73387000Y-83727000D01*
X73382000Y-83719000D01*
X73325000Y-83660000D01*
X73323000Y-83658000D01*
X73255000Y-83582000D01*
X73238000Y-83573000D01*
X73236000Y-83572000D01*
X73078000Y-83486000D01*
X72891000Y-83452000D01*
X72890000Y-83451000D01*
X72882000Y-83449000D01*
X72838000Y-83454000D01*
X72829000Y-83455000D01*
X70893000Y-83455000D01*
X70805000Y-83367000D01*
X70805000Y-83029000D01*
X70893000Y-82941000D01*
X70948000Y-82941000D01*
X70999000Y-82938000D01*
X75063000Y-82938000D01*
X75113000Y-82957000D01*
X75137000Y-82977000D01*
X75146000Y-82984000D01*
X75166000Y-83004000D01*
X75173000Y-83010000D01*
X75209000Y-83034000D01*
X75214000Y-83037000D01*
X75334000Y-83131000D01*
X75264000Y-83333000D01*
X75080000Y-83333000D01*
X75024000Y-83330000D01*
X75018000Y-83331000D01*
X74936000Y-83344000D01*
X74932000Y-83345000D01*
X74894000Y-83349000D01*
X74889000Y-83350000D01*
X74881000Y-83352000D01*
X74859000Y-83356000D01*
X74789000Y-83386000D01*
X74783000Y-83388000D01*
X74745000Y-83401000D01*
X74726000Y-83412000D01*
X74717000Y-83417000D01*
X74695000Y-83426000D01*
X74663000Y-83449000D01*
X74658000Y-83453000D01*
X74602000Y-83487000D01*
X74572000Y-83515000D01*
X74562000Y-83524000D01*
X74559000Y-83526000D01*
G37*
%TD.AperFunction*%
%TA.AperFunction,Conductor*%
G36*
X86785000Y-60277000D02*
G01*
X86424000Y-59916000D01*
X86405000Y-59895000D01*
X86349000Y-59854000D01*
X86347000Y-59853000D01*
X86308000Y-59822000D01*
X86307000Y-59821000D01*
X86299000Y-59817000D01*
X86286000Y-59810000D01*
X86268000Y-59797000D01*
X86203000Y-59770000D01*
X86159000Y-59748000D01*
X86144000Y-59745000D01*
X86129000Y-59740000D01*
X86112000Y-59733000D01*
X86075000Y-59727000D01*
X86067000Y-59725000D01*
X86000000Y-59709000D01*
X85956000Y-59708000D01*
X85947000Y-59707000D01*
X85942000Y-59706000D01*
X84704000Y-59706000D01*
X84627000Y-59521000D01*
X85772000Y-58375000D01*
X85827000Y-58352000D01*
X89236000Y-58352000D01*
X89313000Y-58537000D01*
X88991000Y-58860000D01*
X88936000Y-58883000D01*
X88077000Y-58883000D01*
X88039000Y-58881000D01*
X88033000Y-58882000D01*
X87968000Y-58892000D01*
X87964000Y-58893000D01*
X87916000Y-58898000D01*
X87906000Y-58900000D01*
X87903000Y-58901000D01*
X87890000Y-58905000D01*
X87871000Y-58908000D01*
X87868000Y-58909000D01*
X87813000Y-58932000D01*
X87810000Y-58934000D01*
X87764000Y-58950000D01*
X87742000Y-58963000D01*
X87732000Y-58968000D01*
X87715000Y-58975000D01*
X87687000Y-58995000D01*
X87682000Y-58998000D01*
X87623000Y-59033000D01*
X87615000Y-59039000D01*
X87593000Y-59062000D01*
X87578000Y-59075000D01*
X87573000Y-59078000D01*
X87183000Y-59468000D01*
X87178000Y-59472000D01*
X87157000Y-59491000D01*
X87106000Y-59562000D01*
X87104000Y-59565000D01*
X87087000Y-59586000D01*
X87078000Y-59601000D01*
X87063000Y-59622000D01*
X87033000Y-59696000D01*
X87030000Y-59702000D01*
X87013000Y-59734000D01*
X87008000Y-59754000D01*
X87004000Y-59765000D01*
X86996000Y-59784000D01*
X86995000Y-59789000D01*
X86988000Y-59839000D01*
X86986000Y-59847000D01*
X86975000Y-59892000D01*
X86974000Y-59899000D01*
X86973000Y-59933000D01*
X86971000Y-59946000D01*
X86971000Y-59947000D01*
X86970000Y-59958000D01*
X86970000Y-60200000D01*
X86785000Y-60277000D01*
G37*
%TD.AperFunction*%
%TA.AperFunction,Conductor*%
G36*
X142708000Y-28379000D02*
G01*
X143036000Y-28379000D01*
X143115000Y-28374000D01*
X143123000Y-28373000D01*
X143188000Y-28359000D01*
X143189000Y-28358000D01*
X143277000Y-28331000D01*
X143373000Y-28282000D01*
X143515000Y-28370000D01*
X143515000Y-28492000D01*
X143492000Y-28547000D01*
X142756000Y-29283000D01*
X142609000Y-29264000D01*
X142466000Y-29016000D01*
X142464000Y-29013000D01*
X142315000Y-28865000D01*
X142314000Y-28864000D01*
X142141000Y-28763000D01*
X141931000Y-28706000D01*
X141723000Y-28706000D01*
X141517000Y-28763000D01*
X141337000Y-28866000D01*
X141189000Y-29014000D01*
X141085000Y-29196000D01*
X141027000Y-29403000D01*
X141008000Y-29436000D01*
X140938000Y-29506000D01*
X140883000Y-29529000D01*
X140732000Y-29529000D01*
X140644000Y-29441000D01*
X140644000Y-29227000D01*
X140639000Y-29184000D01*
X140630000Y-29109000D01*
X140630000Y-29090000D01*
X140644000Y-28979000D01*
X140644000Y-28827000D01*
X140639000Y-28784000D01*
X140630000Y-28709000D01*
X140630000Y-28690000D01*
X140644000Y-28579000D01*
X140644000Y-28427000D01*
X140639000Y-28385000D01*
X140630000Y-28311000D01*
X140630000Y-28293000D01*
X140644000Y-28179000D01*
X140644000Y-28027000D01*
X140639000Y-27984000D01*
X140630000Y-27909000D01*
X140630000Y-27890000D01*
X140644000Y-27779000D01*
X140644000Y-27627000D01*
X140639000Y-27584000D01*
X140630000Y-27509000D01*
X140630000Y-27490000D01*
X140644000Y-27379000D01*
X140644000Y-27227000D01*
X140639000Y-27184000D01*
X140630000Y-27109000D01*
X140630000Y-27090000D01*
X140644000Y-26979000D01*
X140644000Y-26827000D01*
X140639000Y-26784000D01*
X140632000Y-26726000D01*
X140630000Y-26719000D01*
X140602000Y-26642000D01*
X140571000Y-26567000D01*
X140566000Y-26559000D01*
X140495000Y-26471000D01*
X140613000Y-26288000D01*
X140883000Y-26360000D01*
X141089000Y-26360000D01*
X141295000Y-26305000D01*
X141294000Y-26305000D01*
X141476000Y-26201000D01*
X141589000Y-26088000D01*
X141713000Y-26088000D01*
X142049000Y-26424000D01*
X142072000Y-26479000D01*
X142072000Y-27743000D01*
X142077000Y-27822000D01*
X142094000Y-27901000D01*
X142096000Y-27909000D01*
X142120000Y-27981000D01*
X142155000Y-28053000D01*
X142159000Y-28060000D01*
X142214000Y-28139000D01*
X142258000Y-28187000D01*
X142259000Y-28188000D01*
X142323000Y-28248000D01*
X142391000Y-28291000D01*
X142466000Y-28329000D01*
X142542000Y-28355000D01*
X142550000Y-28357000D01*
X142631000Y-28374000D01*
X142708000Y-28379000D01*
G37*
%TD.AperFunction*%
%TA.AperFunction,Conductor*%
G36*
X32852000Y-59261000D02*
G01*
X32749000Y-59217000D01*
X32734000Y-59214000D01*
X32731000Y-59213000D01*
X32729000Y-59213000D01*
X32724000Y-59212000D01*
X32569000Y-59188000D01*
X32520000Y-59191000D01*
X31667000Y-59191000D01*
X31590000Y-59006000D01*
X34453000Y-56143000D01*
X34638000Y-56220000D01*
X34638000Y-58920000D01*
X34550000Y-59008000D01*
X33498000Y-59008000D01*
X33483000Y-59006000D01*
X33462000Y-59002000D01*
X33418000Y-59007000D01*
X33409000Y-59008000D01*
X33404000Y-59008000D01*
X33359000Y-59015000D01*
X33357000Y-59016000D01*
X33266000Y-59028000D01*
X33255000Y-59031000D01*
X33172000Y-59071000D01*
X33170000Y-59072000D01*
X33094000Y-59107000D01*
X33086000Y-59113000D01*
X33079000Y-59117000D01*
X33020000Y-59174000D01*
X33018000Y-59176000D01*
X32938000Y-59247000D01*
X32852000Y-59261000D01*
G37*
%TD.AperFunction*%
%TA.AperFunction,Conductor*%
G36*
X131944000Y-30786000D02*
G01*
X131944000Y-31023000D01*
X131971000Y-31134000D01*
X131881000Y-31249000D01*
X130916000Y-31249000D01*
X130861000Y-31226000D01*
X129942000Y-30307000D01*
X129947000Y-30176000D01*
X130021000Y-30112000D01*
X130064000Y-30060000D01*
X130100000Y-30013000D01*
X130105000Y-30004000D01*
X130147000Y-29921000D01*
X130175000Y-29837000D01*
X130182000Y-29772000D01*
X130182000Y-29771000D01*
X130186000Y-29738000D01*
X130186000Y-29110000D01*
X130209000Y-29055000D01*
X130358000Y-28907000D01*
X130361000Y-28904000D01*
X130467000Y-28720000D01*
X130468000Y-28718000D01*
X130520000Y-28520000D01*
X130520000Y-28309000D01*
X130468000Y-28111000D01*
X130360000Y-27924000D01*
X130209000Y-27773000D01*
X130186000Y-27718000D01*
X130186000Y-27185000D01*
X130274000Y-27097000D01*
X131085000Y-27097000D01*
X131173000Y-27185000D01*
X131173000Y-27714000D01*
X131172000Y-27726000D01*
X131163000Y-27779000D01*
X131164000Y-27781000D01*
X131193000Y-27908000D01*
X131194000Y-27909000D01*
X131211000Y-27989000D01*
X131214000Y-27997000D01*
X131218000Y-28008000D01*
X131219000Y-28010000D01*
X131297000Y-28115000D01*
X131300000Y-28118000D01*
X131338000Y-28176000D01*
X131342000Y-28179000D01*
X131374000Y-28200000D01*
X131387000Y-28210000D01*
X131652000Y-28475000D01*
X131661000Y-28485000D01*
X131696000Y-28535000D01*
X131796000Y-28595000D01*
X131799000Y-28598000D01*
X131909000Y-28672000D01*
X131944000Y-28738000D01*
X131944000Y-29025000D01*
X131960000Y-29086000D01*
X131960000Y-29125000D01*
X131944000Y-29186000D01*
X131944000Y-29425000D01*
X131960000Y-29486000D01*
X131960000Y-29525000D01*
X131944000Y-29586000D01*
X131944000Y-29825000D01*
X131960000Y-29886000D01*
X131960000Y-29925000D01*
X131944000Y-29985000D01*
X131944000Y-30225000D01*
X131960000Y-30286000D01*
X131960000Y-30325000D01*
X131944000Y-30385000D01*
X131944000Y-30626000D01*
X131960000Y-30686000D01*
X131960000Y-30725000D01*
X131944000Y-30786000D01*
G37*
%TD.AperFunction*%
%TA.AperFunction,Conductor*%
G36*
X131247000Y-25046000D02*
G01*
X131250000Y-25046000D01*
X131323000Y-25029000D01*
X131328000Y-25028000D01*
X131378000Y-25012000D01*
X131379000Y-25011000D01*
X131446000Y-24978000D01*
X131506000Y-24941000D01*
X131508000Y-24939000D01*
X131566000Y-24890000D01*
X131568000Y-24888000D01*
X131612000Y-24836000D01*
X131649000Y-24787000D01*
X131655000Y-24777000D01*
X131697000Y-24694000D01*
X131724000Y-24612000D01*
X131732000Y-24545000D01*
X131732000Y-24544000D01*
X131736000Y-24511000D01*
X131736000Y-23642000D01*
X131732000Y-23609000D01*
X131725000Y-23546000D01*
X131701000Y-23473000D01*
X131699000Y-23469000D01*
X131653000Y-23367000D01*
X131601000Y-23305000D01*
X131600000Y-23304000D01*
X131571000Y-23269000D01*
X131517000Y-23224000D01*
X131515000Y-23222000D01*
X131470000Y-23188000D01*
X131463000Y-23184000D01*
X131380000Y-23142000D01*
X131295000Y-23114000D01*
X131294000Y-23113000D01*
X131229000Y-23106000D01*
X131228000Y-23106000D01*
X131195000Y-23102000D01*
X130476000Y-23102000D01*
X130443000Y-23106000D01*
X130382000Y-23113000D01*
X130318000Y-23139000D01*
X130186000Y-23050000D01*
X130186000Y-22299000D01*
X130274000Y-22211000D01*
X131433000Y-22211000D01*
X131488000Y-22234000D01*
X133108000Y-23854000D01*
X133130000Y-23923000D01*
X133119000Y-23988000D01*
X133109000Y-24045000D01*
X133110000Y-24047000D01*
X133117000Y-24080000D01*
X133119000Y-24096000D01*
X133119000Y-25499000D01*
X133117000Y-25518000D01*
X133101000Y-25578000D01*
X133101000Y-25579000D01*
X133084000Y-25644000D01*
X133084000Y-26206000D01*
X132996000Y-26294000D01*
X132433000Y-26294000D01*
X132341000Y-26318000D01*
X132303000Y-26332000D01*
X132230000Y-26364000D01*
X132163000Y-26409000D01*
X132056000Y-26399000D01*
X131805000Y-26148000D01*
X131797000Y-26138000D01*
X131763000Y-26091000D01*
X131761000Y-26089000D01*
X131682000Y-26043000D01*
X131678000Y-26040000D01*
X131587000Y-25978000D01*
X131584000Y-25977000D01*
X131578000Y-25976000D01*
X131569000Y-25974000D01*
X131568000Y-25974000D01*
X131447000Y-25953000D01*
X131356000Y-25938000D01*
X131320000Y-25945000D01*
X131305000Y-25947000D01*
X130515000Y-25947000D01*
X130460000Y-25924000D01*
X130259000Y-25723000D01*
X130236000Y-25668000D01*
X130236000Y-25458000D01*
X130259000Y-25403000D01*
X130587000Y-25075000D01*
X130642000Y-25052000D01*
X131197000Y-25052000D01*
X131247000Y-25046000D01*
G37*
%TD.AperFunction*%
%TA.AperFunction,Conductor*%
G36*
X81025000Y-60492000D02*
G01*
X81025000Y-61368000D01*
X80840000Y-61445000D01*
X79828000Y-60433000D01*
X79819000Y-60422000D01*
X79813000Y-60417000D01*
X79758000Y-60376000D01*
X79756000Y-60375000D01*
X79716000Y-60343000D01*
X79708000Y-60339000D01*
X79695000Y-60332000D01*
X79676000Y-60319000D01*
X79625000Y-60298000D01*
X79622000Y-60296000D01*
X79568000Y-60270000D01*
X79553000Y-60267000D01*
X79538000Y-60262000D01*
X79518000Y-60253000D01*
X79519000Y-60253000D01*
X79435000Y-60242000D01*
X79367000Y-60091000D01*
X79442000Y-59978000D01*
X79502000Y-59826000D01*
X79507000Y-59806000D01*
X79527000Y-59769000D01*
X81849000Y-57446000D01*
X81904000Y-57423000D01*
X84687000Y-57423000D01*
X84764000Y-57608000D01*
X83513000Y-58860000D01*
X83458000Y-58883000D01*
X82669000Y-58883000D01*
X82631000Y-58881000D01*
X82625000Y-58882000D01*
X82560000Y-58892000D01*
X82556000Y-58893000D01*
X82508000Y-58898000D01*
X82498000Y-58900000D01*
X82495000Y-58901000D01*
X82482000Y-58905000D01*
X82463000Y-58908000D01*
X82460000Y-58909000D01*
X82405000Y-58932000D01*
X82402000Y-58934000D01*
X82356000Y-58950000D01*
X82334000Y-58963000D01*
X82324000Y-58968000D01*
X82307000Y-58975000D01*
X82279000Y-58995000D01*
X82274000Y-58998000D01*
X82215000Y-59033000D01*
X82207000Y-59039000D01*
X82185000Y-59062000D01*
X82170000Y-59075000D01*
X82165000Y-59078000D01*
X81243000Y-60000000D01*
X81215000Y-60024000D01*
X81213000Y-60027000D01*
X81164000Y-60096000D01*
X81162000Y-60099000D01*
X81138000Y-60128000D01*
X81136000Y-60132000D01*
X81135000Y-60135000D01*
X81129000Y-60145000D01*
X81116000Y-60164000D01*
X81090000Y-60228000D01*
X81087000Y-60234000D01*
X81066000Y-60275000D01*
X81062000Y-60292000D01*
X81058000Y-60302000D01*
X81052000Y-60316000D01*
X81049000Y-60327000D01*
X81045000Y-60361000D01*
X81043000Y-60369000D01*
X81028000Y-60433000D01*
X81027000Y-60476000D01*
X81025000Y-60492000D01*
G37*
%TD.AperFunction*%
%TA.AperFunction,Conductor*%
G36*
X150995000Y-41301000D02*
G01*
X150995000Y-41305000D01*
X150989000Y-41355000D01*
X150989000Y-41907000D01*
X150901000Y-41995000D01*
X150609000Y-41995000D01*
X150597000Y-41994000D01*
X150543000Y-41985000D01*
X150542000Y-41985000D01*
X150422000Y-42014000D01*
X150419000Y-42015000D01*
X150334000Y-42032000D01*
X150327000Y-42035000D01*
X150318000Y-42038000D01*
X150317000Y-42038000D01*
X150315000Y-42039000D01*
X150223000Y-42109000D01*
X150219000Y-42112000D01*
X150146000Y-42160000D01*
X150142000Y-42164000D01*
X150117000Y-42202000D01*
X150108000Y-42215000D01*
X148461000Y-43861000D01*
X148276000Y-43784000D01*
X148276000Y-39351000D01*
X148278000Y-39305000D01*
X148264000Y-39254000D01*
X148263000Y-39247000D01*
X148252000Y-39182000D01*
X148240000Y-39159000D01*
X148234000Y-39143000D01*
X148226000Y-39112000D01*
X148226000Y-39110000D01*
X148197000Y-39068000D01*
X148192000Y-39059000D01*
X148169000Y-39011000D01*
X148167000Y-39008000D01*
X148145000Y-38985000D01*
X148137000Y-38975000D01*
X148131000Y-38966000D01*
X147693000Y-38529000D01*
X147690000Y-38526000D01*
X147646000Y-38478000D01*
X147645000Y-38477000D01*
X147553000Y-38426000D01*
X147532000Y-38278000D01*
X148230000Y-37580000D01*
X148285000Y-37557000D01*
X149331000Y-37557000D01*
X149399000Y-37594000D01*
X149471000Y-37707000D01*
X149471000Y-37794000D01*
X149406000Y-37898000D01*
X149381000Y-37956000D01*
X149379000Y-37959000D01*
X149359000Y-38014000D01*
X149344000Y-38086000D01*
X149339000Y-38139000D01*
X149339000Y-39011000D01*
X149344000Y-39059000D01*
X149362000Y-39134000D01*
X149363000Y-39140000D01*
X149378000Y-39186000D01*
X149380000Y-39190000D01*
X149414000Y-39260000D01*
X149458000Y-39328000D01*
X149458000Y-39416000D01*
X149409000Y-39492000D01*
X149381000Y-39556000D01*
X149379000Y-39559000D01*
X149359000Y-39614000D01*
X149344000Y-39686000D01*
X149339000Y-39735000D01*
X149339000Y-40611000D01*
X149344000Y-40659000D01*
X149362000Y-40734000D01*
X149363000Y-40740000D01*
X149378000Y-40786000D01*
X149380000Y-40790000D01*
X149414000Y-40860000D01*
X149452000Y-40919000D01*
X149501000Y-40977000D01*
X149509000Y-40985000D01*
X149568000Y-41035000D01*
X149629000Y-41073000D01*
X149696000Y-41106000D01*
X149697000Y-41107000D01*
X149747000Y-41123000D01*
X149752000Y-41124000D01*
X149825000Y-41141000D01*
X149828000Y-41141000D01*
X149878000Y-41147000D01*
X150600000Y-41147000D01*
X150650000Y-41141000D01*
X150653000Y-41141000D01*
X150725000Y-41124000D01*
X150730000Y-41123000D01*
X150732000Y-41123000D01*
X150772000Y-41109000D01*
X150879000Y-41061000D01*
X151023000Y-41178000D01*
X150995000Y-41301000D01*
G37*
%TD.AperFunction*%
%TA.AperFunction,Conductor*%
G36*
X75931000Y-59885000D02*
G01*
X75862000Y-59850000D01*
X75800000Y-59823000D01*
X75796000Y-59822000D01*
X75744000Y-59797000D01*
X75725000Y-59791000D01*
X75719000Y-59790000D01*
X75699000Y-59782000D01*
X75660000Y-59776000D01*
X75652000Y-59774000D01*
X75585000Y-59758000D01*
X75541000Y-59757000D01*
X75532000Y-59756000D01*
X75527000Y-59755000D01*
X74699000Y-59755000D01*
X74622000Y-59570000D01*
X77623000Y-56568000D01*
X77678000Y-56545000D01*
X80713000Y-56545000D01*
X80790000Y-56730000D01*
X78661000Y-58860000D01*
X78606000Y-58883000D01*
X77136000Y-58883000D01*
X77098000Y-58881000D01*
X77092000Y-58882000D01*
X77027000Y-58892000D01*
X77023000Y-58893000D01*
X76975000Y-58898000D01*
X76965000Y-58900000D01*
X76962000Y-58901000D01*
X76949000Y-58905000D01*
X76930000Y-58908000D01*
X76927000Y-58909000D01*
X76872000Y-58932000D01*
X76869000Y-58934000D01*
X76823000Y-58950000D01*
X76801000Y-58963000D01*
X76791000Y-58968000D01*
X76774000Y-58975000D01*
X76746000Y-58995000D01*
X76741000Y-58998000D01*
X76682000Y-59033000D01*
X76674000Y-59039000D01*
X76652000Y-59062000D01*
X76637000Y-59075000D01*
X76632000Y-59078000D01*
X76238000Y-59472000D01*
X76220000Y-59488000D01*
X76215000Y-59494000D01*
X76179000Y-59545000D01*
X76177000Y-59548000D01*
X76140000Y-59595000D01*
X76138000Y-59600000D01*
X76132000Y-59611000D01*
X76123000Y-59623000D01*
X76118000Y-59632000D01*
X76094000Y-59690000D01*
X76092000Y-59696000D01*
X76073000Y-59734000D01*
X76073000Y-59797000D01*
X75931000Y-59885000D01*
G37*
%TD.AperFunction*%
%TA.AperFunction,Conductor*%
G36*
X71238000Y-59423000D02*
G01*
X71213000Y-59448000D01*
X71196000Y-59461000D01*
X71192000Y-59463000D01*
X70843000Y-59812000D01*
X70811000Y-59831000D01*
X70685000Y-59870000D01*
X70544000Y-59948000D01*
X70420000Y-60061000D01*
X70418000Y-60063000D01*
X70321000Y-60198000D01*
X70256000Y-60355000D01*
X70239000Y-60475000D01*
X70063000Y-60532000D01*
X69094000Y-59563000D01*
X69094000Y-59439000D01*
X72735000Y-55798000D01*
X72790000Y-55775000D01*
X76379000Y-55775000D01*
X76456000Y-55960000D01*
X73126000Y-59291000D01*
X73071000Y-59314000D01*
X71582000Y-59314000D01*
X71537000Y-59312000D01*
X71479000Y-59328000D01*
X71469000Y-59330000D01*
X71412000Y-59338000D01*
X71389000Y-59350000D01*
X71373000Y-59356000D01*
X71343000Y-59364000D01*
X71297000Y-59393000D01*
X71289000Y-59398000D01*
X71238000Y-59423000D01*
G37*
%TD.AperFunction*%
%TA.AperFunction,Conductor*%
G36*
X66050000Y-59115000D02*
G01*
X66025000Y-59140000D01*
X66008000Y-59153000D01*
X66003000Y-59156000D01*
X65611000Y-59550000D01*
X65607000Y-59553000D01*
X65561000Y-59594000D01*
X65529000Y-59651000D01*
X65492000Y-59703000D01*
X65479000Y-59741000D01*
X65473000Y-59754000D01*
X65462000Y-59774000D01*
X65453000Y-59820000D01*
X65451000Y-59829000D01*
X65434000Y-59884000D01*
X65433000Y-59889000D01*
X65432000Y-59926000D01*
X65430000Y-59942000D01*
X65429000Y-59946000D01*
X65429000Y-60106000D01*
X65244000Y-60183000D01*
X64977000Y-59916000D01*
X64958000Y-59895000D01*
X64902000Y-59854000D01*
X64900000Y-59853000D01*
X64861000Y-59822000D01*
X64860000Y-59821000D01*
X64852000Y-59817000D01*
X64839000Y-59810000D01*
X64821000Y-59797000D01*
X64756000Y-59770000D01*
X64712000Y-59748000D01*
X64697000Y-59745000D01*
X64682000Y-59740000D01*
X64665000Y-59733000D01*
X64628000Y-59727000D01*
X64620000Y-59725000D01*
X64553000Y-59709000D01*
X64509000Y-59708000D01*
X64500000Y-59707000D01*
X64495000Y-59706000D01*
X63572000Y-59706000D01*
X63495000Y-59521000D01*
X68288000Y-54727000D01*
X68343000Y-54704000D01*
X71792000Y-54704000D01*
X71869000Y-54889000D01*
X67931000Y-58828000D01*
X67893000Y-58849000D01*
X67815000Y-58866000D01*
X67677000Y-58927000D01*
X67670000Y-58931000D01*
X67591000Y-58991000D01*
X67544000Y-59006000D01*
X66394000Y-59006000D01*
X66349000Y-59004000D01*
X66291000Y-59020000D01*
X66281000Y-59022000D01*
X66224000Y-59030000D01*
X66201000Y-59042000D01*
X66185000Y-59048000D01*
X66155000Y-59056000D01*
X66109000Y-59085000D01*
X66101000Y-59090000D01*
X66050000Y-59115000D01*
G37*
%TD.AperFunction*%
%TA.AperFunction,Conductor*%
G36*
X59492000Y-59971000D02*
G01*
X59400000Y-59903000D01*
X59398000Y-59902000D01*
X59359000Y-59871000D01*
X59358000Y-59870000D01*
X59350000Y-59866000D01*
X59337000Y-59859000D01*
X59318000Y-59846000D01*
X59267000Y-59825000D01*
X59264000Y-59823000D01*
X59210000Y-59797000D01*
X59195000Y-59794000D01*
X59180000Y-59789000D01*
X59163000Y-59782000D01*
X59126000Y-59776000D01*
X59118000Y-59774000D01*
X59051000Y-59758000D01*
X59007000Y-59757000D01*
X58998000Y-59756000D01*
X58993000Y-59755000D01*
X58380000Y-59755000D01*
X58303000Y-59570000D01*
X63963000Y-53909000D01*
X64018000Y-53886000D01*
X67092000Y-53886000D01*
X67169000Y-54071000D01*
X62433000Y-58808000D01*
X62378000Y-58831000D01*
X60767000Y-58831000D01*
X60729000Y-58829000D01*
X60723000Y-58830000D01*
X60658000Y-58840000D01*
X60654000Y-58841000D01*
X60606000Y-58846000D01*
X60596000Y-58848000D01*
X60593000Y-58849000D01*
X60580000Y-58853000D01*
X60561000Y-58856000D01*
X60558000Y-58857000D01*
X60503000Y-58880000D01*
X60500000Y-58882000D01*
X60454000Y-58898000D01*
X60432000Y-58911000D01*
X60422000Y-58916000D01*
X60405000Y-58923000D01*
X60400000Y-58926000D01*
X60380000Y-58941000D01*
X60375000Y-58945000D01*
X60307000Y-58985000D01*
X60280000Y-59012000D01*
X60273000Y-59018000D01*
X60265000Y-59024000D01*
X60264000Y-59025000D01*
X59863000Y-59427000D01*
X59857000Y-59431000D01*
X59849000Y-59438000D01*
X59846000Y-59442000D01*
X59806000Y-59497000D01*
X59804000Y-59499000D01*
X59770000Y-59544000D01*
X59768000Y-59549000D01*
X59762000Y-59559000D01*
X59751000Y-59576000D01*
X59727000Y-59634000D01*
X59724000Y-59639000D01*
X59701000Y-59685000D01*
X59696000Y-59704000D01*
X59692000Y-59716000D01*
X59685000Y-59732000D01*
X59680000Y-59768000D01*
X59678000Y-59777000D01*
X59643000Y-59917000D01*
X59492000Y-59971000D01*
G37*
%TD.AperFunction*%
%TA.AperFunction,Conductor*%
G36*
X42592000Y-59922000D02*
G01*
X42163000Y-59495000D01*
X42160000Y-59491000D01*
X42122000Y-59448000D01*
X42119000Y-59445000D01*
X42067000Y-59417000D01*
X42059000Y-59412000D01*
X42011000Y-59377000D01*
X42008000Y-59375000D01*
X41976000Y-59365000D01*
X41963000Y-59359000D01*
X41942000Y-59348000D01*
X41891000Y-59337000D01*
X41884000Y-59335000D01*
X41828000Y-59318000D01*
X41793000Y-59317000D01*
X41780000Y-59315000D01*
X41730000Y-59315000D01*
X41642000Y-59227000D01*
X41642000Y-55865000D01*
X41665000Y-55810000D01*
X46345000Y-51129000D01*
X46400000Y-51106000D01*
X49424000Y-51106000D01*
X49501000Y-51291000D01*
X45655000Y-55139000D01*
X45651000Y-55142000D01*
X45613000Y-55176000D01*
X45612000Y-55177000D01*
X45586000Y-55224000D01*
X45582000Y-55232000D01*
X45545000Y-55284000D01*
X45540000Y-55292000D01*
X45532000Y-55317000D01*
X45527000Y-55329000D01*
X45515000Y-55351000D01*
X45506000Y-55397000D01*
X45504000Y-55405000D01*
X45486000Y-55462000D01*
X45485000Y-55469000D01*
X45484000Y-55513000D01*
X45481000Y-55530000D01*
X45481000Y-55636000D01*
X45480000Y-55653000D01*
X45481000Y-55657000D01*
X45481000Y-58797000D01*
X45393000Y-58885000D01*
X43821000Y-58885000D01*
X43783000Y-58883000D01*
X43777000Y-58884000D01*
X43712000Y-58894000D01*
X43708000Y-58895000D01*
X43660000Y-58900000D01*
X43650000Y-58902000D01*
X43647000Y-58903000D01*
X43634000Y-58907000D01*
X43615000Y-58910000D01*
X43612000Y-58911000D01*
X43557000Y-58934000D01*
X43554000Y-58936000D01*
X43508000Y-58952000D01*
X43486000Y-58965000D01*
X43476000Y-58970000D01*
X43459000Y-58977000D01*
X43431000Y-58997000D01*
X43426000Y-59000000D01*
X43365000Y-59036000D01*
X43364000Y-59037000D01*
X43334000Y-59066000D01*
X43327000Y-59072000D01*
X43319000Y-59078000D01*
X43318000Y-59079000D01*
X42971000Y-59427000D01*
X42965000Y-59431000D01*
X42957000Y-59438000D01*
X42954000Y-59442000D01*
X42914000Y-59497000D01*
X42912000Y-59499000D01*
X42878000Y-59544000D01*
X42876000Y-59549000D01*
X42870000Y-59559000D01*
X42859000Y-59576000D01*
X42835000Y-59634000D01*
X42832000Y-59639000D01*
X42809000Y-59685000D01*
X42804000Y-59704000D01*
X42800000Y-59716000D01*
X42793000Y-59732000D01*
X42788000Y-59769000D01*
X42786000Y-59779000D01*
X42759000Y-59878000D01*
X42592000Y-59922000D01*
G37*
%TD.AperFunction*%
%TA.AperFunction,Conductor*%
G36*
X128292000Y-23588000D02*
G01*
X128292000Y-23591000D01*
X128286000Y-23641000D01*
X128286000Y-24513000D01*
X128292000Y-24566000D01*
X128309000Y-24639000D01*
X128310000Y-24646000D01*
X128325000Y-24691000D01*
X128327000Y-24695000D01*
X128361000Y-24765000D01*
X128396000Y-24821000D01*
X128400000Y-24899000D01*
X128376000Y-24946000D01*
X128375000Y-24949000D01*
X128360000Y-24996000D01*
X128359000Y-25001000D01*
X128342000Y-25074000D01*
X128342000Y-25075000D01*
X128341000Y-25079000D01*
X128336000Y-25127000D01*
X128336000Y-25999000D01*
X128342000Y-26052000D01*
X128359000Y-26125000D01*
X128360000Y-26132000D01*
X128375000Y-26177000D01*
X128377000Y-26181000D01*
X128411000Y-26251000D01*
X128448000Y-26308000D01*
X128483000Y-26356000D01*
X128481000Y-26460000D01*
X128406000Y-26549000D01*
X128363000Y-26611000D01*
X128356000Y-26623000D01*
X128324000Y-26695000D01*
X128324000Y-26697000D01*
X128311000Y-26729000D01*
X128272000Y-26771000D01*
X128241000Y-26785000D01*
X128102000Y-26919000D01*
X128102000Y-26920000D01*
X128019000Y-27072000D01*
X128006000Y-27089000D01*
X126364000Y-28732000D01*
X126354000Y-28740000D01*
X126305000Y-28775000D01*
X126244000Y-28876000D01*
X126241000Y-28879000D01*
X126192000Y-28952000D01*
X126191000Y-28953000D01*
X126189000Y-28965000D01*
X126187000Y-28972000D01*
X126163000Y-29118000D01*
X126152000Y-29184000D01*
X126159000Y-29218000D01*
X126161000Y-29233000D01*
X126161000Y-31161000D01*
X126073000Y-31249000D01*
X125286000Y-31249000D01*
X125286000Y-31886000D01*
X125198000Y-31974000D01*
X124691000Y-31974000D01*
X124603000Y-31886000D01*
X124603000Y-30002000D01*
X124691000Y-29914000D01*
X125278000Y-29914000D01*
X125278000Y-26914000D01*
X122443000Y-26914000D01*
X122355000Y-26826000D01*
X122355000Y-23702000D01*
X122443000Y-23614000D01*
X124128000Y-23614000D01*
X124128000Y-22777000D01*
X124216000Y-22689000D01*
X128198000Y-22689000D01*
X128286000Y-22777000D01*
X128286000Y-23123000D01*
X128292000Y-23177000D01*
X128309000Y-23249000D01*
X128310000Y-23256000D01*
X128326000Y-23304000D01*
X128347000Y-23346000D01*
X128349000Y-23415000D01*
X128325000Y-23464000D01*
X128324000Y-23468000D01*
X128310000Y-23511000D01*
X128309000Y-23516000D01*
X128292000Y-23588000D01*
G37*
%TD.AperFunction*%
%TA.AperFunction,Conductor*%
G36*
X38734000Y-59831000D02*
G01*
X38581000Y-59805000D01*
X38513000Y-59661000D01*
X38483000Y-59596000D01*
X38475000Y-59584000D01*
X38474000Y-59581000D01*
X38471000Y-59577000D01*
X38414000Y-59518000D01*
X38412000Y-59516000D01*
X38349000Y-59446000D01*
X38347000Y-59445000D01*
X38338000Y-59439000D01*
X38334000Y-59436000D01*
X38256000Y-59394000D01*
X38255000Y-59394000D01*
X38167000Y-59345000D01*
X38163000Y-59343000D01*
X37975000Y-59308000D01*
X37972000Y-59308000D01*
X37928000Y-59313000D01*
X37919000Y-59314000D01*
X35980000Y-59314000D01*
X35892000Y-59226000D01*
X35892000Y-55866000D01*
X35915000Y-55811000D01*
X41252000Y-50473000D01*
X41307000Y-50450000D01*
X44987000Y-50450000D01*
X45064000Y-50635000D01*
X40562000Y-55139000D01*
X40558000Y-55142000D01*
X40520000Y-55176000D01*
X40494000Y-55223000D01*
X40490000Y-55230000D01*
X40450000Y-55285000D01*
X40438000Y-55320000D01*
X40432000Y-55334000D01*
X40421000Y-55354000D01*
X40414000Y-55392000D01*
X40412000Y-55400000D01*
X40392000Y-55465000D01*
X40391000Y-55471000D01*
X40390000Y-55508000D01*
X40389000Y-55517000D01*
X40388000Y-55527000D01*
X40388000Y-55586000D01*
X40386000Y-55654000D01*
X40388000Y-55671000D01*
X40388000Y-58866000D01*
X40300000Y-58954000D01*
X39852000Y-58954000D01*
X39807000Y-58952000D01*
X39749000Y-58968000D01*
X39739000Y-58970000D01*
X39682000Y-58978000D01*
X39659000Y-58990000D01*
X39643000Y-58996000D01*
X39613000Y-59004000D01*
X39610000Y-59005000D01*
X39566000Y-59034000D01*
X39557000Y-59039000D01*
X39509000Y-59062000D01*
X39483000Y-59088000D01*
X39466000Y-59101000D01*
X39461000Y-59104000D01*
X38734000Y-59831000D01*
G37*
%TD.AperFunction*%
%TA.AperFunction,Conductor*%
G36*
X50028000Y-60630000D02*
G01*
X49904000Y-60630000D01*
X48663000Y-59389000D01*
X48655000Y-59380000D01*
X48614000Y-59351000D01*
X48612000Y-59349000D01*
X48553000Y-59303000D01*
X48544000Y-59299000D01*
X48534000Y-59292000D01*
X48527000Y-59287000D01*
X48519000Y-59282000D01*
X48462000Y-59258000D01*
X48459000Y-59257000D01*
X48409000Y-59233000D01*
X48390000Y-59227000D01*
X48384000Y-59226000D01*
X48364000Y-59218000D01*
X48325000Y-59212000D01*
X48317000Y-59210000D01*
X48250000Y-59194000D01*
X48206000Y-59193000D01*
X48197000Y-59192000D01*
X48192000Y-59191000D01*
X47385000Y-59191000D01*
X47347000Y-59189000D01*
X47341000Y-59190000D01*
X47276000Y-59200000D01*
X47272000Y-59201000D01*
X47224000Y-59206000D01*
X47214000Y-59208000D01*
X47211000Y-59209000D01*
X47198000Y-59213000D01*
X47179000Y-59216000D01*
X47176000Y-59217000D01*
X47121000Y-59240000D01*
X47118000Y-59242000D01*
X47072000Y-59258000D01*
X47050000Y-59271000D01*
X47040000Y-59276000D01*
X47023000Y-59283000D01*
X46995000Y-59302000D01*
X46991000Y-59305000D01*
X46914000Y-59353000D01*
X46790000Y-59322000D01*
X46745000Y-59242000D01*
X46735000Y-59205000D01*
X46735000Y-55865000D01*
X46758000Y-55810000D01*
X50705000Y-51862000D01*
X50760000Y-51839000D01*
X54968000Y-51839000D01*
X55045000Y-52024000D01*
X51949000Y-55122000D01*
X51945000Y-55125000D01*
X51889000Y-55175000D01*
X51887000Y-55177000D01*
X51851000Y-55242000D01*
X51846000Y-55249000D01*
X51818000Y-55289000D01*
X51816000Y-55294000D01*
X51811000Y-55312000D01*
X51805000Y-55326000D01*
X51793000Y-55348000D01*
X51792000Y-55349000D01*
X51784000Y-55393000D01*
X51781000Y-55403000D01*
X51761000Y-55468000D01*
X51760000Y-55501000D01*
X51759000Y-55510000D01*
X51757000Y-55519000D01*
X51758000Y-55519000D01*
X51757000Y-55527000D01*
X51757000Y-55636000D01*
X51756000Y-55654000D01*
X51757000Y-55658000D01*
X51757000Y-58861000D01*
X51715000Y-58932000D01*
X51651000Y-58966000D01*
X51527000Y-59079000D01*
X51427000Y-59217000D01*
X51427000Y-59218000D01*
X51423000Y-59227000D01*
X51407000Y-59251000D01*
X50028000Y-60630000D01*
G37*
%TD.AperFunction*%
%TA.AperFunction,Conductor*%
G36*
X56523000Y-59025000D02*
G01*
X55506000Y-60042000D01*
X55487000Y-60059000D01*
X55484000Y-60063000D01*
X55446000Y-60117000D01*
X55444000Y-60120000D01*
X55412000Y-60159000D01*
X55409000Y-60165000D01*
X55402000Y-60178000D01*
X55391000Y-60194000D01*
X55354000Y-60306000D01*
X55090000Y-60249000D01*
X55106000Y-60101000D01*
X55108000Y-60092000D01*
X55120000Y-60041000D01*
X55121000Y-60034000D01*
X55122000Y-60012000D01*
X55123000Y-60005000D01*
X55127000Y-59972000D01*
X55123000Y-59914000D01*
X55123000Y-59907000D01*
X55124000Y-59877000D01*
X55124000Y-59873000D01*
X55121000Y-59857000D01*
X55119000Y-59847000D01*
X55116000Y-59811000D01*
X55115000Y-59806000D01*
X55105000Y-59770000D01*
X55103000Y-59767000D01*
X55091000Y-59714000D01*
X55082000Y-59694000D01*
X55079000Y-59685000D01*
X55069000Y-59651000D01*
X55069000Y-59650000D01*
X55050000Y-59614000D01*
X55047000Y-59609000D01*
X55028000Y-59568000D01*
X55027000Y-59565000D01*
X55004000Y-59534000D01*
X54998000Y-59524000D01*
X54989000Y-59507000D01*
X54984000Y-59500000D01*
X54955000Y-59467000D01*
X54951000Y-59463000D01*
X54929000Y-59433000D01*
X54926000Y-59430000D01*
X54906000Y-59413000D01*
X54897000Y-59405000D01*
X54875000Y-59379000D01*
X54851000Y-59363000D01*
X54844000Y-59358000D01*
X54802000Y-59322000D01*
X54781000Y-59311000D01*
X54773000Y-59305000D01*
X54739000Y-59282000D01*
X54699000Y-59266000D01*
X54693000Y-59263000D01*
X54657000Y-59243000D01*
X54620000Y-59233000D01*
X54611000Y-59229000D01*
X54586000Y-59218000D01*
X54580000Y-59216000D01*
X54548000Y-59212000D01*
X54539000Y-59209000D01*
X54502000Y-59199000D01*
X54503000Y-59199000D01*
X54440000Y-59196000D01*
X54429000Y-59194000D01*
X54419000Y-59192000D01*
X54406000Y-59191000D01*
X54372000Y-59191000D01*
X54334000Y-59189000D01*
X54324000Y-59190000D01*
X54313000Y-59191000D01*
X53099000Y-59191000D01*
X53011000Y-59103000D01*
X53011000Y-55866000D01*
X53034000Y-55811000D01*
X55937000Y-52907000D01*
X55992000Y-52884000D01*
X62951000Y-52884000D01*
X63028000Y-53069000D01*
X57290000Y-58808000D01*
X57235000Y-58831000D01*
X57026000Y-58831000D01*
X56989000Y-58829000D01*
X56980000Y-58830000D01*
X56919000Y-58839000D01*
X56917000Y-58840000D01*
X56863000Y-58846000D01*
X56858000Y-58848000D01*
X56846000Y-58851000D01*
X56826000Y-58855000D01*
X56817000Y-58857000D01*
X56754000Y-58884000D01*
X56750000Y-58886000D01*
X56708000Y-58901000D01*
X56705000Y-58902000D01*
X56693000Y-58909000D01*
X56684000Y-58914000D01*
X56662000Y-58923000D01*
X56634000Y-58945000D01*
X56628000Y-58949000D01*
X56570000Y-58982000D01*
X56570000Y-58983000D01*
X56540000Y-59012000D01*
X56532000Y-59019000D01*
X56523000Y-59025000D01*
G37*
%TD.AperFunction*%
%TA.AperFunction,Conductor*%
G36*
X91961000Y-99150000D02*
G01*
X79162000Y-99150000D01*
X68152000Y-99148000D01*
X58801000Y-99145000D01*
X50976000Y-99140000D01*
X44547000Y-99133000D01*
X39381000Y-99124000D01*
X35348000Y-99112000D01*
X32318000Y-99097000D01*
X30157000Y-99078000D01*
X28739000Y-99056000D01*
X28738000Y-99056000D01*
X27917000Y-99030000D01*
X27913000Y-99030000D01*
X27623000Y-99004000D01*
X27611000Y-99002000D01*
X27192000Y-98892000D01*
X27185000Y-98890000D01*
X26786000Y-98739000D01*
X26779000Y-98736000D01*
X26373000Y-98536000D01*
X26366000Y-98533000D01*
X25993000Y-98303000D01*
X25987000Y-98299000D01*
X25618000Y-98025000D01*
X25613000Y-98021000D01*
X25293000Y-97735000D01*
X25288000Y-97730000D01*
X24966000Y-97389000D01*
X24961000Y-97383000D01*
X24692000Y-97042000D01*
X24688000Y-97037000D01*
X24447000Y-96666000D01*
X24444000Y-96660000D01*
X24241000Y-96273000D01*
X24238000Y-96267000D01*
X24076000Y-95867000D01*
X24074000Y-95859000D01*
X23960000Y-95463000D01*
X23957000Y-95446000D01*
X23943000Y-95185000D01*
X23943000Y-95182000D01*
X23928000Y-94390000D01*
X23928000Y-94389000D01*
X23913000Y-93118000D01*
X23907631Y-92392000D01*
X27468000Y-92392000D01*
X27468000Y-92400000D01*
X27477000Y-92452000D01*
X27478000Y-92457000D01*
X27484000Y-92516000D01*
X27485000Y-92520000D01*
X27490000Y-92536000D01*
X27493000Y-92551000D01*
X27493000Y-92553000D01*
X27497000Y-92566000D01*
X27514000Y-92606000D01*
X27515000Y-92610000D01*
X27537000Y-92669000D01*
X27551000Y-92694000D01*
X27554000Y-92701000D01*
X27560000Y-92714000D01*
X27583000Y-92748000D01*
X27586000Y-92752000D01*
X27622000Y-92812000D01*
X27661000Y-92854000D01*
X27666000Y-92860000D01*
X30158000Y-95352000D01*
X30183000Y-95379000D01*
X30186000Y-95382000D01*
X30254000Y-95431000D01*
X30256000Y-95433000D01*
X30280000Y-95452000D01*
X30291000Y-95459000D01*
X30302000Y-95465000D01*
X30314000Y-95474000D01*
X30322000Y-95478000D01*
X30380000Y-95502000D01*
X30383000Y-95504000D01*
X30429000Y-95526000D01*
X30443000Y-95530000D01*
X30449000Y-95532000D01*
X30477000Y-95543000D01*
X30519000Y-95549000D01*
X30525000Y-95550000D01*
X30585000Y-95564000D01*
X30590000Y-95565000D01*
X30625000Y-95566000D01*
X30630000Y-95566000D01*
X30647000Y-95568000D01*
X36064000Y-95568000D01*
X36077000Y-95569000D01*
X36087000Y-95571000D01*
X36133000Y-95568000D01*
X36145000Y-95568000D01*
X36162000Y-95566000D01*
X36166000Y-95566000D01*
X36253000Y-95559000D01*
X36254000Y-95558000D01*
X36261000Y-95556000D01*
X36281000Y-95553000D01*
X36328000Y-95537000D01*
X36329000Y-95536000D01*
X36411000Y-95511000D01*
X36424000Y-95504000D01*
X36433000Y-95500000D01*
X36465000Y-95480000D01*
X36469000Y-95478000D01*
X36551000Y-95432000D01*
X36553000Y-95430000D01*
X36569000Y-95418000D01*
X36572000Y-95416000D01*
X36613000Y-95378000D01*
X36614000Y-95377000D01*
X36675000Y-95321000D01*
X36681000Y-95314000D01*
X36686000Y-95307000D01*
X36692000Y-95299000D01*
X36696000Y-95296000D01*
X36716000Y-95265000D01*
X36718000Y-95262000D01*
X36772000Y-95187000D01*
X36773000Y-95185000D01*
X36838000Y-95031000D01*
X36839000Y-95028000D01*
X36841000Y-95012000D01*
X36843000Y-95004000D01*
X36867000Y-94851000D01*
X36866000Y-94838000D01*
X36865000Y-94829000D01*
X36865000Y-83547000D01*
X36866000Y-83534000D01*
X36868000Y-83524000D01*
X36865000Y-83499000D01*
X36865000Y-83468000D01*
X36863000Y-83448000D01*
X36854000Y-83372000D01*
X36943000Y-83271000D01*
X37617000Y-83271000D01*
X37694000Y-83456000D01*
X37505000Y-83645000D01*
X37458000Y-83686000D01*
X37457000Y-83688000D01*
X37421000Y-83754000D01*
X37415000Y-83761000D01*
X37389000Y-83798000D01*
X37380000Y-83825000D01*
X37374000Y-83838000D01*
X37360000Y-83863000D01*
X37359000Y-83867000D01*
X37348000Y-83922000D01*
X37346000Y-83931000D01*
X37331000Y-83979000D01*
X37330000Y-84009000D01*
X37328000Y-84021000D01*
X37327000Y-84028000D01*
X37326000Y-84038000D01*
X37326000Y-94266000D01*
X37325000Y-94280000D01*
X37321000Y-94301000D01*
X37320000Y-94305000D01*
X37326000Y-94350000D01*
X37326000Y-94362000D01*
X37333000Y-94407000D01*
X37334000Y-94408000D01*
X37347000Y-94503000D01*
X37348000Y-94505000D01*
X37350000Y-94510000D01*
X37350000Y-94511000D01*
X37397000Y-94608000D01*
X37398000Y-94610000D01*
X37425000Y-94671000D01*
X37428000Y-94675000D01*
X37435000Y-94685000D01*
X37492000Y-94744000D01*
X37494000Y-94746000D01*
X37557000Y-94816000D01*
X37559000Y-94817000D01*
X37568000Y-94823000D01*
X37572000Y-94827000D01*
X37687000Y-94889000D01*
X37743000Y-94919000D01*
X37931000Y-94954000D01*
X37934000Y-94954000D01*
X37978000Y-94949000D01*
X37987000Y-94948000D01*
X44959000Y-94948000D01*
X44974000Y-94950000D01*
X44990000Y-94953000D01*
X45028000Y-94949000D01*
X45037000Y-94948000D01*
X45047000Y-94948000D01*
X45197000Y-94924000D01*
X45308000Y-94871000D01*
X45309000Y-94871000D01*
X45353000Y-94851000D01*
X45356000Y-94849000D01*
X45371000Y-94841000D01*
X45433000Y-94781000D01*
X45435000Y-94779000D01*
X45503000Y-94718000D01*
X45506000Y-94714000D01*
X45507000Y-94712000D01*
X45513000Y-94704000D01*
X45606000Y-94533000D01*
X45642000Y-94345000D01*
X45637000Y-94300000D01*
X45636000Y-94290000D01*
X45636000Y-84698000D01*
X45638000Y-84651000D01*
X45625000Y-84603000D01*
X45624000Y-84595000D01*
X45612000Y-84523000D01*
X45611000Y-84522000D01*
X45602000Y-84503000D01*
X45597000Y-84490000D01*
X45587000Y-84456000D01*
X45586000Y-84454000D01*
X45557000Y-84410000D01*
X45552000Y-84401000D01*
X45530000Y-84354000D01*
X45527000Y-84350000D01*
X45505000Y-84327000D01*
X45497000Y-84317000D01*
X45491000Y-84308000D01*
X45349000Y-84166000D01*
X45426000Y-83981000D01*
X46175000Y-83981000D01*
X46263000Y-84069000D01*
X46263000Y-94270000D01*
X46262000Y-94281000D01*
X46261000Y-94290000D01*
X46260000Y-94295000D01*
X46263000Y-94343000D01*
X46263000Y-94350000D01*
X46275000Y-94438000D01*
X46271000Y-94442000D01*
X46273000Y-94462000D01*
X46275000Y-94468000D01*
X46278000Y-94487000D01*
X46301000Y-94555000D01*
X46302000Y-94557000D01*
X46320000Y-94616000D01*
X46325000Y-94625000D01*
X46330000Y-94638000D01*
X46363000Y-94693000D01*
X46365000Y-94695000D01*
X46400000Y-94759000D01*
X46406000Y-94767000D01*
X46410000Y-94772000D01*
X46416000Y-94781000D01*
X46469000Y-94835000D01*
X46471000Y-94837000D01*
X46508000Y-94879000D01*
X46513000Y-94884000D01*
X46515000Y-94885000D01*
X46527000Y-94895000D01*
X46528000Y-94896000D01*
X46537000Y-94904000D01*
X46585000Y-94936000D01*
X46587000Y-94937000D01*
X46643000Y-94977000D01*
X46656000Y-94983000D01*
X46658000Y-94984000D01*
X46660000Y-94983000D01*
X46803000Y-95045000D01*
X46813000Y-95047000D01*
X46815000Y-95048000D01*
X46821000Y-95050000D01*
X46981000Y-95074000D01*
X47031000Y-95071000D01*
X54273000Y-95071000D01*
X54286000Y-95072000D01*
X54296000Y-95074000D01*
X54342000Y-95071000D01*
X54357000Y-95071000D01*
X54376000Y-95069000D01*
X54378000Y-95069000D01*
X54461000Y-95062000D01*
X54469000Y-95060000D01*
X54471000Y-95060000D01*
X54476000Y-95059000D01*
X54485000Y-95057000D01*
X54549000Y-95036000D01*
X54551000Y-95035000D01*
X54613000Y-95016000D01*
X54621000Y-95011000D01*
X54646000Y-95001000D01*
X54692000Y-94974000D01*
X54693000Y-94973000D01*
X54763000Y-94933000D01*
X54772000Y-94926000D01*
X54785000Y-94917000D01*
X54827000Y-94876000D01*
X54829000Y-94874000D01*
X54881000Y-94827000D01*
X54886000Y-94822000D01*
X54892000Y-94814000D01*
X54901000Y-94805000D01*
X54939000Y-94748000D01*
X54980000Y-94691000D01*
X55008000Y-94606000D01*
X55210000Y-94594000D01*
X55258000Y-94695000D01*
X55264000Y-94706000D01*
X55283000Y-94730000D01*
X55291000Y-94742000D01*
X55300000Y-94760000D01*
X55335000Y-94798000D01*
X55339000Y-94803000D01*
X55361000Y-94832000D01*
X55388000Y-94857000D01*
X55394000Y-94863000D01*
X55413000Y-94884000D01*
X55414000Y-94885000D01*
X55447000Y-94910000D01*
X55452000Y-94914000D01*
X55481000Y-94940000D01*
X55517000Y-94960000D01*
X55524000Y-94964000D01*
X55546000Y-94980000D01*
X55583000Y-94995000D01*
X55590000Y-94998000D01*
X55627000Y-95018000D01*
X55666000Y-95029000D01*
X55675000Y-95033000D01*
X55700000Y-95044000D01*
X55706000Y-95046000D01*
X55738000Y-95050000D01*
X55747000Y-95053000D01*
X55783000Y-95063000D01*
X55846000Y-95066000D01*
X55857000Y-95068000D01*
X55867000Y-95070000D01*
X55880000Y-95071000D01*
X55914000Y-95071000D01*
X55952000Y-95073000D01*
X55962000Y-95072000D01*
X55973000Y-95071000D01*
X63835000Y-95071000D01*
X63848000Y-95072000D01*
X63858000Y-95074000D01*
X63904000Y-95071000D01*
X63919000Y-95071000D01*
X63938000Y-95069000D01*
X63940000Y-95069000D01*
X64023000Y-95062000D01*
X64031000Y-95060000D01*
X64033000Y-95060000D01*
X64038000Y-95059000D01*
X64047000Y-95057000D01*
X64111000Y-95036000D01*
X64113000Y-95035000D01*
X64175000Y-95016000D01*
X64183000Y-95011000D01*
X64208000Y-95001000D01*
X64254000Y-94974000D01*
X64255000Y-94973000D01*
X64325000Y-94933000D01*
X64334000Y-94926000D01*
X64347000Y-94917000D01*
X64389000Y-94876000D01*
X64391000Y-94874000D01*
X64443000Y-94827000D01*
X64448000Y-94822000D01*
X64454000Y-94814000D01*
X64463000Y-94805000D01*
X64468000Y-94799000D01*
X64512000Y-94730000D01*
X64626000Y-94701000D01*
X64760000Y-94774000D01*
X64762000Y-94775000D01*
X64770000Y-94780000D01*
X64780000Y-94784000D01*
X64966000Y-94819000D01*
X64969000Y-94819000D01*
X65013000Y-94814000D01*
X65022000Y-94813000D01*
X72808000Y-94813000D01*
X72823000Y-94815000D01*
X72844000Y-94819000D01*
X72888000Y-94814000D01*
X72897000Y-94813000D01*
X72902000Y-94813000D01*
X72947000Y-94806000D01*
X72949000Y-94805000D01*
X73040000Y-94793000D01*
X73051000Y-94790000D01*
X73092000Y-94770000D01*
X73095000Y-94766000D01*
X73212000Y-94714000D01*
X73217000Y-94711000D01*
X73226000Y-94705000D01*
X73282000Y-94651000D01*
X73284000Y-94650000D01*
X73352000Y-94589000D01*
X73358000Y-94582000D01*
X73359000Y-94580000D01*
X73365000Y-94571000D01*
X73367000Y-94569000D01*
X73417000Y-94476000D01*
X73417000Y-94475000D01*
X73455000Y-94407000D01*
X73458000Y-94402000D01*
X73462000Y-94392000D01*
X73514000Y-94105000D01*
X73778000Y-94119000D01*
X73794000Y-94327000D01*
X73797000Y-94338000D01*
X73799000Y-94345000D01*
X73814000Y-94392000D01*
X73814000Y-94393000D01*
X73838000Y-94473000D01*
X73844000Y-94487000D01*
X73848000Y-94495000D01*
X73850000Y-94500000D01*
X73914000Y-94604000D01*
X73912000Y-94607000D01*
X73926000Y-94631000D01*
X73930000Y-94635000D01*
X73932000Y-94638000D01*
X73939000Y-94647000D01*
X73982000Y-94690000D01*
X73984000Y-94693000D01*
X74033000Y-94748000D01*
X74043000Y-94755000D01*
X74055000Y-94766000D01*
X74099000Y-94795000D01*
X74100000Y-94796000D01*
X74161000Y-94840000D01*
X74173000Y-94847000D01*
X74178000Y-94849000D01*
X74182000Y-94851000D01*
X74229000Y-94870000D01*
X74230000Y-94870000D01*
X74321000Y-94909000D01*
X74329000Y-94911000D01*
X74339000Y-94913000D01*
X74342000Y-94914000D01*
X74344000Y-94914000D01*
X74349000Y-94915000D01*
X74504000Y-94939000D01*
X74553000Y-94936000D01*
X81875000Y-94936000D01*
X81888000Y-94937000D01*
X81892000Y-94938000D01*
X81925000Y-94936000D01*
X81953000Y-94936000D01*
X82000000Y-94931000D01*
X82002000Y-94931000D01*
X82054000Y-94927000D01*
X82059000Y-94925000D01*
X82077000Y-94921000D01*
X82086000Y-94921000D01*
X82087000Y-94920000D01*
X82161000Y-94894000D01*
X82166000Y-94892000D01*
X82215000Y-94879000D01*
X82223000Y-94874000D01*
X82231000Y-94871000D01*
X82235000Y-94870000D01*
X82238000Y-94868000D01*
X82311000Y-94824000D01*
X82313000Y-94824000D01*
X82358000Y-94798000D01*
X82362000Y-94795000D01*
X82369000Y-94790000D01*
X82374000Y-94787000D01*
X82381000Y-94781000D01*
X82445000Y-94720000D01*
X82447000Y-94718000D01*
X82477000Y-94692000D01*
X82489000Y-94678000D01*
X82498000Y-94669000D01*
X82538000Y-94608000D01*
X82540000Y-94605000D01*
X82578000Y-94552000D01*
X82582000Y-94542000D01*
X82589000Y-94529000D01*
X82592000Y-94524000D01*
X82606000Y-94487000D01*
X82606000Y-94486000D01*
X82670000Y-94331000D01*
X82870000Y-94329000D01*
X82933000Y-94479000D01*
X82936000Y-94486000D01*
X82944000Y-94513000D01*
X82956000Y-94532000D01*
X82961000Y-94542000D01*
X82970000Y-94563000D01*
X82996000Y-94599000D01*
X83031000Y-94657000D01*
X83064000Y-94691000D01*
X83072000Y-94702000D01*
X83238000Y-94867000D01*
X83241000Y-94872000D01*
X83243000Y-94871000D01*
X83352000Y-94958000D01*
X83356000Y-94960000D01*
X83369000Y-94967000D01*
X83387000Y-94980000D01*
X83452000Y-95007000D01*
X83496000Y-95029000D01*
X83511000Y-95032000D01*
X83526000Y-95037000D01*
X83543000Y-95044000D01*
X83580000Y-95050000D01*
X83588000Y-95052000D01*
X83655000Y-95068000D01*
X83699000Y-95069000D01*
X83708000Y-95070000D01*
X83714000Y-95071000D01*
X90932000Y-95071000D01*
X90970000Y-95073000D01*
X90976000Y-95072000D01*
X91040000Y-95062000D01*
X91044000Y-95061000D01*
X91093000Y-95056000D01*
X91103000Y-95054000D01*
X91106000Y-95053000D01*
X91119000Y-95049000D01*
X91138000Y-95046000D01*
X91139000Y-95046000D01*
X91196000Y-95022000D01*
X91199000Y-95020000D01*
X91245000Y-95004000D01*
X91267000Y-94991000D01*
X91277000Y-94986000D01*
X91292000Y-94980000D01*
X91297000Y-94977000D01*
X91321000Y-94960000D01*
X91327000Y-94956000D01*
X91386000Y-94921000D01*
X91392000Y-94916000D01*
X91414000Y-94894000D01*
X91426000Y-94884000D01*
X91432000Y-94880000D01*
X91585000Y-94727000D01*
X91589000Y-94724000D01*
X91624000Y-94693000D01*
X91630000Y-94686000D01*
X91668000Y-94631000D01*
X91671000Y-94627000D01*
X91697000Y-94594000D01*
X91701000Y-94587000D01*
X91702000Y-94587000D01*
X91713000Y-94567000D01*
X91715000Y-94564000D01*
X91719000Y-94557000D01*
X91725000Y-94546000D01*
X91747000Y-94498000D01*
X91747000Y-94496000D01*
X91801000Y-94384000D01*
X91993000Y-94386000D01*
X92042000Y-94496000D01*
X92045000Y-94503000D01*
X92061000Y-94548000D01*
X92075000Y-94575000D01*
X92077000Y-94579000D01*
X92081000Y-94588000D01*
X92084000Y-94593000D01*
X92102000Y-94618000D01*
X92106000Y-94624000D01*
X92141000Y-94683000D01*
X92147000Y-94690000D01*
X92172000Y-94714000D01*
X92183000Y-94729000D01*
X92321000Y-94867000D01*
X92325000Y-94873000D01*
X92331000Y-94880000D01*
X92335000Y-94883000D01*
X92382000Y-94917000D01*
X92385000Y-94919000D01*
X92431000Y-94956000D01*
X92441000Y-94961000D01*
X92454000Y-94968000D01*
X92471000Y-94980000D01*
X92524000Y-95003000D01*
X92526000Y-95004000D01*
X92582000Y-95030000D01*
X92599000Y-95035000D01*
X92604000Y-95036000D01*
X92629000Y-95045000D01*
X92666000Y-95050000D01*
X92674000Y-95052000D01*
X92742000Y-95068000D01*
X92781000Y-95069000D01*
X92790000Y-95070000D01*
X92796000Y-95071000D01*
X100291000Y-95071000D01*
X100304000Y-95072000D01*
X100314000Y-95074000D01*
X100360000Y-95071000D01*
X100375000Y-95071000D01*
X100394000Y-95069000D01*
X100396000Y-95069000D01*
X100479000Y-95062000D01*
X100487000Y-95060000D01*
X100489000Y-95060000D01*
X100494000Y-95059000D01*
X100503000Y-95057000D01*
X100567000Y-95036000D01*
X100569000Y-95035000D01*
X100631000Y-95016000D01*
X100639000Y-95011000D01*
X100664000Y-95001000D01*
X100710000Y-94974000D01*
X100711000Y-94973000D01*
X100781000Y-94933000D01*
X100790000Y-94926000D01*
X100803000Y-94917000D01*
X100845000Y-94876000D01*
X100847000Y-94874000D01*
X100899000Y-94827000D01*
X100904000Y-94822000D01*
X100910000Y-94814000D01*
X100919000Y-94805000D01*
X100957000Y-94748000D01*
X100998000Y-94691000D01*
X101005000Y-94677000D01*
X101011000Y-94666000D01*
X101013000Y-94663000D01*
X101030000Y-94617000D01*
X101031000Y-94614000D01*
X101063000Y-94538000D01*
X101065000Y-94532000D01*
X101076000Y-94445000D01*
X101080000Y-94442000D01*
X101094000Y-94358000D01*
X101094000Y-94352000D01*
X101092000Y-94310000D01*
X101092000Y-84072000D01*
X101105000Y-84029000D01*
X101116000Y-84013000D01*
X101127000Y-83989000D01*
X101133000Y-83979000D01*
X101147000Y-83958000D01*
X101164000Y-83916000D01*
X101166000Y-83912000D01*
X101186000Y-83870000D01*
X101193000Y-83843000D01*
X101195000Y-83835000D01*
X101205000Y-83810000D01*
X101206000Y-83807000D01*
X101211000Y-83770000D01*
X101212000Y-83763000D01*
X101225000Y-83711000D01*
X101225000Y-83708000D01*
X101226000Y-83684000D01*
X101227000Y-83677000D01*
X101231000Y-83645000D01*
X101227000Y-83605000D01*
X101227000Y-83596000D01*
X101229000Y-83480000D01*
X101317000Y-83394000D01*
X102597000Y-83394000D01*
X102610000Y-83395000D01*
X102633000Y-83399000D01*
X102634000Y-83399000D01*
X102680000Y-83394000D01*
X102689000Y-83394000D01*
X102798000Y-83384000D01*
X102814000Y-83381000D01*
X102820000Y-83380000D01*
X102829000Y-83378000D01*
X102889000Y-83358000D01*
X102891000Y-83357000D01*
X102959000Y-83337000D01*
X102960000Y-83336000D01*
X102964000Y-83334000D01*
X102969000Y-83331000D01*
X102971000Y-83331000D01*
X102973000Y-83330000D01*
X103008000Y-83309000D01*
X103010000Y-83306000D01*
X103098000Y-83257000D01*
X103103000Y-83253000D01*
X103118000Y-83244000D01*
X103122000Y-83241000D01*
X103164000Y-83200000D01*
X103167000Y-83197000D01*
X103219000Y-83152000D01*
X103227000Y-83143000D01*
X103233000Y-83135000D01*
X103241000Y-83125000D01*
X103243000Y-83123000D01*
X103265000Y-83088000D01*
X103267000Y-83085000D01*
X103320000Y-83010000D01*
X103328000Y-82994000D01*
X103349000Y-82943000D01*
X103350000Y-82941000D01*
X103385000Y-82858000D01*
X103386000Y-82854000D01*
X103389000Y-82837000D01*
X103391000Y-82831000D01*
X103415000Y-82675000D01*
X103415000Y-82674000D01*
X103412000Y-82646000D01*
X103412000Y-60645000D01*
X103415000Y-60589000D01*
X103414000Y-60584000D01*
X103401000Y-60501000D01*
X103400000Y-60497000D01*
X103398000Y-60472000D01*
X103397000Y-60466000D01*
X103394000Y-60458000D01*
X103388000Y-60425000D01*
X103387000Y-60420000D01*
X103361000Y-60358000D01*
X103360000Y-60355000D01*
X103345000Y-60315000D01*
X103342000Y-60310000D01*
X103338000Y-60302000D01*
X103323000Y-60269000D01*
X103275000Y-60179000D01*
X103362000Y-60033000D01*
X121263000Y-60033000D01*
X121344000Y-60095000D01*
X121397000Y-60294000D01*
X121504000Y-60481000D01*
X121652000Y-60629000D01*
X121832000Y-60732000D01*
X122038000Y-60789000D01*
X122246000Y-60789000D01*
X122453000Y-60732000D01*
X122452000Y-60732000D01*
X122632000Y-60629000D01*
X122780000Y-60481000D01*
X122887000Y-60294000D01*
X122940000Y-60095000D01*
X123021000Y-60033000D01*
X134113000Y-60033000D01*
X134125000Y-60034000D01*
X134179000Y-60043000D01*
X134301000Y-60014000D01*
X134303000Y-60013000D01*
X134389000Y-59995000D01*
X134395000Y-59993000D01*
X134405000Y-59990000D01*
X134404000Y-59990000D01*
X134492000Y-59924000D01*
X134496000Y-59922000D01*
X134577000Y-59867000D01*
X134603000Y-59828000D01*
X134612000Y-59815000D01*
X148471000Y-45957000D01*
X148656000Y-46034000D01*
X148656000Y-46344000D01*
X148708000Y-46541000D01*
X148791000Y-46687000D01*
X148791000Y-46767000D01*
X148711000Y-46907000D01*
X148656000Y-47112000D01*
X148656000Y-47317000D01*
X148711000Y-47524000D01*
X148802000Y-47682000D01*
X148802000Y-47761000D01*
X148711000Y-47924000D01*
X148656000Y-48128000D01*
X148656000Y-48333000D01*
X148711000Y-48538000D01*
X148787000Y-48671000D01*
X148787000Y-48751000D01*
X148708000Y-48890000D01*
X148656000Y-49087000D01*
X148656000Y-49299000D01*
X148708000Y-49496000D01*
X148810000Y-49672000D01*
X148810000Y-49753000D01*
X148711000Y-49926000D01*
X148656000Y-50131000D01*
X148656000Y-50336000D01*
X148711000Y-50541000D01*
X148712000Y-50545000D01*
X148764000Y-50632000D01*
X148764000Y-50713000D01*
X148708000Y-50811000D01*
X148656000Y-51008000D01*
X148656000Y-51220000D01*
X148708000Y-51417000D01*
X148839000Y-51645000D01*
X148839000Y-51725000D01*
X148708000Y-51954000D01*
X148656000Y-52151000D01*
X148656000Y-52363000D01*
X148708000Y-52560000D01*
X148815000Y-52747000D01*
X148816000Y-52748000D01*
X148964000Y-52895000D01*
X149144000Y-52999000D01*
X149145000Y-53000000D01*
X149350000Y-53054000D01*
X149559000Y-53054000D01*
X149756000Y-53002000D01*
X149943000Y-52895000D01*
X150091000Y-52747000D01*
X150194000Y-52568000D01*
X150251000Y-52361000D01*
X150251000Y-52304000D01*
X150274000Y-52249000D01*
X152018000Y-50505000D01*
X152165000Y-50524000D01*
X152279000Y-50723000D01*
X152280000Y-50724000D01*
X152429000Y-50872000D01*
X152607000Y-50974000D01*
X152812000Y-51031000D01*
X153023000Y-51031000D01*
X153230000Y-50974000D01*
X153407000Y-50871000D01*
X153552000Y-50726000D01*
X153660000Y-50544000D01*
X153660000Y-50543000D01*
X153715000Y-50338000D01*
X153715000Y-50281000D01*
X153738000Y-50226000D01*
X158577000Y-45387000D01*
X158586000Y-45379000D01*
X158632000Y-45346000D01*
X158633000Y-45345000D01*
X158681000Y-45265000D01*
X158684000Y-45262000D01*
X158746000Y-45169000D01*
X158787000Y-44937000D01*
X158779000Y-44897000D01*
X158777000Y-44882000D01*
X158777000Y-38618000D01*
X158778000Y-38606000D01*
X158787000Y-38553000D01*
X158786000Y-38551000D01*
X158766000Y-38464000D01*
X158765000Y-38462000D01*
X158741000Y-38345000D01*
X158740000Y-38343000D01*
X158739000Y-38340000D01*
X158734000Y-38328000D01*
X158666000Y-38233000D01*
X158665000Y-38231000D01*
X158611000Y-38152000D01*
X158599000Y-38140000D01*
X158502000Y-38083000D01*
X158499000Y-38081000D01*
X158412000Y-38025000D01*
X158413000Y-38025000D01*
X158400000Y-38022000D01*
X158242000Y-37996000D01*
X158184000Y-37986000D01*
X158182000Y-37987000D01*
X158149000Y-37994000D01*
X158133000Y-37996000D01*
X158030000Y-37996000D01*
X157975000Y-37973000D01*
X157959000Y-37957000D01*
X157158000Y-37957000D01*
X157070000Y-37869000D01*
X157070000Y-37772000D01*
X157080000Y-37734000D01*
X157197000Y-37533000D01*
X157200000Y-37525000D01*
X157253000Y-37324000D01*
X157253000Y-37115000D01*
X157201000Y-36918000D01*
X157094000Y-36731000D01*
X157093000Y-36730000D01*
X156944000Y-36582000D01*
X156943000Y-36581000D01*
X156770000Y-36480000D01*
X156560000Y-36423000D01*
X156352000Y-36423000D01*
X156146000Y-36480000D01*
X155966000Y-36583000D01*
X155818000Y-36731000D01*
X155715000Y-36911000D01*
X155714000Y-36913000D01*
X155688000Y-37006000D01*
X155608000Y-37068000D01*
X154242000Y-37068000D01*
X154242000Y-38257000D01*
X154154000Y-38345000D01*
X153456000Y-38345000D01*
X153369000Y-38196000D01*
X153457000Y-38042000D01*
X153458000Y-38040000D01*
X153513000Y-37836000D01*
X153513000Y-37630000D01*
X153458000Y-37424000D01*
X153352000Y-37239000D01*
X153207000Y-37097000D01*
X153205000Y-37096000D01*
X153025000Y-36988000D01*
X152852000Y-36943000D01*
X152789000Y-36862000D01*
X152789000Y-36495000D01*
X152785000Y-36462000D01*
X152778000Y-36401000D01*
X152778000Y-36397000D01*
X152754000Y-36326000D01*
X152752000Y-36322000D01*
X152706000Y-36220000D01*
X152654000Y-36158000D01*
X152653000Y-36157000D01*
X152624000Y-36122000D01*
X152623000Y-36121000D01*
X152585000Y-36090000D01*
X152584000Y-36089000D01*
X152515000Y-36029000D01*
X152495000Y-35928000D01*
X152522000Y-35874000D01*
X152629000Y-35687000D01*
X152630000Y-35686000D01*
X152687000Y-35479000D01*
X152687000Y-35271000D01*
X152632000Y-35070000D01*
X152630000Y-35065000D01*
X152527000Y-34885000D01*
X152379000Y-34737000D01*
X152192000Y-34630000D01*
X151995000Y-34578000D01*
X151783000Y-34578000D01*
X151586000Y-34630000D01*
X151399000Y-34737000D01*
X151251000Y-34885000D01*
X151144000Y-35072000D01*
X151092000Y-35269000D01*
X151092000Y-35481000D01*
X151144000Y-35679000D01*
X151146000Y-35683000D01*
X151250000Y-35864000D01*
X151285000Y-35917000D01*
X151264000Y-36035000D01*
X151204000Y-36080000D01*
X151119000Y-36152000D01*
X151008000Y-36152000D01*
X150935000Y-36089000D01*
X150878000Y-36040000D01*
X150772000Y-35992000D01*
X150768000Y-35990000D01*
X150698000Y-35967000D01*
X150631000Y-35959000D01*
X150598000Y-35955000D01*
X149879000Y-35955000D01*
X149780000Y-35967000D01*
X149695000Y-35995000D01*
X149615000Y-36036000D01*
X149604000Y-36042000D01*
X149560000Y-36075000D01*
X149558000Y-36077000D01*
X149506000Y-36120000D01*
X149501000Y-36125000D01*
X149460000Y-36174000D01*
X149456000Y-36179000D01*
X149394000Y-36269000D01*
X149329000Y-36303000D01*
X147973000Y-36303000D01*
X147928000Y-36301000D01*
X147870000Y-36317000D01*
X147860000Y-36319000D01*
X147803000Y-36327000D01*
X147780000Y-36339000D01*
X147764000Y-36345000D01*
X147734000Y-36353000D01*
X147688000Y-36382000D01*
X147680000Y-36387000D01*
X147629000Y-36412000D01*
X147604000Y-36437000D01*
X147587000Y-36450000D01*
X147583000Y-36452000D01*
X146541000Y-37495000D01*
X146356000Y-37418000D01*
X146356000Y-37068000D01*
X146340000Y-37052000D01*
X146317000Y-36997000D01*
X146317000Y-36405000D01*
X146340000Y-36350000D01*
X146379000Y-36311000D01*
X146487000Y-36123000D01*
X146539000Y-35928000D01*
X146539000Y-35717000D01*
X146486000Y-35516000D01*
X146485000Y-35512000D01*
X146378000Y-35329000D01*
X146233000Y-35184000D01*
X146051000Y-35078000D01*
X146049000Y-35077000D01*
X145845000Y-35023000D01*
X145636000Y-35023000D01*
X145438000Y-35075000D01*
X145252000Y-35182000D01*
X145251000Y-35183000D01*
X145103000Y-35332000D01*
X145102000Y-35333000D01*
X145001000Y-35506000D01*
X144942000Y-35723000D01*
X144933000Y-35787000D01*
X144832000Y-35860000D01*
X144758000Y-35848000D01*
X144757000Y-35848000D01*
X144666000Y-35833000D01*
X144630000Y-35840000D01*
X144615000Y-35842000D01*
X143245000Y-35842000D01*
X143175000Y-35802000D01*
X143073000Y-35623000D01*
X142925000Y-35475000D01*
X142743000Y-35369000D01*
X142741000Y-35368000D01*
X142537000Y-35314000D01*
X142328000Y-35314000D01*
X142131000Y-35366000D01*
X141944000Y-35473000D01*
X141943000Y-35474000D01*
X141795000Y-35623000D01*
X141692000Y-35802000D01*
X141634000Y-36010000D01*
X141615000Y-36043000D01*
X141379000Y-36280000D01*
X141324000Y-36303000D01*
X141054000Y-36303000D01*
X140989000Y-36269000D01*
X140927000Y-36179000D01*
X140923000Y-36174000D01*
X140882000Y-36125000D01*
X140877000Y-36120000D01*
X140825000Y-36077000D01*
X140823000Y-36075000D01*
X140779000Y-36042000D01*
X140768000Y-36036000D01*
X140688000Y-35995000D01*
X140603000Y-35967000D01*
X140602000Y-35966000D01*
X140537000Y-35959000D01*
X140536000Y-35959000D01*
X140503000Y-35955000D01*
X140170000Y-35955000D01*
X140115000Y-35932000D01*
X139314000Y-35131000D01*
X139291000Y-35076000D01*
X139291000Y-35023000D01*
X139238000Y-34820000D01*
X139236000Y-34815000D01*
X139130000Y-34633000D01*
X138985000Y-34488000D01*
X138986000Y-34488000D01*
X138803000Y-34382000D01*
X138801000Y-34381000D01*
X138597000Y-34327000D01*
X138388000Y-34327000D01*
X138191000Y-34379000D01*
X138004000Y-34486000D01*
X138002000Y-34488000D01*
X137855000Y-34636000D01*
X137854000Y-34637000D01*
X137753000Y-34810000D01*
X137696000Y-35021000D01*
X137696000Y-35228000D01*
X137772000Y-35506000D01*
X137573000Y-35623000D01*
X136292000Y-34342000D01*
X136269000Y-34287000D01*
X136269000Y-33942000D01*
X136357000Y-33854000D01*
X136569000Y-33854000D01*
X136680000Y-33840000D01*
X136699000Y-33840000D01*
X136703000Y-33837000D01*
X136810000Y-33854000D01*
X136969000Y-33854000D01*
X137080000Y-33840000D01*
X137099000Y-33840000D01*
X137174000Y-33849000D01*
X137217000Y-33854000D01*
X137369000Y-33854000D01*
X137480000Y-33840000D01*
X137499000Y-33840000D01*
X137574000Y-33849000D01*
X137617000Y-33854000D01*
X137769000Y-33854000D01*
X137880000Y-33840000D01*
X137899000Y-33840000D01*
X137974000Y-33849000D01*
X138017000Y-33854000D01*
X138169000Y-33854000D01*
X138280000Y-33840000D01*
X138299000Y-33840000D01*
X138374000Y-33849000D01*
X138417000Y-33854000D01*
X138569000Y-33854000D01*
X138680000Y-33840000D01*
X138699000Y-33840000D01*
X138703000Y-33837000D01*
X138810000Y-33854000D01*
X138970000Y-33854000D01*
X139087000Y-33840000D01*
X139171000Y-33805000D01*
X139225000Y-33781000D01*
X139289000Y-33734000D01*
X139294000Y-33731000D01*
X139340000Y-33692000D01*
X139342000Y-33690000D01*
X139375000Y-33650000D01*
X139456000Y-33552000D01*
X139517000Y-33524000D01*
X141572000Y-33524000D01*
X141584000Y-33525000D01*
X141631000Y-33533000D01*
X141633000Y-33532000D01*
X141728000Y-33510000D01*
X141730000Y-33509000D01*
X141837000Y-33487000D01*
X141852000Y-33481000D01*
X141858000Y-33479000D01*
X141860000Y-33478000D01*
X141949000Y-33412000D01*
X141952000Y-33409000D01*
X142028000Y-33359000D01*
X142032000Y-33355000D01*
X142057000Y-33317000D01*
X142066000Y-33304000D01*
X142184000Y-33186000D01*
X142290000Y-33175000D01*
X142391000Y-33241000D01*
X142466000Y-33279000D01*
X142542000Y-33305000D01*
X142550000Y-33307000D01*
X142631000Y-33324000D01*
X142708000Y-33329000D01*
X143036000Y-33329000D01*
X143115000Y-33324000D01*
X143123000Y-33323000D01*
X143188000Y-33309000D01*
X143189000Y-33308000D01*
X143274000Y-33282000D01*
X143349000Y-33243000D01*
X143412000Y-33203000D01*
X143445000Y-33170000D01*
X143569000Y-33170000D01*
X143603000Y-33204000D01*
X143661000Y-33241000D01*
X143736000Y-33279000D01*
X143812000Y-33305000D01*
X143820000Y-33307000D01*
X143901000Y-33324000D01*
X143978000Y-33329000D01*
X144306000Y-33329000D01*
X144385000Y-33324000D01*
X144393000Y-33323000D01*
X144458000Y-33309000D01*
X144459000Y-33308000D01*
X144544000Y-33282000D01*
X144619000Y-33243000D01*
X144682000Y-33203000D01*
X144715000Y-33170000D01*
X144839000Y-33170000D01*
X144873000Y-33204000D01*
X144931000Y-33241000D01*
X145006000Y-33279000D01*
X145082000Y-33305000D01*
X145090000Y-33307000D01*
X145171000Y-33324000D01*
X145248000Y-33329000D01*
X145576000Y-33329000D01*
X145655000Y-33324000D01*
X145663000Y-33323000D01*
X145728000Y-33309000D01*
X145729000Y-33308000D01*
X145814000Y-33282000D01*
X145889000Y-33243000D01*
X145962000Y-33197000D01*
X146021000Y-33142000D01*
X146081000Y-33078000D01*
X146124000Y-33010000D01*
X146162000Y-32935000D01*
X146188000Y-32859000D01*
X146189000Y-32856000D01*
X146207000Y-32772000D01*
X146212000Y-32693000D01*
X146212000Y-31015000D01*
X146207000Y-30938000D01*
X146190000Y-30857000D01*
X146189000Y-30852000D01*
X146163000Y-30776000D01*
X146126000Y-30702000D01*
X146082000Y-30632000D01*
X146025000Y-30570000D01*
X146020000Y-30565000D01*
X145972000Y-30521000D01*
X145967000Y-30518000D01*
X145964000Y-30515000D01*
X145894000Y-30466000D01*
X145893000Y-30465000D01*
X145804000Y-30423000D01*
X145728000Y-30400000D01*
X145721000Y-30398000D01*
X145720000Y-30397000D01*
X145663000Y-30385000D01*
X145655000Y-30384000D01*
X145576000Y-30379000D01*
X145248000Y-30379000D01*
X145171000Y-30384000D01*
X145091000Y-30401000D01*
X145082000Y-30403000D01*
X145014000Y-30425000D01*
X144938000Y-30462000D01*
X144927000Y-30468000D01*
X144824000Y-30540000D01*
X144729000Y-30540000D01*
X144624000Y-30466000D01*
X144617000Y-30462000D01*
X144496000Y-30404000D01*
X144490000Y-30223000D01*
X144628000Y-30144000D01*
X144631000Y-30142000D01*
X144778000Y-29996000D01*
X144780000Y-29994000D01*
X144887000Y-29807000D01*
X144939000Y-29610000D01*
X144939000Y-29552000D01*
X144962000Y-29497000D01*
X145132000Y-29327000D01*
X154706000Y-29327000D01*
X154706000Y-32827000D01*
X158206000Y-32827000D01*
X158206000Y-29327000D01*
X154706000Y-29327000D01*
X145132000Y-29327000D01*
X145783000Y-28676000D01*
X145792000Y-28668000D01*
X145842000Y-28632000D01*
X145845000Y-28629000D01*
X145892000Y-28549000D01*
X145894000Y-28545000D01*
X145956000Y-28454000D01*
X145957000Y-28452000D01*
X145958000Y-28446000D01*
X145960000Y-28436000D01*
X145982000Y-28309000D01*
X146131000Y-28244000D01*
X146205000Y-28293000D01*
X146276000Y-28329000D01*
X146352000Y-28355000D01*
X146360000Y-28357000D01*
X146441000Y-28374000D01*
X146518000Y-28379000D01*
X146846000Y-28379000D01*
X146925000Y-28374000D01*
X146933000Y-28373000D01*
X146998000Y-28359000D01*
X146999000Y-28358000D01*
X147084000Y-28332000D01*
X147159000Y-28293000D01*
X147232000Y-28247000D01*
X147291000Y-28192000D01*
X147351000Y-28128000D01*
X147394000Y-28060000D01*
X147432000Y-27985000D01*
X147458000Y-27909000D01*
X147459000Y-27906000D01*
X147477000Y-27822000D01*
X147482000Y-27743000D01*
X147482000Y-26065000D01*
X147477000Y-25986000D01*
X147453000Y-25880000D01*
X147460000Y-25876000D01*
X147396000Y-25752000D01*
X147351000Y-25680000D01*
X147295000Y-25620000D01*
X147290000Y-25615000D01*
X147242000Y-25571000D01*
X147237000Y-25568000D01*
X147234000Y-25565000D01*
X147164000Y-25516000D01*
X147163000Y-25515000D01*
X147074000Y-25473000D01*
X146998000Y-25450000D01*
X146991000Y-25448000D01*
X146990000Y-25447000D01*
X146933000Y-25435000D01*
X146925000Y-25434000D01*
X146846000Y-25429000D01*
X146518000Y-25429000D01*
X146441000Y-25434000D01*
X146361000Y-25451000D01*
X146352000Y-25453000D01*
X146284000Y-25475000D01*
X146208000Y-25512000D01*
X146197000Y-25518000D01*
X146094000Y-25590000D01*
X145999000Y-25590000D01*
X145894000Y-25516000D01*
X145893000Y-25515000D01*
X145804000Y-25473000D01*
X145728000Y-25450000D01*
X145721000Y-25448000D01*
X145720000Y-25447000D01*
X145663000Y-25435000D01*
X145655000Y-25434000D01*
X145576000Y-25429000D01*
X145248000Y-25429000D01*
X145171000Y-25434000D01*
X145091000Y-25451000D01*
X145082000Y-25453000D01*
X145014000Y-25475000D01*
X144938000Y-25512000D01*
X144927000Y-25518000D01*
X144824000Y-25590000D01*
X144729000Y-25590000D01*
X144624000Y-25516000D01*
X144623000Y-25515000D01*
X144534000Y-25473000D01*
X144458000Y-25450000D01*
X144451000Y-25448000D01*
X144450000Y-25447000D01*
X144393000Y-25435000D01*
X144385000Y-25434000D01*
X144306000Y-25429000D01*
X143978000Y-25429000D01*
X143901000Y-25434000D01*
X143821000Y-25451000D01*
X143812000Y-25453000D01*
X143744000Y-25475000D01*
X143668000Y-25512000D01*
X143657000Y-25518000D01*
X143554000Y-25590000D01*
X143459000Y-25590000D01*
X143354000Y-25516000D01*
X143353000Y-25515000D01*
X143264000Y-25473000D01*
X143188000Y-25450000D01*
X143181000Y-25448000D01*
X143180000Y-25447000D01*
X143123000Y-25435000D01*
X143115000Y-25434000D01*
X143036000Y-25429000D01*
X142859000Y-25429000D01*
X142804000Y-25406000D01*
X142479000Y-25081000D01*
X142479000Y-24957000D01*
X142709000Y-24727000D01*
X142764000Y-24704000D01*
X147618000Y-24704000D01*
X147706000Y-24792000D01*
X147706000Y-25827000D01*
X151206000Y-25827000D01*
X151206000Y-22327000D01*
X154706000Y-22327000D01*
X154706000Y-25827000D01*
X158206000Y-25827000D01*
X158206000Y-22327000D01*
X154706000Y-22327000D01*
X151206000Y-22327000D01*
X147706000Y-22327000D01*
X147706000Y-23362000D01*
X147618000Y-23450000D01*
X142452000Y-23450000D01*
X142407000Y-23448000D01*
X142349000Y-23464000D01*
X142339000Y-23466000D01*
X142282000Y-23474000D01*
X142259000Y-23486000D01*
X142243000Y-23492000D01*
X142213000Y-23500000D01*
X142167000Y-23529000D01*
X142159000Y-23534000D01*
X142108000Y-23559000D01*
X142083000Y-23584000D01*
X142066000Y-23597000D01*
X142062000Y-23600000D01*
X141592000Y-24069000D01*
X141468000Y-24069000D01*
X140611000Y-23213000D01*
X140608000Y-23209000D01*
X140574000Y-23171000D01*
X140573000Y-23170000D01*
X140526000Y-23144000D01*
X140518000Y-23140000D01*
X140466000Y-23103000D01*
X140459000Y-23099000D01*
X140433000Y-23090000D01*
X140421000Y-23085000D01*
X140399000Y-23073000D01*
X140353000Y-23064000D01*
X140345000Y-23062000D01*
X140280000Y-23042000D01*
X140276000Y-23041000D01*
X140242000Y-23041000D01*
X140227000Y-23039000D01*
X137849000Y-23039000D01*
X137803000Y-23037000D01*
X137787000Y-23042000D01*
X137768000Y-23044000D01*
X137588000Y-23044000D01*
X137391000Y-23096000D01*
X137204000Y-23203000D01*
X137203000Y-23204000D01*
X137055000Y-23353000D01*
X137052000Y-23357000D01*
X136953000Y-23527000D01*
X136896000Y-23737000D01*
X136896000Y-23945000D01*
X136953000Y-24151000D01*
X137056000Y-24331000D01*
X137096000Y-24371000D01*
X137119000Y-24426000D01*
X137119000Y-25066000D01*
X137031000Y-25154000D01*
X136774000Y-25154000D01*
X136713000Y-25170000D01*
X136675000Y-25170000D01*
X136614000Y-25154000D01*
X136374000Y-25154000D01*
X136313000Y-25170000D01*
X136275000Y-25170000D01*
X136214000Y-25154000D01*
X135974000Y-25154000D01*
X135913000Y-25170000D01*
X135875000Y-25170000D01*
X135814000Y-25154000D01*
X135557000Y-25154000D01*
X135469000Y-25066000D01*
X135469000Y-24612000D01*
X135492000Y-24557000D01*
X135531000Y-24518000D01*
X135639000Y-24330000D01*
X135691000Y-24133000D01*
X135691000Y-23921000D01*
X135639000Y-23724000D01*
X135531000Y-23537000D01*
X135382000Y-23388000D01*
X135381000Y-23388000D01*
X135332000Y-23360000D01*
X135291000Y-23290000D01*
X135291000Y-23192000D01*
X135239000Y-22995000D01*
X135132000Y-22808000D01*
X135131000Y-22807000D01*
X134983000Y-22660000D01*
X134802000Y-22555000D01*
X134597000Y-22501000D01*
X134388000Y-22501000D01*
X134190000Y-22553000D01*
X134004000Y-22660000D01*
X133834000Y-22830000D01*
X133710000Y-22830000D01*
X132142000Y-21262000D01*
X132134000Y-21252000D01*
X132100000Y-21205000D01*
X132098000Y-21203000D01*
X132013000Y-21153000D01*
X132009000Y-21150000D01*
X131926000Y-21094000D01*
X131921000Y-21092000D01*
X131909000Y-21089000D01*
X131904000Y-21087000D01*
X131742000Y-21061000D01*
X131694000Y-21053000D01*
X131663000Y-21059000D01*
X131648000Y-21061000D01*
X129760000Y-21061000D01*
X129748000Y-21060000D01*
X129701000Y-21052000D01*
X129699000Y-21053000D01*
X129601000Y-21075000D01*
X129600000Y-21076000D01*
X129496000Y-21098000D01*
X129484000Y-21103000D01*
X129472000Y-21107000D01*
X129471000Y-21107000D01*
X129376000Y-21179000D01*
X129372000Y-21182000D01*
X129305000Y-21226000D01*
X129302000Y-21230000D01*
X129281000Y-21262000D01*
X129271000Y-21275000D01*
X128994000Y-21552000D01*
X128926000Y-21575000D01*
X128876000Y-21567000D01*
X128875000Y-21567000D01*
X128802000Y-21560000D01*
X128797000Y-21554000D01*
X128653000Y-21529000D01*
X128613000Y-21537000D01*
X128598000Y-21539000D01*
X124216000Y-21539000D01*
X124128000Y-21451000D01*
X124128000Y-20614000D01*
X119328000Y-20614000D01*
X119328000Y-23614000D01*
X121013000Y-23614000D01*
X121101000Y-23702000D01*
X121101000Y-26826000D01*
X121013000Y-26914000D01*
X120478000Y-26914000D01*
X120478000Y-29914000D01*
X121053000Y-29914000D01*
X121134000Y-29977000D01*
X121149000Y-30034000D01*
X121150000Y-30037000D01*
X121184000Y-30089000D01*
X121189000Y-30098000D01*
X121210000Y-30142000D01*
X121237000Y-30170000D01*
X121249000Y-30185000D01*
X121251000Y-30189000D01*
X121779000Y-30717000D01*
X121718000Y-30894000D01*
X121622000Y-30906000D01*
X121418000Y-30963000D01*
X121238000Y-31066000D01*
X121090000Y-31214000D01*
X120987000Y-31394000D01*
X120930000Y-31600000D01*
X120930000Y-31808000D01*
X120987000Y-32014000D01*
X121090000Y-32194000D01*
X121238000Y-32342000D01*
X121425000Y-32449000D01*
X121622000Y-32501000D01*
X121831000Y-32501000D01*
X122036000Y-32447000D01*
X122037000Y-32446000D01*
X122217000Y-32342000D01*
X122400000Y-32161000D01*
X122504000Y-32149000D01*
X122593000Y-32205000D01*
X122660000Y-32238000D01*
X122661000Y-32239000D01*
X122711000Y-32255000D01*
X122716000Y-32256000D01*
X122789000Y-32273000D01*
X122792000Y-32273000D01*
X122842000Y-32279000D01*
X123395000Y-32279000D01*
X123477000Y-32345000D01*
X123489000Y-32401000D01*
X123493000Y-32411000D01*
X123496000Y-32420000D01*
X123496000Y-32421000D01*
X123499000Y-32426000D01*
X123569000Y-32519000D01*
X123572000Y-32522000D01*
X123618000Y-32592000D01*
X123620000Y-32594000D01*
X123657000Y-32618000D01*
X123670000Y-32628000D01*
X123830000Y-32788000D01*
X123853000Y-32843000D01*
X123853000Y-33227000D01*
X123765000Y-33315000D01*
X119786000Y-33315000D01*
X119774000Y-33314000D01*
X119727000Y-33306000D01*
X119725000Y-33307000D01*
X119630000Y-33329000D01*
X119628000Y-33330000D01*
X119521000Y-33352000D01*
X119506000Y-33358000D01*
X119500000Y-33360000D01*
X119498000Y-33361000D01*
X119409000Y-33427000D01*
X119406000Y-33430000D01*
X119329000Y-33481000D01*
X119325000Y-33486000D01*
X119301000Y-33522000D01*
X119292000Y-33535000D01*
X119188000Y-33638000D01*
X119133000Y-33661000D01*
X117878000Y-33661000D01*
X117878000Y-35761000D01*
X119978000Y-35761000D01*
X119978000Y-34553000D01*
X120066000Y-34465000D01*
X120590000Y-34465000D01*
X120678000Y-34553000D01*
X120678000Y-35761000D01*
X121013000Y-35761000D01*
X121101000Y-35849000D01*
X121101000Y-36779000D01*
X121078000Y-36834000D01*
X119191000Y-38722000D01*
X119136000Y-38745000D01*
X83300000Y-38745000D01*
X83245000Y-38722000D01*
X76022000Y-31500000D01*
X75999000Y-31445000D01*
X75999000Y-30105000D01*
X111012000Y-30105000D01*
X111012000Y-30625000D01*
X111149000Y-31133000D01*
X111150000Y-31134000D01*
X111410000Y-31585000D01*
X111780000Y-31955000D01*
X112228000Y-32214000D01*
X112231000Y-32215000D01*
X112741000Y-32351000D01*
X113258000Y-32351000D01*
X113768000Y-32215000D01*
X113767000Y-32215000D01*
X114219000Y-31955000D01*
X114220000Y-31954000D01*
X114589000Y-31584000D01*
X114850000Y-31135000D01*
X114987000Y-30625000D01*
X114987000Y-30105000D01*
X114850000Y-29593000D01*
X114589000Y-29144000D01*
X114220000Y-28774000D01*
X114219000Y-28773000D01*
X113767000Y-28513000D01*
X113768000Y-28513000D01*
X113258000Y-28377000D01*
X112741000Y-28377000D01*
X112231000Y-28513000D01*
X112228000Y-28514000D01*
X111780000Y-28773000D01*
X111410000Y-29143000D01*
X111408000Y-29146000D01*
X111149000Y-29596000D01*
X111148000Y-29599000D01*
X111012000Y-30105000D01*
X75999000Y-30105000D01*
X75999000Y-28364000D01*
X71999000Y-28364000D01*
X71999000Y-29649000D01*
X71911000Y-29737000D01*
X70102000Y-29737000D01*
X70014000Y-29649000D01*
X70014000Y-28364000D01*
X66014000Y-28364000D01*
X66013000Y-32364000D01*
X70013000Y-32364000D01*
X70013000Y-31079000D01*
X70101000Y-30991000D01*
X71911000Y-30991000D01*
X71999000Y-31079000D01*
X71999000Y-32364000D01*
X75079000Y-32364000D01*
X75134000Y-32387000D01*
X82583000Y-39835000D01*
X82587000Y-39839000D01*
X82610000Y-39866000D01*
X82612000Y-39868000D01*
X82659000Y-39894000D01*
X82667000Y-39898000D01*
X82719000Y-39935000D01*
X82726000Y-39939000D01*
X82752000Y-39948000D01*
X82764000Y-39953000D01*
X82786000Y-39965000D01*
X82832000Y-39974000D01*
X82840000Y-39976000D01*
X82897000Y-39994000D01*
X82905000Y-39995000D01*
X82937000Y-39996000D01*
X82946000Y-39997000D01*
X82955000Y-39999000D01*
X82955000Y-39998000D01*
X82963000Y-39999000D01*
X83049000Y-39999000D01*
X83087000Y-40000000D01*
X83097000Y-39999000D01*
X119448000Y-39999000D01*
X119493000Y-40001000D01*
X119551000Y-39985000D01*
X119561000Y-39983000D01*
X119618000Y-39975000D01*
X119641000Y-39963000D01*
X119657000Y-39957000D01*
X119687000Y-39949000D01*
X119733000Y-39920000D01*
X119741000Y-39915000D01*
X119792000Y-39890000D01*
X119817000Y-39865000D01*
X119834000Y-39852000D01*
X119838000Y-39850000D01*
X122183000Y-37503000D01*
X122187000Y-37500000D01*
X122223000Y-37468000D01*
X122224000Y-37467000D01*
X122250000Y-37420000D01*
X122254000Y-37412000D01*
X122291000Y-37360000D01*
X122293000Y-37357000D01*
X122303000Y-37327000D01*
X122308000Y-37315000D01*
X122322000Y-37289000D01*
X122330000Y-37246000D01*
X122332000Y-37238000D01*
X122351000Y-37177000D01*
X122352000Y-37142000D01*
X122353000Y-37133000D01*
X122355000Y-37124000D01*
X122354000Y-37124000D01*
X122355000Y-37116000D01*
X122355000Y-37040000D01*
X122356000Y-36994000D01*
X122355000Y-36981000D01*
X122355000Y-35849000D01*
X122443000Y-35761000D01*
X122778000Y-35761000D01*
X122778000Y-34553000D01*
X122866000Y-34465000D01*
X123984000Y-34465000D01*
X123996000Y-34466000D01*
X124049000Y-34475000D01*
X124051000Y-34474000D01*
X124174000Y-34446000D01*
X124175000Y-34445000D01*
X124259000Y-34427000D01*
X124267000Y-34424000D01*
X124278000Y-34420000D01*
X124375000Y-34349000D01*
X124377000Y-34347000D01*
X124448000Y-34297000D01*
X124470000Y-34264000D01*
X124480000Y-34251000D01*
X124784000Y-33947000D01*
X124839000Y-33924000D01*
X125198000Y-33924000D01*
X125286000Y-34012000D01*
X125286000Y-34649000D01*
X128186000Y-34649000D01*
X128186000Y-31249000D01*
X127399000Y-31249000D01*
X127311000Y-31161000D01*
X127311000Y-29442000D01*
X127334000Y-29387000D01*
X128113000Y-28608000D01*
X128305000Y-28700000D01*
X128286000Y-28872000D01*
X128286000Y-29740000D01*
X128292000Y-29793000D01*
X128309000Y-29866000D01*
X128310000Y-29873000D01*
X128325000Y-29918000D01*
X128327000Y-29922000D01*
X128361000Y-29992000D01*
X128397000Y-30049000D01*
X128399000Y-30051000D01*
X128448000Y-30109000D01*
X128456000Y-30117000D01*
X128514000Y-30166000D01*
X128522000Y-30172000D01*
X128573000Y-30203000D01*
X128611000Y-30271000D01*
X128611000Y-30320000D01*
X128610000Y-30332000D01*
X128601000Y-30386000D01*
X128601000Y-30387000D01*
X128633000Y-30519000D01*
X128634000Y-30522000D01*
X128648000Y-30592000D01*
X128653000Y-30603000D01*
X128657000Y-30616000D01*
X128732000Y-30716000D01*
X128734000Y-30719000D01*
X128779000Y-30785000D01*
X128812000Y-30806000D01*
X128825000Y-30816000D01*
X129363000Y-31354000D01*
X129386000Y-31409000D01*
X129386000Y-34649000D01*
X132286000Y-34649000D01*
X132286000Y-32792000D01*
X132387000Y-32703000D01*
X132479000Y-32714000D01*
X132996000Y-32714000D01*
X133084000Y-32802000D01*
X133084000Y-33366000D01*
X133106000Y-33448000D01*
X133107000Y-33453000D01*
X133120000Y-33497000D01*
X133161000Y-33578000D01*
X133206000Y-33648000D01*
X133265000Y-33707000D01*
X133289000Y-33726000D01*
X133290000Y-33727000D01*
X133350000Y-33777000D01*
X133353000Y-33779000D01*
X133428000Y-33811000D01*
X133430000Y-33811000D01*
X133432000Y-33812000D01*
X133509000Y-33840000D01*
X133514000Y-33842000D01*
X133574000Y-33849000D01*
X133617000Y-33854000D01*
X133769000Y-33854000D01*
X133880000Y-33840000D01*
X133899000Y-33840000D01*
X133903000Y-33837000D01*
X134010000Y-33854000D01*
X134169000Y-33854000D01*
X134280000Y-33840000D01*
X134299000Y-33840000D01*
X134374000Y-33849000D01*
X134417000Y-33854000D01*
X134569000Y-33854000D01*
X134680000Y-33840000D01*
X134699000Y-33840000D01*
X134703000Y-33837000D01*
X134810000Y-33854000D01*
X135031000Y-33854000D01*
X135119000Y-33942000D01*
X135119000Y-34506000D01*
X135118000Y-34518000D01*
X135108000Y-34578000D01*
X135146000Y-34737000D01*
X135147000Y-34739000D01*
X135157000Y-34787000D01*
X135159000Y-34791000D01*
X135162000Y-34801000D01*
X135164000Y-34808000D01*
X135242000Y-34912000D01*
X135244000Y-34915000D01*
X135286000Y-34977000D01*
X135320000Y-34999000D01*
X135333000Y-35009000D01*
X137571000Y-37247000D01*
X137594000Y-37302000D01*
X137594000Y-37399000D01*
X137616000Y-37492000D01*
X137618000Y-37500000D01*
X137633000Y-37547000D01*
X137675000Y-37630000D01*
X137680000Y-37638000D01*
X137727000Y-37701000D01*
X137727000Y-37803000D01*
X137670000Y-37876000D01*
X137635000Y-37956000D01*
X137633000Y-37959000D01*
X137615000Y-38006000D01*
X137613000Y-38014000D01*
X137595000Y-38106000D01*
X137594000Y-38115000D01*
X137594000Y-39041000D01*
X137616000Y-39134000D01*
X137617000Y-39138000D01*
X137618000Y-39143000D01*
X137633000Y-39189000D01*
X137675000Y-39272000D01*
X137680000Y-39280000D01*
X137710000Y-39317000D01*
X137712000Y-39421000D01*
X137670000Y-39476000D01*
X137635000Y-39556000D01*
X137633000Y-39559000D01*
X137615000Y-39606000D01*
X137613000Y-39614000D01*
X137595000Y-39706000D01*
X137594000Y-39715000D01*
X137594000Y-40641000D01*
X137616000Y-40734000D01*
X137617000Y-40738000D01*
X137617000Y-40740000D01*
X137633000Y-40789000D01*
X137675000Y-40872000D01*
X137680000Y-40881000D01*
X137716000Y-40928000D01*
X137759000Y-40980000D01*
X137764000Y-40985000D01*
X137810000Y-41024000D01*
X137876000Y-41070000D01*
X137886000Y-41076000D01*
X137960000Y-41109000D01*
X138001000Y-41123000D01*
X138003000Y-41123000D01*
X138008000Y-41124000D01*
X138080000Y-41141000D01*
X138083000Y-41141000D01*
X138133000Y-41147000D01*
X138855000Y-41147000D01*
X138905000Y-41141000D01*
X138908000Y-41141000D01*
X138981000Y-41124000D01*
X138986000Y-41123000D01*
X139035000Y-41107000D01*
X139043000Y-41104000D01*
X139043000Y-41103000D01*
X139136000Y-41064000D01*
X139277000Y-41182000D01*
X139244000Y-41322000D01*
X139244000Y-42260000D01*
X139266000Y-42353000D01*
X139267000Y-42357000D01*
X139267000Y-42359000D01*
X139283000Y-42408000D01*
X139325000Y-42491000D01*
X139330000Y-42500000D01*
X139366000Y-42547000D01*
X139409000Y-42599000D01*
X139414000Y-42604000D01*
X139461000Y-42644000D01*
X139567000Y-42719000D01*
X139578000Y-42858000D01*
X133696000Y-48741000D01*
X133641000Y-48764000D01*
X40489000Y-48764000D01*
X40477000Y-48763000D01*
X40423000Y-48754000D01*
X40421000Y-48755000D01*
X40298000Y-48783000D01*
X40297000Y-48784000D01*
X40213000Y-48802000D01*
X40205000Y-48805000D01*
X40194000Y-48809000D01*
X40097000Y-48880000D01*
X40095000Y-48882000D01*
X40023000Y-48932000D01*
X39999000Y-48968000D01*
X39990000Y-48981000D01*
X29933000Y-59037000D01*
X29878000Y-59060000D01*
X29765000Y-59060000D01*
X29753000Y-59059000D01*
X29699000Y-59050000D01*
X29698000Y-59050000D01*
X29569000Y-59081000D01*
X29567000Y-59081000D01*
X29496000Y-59097000D01*
X29486000Y-59101000D01*
X29476000Y-59104000D01*
X29467000Y-59106000D01*
X29359000Y-59189000D01*
X29355000Y-59191000D01*
X29301000Y-59228000D01*
X29281000Y-59260000D01*
X29271000Y-59272000D01*
X28173000Y-60370000D01*
X28125000Y-60392000D01*
X28089000Y-60395000D01*
X28076000Y-60397000D01*
X27926000Y-60443000D01*
X27923000Y-60444000D01*
X27782000Y-60523000D01*
X27659000Y-60635000D01*
X27560000Y-60771000D01*
X27495000Y-60926000D01*
X27493000Y-60936000D01*
X27469000Y-61097000D01*
X27469000Y-92375000D01*
X27468000Y-92392000D01*
X23907631Y-92392000D01*
X23900000Y-91360000D01*
X23889000Y-89110000D01*
X23879000Y-86360000D01*
X23870000Y-83110000D01*
X23863000Y-79351000D01*
X23857000Y-75080000D01*
X23853000Y-70291000D01*
X23851000Y-64980000D01*
X23850000Y-59141000D01*
X23850000Y-51558000D01*
X23851000Y-45111000D01*
X23851962Y-43379000D01*
X27014000Y-43379000D01*
X27014000Y-47379000D01*
X31014000Y-47379000D01*
X31014000Y-45283000D01*
X67270000Y-45283000D01*
X67270000Y-45475000D01*
X67322000Y-45668000D01*
X67323000Y-45670000D01*
X67417000Y-45834000D01*
X67419000Y-45837000D01*
X67557000Y-45974000D01*
X67558000Y-45975000D01*
X67722000Y-46070000D01*
X67725000Y-46071000D01*
X67919000Y-46123000D01*
X68108000Y-46123000D01*
X68302000Y-46071000D01*
X68305000Y-46070000D01*
X68469000Y-45975000D01*
X68470000Y-45974000D01*
X68608000Y-45837000D01*
X68610000Y-45834000D01*
X68704000Y-45670000D01*
X68705000Y-45668000D01*
X68757000Y-45475000D01*
X68757000Y-45283000D01*
X68756729Y-45282000D01*
X73256000Y-45282000D01*
X73256000Y-45476000D01*
X73306000Y-45666000D01*
X73307000Y-45667000D01*
X73403000Y-45835000D01*
X73404000Y-45836000D01*
X73543000Y-45974000D01*
X73544000Y-45975000D01*
X73708000Y-46070000D01*
X73711000Y-46071000D01*
X73905000Y-46123000D01*
X74095000Y-46123000D01*
X74288000Y-46071000D01*
X74287000Y-46071000D01*
X74457000Y-45973000D01*
X74593000Y-45837000D01*
X74691000Y-45667000D01*
X74743000Y-45475000D01*
X74743000Y-45283000D01*
X74691000Y-45091000D01*
X74594000Y-44922000D01*
X74457000Y-44785000D01*
X74287000Y-44687000D01*
X74288000Y-44687000D01*
X74095000Y-44635000D01*
X73905000Y-44635000D01*
X73711000Y-44687000D01*
X73708000Y-44688000D01*
X73544000Y-44783000D01*
X73543000Y-44784000D01*
X73404000Y-44922000D01*
X73402000Y-44925000D01*
X73307000Y-45091000D01*
X73306000Y-45092000D01*
X73256000Y-45282000D01*
X68756729Y-45282000D01*
X68705000Y-45091000D01*
X68610000Y-44925000D01*
X68608000Y-44922000D01*
X68469000Y-44783000D01*
X68305000Y-44688000D01*
X68302000Y-44687000D01*
X68112000Y-44636000D01*
X67915000Y-44636000D01*
X67725000Y-44687000D01*
X67722000Y-44688000D01*
X67558000Y-44783000D01*
X67419000Y-44922000D01*
X67417000Y-44925000D01*
X67322000Y-45091000D01*
X67270000Y-45283000D01*
X31014000Y-45283000D01*
X31014000Y-43379000D01*
X110999000Y-43379000D01*
X110999000Y-47379000D01*
X114999000Y-47379000D01*
X114999000Y-43379000D01*
X113885000Y-43379000D01*
X113797000Y-43291000D01*
X113797000Y-43168000D01*
X113743000Y-42963000D01*
X113635000Y-42783000D01*
X113634000Y-42781000D01*
X113491000Y-42636000D01*
X113492000Y-42636000D01*
X113307000Y-42530000D01*
X113308000Y-42530000D01*
X113102000Y-42475000D01*
X112897000Y-42475000D01*
X112692000Y-42530000D01*
X112510000Y-42634000D01*
X112361000Y-42783000D01*
X112257000Y-42965000D01*
X112202000Y-43170000D01*
X112202000Y-43291000D01*
X112114000Y-43379000D01*
X110999000Y-43379000D01*
X31014000Y-43379000D01*
X29729000Y-43379000D01*
X29641000Y-43291000D01*
X29641000Y-32317000D01*
X29703000Y-32236000D01*
X29781000Y-32216000D01*
X29782000Y-32215000D01*
X30233000Y-31955000D01*
X30603000Y-31585000D01*
X30863000Y-31134000D01*
X30864000Y-31133000D01*
X31001000Y-30625000D01*
X31001000Y-30105000D01*
X30865000Y-29599000D01*
X30864000Y-29596000D01*
X30605000Y-29146000D01*
X30603000Y-29143000D01*
X30233000Y-28773000D01*
X29785000Y-28514000D01*
X29782000Y-28513000D01*
X29272000Y-28377000D01*
X28755000Y-28377000D01*
X28245000Y-28513000D01*
X28242000Y-28514000D01*
X27794000Y-28773000D01*
X27424000Y-29143000D01*
X27422000Y-29146000D01*
X27163000Y-29596000D01*
X27162000Y-29599000D01*
X27026000Y-30105000D01*
X27026000Y-30625000D01*
X27163000Y-31133000D01*
X27164000Y-31134000D01*
X27424000Y-31585000D01*
X27794000Y-31955000D01*
X28243000Y-32215000D01*
X28326000Y-32238000D01*
X28387000Y-32318000D01*
X28387000Y-43291000D01*
X28299000Y-43379000D01*
X27014000Y-43379000D01*
X23851962Y-43379000D01*
X23854000Y-39708000D01*
X23858000Y-35255000D01*
X23865000Y-31661000D01*
X23874000Y-28830000D01*
X23886000Y-26672000D01*
X23902000Y-25094000D01*
X23922000Y-24005000D01*
X23922000Y-24004000D01*
X23945000Y-23314000D01*
X23945000Y-23311000D01*
X23973000Y-22924000D01*
X23974000Y-22916000D01*
X24002000Y-22754000D01*
X24005000Y-22744000D01*
X24062000Y-22567000D01*
X24062000Y-22565000D01*
X24130000Y-22374000D01*
X24131000Y-22372000D01*
X24208000Y-22179000D01*
X24209000Y-22176000D01*
X24283000Y-22012000D01*
X24284000Y-22009000D01*
X24372000Y-21829000D01*
X24374000Y-21826000D01*
X24464000Y-21662000D01*
X24466000Y-21659000D01*
X24556000Y-21512000D01*
X24664000Y-21350000D01*
X24666000Y-21348000D01*
X24777000Y-21195000D01*
X24779000Y-21191000D01*
X24913000Y-21025000D01*
X24914000Y-21023000D01*
X25039000Y-20878000D01*
X25041000Y-20875000D01*
X25183000Y-20721000D01*
X25185000Y-20719000D01*
X25338000Y-20567000D01*
X25340000Y-20565000D01*
X25504000Y-20413000D01*
X25506000Y-20411000D01*
X25648000Y-20290000D01*
X25650000Y-20288000D01*
X25816000Y-20158000D01*
X25818000Y-20156000D01*
X25979000Y-20041000D01*
X25981000Y-20039000D01*
X26132000Y-19941000D01*
X26135000Y-19939000D01*
X26317000Y-19831000D01*
X26321000Y-19829000D01*
X26481000Y-19745000D01*
X26483000Y-19744000D01*
X26675000Y-19653000D01*
X26678000Y-19652000D01*
X26867000Y-19570000D01*
X26870000Y-19569000D01*
X27050000Y-19501000D01*
X27053000Y-19500000D01*
X27245000Y-19435000D01*
X27256000Y-19432000D01*
X27437000Y-19400000D01*
X27445000Y-19399000D01*
X27921000Y-19368000D01*
X27923000Y-19368000D01*
X28928000Y-19340000D01*
X28929000Y-19340000D01*
X30610000Y-19318000D01*
X30611000Y-19318000D01*
X33172000Y-19300000D01*
X36807000Y-19286000D01*
X41705000Y-19276000D01*
X48063000Y-19269000D01*
X56073000Y-19264000D01*
X65931000Y-19262000D01*
X77828000Y-19260000D01*
X91959000Y-19260000D01*
X105510000Y-19258000D01*
X117030000Y-19257000D01*
X126681000Y-19258000D01*
X134630000Y-19261000D01*
X141042000Y-19267000D01*
X146079000Y-19275000D01*
X149911000Y-19287000D01*
X152697000Y-19302000D01*
X154601000Y-19322000D01*
X154602000Y-19322000D01*
X155788000Y-19346000D01*
X155790000Y-19346000D01*
X156432000Y-19375000D01*
X156439000Y-19376000D01*
X156643000Y-19403000D01*
X156657000Y-19407000D01*
X157042000Y-19537000D01*
X157048000Y-19539000D01*
X157412000Y-19699000D01*
X157418000Y-19702000D01*
X157781000Y-19897000D01*
X157786000Y-19901000D01*
X158133000Y-20127000D01*
X158138000Y-20131000D01*
X158450000Y-20375000D01*
X158455000Y-20379000D01*
X158749000Y-20652000D01*
X158753000Y-20656000D01*
X159025000Y-20952000D01*
X159029000Y-20957000D01*
X159275000Y-21277000D01*
X159278000Y-21282000D01*
X159497000Y-21620000D01*
X159500000Y-21626000D01*
X159690000Y-21984000D01*
X159693000Y-21990000D01*
X159849000Y-22360000D01*
X159852000Y-22366000D01*
X159976000Y-22748000D01*
X159978000Y-22756000D01*
X160011000Y-22916000D01*
X160012000Y-22924000D01*
X160041000Y-23227000D01*
X160042000Y-23231000D01*
X160070000Y-23830000D01*
X160070000Y-23832000D01*
X160092000Y-24786000D01*
X160092000Y-24787000D01*
X160110000Y-26228000D01*
X160124000Y-28262000D01*
X160124000Y-28263000D01*
X160134000Y-31000000D01*
X160141000Y-34553000D01*
X160146000Y-39033000D01*
X160148000Y-44551000D01*
X160150000Y-51219000D01*
X160150000Y-59149000D01*
X160151000Y-68162000D01*
X160151000Y-75560000D01*
X160147000Y-81506000D01*
X160138000Y-86166000D01*
X160120000Y-89701000D01*
X160091000Y-92272000D01*
X160091000Y-92273000D01*
X160048000Y-94048000D01*
X160048000Y-94050000D01*
X159991000Y-95172000D01*
X159990000Y-95177000D01*
X159915000Y-95817000D01*
X159913000Y-95828000D01*
X159828000Y-96138000D01*
X159822000Y-96155000D01*
X159713000Y-96350000D01*
X159712000Y-96353000D01*
X159566000Y-96590000D01*
X159567000Y-96590000D01*
X159386000Y-96899000D01*
X159383000Y-96905000D01*
X159181000Y-97192000D01*
X159178000Y-97196000D01*
X158960000Y-97460000D01*
X158957000Y-97463000D01*
X158705000Y-97728000D01*
X158701000Y-97732000D01*
X158444000Y-97965000D01*
X158440000Y-97968000D01*
X158154000Y-98192000D01*
X158150000Y-98195000D01*
X157860000Y-98392000D01*
X157855000Y-98395000D01*
X157541000Y-98576000D01*
X157536000Y-98579000D01*
X157222000Y-98731000D01*
X157217000Y-98733000D01*
X156889000Y-98863000D01*
X156883000Y-98865000D01*
X156552000Y-98969000D01*
X156546000Y-98971000D01*
X156238000Y-99039000D01*
X156225000Y-99041000D01*
X155757000Y-99059000D01*
X155754000Y-99059000D01*
X154474000Y-99076000D01*
X152366000Y-99091000D01*
X152365000Y-99091000D01*
X149408000Y-99104000D01*
X145575000Y-99115000D01*
X140839000Y-99125000D01*
X135173000Y-99133000D01*
X128550000Y-99139000D01*
X120946000Y-99144000D01*
X112330000Y-99147000D01*
X102678000Y-99149000D01*
X91961000Y-99150000D01*
G37*
%TD.AperFunction*%
%TD*%
M02*
