%TF.GenerationSoftware,Flux,Pcbnew,7.0.11-7.0.11~ubuntu20.04.1*%
%TF.CreationDate,2024-08-20T18:53:49+00:00*%
%TF.ProjectId,input,696e7075-742e-46b6-9963-61645f706362,rev?*%
%TF.SameCoordinates,Original*%
%TF.FileFunction,Copper,L2,Inr*%
%TF.FilePolarity,Positive*%
%FSLAX46Y46*%
G04 Gerber Fmt 4.6, Leading zero omitted, Abs format (unit mm)*
G04 Filename: known-fuchsia-translation-collar*
G04 Build it with Flux! Visit our site at: https://www.flux.ai (PCBNEW 7.0.11-7.0.11~ubuntu20.04.1) date 2024-08-20 18:53:49*
%MOMM*%
%LPD*%
G01*
G04 APERTURE LIST*
G04 Aperture macros list*
%AMFreePoly0*
4,1,5,1.500000,-1.500000,-1.500000,-1.500000,-1.500000,1.500000,1.500000,1.500000,1.500000,-1.500000,1.500000,-1.500000,$1*%
%AMFreePoly1*
4,1,129,0.022069,0.299187,0.036723,0.297744,0.051289,0.295583,0.065730,0.292711,0.080014,0.289133,0.094105,0.284858,0.107969,0.279898,0.121572,0.274263,0.134883,0.267967,0.147869,0.261026,0.160499,0.253456,0.172742,0.245275,0.184569,0.236504,0.195952,0.227163,0.206862,0.217274,0.217274,0.206862,0.227163,0.195952,0.236504,0.184569,0.245275,0.172742,0.253456,0.160499,
0.261026,0.147869,0.267967,0.134883,0.274263,0.121572,0.279898,0.107969,0.284858,0.094105,0.289133,0.080014,0.292711,0.065730,0.295583,0.051289,0.297744,0.036723,0.299187,0.022069,0.299910,0.007362,0.299910,-0.007362,0.299187,-0.022069,0.297744,-0.036723,0.295583,-0.051289,0.292711,-0.065730,0.289133,-0.080014,0.284858,-0.094105,0.279898,-0.107969,0.274263,-0.121572,
0.267967,-0.134883,0.261026,-0.147869,0.253456,-0.160499,0.245275,-0.172742,0.236504,-0.184569,0.227163,-0.195952,0.217274,-0.206862,0.206862,-0.217274,0.195952,-0.227163,0.184569,-0.236504,0.172742,-0.245275,0.160499,-0.253456,0.147869,-0.261026,0.134883,-0.267967,0.121572,-0.274263,0.107969,-0.279898,0.094105,-0.284858,0.080014,-0.289133,0.065730,-0.292711,0.051289,-0.295583,
0.036723,-0.297744,0.022069,-0.299187,0.007362,-0.299910,-0.007362,-0.299910,-0.022069,-0.299187,-0.036723,-0.297744,-0.051289,-0.295583,-0.065730,-0.292711,-0.080014,-0.289133,-0.094105,-0.284858,-0.107969,-0.279898,-0.121572,-0.274263,-0.134883,-0.267967,-0.147869,-0.261026,-0.160499,-0.253456,-0.172742,-0.245275,-0.184569,-0.236504,-0.195952,-0.227163,-0.206862,-0.217274,-0.217274,-0.206862,
-0.227163,-0.195952,-0.236504,-0.184569,-0.245275,-0.172742,-0.253456,-0.160499,-0.261026,-0.147869,-0.267967,-0.134883,-0.274263,-0.121572,-0.279898,-0.107969,-0.284858,-0.094105,-0.289133,-0.080014,-0.292711,-0.065730,-0.295583,-0.051289,-0.297744,-0.036723,-0.299187,-0.022069,-0.299910,-0.007362,-0.299910,0.007362,-0.299187,0.022069,-0.297744,0.036723,-0.295583,0.051289,-0.292711,0.065730,
-0.289133,0.080014,-0.284858,0.094105,-0.279898,0.107969,-0.274263,0.121572,-0.267967,0.134883,-0.261026,0.147869,-0.253456,0.160499,-0.245275,0.172742,-0.236504,0.184569,-0.227163,0.195952,-0.217274,0.206862,-0.206862,0.217274,-0.195952,0.227163,-0.184569,0.236504,-0.172742,0.245275,-0.160499,0.253456,-0.147869,0.261026,-0.134883,0.267967,-0.121572,0.274263,-0.107969,0.279898,
-0.094105,0.284858,-0.080014,0.289133,-0.065730,0.292711,-0.051289,0.295583,-0.036723,0.297744,-0.022069,0.299187,-0.007362,0.299910,0.007362,0.299910,0.022069,0.299187,0.022069,0.299187,$1*%
G04 Aperture macros list end*
%TA.AperFunction,ComponentPad*%
%ADD10C,3.000000*%
%TD*%
%TA.AperFunction,ComponentPad*%
%ADD11FreePoly0,180.000000*%
%TD*%
%TA.AperFunction,ComponentPad*%
%ADD12FreePoly0,0.000000*%
%TD*%
%TA.AperFunction,ComponentPad*%
%ADD13FreePoly1,0.000000*%
%TD*%
%TA.AperFunction,Conductor*%
%ADD14C,0.150000*%
%TD*%
%TA.AperFunction,Conductor*%
%ADD15C,0.500000*%
%TD*%
%TA.AperFunction,Conductor*%
%ADD16C,0.254000*%
%TD*%
G04 APERTURE END LIST*
D10*
%TO.N,N/C*%
%TO.C,*%
X73999400Y-45379048D03*
D11*
X112999400Y-45379152D03*
D10*
X29013500Y-30363748D03*
D11*
X68013500Y-30363852D03*
D10*
X68013500Y-45379200D03*
D12*
X29013500Y-45379200D03*
D10*
X112999400Y-30363900D03*
D12*
X73999400Y-30363900D03*
D13*
%TO.N,Net 4*%
X141826700Y-29503900D03*
X143630900Y-30503900D03*
%TO.N,Net 15*%
X151889100Y-35375000D03*
X133693800Y-30903900D03*
%TO.N,Net 9*%
X141609300Y-30503900D03*
X144141800Y-29503900D03*
%TO.N,Net 13*%
X134493800Y-23298100D03*
X129286200Y-26521700D03*
%TO.N,Net 25*%
X145741800Y-35820200D03*
X143404800Y-37082700D03*
%TO.N,Net 1*%
X112999400Y-43272400D03*
%TO.N,Net 11*%
X134893800Y-31853900D03*
X140986400Y-25563000D03*
%TO.N,GND*%
X132093400Y-31303900D03*
X116237500Y-38074300D03*
X128181200Y-25563000D03*
X144541800Y-37346100D03*
X129986300Y-22687000D03*
X143857600Y-35570500D03*
X129986300Y-27758700D03*
X116237500Y-40171600D03*
X158600000Y-24400000D03*
X113600000Y-24400000D03*
X98600000Y-24400000D03*
X83600000Y-24400000D03*
X68600000Y-24400000D03*
X53600000Y-24400000D03*
X38600000Y-24400000D03*
X128600000Y-39400000D03*
X68600000Y-39400000D03*
X53600000Y-39400000D03*
X38600000Y-39400000D03*
X158600000Y-54400000D03*
X143600000Y-54400000D03*
X38600000Y-54400000D03*
X158600000Y-69400000D03*
X158600000Y-84400000D03*
%TO.N,Net 2*%
X121727800Y-31703900D03*
X152917400Y-50233300D03*
X137693800Y-23841300D03*
%TO.N,Net 19*%
X152715500Y-37731600D03*
X133693800Y-30262900D03*
%TO.N,Net 14*%
X129722700Y-28413900D03*
X134893800Y-24026900D03*
%TO.N,Net 24*%
X138493800Y-35124200D03*
X133802200Y-31703900D03*
X144676000Y-36929900D03*
X142433700Y-36111500D03*
%TO.N,Net 18*%
X149453300Y-47214500D03*
X149453200Y-46238200D03*
X149453300Y-50233400D03*
X149453300Y-51114100D03*
X149453200Y-45485900D03*
X122142000Y-59991200D03*
X149453300Y-49192900D03*
X149453300Y-52257000D03*
X149453200Y-44552800D03*
X149453300Y-48230500D03*
%TO.N,Net 26*%
X133802200Y-29703900D03*
X152494300Y-39188800D03*
X156455800Y-37220700D03*
%TO.N,GND*%
X57022300Y-55448400D03*
X49248200Y-56868100D03*
X43561700Y-56962400D03*
X64478200Y-55077800D03*
X67205000Y-57682300D03*
X124490200Y-25244000D03*
X72534600Y-57940400D03*
X78133200Y-57714300D03*
X149057600Y-41967200D03*
X82190600Y-58190400D03*
X33744700Y-58114700D03*
X141375900Y-28042100D03*
X86523300Y-59096900D03*
X73857500Y-83472100D03*
X42117200Y-85618900D03*
X139683300Y-24860200D03*
X91670200Y-59386900D03*
X78665500Y-88104100D03*
X67970000Y-76142000D03*
X146555200Y-56969000D03*
X123347800Y-60527200D03*
X151210700Y-54497500D03*
X147238300Y-35831800D03*
X136326500Y-24457600D03*
X140398100Y-35304800D03*
X125121100Y-87150600D03*
X154448800Y-35379700D03*
X124470000Y-90607500D03*
X136816600Y-58565000D03*
X142413700Y-90575300D03*
X116273100Y-85953700D03*
%TD*%
D14*
%TO.N,Net 15*%
X137570600Y-30903900D02*
X140781800Y-34115100D01*
X140781800Y-34115100D02*
X150629200Y-34115100D01*
X133693800Y-30903900D02*
X137570600Y-30903900D01*
X150629100Y-34115100D02*
X151889100Y-35375100D01*
%TO.N,Net 9*%
X144141800Y-29503900D02*
X142609400Y-29503900D01*
X142609300Y-29503900D02*
X141609300Y-30503900D01*
%TO.N,GND*%
X128181100Y-29848900D02*
X129236100Y-30903900D01*
X131693400Y-30903900D02*
X132093400Y-31303900D01*
X128181200Y-25563000D02*
X128181200Y-29849000D01*
X129236200Y-30903900D02*
X131693400Y-30903900D01*
D15*
%TO.N,Net 2*%
X151931300Y-60227400D02*
X151931300Y-82179400D01*
D14*
X152917400Y-59074800D02*
X153178700Y-59336000D01*
D15*
X153560800Y-61696600D02*
X153983200Y-61274200D01*
X154757500Y-59844200D02*
X154546300Y-59633000D01*
X148942800Y-83749200D02*
X148385200Y-84306800D01*
X153560900Y-89872900D02*
X153560900Y-61696500D01*
X148385400Y-94185600D02*
X154101800Y-94185600D01*
D14*
X152917400Y-50233300D02*
X152917400Y-59074900D01*
D15*
X150361500Y-83749200D02*
X148942800Y-83749200D01*
X154757500Y-93530000D02*
X154757500Y-59844200D01*
X150361600Y-85157500D02*
X150361400Y-92735500D01*
X152927400Y-60040600D02*
X152927400Y-82591600D01*
X152716200Y-92366400D02*
X152716200Y-91639600D01*
X151660400Y-85011200D02*
X151801200Y-84870400D01*
X153178700Y-59336100D02*
X152822600Y-59336100D01*
X153335000Y-59633000D02*
X152927400Y-60040600D01*
X152716200Y-91639600D02*
X151660400Y-90583800D01*
X152927300Y-82591700D02*
X150361500Y-85157500D01*
X151801200Y-84870400D02*
X151801200Y-88113200D01*
X154101900Y-94185600D02*
X154757500Y-93530000D01*
X151931300Y-82179400D02*
X150361500Y-83749200D01*
X152347100Y-92735500D02*
X152716300Y-92366400D01*
X151801200Y-88113300D02*
X153560800Y-89872900D01*
X148385200Y-84306800D02*
X148385400Y-94185600D01*
X151660400Y-90583800D02*
X151660400Y-85011200D01*
X150361400Y-92735500D02*
X152347200Y-92735500D01*
X152822600Y-59336100D02*
X151931300Y-60227400D01*
X154546300Y-59633000D02*
X153334900Y-59633000D01*
D14*
%TO.N,Net 24*%
X133952000Y-31554100D02*
X133802200Y-31703900D01*
X134893800Y-31554100D02*
X133952000Y-31554100D01*
X138463800Y-35124200D02*
X134893800Y-31554200D01*
X143857600Y-36111500D02*
X144676000Y-36929900D01*
X142433700Y-36111500D02*
X143857700Y-36111500D01*
X138493800Y-35124200D02*
X138463800Y-35124200D01*
D15*
%TO.N,Net 18*%
X103599200Y-83004800D02*
X103825400Y-83231000D01*
X136826200Y-94185600D02*
X136826200Y-83636400D01*
D14*
X139171800Y-49193000D02*
X132447200Y-55917600D01*
D15*
X110587600Y-61274400D02*
X110166900Y-61695100D01*
D16*
X149453300Y-47214500D02*
X139309300Y-47214500D01*
D15*
X118637200Y-59991300D02*
X117119000Y-59991300D01*
X127306000Y-64120200D02*
X127672600Y-63753600D01*
D14*
X140111900Y-45485900D02*
X139797900Y-45171900D01*
D15*
X106737200Y-60455800D02*
X105054200Y-60455800D01*
D16*
X132093700Y-52925600D02*
X115543300Y-52925600D01*
D15*
X123149500Y-92366400D02*
X123518700Y-92735600D01*
X103339000Y-83231000D02*
X102487200Y-84082800D01*
X123149500Y-86281400D02*
X123149500Y-92366400D01*
X110768000Y-80358900D02*
X111289000Y-79837900D01*
X139732000Y-60970800D02*
X136451600Y-60970800D01*
X150722500Y-82426200D02*
X150722500Y-61331800D01*
X116291900Y-92353200D02*
X116291900Y-87496600D01*
X146277000Y-94226800D02*
X146318200Y-94185600D01*
X139187600Y-62191200D02*
X138915400Y-61919000D01*
X125790000Y-89872900D02*
X124441800Y-88524700D01*
X123518700Y-92735600D02*
X125407700Y-92735600D01*
X111289000Y-94185600D02*
X118637200Y-94185600D01*
X112084800Y-81422300D02*
X112170600Y-81508100D01*
X127857200Y-84267000D02*
X127672600Y-84082400D01*
X140947300Y-86607700D02*
X140947300Y-91606500D01*
X125451800Y-81508300D02*
X128513600Y-81508300D01*
X140094900Y-82374600D02*
X140094900Y-61333800D01*
X130434000Y-60970800D02*
X130434000Y-93239400D01*
X125525400Y-61274300D02*
X125451800Y-61347900D01*
D16*
X110744300Y-52257000D02*
X105276700Y-57724600D01*
D14*
X139797900Y-45171800D02*
X139797900Y-45221400D01*
D15*
X105841300Y-61695000D02*
X105841300Y-84870400D01*
X117529700Y-62600500D02*
X117138900Y-62209700D01*
X143632800Y-61482400D02*
X142979600Y-60829200D01*
X115483900Y-59632900D02*
X114402700Y-60714100D01*
X111289000Y-62570400D02*
X110928400Y-62209800D01*
D14*
X148385200Y-51114100D02*
X142703000Y-56796300D01*
D15*
X146318200Y-83967000D02*
X146100400Y-83749200D01*
D16*
X149453300Y-48230500D02*
X139352900Y-48230500D01*
X132447200Y-54076700D02*
X125790000Y-54076700D01*
D15*
X143269900Y-86682300D02*
X143269900Y-88466100D01*
X126657200Y-93029900D02*
X126657200Y-86483300D01*
X113332700Y-91588700D02*
X115527500Y-91588700D01*
D16*
X127181000Y-57724600D02*
X127181000Y-60227400D01*
D15*
X113213300Y-84573800D02*
X112170700Y-85616400D01*
X149453300Y-81417300D02*
X149453300Y-62191100D01*
X118637200Y-94185600D02*
X118637200Y-59991300D01*
X127306100Y-80358800D02*
X127306100Y-64120200D01*
X132447200Y-85267400D02*
X132447200Y-89119400D01*
X139997700Y-93108900D02*
X145150500Y-93108900D01*
X128513500Y-62528900D02*
X128384100Y-62399500D01*
X138915400Y-83749200D02*
X138915400Y-94226800D01*
X107110500Y-60829200D02*
X106737100Y-60455800D01*
X126558400Y-62399500D02*
X126357400Y-62600500D01*
X146100400Y-82426200D02*
X150722400Y-82426200D01*
D16*
X129757800Y-55147800D02*
X127181000Y-57724600D01*
D14*
X139797900Y-45221400D02*
X132093700Y-52925600D01*
D15*
X104796000Y-60714000D02*
X104796000Y-83349600D01*
X135082900Y-82471900D02*
X139997700Y-82471900D01*
X139101800Y-81508100D02*
X139187600Y-81422300D01*
X105841300Y-84870400D02*
X104870700Y-85841000D01*
X108454400Y-92353200D02*
X108454400Y-85840200D01*
X103974700Y-93108900D02*
X107698700Y-93108900D01*
X104870700Y-85841000D02*
X104870700Y-91588600D01*
X109275600Y-81422300D02*
X112084800Y-81422300D01*
X129505400Y-82644300D02*
X129505400Y-61533100D01*
X129505400Y-61533100D02*
X129246600Y-61274300D01*
X149362300Y-81508300D02*
X149453300Y-81417300D01*
X138915400Y-94226800D02*
X146277000Y-94226800D01*
X120378700Y-59991400D02*
X120378700Y-94320800D01*
X136148200Y-61274300D02*
X136148200Y-81417300D01*
X114065500Y-83349600D02*
X113332700Y-84082400D01*
X102487200Y-94226800D02*
X109234400Y-94226800D01*
X122142000Y-93530000D02*
X126157000Y-93530000D01*
X144431100Y-83224600D02*
X143632700Y-82426200D01*
X145150500Y-93108900D02*
X145229500Y-93029900D01*
X114402700Y-60714000D02*
X114402700Y-83154200D01*
D14*
X141910400Y-50233300D02*
X138067000Y-54076700D01*
D15*
X139997700Y-82471800D02*
X140095000Y-82374600D01*
X150722400Y-61331700D02*
X150361400Y-60970700D01*
X148385200Y-62191200D02*
X148385200Y-80535200D01*
D16*
X122142000Y-57724700D02*
X122142000Y-59991200D01*
D15*
X117118900Y-59991300D02*
X115835900Y-61274300D01*
X147172300Y-81508300D02*
X149362300Y-81508300D01*
D14*
X139630900Y-46238200D02*
X139180700Y-46688400D01*
D15*
X106113600Y-91663300D02*
X106811800Y-90965100D01*
D16*
X115543300Y-52925600D02*
X110744300Y-57724600D01*
D15*
X133911600Y-83491100D02*
X133911600Y-61274300D01*
X143923100Y-86499200D02*
X143705300Y-86281400D01*
X112170700Y-81508100D02*
X112170700Y-61274300D01*
X136826300Y-83636300D02*
X136971500Y-83491100D01*
D16*
X116237700Y-57724600D02*
X116237700Y-59633000D01*
D14*
X142703000Y-59336100D02*
X142825200Y-59458300D01*
D15*
X128513500Y-81508300D02*
X128513500Y-62528900D01*
X116237700Y-59632900D02*
X115483900Y-59632900D01*
X149453400Y-62191100D02*
X148385300Y-62191100D01*
X145214600Y-83749200D02*
X144866600Y-83401200D01*
D14*
X138067000Y-54076700D02*
X138067000Y-59217900D01*
D15*
X113332700Y-84082400D02*
X111513500Y-84082400D01*
X137356500Y-79934000D02*
X137781400Y-80358900D01*
X105617300Y-61919000D02*
X105841300Y-61695000D01*
X125451800Y-61347900D02*
X125451800Y-81508300D01*
X112170700Y-61274300D02*
X110587700Y-61274300D01*
X146100400Y-60227300D02*
X146100400Y-82426100D01*
X137293800Y-59991200D02*
X135318900Y-59991200D01*
X114337600Y-86111200D02*
X114337600Y-90583800D01*
X110764000Y-59632900D02*
X108396000Y-59632900D01*
X130724600Y-93530000D02*
X136170600Y-93530000D01*
X127857200Y-94185600D02*
X127857200Y-84267000D01*
X107962300Y-82450000D02*
X113148700Y-82450000D01*
X111513400Y-84082400D02*
X111289000Y-84306800D01*
D14*
X149453300Y-51114100D02*
X148385300Y-51114100D01*
D15*
X127672600Y-84082400D02*
X122475200Y-84082400D01*
X139263400Y-83401200D02*
X138915400Y-83749200D01*
X110768100Y-80535200D02*
X110768100Y-80358800D01*
X104796000Y-83349600D02*
X103601400Y-84544200D01*
X135082800Y-60227300D02*
X135083000Y-82471900D01*
X146100400Y-83749200D02*
X145214600Y-83749200D01*
X102487200Y-84082800D02*
X102487200Y-94226800D01*
D14*
X149453200Y-45485900D02*
X140112000Y-45485900D01*
D15*
X139187600Y-81422300D02*
X139187600Y-62191100D01*
X124416800Y-82644300D02*
X129505400Y-82644300D01*
X122142000Y-83749200D02*
X122142000Y-60829200D01*
D14*
X149453200Y-46238200D02*
X139631000Y-46238200D01*
D15*
X107110500Y-83231000D02*
X107110500Y-60829200D01*
X109275600Y-60528700D02*
X109275600Y-81422300D01*
X128384200Y-62399500D02*
X126558400Y-62399500D01*
D14*
X149453300Y-49192900D02*
X139171900Y-49192900D01*
D15*
X125790000Y-85616200D02*
X123814600Y-85616200D01*
X107742500Y-85616300D02*
X105617300Y-83491100D01*
D16*
X149453300Y-52257000D02*
X149453300Y-58923000D01*
D14*
X138988900Y-46688400D02*
X132093700Y-53583600D01*
D16*
X132447200Y-55917600D02*
X132447200Y-59991200D01*
D15*
X137781300Y-64025800D02*
X138053500Y-63753600D01*
X122142000Y-60829200D02*
X122142000Y-93530000D01*
X143705400Y-86281400D02*
X143670800Y-86281400D01*
D16*
X139309400Y-47214500D02*
X132447200Y-54076700D01*
D15*
X107698700Y-93108900D02*
X108454300Y-92353300D01*
X108037700Y-82374600D02*
X107962300Y-82450000D01*
X135082800Y-85084800D02*
X132629800Y-85084800D01*
X122475200Y-84082400D02*
X122142000Y-83749200D01*
X147431400Y-60970800D02*
X147172200Y-61229800D01*
X123814700Y-85616200D02*
X123149500Y-86281400D01*
D16*
X125790000Y-54076700D02*
X122142000Y-57724700D01*
D15*
X113148700Y-82450000D02*
X113172500Y-82426200D01*
X108454400Y-85840300D02*
X108230400Y-85616300D01*
X116292000Y-87496600D02*
X115966200Y-87170800D01*
X140947400Y-91606500D02*
X141382800Y-92041900D01*
X150361500Y-60970700D02*
X147431300Y-60970700D01*
X111289000Y-84306800D02*
X111289000Y-94185600D01*
D16*
X105276700Y-57724600D02*
X105276700Y-59521600D01*
D15*
X115835900Y-61274300D02*
X115835900Y-83401100D01*
X133911600Y-61274300D02*
X132167300Y-61274300D01*
X140264800Y-84544200D02*
X140095000Y-84714000D01*
X104870700Y-91588700D02*
X104945300Y-91663300D01*
X137781300Y-80358900D02*
X137781300Y-64025700D01*
X143632800Y-82426200D02*
X143632800Y-61482400D01*
X136971600Y-61919000D02*
X136971600Y-79934000D01*
D16*
X139353000Y-48230500D02*
X139309400Y-48274100D01*
D15*
X136451700Y-60970700D02*
X136148100Y-61274200D01*
X108396100Y-59632900D02*
X108037700Y-59991300D01*
X129246600Y-61274300D02*
X125525400Y-61274300D01*
X142979500Y-84575500D02*
X140947300Y-86607700D01*
X135155500Y-85157400D02*
X135082900Y-85084800D01*
X141165000Y-83401200D02*
X139263400Y-83401200D01*
X143269800Y-60040600D02*
X142036000Y-61274400D01*
X122142000Y-59991200D02*
X120378800Y-59991400D01*
X115527400Y-91588700D02*
X116292000Y-92353300D01*
X117138800Y-83310000D02*
X114337600Y-86111200D01*
X103601400Y-92735500D02*
X103974800Y-93108900D01*
X103599200Y-59991200D02*
X103599200Y-83004800D01*
D16*
X120378700Y-53583600D02*
X116237700Y-57724600D01*
D15*
X104945300Y-91663300D02*
X106113700Y-91663300D01*
X114663200Y-84573800D02*
X113213200Y-84573800D01*
X142825200Y-59458300D02*
X141698200Y-59458300D01*
D16*
X149453300Y-58923100D02*
X148385300Y-59991100D01*
D15*
X112170700Y-85616300D02*
X112170700Y-93302900D01*
X143670700Y-86281400D02*
X143269900Y-86682300D01*
X132447200Y-89119400D02*
X133911600Y-90583800D01*
X103957500Y-59632900D02*
X103599200Y-59991200D01*
X146318200Y-94185600D02*
X146318200Y-83967000D01*
D16*
X139309400Y-48274000D02*
X139309400Y-48285600D01*
D15*
X132093700Y-61347900D02*
X132093700Y-92041900D01*
X143269900Y-59633000D02*
X143269900Y-60040600D01*
X142979500Y-60829200D02*
X142979500Y-84575400D01*
X103601400Y-84544200D02*
X103601400Y-92735600D01*
X113172500Y-82426200D02*
X113172500Y-60616000D01*
X110166900Y-79934000D02*
X110768100Y-80535200D01*
X135155500Y-92041900D02*
X135155500Y-85157500D01*
X140095000Y-84714000D02*
X140095000Y-93011600D01*
X145229500Y-85668800D02*
X144431100Y-84870400D01*
D16*
X139309400Y-48285600D02*
X132447200Y-55147800D01*
D15*
X144431100Y-84870400D02*
X144431100Y-83224600D01*
X136971600Y-79934000D02*
X137356400Y-79934000D01*
D16*
X132447200Y-55147800D02*
X129757800Y-55147800D01*
D15*
X109499700Y-84082800D02*
X107962300Y-84082800D01*
D16*
X127181000Y-60227300D02*
X126952600Y-60455700D01*
D15*
X147172200Y-61229800D02*
X147172200Y-81508400D01*
X126357400Y-62600500D02*
X126357400Y-80358900D01*
D14*
X149453300Y-44552800D02*
X139797900Y-44552800D01*
D15*
X126657200Y-86483400D02*
X125790000Y-85616200D01*
X109348500Y-60455700D02*
X109275600Y-60528700D01*
D16*
X110744300Y-59613300D02*
X110763900Y-59632900D01*
D15*
X136971600Y-83491100D02*
X133911600Y-83491100D01*
X136170600Y-93530000D02*
X136826200Y-94185600D01*
X103825400Y-83231000D02*
X103339000Y-83231000D01*
X113172500Y-60616000D02*
X113332700Y-60455800D01*
X141165100Y-59991400D02*
X141165100Y-83401200D01*
D16*
X132093700Y-52257000D02*
X110744300Y-52257000D01*
D15*
X105165300Y-59632900D02*
X103957500Y-59632900D01*
X133911500Y-90583800D02*
X133911700Y-87072000D01*
X132629800Y-85084800D02*
X132447200Y-85267400D01*
X136148100Y-81417300D02*
X136238900Y-81508100D01*
X114402700Y-83154200D02*
X114598100Y-83349600D01*
X109275600Y-94185600D02*
X109275600Y-84306800D01*
X127722000Y-94320800D02*
X127857200Y-94185600D01*
X131413600Y-59991200D02*
X130434000Y-60970800D01*
X141237600Y-84544200D02*
X140264800Y-84544200D01*
X106811800Y-86682300D02*
X106737200Y-86607700D01*
X109275600Y-84306800D02*
X109499600Y-84082800D01*
X132093700Y-92041900D02*
X135155500Y-92041900D01*
X142036000Y-83745800D02*
X141237600Y-84544200D01*
X142036000Y-61274400D02*
X142036000Y-83745800D01*
X115835900Y-83401200D02*
X114663300Y-84573800D01*
X130434000Y-93239400D02*
X130724600Y-93530000D01*
D14*
X139797900Y-44552800D02*
X132093700Y-52257000D01*
D15*
X112170700Y-93302900D02*
X117529700Y-93302900D01*
X105617300Y-83491000D02*
X105617300Y-61919000D01*
X120378700Y-94320800D02*
X127721900Y-94320800D01*
D14*
X138067000Y-59218000D02*
X137293800Y-59991200D01*
D15*
X146336600Y-59991100D02*
X146100400Y-60227300D01*
X110167000Y-61695000D02*
X110167000Y-79934000D01*
X132167300Y-61274300D02*
X132093700Y-61347900D01*
X106811800Y-90965100D02*
X106811800Y-86682300D01*
X117138800Y-62209700D02*
X117138800Y-83309900D01*
X124589300Y-82471900D02*
X124416900Y-82644300D01*
X108230400Y-85616300D02*
X107742600Y-85616300D01*
X141382800Y-92041900D02*
X143611800Y-92041900D01*
X140095100Y-93011500D02*
X139997700Y-93108900D01*
X117529700Y-93302900D02*
X117529700Y-62600500D01*
X135319000Y-59991100D02*
X135082800Y-60227300D01*
X126357300Y-80358800D02*
X127306100Y-80358800D01*
D14*
X139180700Y-46688400D02*
X138988900Y-46688400D01*
D15*
X107962300Y-84082800D02*
X107110500Y-83231000D01*
X143611700Y-92042000D02*
X143923000Y-92353200D01*
X140095000Y-61333800D02*
X139732000Y-60970800D01*
X138915400Y-61919000D02*
X136971600Y-61919000D01*
X109234400Y-94226800D02*
X109275600Y-94185600D01*
X114337500Y-90583900D02*
X113332700Y-91588700D01*
X136238900Y-81508100D02*
X139101900Y-81508100D01*
X143923100Y-92353200D02*
X143923100Y-86499200D01*
D14*
X142703000Y-56796300D02*
X142703000Y-59336100D01*
D15*
X141698200Y-59458400D02*
X141165000Y-59991400D01*
X148385400Y-59991100D02*
X146336600Y-59991100D01*
X124589300Y-60455700D02*
X124589300Y-82471900D01*
X114598100Y-83349600D02*
X114065500Y-83349600D01*
X111289000Y-79837900D02*
X111289000Y-62570500D01*
X143269900Y-88466200D02*
X142616700Y-89119400D01*
X144866600Y-61229800D02*
X143269800Y-59633000D01*
X126952700Y-60455700D02*
X124589300Y-60455700D01*
D14*
X149453300Y-50233400D02*
X141910300Y-50233400D01*
D15*
X108037700Y-59991200D02*
X108037700Y-82374600D01*
X144866600Y-83401200D02*
X144866600Y-61229800D01*
X132447200Y-59991200D02*
X131413600Y-59991200D01*
X105054200Y-60455800D02*
X104796000Y-60714000D01*
X113332700Y-60455800D02*
X109348500Y-60455800D01*
X125407700Y-92735500D02*
X125790100Y-92353200D01*
D16*
X132093700Y-53583700D02*
X120378700Y-53583700D01*
D15*
X125790000Y-92353300D02*
X125790000Y-89872900D01*
D16*
X110744300Y-57724600D02*
X110744300Y-59613200D01*
D15*
X126157000Y-93530000D02*
X126657200Y-93029800D01*
X145229500Y-93029800D02*
X145229500Y-85668800D01*
D16*
X105276800Y-59521500D02*
X105165400Y-59632900D01*
D14*
%TO.N,Net 26*%
X154246100Y-36664100D02*
X156008900Y-36664100D01*
X156455800Y-37111000D02*
X156455800Y-37220600D01*
X152494300Y-39144500D02*
X153178600Y-38460300D01*
X152494300Y-39188800D02*
X152494300Y-39144600D01*
X153178600Y-37731500D02*
X154246000Y-36664100D01*
X153178600Y-38460200D02*
X153178600Y-37731600D01*
X156008800Y-36664100D02*
X156455800Y-37111100D01*
%TD*%
%TA.AperFunction,Conductor*%
%TO.N,GND*%
G36*
X115282000Y-86815000D02*
G01*
X115088000Y-86742000D01*
X115088000Y-86454000D01*
X115111000Y-86399000D01*
X116595000Y-84915000D01*
X116780000Y-84992000D01*
X116780000Y-86662000D01*
X116595000Y-86739000D01*
X116481000Y-86625000D01*
X116474000Y-86619000D01*
X116474000Y-86618000D01*
X116372000Y-86537000D01*
X116368000Y-86534000D01*
X116225000Y-86464000D01*
X116224000Y-86463000D01*
X116062000Y-86424000D01*
X116063000Y-86424000D01*
X115897000Y-86421000D01*
X115894000Y-86421000D01*
X115730000Y-86456000D01*
X115592000Y-86517000D01*
X115590000Y-86518000D01*
X115453000Y-86622000D01*
X115282000Y-86815000D01*
G37*
%TD.AperFunction*%
%TA.AperFunction,Conductor*%
G36*
X143085000Y-91292000D02*
G01*
X141785000Y-91292000D01*
X141697000Y-91204000D01*
X141697000Y-89484000D01*
X141902000Y-89415000D01*
X142064000Y-89631000D01*
X142187000Y-89740000D01*
X142333000Y-89818000D01*
X142334000Y-89819000D01*
X142486000Y-89862000D01*
X142657000Y-89872000D01*
X142663000Y-89871000D01*
X142820000Y-89846000D01*
X142827000Y-89844000D01*
X143038000Y-89754000D01*
X143173000Y-89843000D01*
X143173000Y-91204000D01*
X143085000Y-91292000D01*
G37*
%TD.AperFunction*%
%TA.AperFunction,Conductor*%
G36*
X124952000Y-91986000D02*
G01*
X123988000Y-91986000D01*
X123900000Y-91898000D01*
X123900000Y-89306000D01*
X124085000Y-89229000D01*
X125017000Y-90161000D01*
X125040000Y-90216000D01*
X125040000Y-91898000D01*
X124952000Y-91986000D01*
G37*
%TD.AperFunction*%
%TA.AperFunction,Conductor*%
G36*
X125722000Y-88744000D02*
G01*
X124957000Y-87979000D01*
X124950000Y-87973000D01*
X124950000Y-87972000D01*
X124848000Y-87891000D01*
X124844000Y-87888000D01*
X124701000Y-87818000D01*
X124700000Y-87817000D01*
X124538000Y-87778000D01*
X124539000Y-87778000D01*
X124373000Y-87775000D01*
X124370000Y-87775000D01*
X124206000Y-87810000D01*
X124036000Y-87885000D01*
X123900000Y-87796000D01*
X123900000Y-86624000D01*
X123923000Y-86569000D01*
X124103000Y-86389000D01*
X124158000Y-86366000D01*
X125447000Y-86366000D01*
X125502000Y-86389000D01*
X125884000Y-86771000D01*
X125907000Y-86826000D01*
X125907000Y-88667000D01*
X125722000Y-88744000D01*
G37*
%TD.AperFunction*%
%TA.AperFunction,Conductor*%
G36*
X145350000Y-60195000D02*
G01*
X145350000Y-60390000D01*
X145165000Y-60467000D01*
X143781000Y-59083000D01*
X143768000Y-59072000D01*
X143750000Y-59053000D01*
X143748000Y-59051000D01*
X143713000Y-59029000D01*
X143706000Y-59024000D01*
X143669000Y-58995000D01*
X143646000Y-58984000D01*
X143639000Y-58980000D01*
X143614000Y-58964000D01*
X143615000Y-58964000D01*
X143580000Y-58951000D01*
X143575000Y-58949000D01*
X143526000Y-58925000D01*
X143497000Y-58918000D01*
X143487000Y-58914000D01*
X143465000Y-58906000D01*
X143457000Y-58904000D01*
X143427000Y-58900000D01*
X143422000Y-58899000D01*
X143344000Y-58882000D01*
X143278000Y-58800000D01*
X143278000Y-57066000D01*
X143301000Y-57011000D01*
X148521000Y-51791000D01*
X148720000Y-51905000D01*
X148656000Y-52150000D01*
X148656000Y-52363000D01*
X148708000Y-52560000D01*
X148816000Y-52748000D01*
X148826000Y-52786000D01*
X148826000Y-58630000D01*
X148803000Y-58685000D01*
X148271000Y-59218000D01*
X148216000Y-59241000D01*
X146335000Y-59241000D01*
X146297000Y-59239000D01*
X146291000Y-59240000D01*
X146226000Y-59250000D01*
X146222000Y-59251000D01*
X146174000Y-59256000D01*
X146164000Y-59258000D01*
X146161000Y-59259000D01*
X146148000Y-59263000D01*
X146129000Y-59266000D01*
X146126000Y-59267000D01*
X146071000Y-59290000D01*
X146068000Y-59292000D01*
X146022000Y-59308000D01*
X146000000Y-59321000D01*
X145990000Y-59326000D01*
X145973000Y-59333000D01*
X145945000Y-59353000D01*
X145940000Y-59356000D01*
X145881000Y-59391000D01*
X145875000Y-59396000D01*
X145851000Y-59420000D01*
X145836000Y-59433000D01*
X145831000Y-59436000D01*
X145558000Y-59709000D01*
X145537000Y-59728000D01*
X145497000Y-59784000D01*
X145495000Y-59786000D01*
X145466000Y-59825000D01*
X145455000Y-59844000D01*
X145442000Y-59861000D01*
X145441000Y-59863000D01*
X145416000Y-59925000D01*
X145394000Y-59969000D01*
X145393000Y-59975000D01*
X145388000Y-59991000D01*
X145375000Y-60023000D01*
X145368000Y-60072000D01*
X145366000Y-60079000D01*
X145354000Y-60130000D01*
X145353000Y-60169000D01*
X145352000Y-60181000D01*
X145350000Y-60195000D01*
G37*
%TD.AperFunction*%
%TA.AperFunction,Conductor*%
G36*
X134434000Y-59847000D02*
G01*
X134424000Y-59863000D01*
X134404000Y-59913000D01*
X134376000Y-59970000D01*
X134370000Y-59993000D01*
X134365000Y-60005000D01*
X134359000Y-60018000D01*
X134358000Y-60024000D01*
X134353000Y-60062000D01*
X134336000Y-60132000D01*
X134335000Y-60172000D01*
X134334000Y-60181000D01*
X134334000Y-60183000D01*
X134333000Y-60196000D01*
X134333000Y-60492000D01*
X134203000Y-60581000D01*
X134127000Y-60552000D01*
X134120000Y-60550000D01*
X134117000Y-60550000D01*
X134104000Y-60546000D01*
X133944000Y-60522000D01*
X133907000Y-60524000D01*
X133183000Y-60524000D01*
X133093000Y-60393000D01*
X133174000Y-60187000D01*
X133176000Y-60179000D01*
X133200000Y-60024000D01*
X133188000Y-59858000D01*
X133187000Y-59850000D01*
X133141000Y-59698000D01*
X133084000Y-59596000D01*
X133074000Y-59558000D01*
X133074000Y-56136000D01*
X133097000Y-56081000D01*
X139387000Y-49791000D01*
X139442000Y-49768000D01*
X141301000Y-49768000D01*
X141378000Y-49953000D01*
X137699000Y-53632000D01*
X137690000Y-53640000D01*
X137637000Y-53678000D01*
X137636000Y-53679000D01*
X137576000Y-53779000D01*
X137573000Y-53782000D01*
X137523000Y-53856000D01*
X137523000Y-53857000D01*
X137522000Y-53863000D01*
X137519000Y-53875000D01*
X137518000Y-53877000D01*
X137492000Y-54034000D01*
X137483000Y-54087000D01*
X137490000Y-54123000D01*
X137492000Y-54138000D01*
X137492000Y-58948000D01*
X137469000Y-59003000D01*
X137254000Y-59218000D01*
X137199000Y-59241000D01*
X135317000Y-59241000D01*
X135280000Y-59239000D01*
X135272000Y-59240000D01*
X135217000Y-59249000D01*
X135215000Y-59249000D01*
X135157000Y-59256000D01*
X135155000Y-59256000D01*
X135148000Y-59259000D01*
X135130000Y-59264000D01*
X135111000Y-59266000D01*
X135056000Y-59290000D01*
X135050000Y-59292000D01*
X135001000Y-59309000D01*
X134977000Y-59323000D01*
X134967000Y-59328000D01*
X134953000Y-59334000D01*
X134936000Y-59347000D01*
X134929000Y-59351000D01*
X134856000Y-59395000D01*
X134818000Y-59432000D01*
X134812000Y-59437000D01*
X134531000Y-59718000D01*
X134524000Y-59724000D01*
X134520000Y-59729000D01*
X134492000Y-59768000D01*
X134490000Y-59770000D01*
X134447000Y-59825000D01*
X134441000Y-59837000D01*
X134434000Y-59847000D01*
G37*
%TD.AperFunction*%
%TA.AperFunction,Conductor*%
G36*
X123767000Y-82271000D02*
G01*
X123747000Y-82303000D01*
X123732000Y-82342000D01*
X123710000Y-82386000D01*
X123705000Y-82408000D01*
X123702000Y-82418000D01*
X123690000Y-82448000D01*
X123688000Y-82456000D01*
X123683000Y-82493000D01*
X123681000Y-82500000D01*
X123670000Y-82547000D01*
X123670000Y-82548000D01*
X123669000Y-82582000D01*
X123668000Y-82591000D01*
X123665000Y-82610000D01*
X123665000Y-82618000D01*
X123668000Y-82683000D01*
X123668000Y-82690000D01*
X123667000Y-82709000D01*
X123668000Y-82718000D01*
X123673000Y-82741000D01*
X123674000Y-82752000D01*
X123676000Y-82780000D01*
X123677000Y-82784000D01*
X123694000Y-82843000D01*
X123696000Y-82851000D01*
X123700000Y-82872000D01*
X123710000Y-82896000D01*
X123713000Y-82903000D01*
X123724000Y-82940000D01*
X123746000Y-82978000D01*
X123749000Y-82984000D01*
X123763000Y-83017000D01*
X123769000Y-83027000D01*
X123790000Y-83056000D01*
X123795000Y-83065000D01*
X123805000Y-83082000D01*
X123870000Y-83147000D01*
X123793000Y-83332000D01*
X122980000Y-83332000D01*
X122892000Y-83244000D01*
X122892000Y-60797000D01*
X122878000Y-60672000D01*
X122876000Y-60664000D01*
X122813000Y-60479000D01*
X122819000Y-60415000D01*
X122884000Y-60302000D01*
X122886000Y-60298000D01*
X122939000Y-60098000D01*
X122939000Y-59889000D01*
X122885000Y-59683000D01*
X122779000Y-59500000D01*
X122769000Y-59462000D01*
X122769000Y-58018000D01*
X122792000Y-57963000D01*
X126027000Y-54727000D01*
X126082000Y-54704000D01*
X129051000Y-54704000D01*
X129128000Y-54889000D01*
X126728000Y-57291000D01*
X126724000Y-57294000D01*
X126686000Y-57328000D01*
X126684000Y-57330000D01*
X126658000Y-57378000D01*
X126653000Y-57386000D01*
X126614000Y-57442000D01*
X126612000Y-57447000D01*
X126605000Y-57469000D01*
X126600000Y-57481000D01*
X126588000Y-57504000D01*
X126579000Y-57550000D01*
X126577000Y-57559000D01*
X126559000Y-57617000D01*
X126558000Y-57622000D01*
X126557000Y-57654000D01*
X126556000Y-57663000D01*
X126554000Y-57672000D01*
X126555000Y-57672000D01*
X126554000Y-57680000D01*
X126554000Y-57770000D01*
X126553000Y-57808000D01*
X126554000Y-57816000D01*
X126554000Y-59618000D01*
X126466000Y-59706000D01*
X124640000Y-59706000D01*
X124627000Y-59705000D01*
X124617000Y-59703000D01*
X124571000Y-59706000D01*
X124556000Y-59706000D01*
X124537000Y-59708000D01*
X124535000Y-59708000D01*
X124452000Y-59715000D01*
X124444000Y-59717000D01*
X124442000Y-59717000D01*
X124437000Y-59718000D01*
X124428000Y-59720000D01*
X124427000Y-59720000D01*
X124364000Y-59741000D01*
X124362000Y-59742000D01*
X124300000Y-59761000D01*
X124292000Y-59766000D01*
X124269000Y-59776000D01*
X124215000Y-59807000D01*
X124214000Y-59808000D01*
X124146000Y-59847000D01*
X124143000Y-59850000D01*
X124135000Y-59855000D01*
X124130000Y-59858000D01*
X124129000Y-59859000D01*
X124080000Y-59907000D01*
X124078000Y-59909000D01*
X124026000Y-59956000D01*
X124025000Y-59958000D01*
X124015000Y-59970000D01*
X124012000Y-59973000D01*
X124007000Y-59979000D01*
X123954000Y-60061000D01*
X123950000Y-60063000D01*
X123930000Y-60091000D01*
X123924000Y-60105000D01*
X123919000Y-60115000D01*
X123898000Y-60170000D01*
X123897000Y-60172000D01*
X123865000Y-60248000D01*
X123864000Y-60254000D01*
X123859000Y-60271000D01*
X123836000Y-60423000D01*
X123839000Y-60474000D01*
X123839000Y-82136000D01*
X123827000Y-82177000D01*
X123809000Y-82206000D01*
X123804000Y-82214000D01*
X123780000Y-82243000D01*
X123767000Y-82271000D01*
G37*
%TD.AperFunction*%
%TA.AperFunction,Conductor*%
G36*
X140415000Y-59961000D02*
G01*
X140415000Y-60339000D01*
X140245000Y-60421000D01*
X140135000Y-60333000D01*
X140115000Y-60324000D01*
X140099000Y-60314000D01*
X140097000Y-60312000D01*
X140095000Y-60311000D01*
X140070000Y-60301000D01*
X140066000Y-60299000D01*
X139992000Y-60264000D01*
X139989000Y-60263000D01*
X139967000Y-60257000D01*
X139955000Y-60253000D01*
X139940000Y-60247000D01*
X139911000Y-60243000D01*
X139902000Y-60241000D01*
X139833000Y-60223000D01*
X139831000Y-60223000D01*
X139784000Y-60222000D01*
X139776000Y-60222000D01*
X139769000Y-60221000D01*
X139720000Y-60221000D01*
X139665000Y-60220000D01*
X139649000Y-60221000D01*
X138139000Y-60221000D01*
X138062000Y-60036000D01*
X138441000Y-59657000D01*
X138451000Y-59649000D01*
X138497000Y-59616000D01*
X138498000Y-59615000D01*
X138545000Y-59535000D01*
X138548000Y-59531000D01*
X138611000Y-59438000D01*
X138612000Y-59436000D01*
X138613000Y-59430000D01*
X138615000Y-59422000D01*
X138633000Y-59313000D01*
X138651000Y-59208000D01*
X138644000Y-59174000D01*
X138642000Y-59158000D01*
X138642000Y-54347000D01*
X138665000Y-54292000D01*
X142126000Y-50831000D01*
X142181000Y-50808000D01*
X147616000Y-50808000D01*
X147693000Y-50993000D01*
X142329000Y-56357000D01*
X142319000Y-56365000D01*
X142272000Y-56399000D01*
X142217000Y-56491000D01*
X142214000Y-56494000D01*
X142159000Y-56575000D01*
X142158000Y-56578000D01*
X142157000Y-56584000D01*
X142155000Y-56593000D01*
X142155000Y-56594000D01*
X142134000Y-56715000D01*
X142119000Y-56806000D01*
X142126000Y-56842000D01*
X142128000Y-56857000D01*
X142128000Y-58620000D01*
X142040000Y-58708000D01*
X141696000Y-58708000D01*
X141658000Y-58706000D01*
X141652000Y-58707000D01*
X141588000Y-58717000D01*
X141584000Y-58718000D01*
X141535000Y-58723000D01*
X141528000Y-58726000D01*
X141515000Y-58729000D01*
X141490000Y-58734000D01*
X141434000Y-58758000D01*
X141429000Y-58760000D01*
X141379000Y-58777000D01*
X141363000Y-58787000D01*
X141351000Y-58793000D01*
X141335000Y-58799000D01*
X141306000Y-58821000D01*
X141298000Y-58826000D01*
X141241000Y-58860000D01*
X141238000Y-58862000D01*
X141210000Y-58889000D01*
X141202000Y-58896000D01*
X141196000Y-58900000D01*
X141194000Y-58902000D01*
X140626000Y-59469000D01*
X140623000Y-59472000D01*
X140603000Y-59490000D01*
X140564000Y-59544000D01*
X140562000Y-59547000D01*
X140528000Y-59590000D01*
X140526000Y-59594000D01*
X140526000Y-59595000D01*
X140518000Y-59609000D01*
X140509000Y-59621000D01*
X140503000Y-59632000D01*
X140479000Y-59690000D01*
X140477000Y-59695000D01*
X140457000Y-59735000D01*
X140452000Y-59755000D01*
X140448000Y-59767000D01*
X140442000Y-59781000D01*
X140436000Y-59819000D01*
X140434000Y-59827000D01*
X140418000Y-59894000D01*
X140418000Y-59896000D01*
X140417000Y-59944000D01*
X140415000Y-59961000D01*
G37*
%TD.AperFunction*%
%TA.AperFunction,Conductor*%
G36*
X91961000Y-99150000D02*
G01*
X79162000Y-99150000D01*
X68152000Y-99148000D01*
X58801000Y-99145000D01*
X50976000Y-99140000D01*
X44547000Y-99133000D01*
X39381000Y-99124000D01*
X35348000Y-99112000D01*
X32318000Y-99097000D01*
X30157000Y-99078000D01*
X28739000Y-99056000D01*
X28738000Y-99056000D01*
X27917000Y-99030000D01*
X27913000Y-99030000D01*
X27623000Y-99004000D01*
X27611000Y-99002000D01*
X27192000Y-98892000D01*
X27185000Y-98890000D01*
X26786000Y-98739000D01*
X26779000Y-98736000D01*
X26373000Y-98536000D01*
X26366000Y-98533000D01*
X25993000Y-98303000D01*
X25987000Y-98299000D01*
X25618000Y-98025000D01*
X25613000Y-98021000D01*
X25293000Y-97735000D01*
X25288000Y-97730000D01*
X24966000Y-97389000D01*
X24961000Y-97383000D01*
X24692000Y-97042000D01*
X24688000Y-97037000D01*
X24447000Y-96666000D01*
X24444000Y-96660000D01*
X24241000Y-96273000D01*
X24238000Y-96267000D01*
X24076000Y-95867000D01*
X24074000Y-95859000D01*
X23960000Y-95463000D01*
X23957000Y-95446000D01*
X23943000Y-95185000D01*
X23943000Y-95182000D01*
X23928000Y-94390000D01*
X23928000Y-94389000D01*
X23925805Y-94203000D01*
X101735000Y-94203000D01*
X101737000Y-94251000D01*
X101737000Y-94259000D01*
X101749000Y-94353000D01*
X101746000Y-94357000D01*
X101746000Y-94364000D01*
X101748000Y-94371000D01*
X101749000Y-94373000D01*
X101753000Y-94396000D01*
X101775000Y-94459000D01*
X101776000Y-94462000D01*
X101797000Y-94529000D01*
X101800000Y-94534000D01*
X101800000Y-94536000D01*
X101801000Y-94538000D01*
X101842000Y-94608000D01*
X101843000Y-94610000D01*
X101877000Y-94669000D01*
X101881000Y-94673000D01*
X101886000Y-94681000D01*
X101890000Y-94687000D01*
X101943000Y-94741000D01*
X101945000Y-94743000D01*
X101982000Y-94785000D01*
X101987000Y-94790000D01*
X101989000Y-94791000D01*
X102001000Y-94801000D01*
X102002000Y-94802000D01*
X102008000Y-94807000D01*
X102092000Y-94862000D01*
X102095000Y-94867000D01*
X102117000Y-94883000D01*
X102130000Y-94889000D01*
X102132000Y-94890000D01*
X102134000Y-94889000D01*
X102277000Y-94951000D01*
X102287000Y-94953000D01*
X102289000Y-94954000D01*
X102295000Y-94956000D01*
X102455000Y-94980000D01*
X102505000Y-94977000D01*
X109236000Y-94977000D01*
X109273000Y-94979000D01*
X109281000Y-94978000D01*
X109336000Y-94969000D01*
X109338000Y-94969000D01*
X109396000Y-94962000D01*
X109398000Y-94962000D01*
X109405000Y-94959000D01*
X109423000Y-94954000D01*
X109442000Y-94952000D01*
X109495000Y-94929000D01*
X109500000Y-94927000D01*
X109557000Y-94907000D01*
X109574000Y-94897000D01*
X109584000Y-94892000D01*
X109594000Y-94888000D01*
X109626000Y-94865000D01*
X109634000Y-94860000D01*
X109696000Y-94824000D01*
X109724000Y-94796000D01*
X109730000Y-94791000D01*
X109732000Y-94789000D01*
X109740000Y-94782000D01*
X109812000Y-94709000D01*
X109816000Y-94706000D01*
X109833000Y-94691000D01*
X109840000Y-94683000D01*
X109868000Y-94644000D01*
X109870000Y-94640000D01*
X109909000Y-94591000D01*
X109911000Y-94589000D01*
X109915000Y-94581000D01*
X109922000Y-94568000D01*
X109934000Y-94551000D01*
X109962000Y-94485000D01*
X109984000Y-94441000D01*
X109987000Y-94426000D01*
X109992000Y-94411000D01*
X109999000Y-94396000D01*
X110001000Y-94390000D01*
X110005000Y-94359000D01*
X110006000Y-94352000D01*
X110023000Y-94283000D01*
X110024000Y-94245000D01*
X110024000Y-94240000D01*
X110026000Y-94226000D01*
X110026000Y-84649000D01*
X110049000Y-84594000D01*
X110076000Y-84567000D01*
X110082000Y-84560000D01*
X110106000Y-84524000D01*
X110134000Y-84488000D01*
X110139000Y-84480000D01*
X110149000Y-84459000D01*
X110153000Y-84452000D01*
X110168000Y-84429000D01*
X110184000Y-84389000D01*
X110186000Y-84383000D01*
X110208000Y-84340000D01*
X110214000Y-84314000D01*
X110217000Y-84304000D01*
X110227000Y-84279000D01*
X110229000Y-84271000D01*
X110233000Y-84240000D01*
X110248000Y-84180000D01*
X110248000Y-84157000D01*
X110253000Y-84112000D01*
X110249000Y-84075000D01*
X110249000Y-84067000D01*
X110250000Y-84014000D01*
X110250000Y-84010000D01*
X110247000Y-83999000D01*
X110245000Y-83989000D01*
X110242000Y-83949000D01*
X110230000Y-83913000D01*
X110228000Y-83906000D01*
X110216000Y-83852000D01*
X110206000Y-83829000D01*
X110203000Y-83820000D01*
X110192000Y-83785000D01*
X110173000Y-83751000D01*
X110171000Y-83746000D01*
X110154000Y-83709000D01*
X110148000Y-83698000D01*
X110131000Y-83676000D01*
X110126000Y-83668000D01*
X110113000Y-83646000D01*
X110084000Y-83613000D01*
X110079000Y-83607000D01*
X110052000Y-83571000D01*
X110031000Y-83553000D01*
X110026000Y-83548000D01*
X110001000Y-83521000D01*
X109999000Y-83519000D01*
X109966000Y-83495000D01*
X109960000Y-83490000D01*
X109851000Y-83393000D01*
X109925000Y-83200000D01*
X111100000Y-83200000D01*
X111161000Y-83419000D01*
X111053000Y-83485000D01*
X111018000Y-83519000D01*
X111011000Y-83525000D01*
X111007000Y-83528000D01*
X110747000Y-83788000D01*
X110729000Y-83804000D01*
X110728000Y-83806000D01*
X110685000Y-83864000D01*
X110684000Y-83865000D01*
X110650000Y-83910000D01*
X110646000Y-83918000D01*
X110640000Y-83929000D01*
X110631000Y-83941000D01*
X110602000Y-84008000D01*
X110581000Y-84050000D01*
X110580000Y-84053000D01*
X110574000Y-84077000D01*
X110570000Y-84087000D01*
X110564000Y-84100000D01*
X110559000Y-84138000D01*
X110558000Y-84145000D01*
X110543000Y-84208000D01*
X110541000Y-84255000D01*
X110539000Y-84266000D01*
X110539000Y-94139000D01*
X110538000Y-94154000D01*
X110536000Y-94160000D01*
X110539000Y-94204000D01*
X110539000Y-94218000D01*
X110541000Y-94235000D01*
X110541000Y-94238000D01*
X110549000Y-94326000D01*
X110551000Y-94332000D01*
X110554000Y-94351000D01*
X110572000Y-94403000D01*
X110573000Y-94406000D01*
X110594000Y-94476000D01*
X110598000Y-94486000D01*
X110603000Y-94496000D01*
X110637000Y-94554000D01*
X110638000Y-94556000D01*
X110676000Y-94623000D01*
X110677000Y-94624000D01*
X110689000Y-94640000D01*
X110691000Y-94643000D01*
X110695000Y-94648000D01*
X110735000Y-94689000D01*
X110737000Y-94691000D01*
X110782000Y-94742000D01*
X110785000Y-94745000D01*
X110788000Y-94747000D01*
X110791000Y-94750000D01*
X110802000Y-94759000D01*
X110809000Y-94765000D01*
X110810000Y-94766000D01*
X110848000Y-94791000D01*
X110851000Y-94793000D01*
X110923000Y-94845000D01*
X110950000Y-94855000D01*
X110955000Y-94858000D01*
X110959000Y-94860000D01*
X110961000Y-94860000D01*
X111075000Y-94908000D01*
X111081000Y-94910000D01*
X111084000Y-94910000D01*
X111097000Y-94914000D01*
X111257000Y-94938000D01*
X111294000Y-94936000D01*
X118592000Y-94936000D01*
X118605000Y-94937000D01*
X118609000Y-94938000D01*
X118642000Y-94936000D01*
X118670000Y-94936000D01*
X118717000Y-94931000D01*
X118719000Y-94931000D01*
X118771000Y-94927000D01*
X118776000Y-94925000D01*
X118794000Y-94921000D01*
X118803000Y-94921000D01*
X118804000Y-94920000D01*
X118878000Y-94894000D01*
X118883000Y-94892000D01*
X118932000Y-94879000D01*
X118940000Y-94874000D01*
X118948000Y-94871000D01*
X118952000Y-94870000D01*
X118955000Y-94868000D01*
X119028000Y-94824000D01*
X119029000Y-94824000D01*
X119070000Y-94801000D01*
X119075000Y-94798000D01*
X119078000Y-94796000D01*
X119080000Y-94794000D01*
X119087000Y-94789000D01*
X119098000Y-94782000D01*
X119161000Y-94721000D01*
X119163000Y-94719000D01*
X119198000Y-94687000D01*
X119201000Y-94684000D01*
X119209000Y-94674000D01*
X119217000Y-94666000D01*
X119265000Y-94593000D01*
X119267000Y-94591000D01*
X119290000Y-94558000D01*
X119292000Y-94555000D01*
X119301000Y-94537000D01*
X119306000Y-94529000D01*
X119333000Y-94462000D01*
X119333000Y-94461000D01*
X119392000Y-94321000D01*
X119610000Y-94340000D01*
X119635000Y-94452000D01*
X119642000Y-94475000D01*
X119643000Y-94478000D01*
X119643000Y-94480000D01*
X119644000Y-94481000D01*
X119644000Y-94484000D01*
X119658000Y-94527000D01*
X119658000Y-94529000D01*
X119685000Y-94617000D01*
X119687000Y-94621000D01*
X119692000Y-94630000D01*
X119696000Y-94637000D01*
X119756000Y-94739000D01*
X119755000Y-94741000D01*
X119769000Y-94765000D01*
X119774000Y-94770000D01*
X119776000Y-94773000D01*
X119784000Y-94783000D01*
X119825000Y-94825000D01*
X119828000Y-94828000D01*
X119877000Y-94883000D01*
X119882000Y-94887000D01*
X119889000Y-94892000D01*
X119897000Y-94898000D01*
X119901000Y-94902000D01*
X119940000Y-94928000D01*
X120005000Y-94975000D01*
X120018000Y-94982000D01*
X120026000Y-94986000D01*
X120073000Y-95005000D01*
X120074000Y-95005000D01*
X120165000Y-95044000D01*
X120173000Y-95046000D01*
X120183000Y-95048000D01*
X120186000Y-95049000D01*
X120188000Y-95049000D01*
X120193000Y-95050000D01*
X120348000Y-95074000D01*
X120397000Y-95071000D01*
X127724000Y-95071000D01*
X127762000Y-95073000D01*
X127768000Y-95072000D01*
X127832000Y-95062000D01*
X127836000Y-95061000D01*
X127885000Y-95056000D01*
X127895000Y-95054000D01*
X127898000Y-95053000D01*
X127911000Y-95049000D01*
X127930000Y-95046000D01*
X127931000Y-95046000D01*
X127988000Y-95022000D01*
X127991000Y-95020000D01*
X128037000Y-95004000D01*
X128059000Y-94991000D01*
X128069000Y-94986000D01*
X128084000Y-94980000D01*
X128091000Y-94976000D01*
X128112000Y-94961000D01*
X128117000Y-94957000D01*
X128180000Y-94919000D01*
X128182000Y-94918000D01*
X128207000Y-94893000D01*
X128219000Y-94883000D01*
X128225000Y-94879000D01*
X128407000Y-94697000D01*
X128417000Y-94689000D01*
X128420000Y-94685000D01*
X128443000Y-94652000D01*
X128445000Y-94649000D01*
X128491000Y-94591000D01*
X128497000Y-94582000D01*
X128499000Y-94578000D01*
X128503000Y-94571000D01*
X128513000Y-94556000D01*
X128533000Y-94510000D01*
X128534000Y-94507000D01*
X128566000Y-94441000D01*
X128571000Y-94421000D01*
X128575000Y-94410000D01*
X128579000Y-94401000D01*
X128580000Y-94399000D01*
X128584000Y-94371000D01*
X128585000Y-94363000D01*
X128605000Y-94283000D01*
X128606000Y-94241000D01*
X128606000Y-94229000D01*
X128607000Y-94225000D01*
X128607000Y-94197000D01*
X128608000Y-94116000D01*
X128607000Y-94110000D01*
X128607000Y-84265000D01*
X128609000Y-84227000D01*
X128608000Y-84221000D01*
X128599000Y-84162000D01*
X128598000Y-84158000D01*
X128592000Y-84103000D01*
X128589000Y-84094000D01*
X128587000Y-84084000D01*
X128584000Y-84067000D01*
X128582000Y-84060000D01*
X128556000Y-83998000D01*
X128554000Y-83994000D01*
X128537000Y-83945000D01*
X128529000Y-83931000D01*
X128524000Y-83922000D01*
X128515000Y-83902000D01*
X128498000Y-83879000D01*
X128493000Y-83872000D01*
X128455000Y-83809000D01*
X128453000Y-83806000D01*
X128429000Y-83782000D01*
X128419000Y-83770000D01*
X128415000Y-83764000D01*
X128230000Y-83579000D01*
X128307000Y-83394000D01*
X129447000Y-83394000D01*
X129460000Y-83395000D01*
X129475000Y-83398000D01*
X129588000Y-83389000D01*
X129684000Y-83479000D01*
X129684000Y-93253000D01*
X129683000Y-93281000D01*
X129683000Y-93289000D01*
X129694000Y-93357000D01*
X129695000Y-93361000D01*
X129699000Y-93401000D01*
X129701000Y-93411000D01*
X129702000Y-93413000D01*
X129704000Y-93423000D01*
X129707000Y-93440000D01*
X129710000Y-93451000D01*
X129742000Y-93525000D01*
X129744000Y-93532000D01*
X129751000Y-93556000D01*
X129763000Y-93575000D01*
X129768000Y-93586000D01*
X129776000Y-93606000D01*
X129801000Y-93640000D01*
X129804000Y-93645000D01*
X129835000Y-93696000D01*
X129838000Y-93700000D01*
X129860000Y-93723000D01*
X129866000Y-93730000D01*
X129876000Y-93743000D01*
X130226000Y-94093000D01*
X130268000Y-94124000D01*
X130269000Y-94125000D01*
X130325000Y-94168000D01*
X130334000Y-94172000D01*
X130344000Y-94179000D01*
X130359000Y-94189000D01*
X130416000Y-94213000D01*
X130419000Y-94214000D01*
X130469000Y-94238000D01*
X130488000Y-94244000D01*
X130494000Y-94245000D01*
X130514000Y-94253000D01*
X130553000Y-94259000D01*
X130561000Y-94261000D01*
X130628000Y-94277000D01*
X130672000Y-94278000D01*
X130681000Y-94279000D01*
X130687000Y-94280000D01*
X135827000Y-94280000D01*
X135882000Y-94303000D01*
X136313000Y-94734000D01*
X136329000Y-94747000D01*
X136348000Y-94769000D01*
X136388000Y-94794000D01*
X136394000Y-94798000D01*
X136421000Y-94820000D01*
X136429000Y-94825000D01*
X136450000Y-94835000D01*
X136457000Y-94839000D01*
X136483000Y-94855000D01*
X136516000Y-94868000D01*
X136521000Y-94870000D01*
X136570000Y-94894000D01*
X136599000Y-94901000D01*
X136609000Y-94905000D01*
X136631000Y-94913000D01*
X136639000Y-94915000D01*
X136670000Y-94919000D01*
X136676000Y-94920000D01*
X136728000Y-94932000D01*
X136734000Y-94933000D01*
X136756000Y-94934000D01*
X136763000Y-94935000D01*
X136795000Y-94939000D01*
X136853000Y-94935000D01*
X136860000Y-94935000D01*
X136895000Y-94936000D01*
X136902000Y-94935000D01*
X136918000Y-94932000D01*
X136925000Y-94931000D01*
X136960000Y-94928000D01*
X137006000Y-94914000D01*
X137010000Y-94913000D01*
X137056000Y-94903000D01*
X137088000Y-94889000D01*
X137096000Y-94887000D01*
X137124000Y-94878000D01*
X137125000Y-94878000D01*
X137158000Y-94859000D01*
X137163000Y-94857000D01*
X137200000Y-94840000D01*
X137209000Y-94835000D01*
X137233000Y-94817000D01*
X137242000Y-94811000D01*
X137263000Y-94799000D01*
X137267000Y-94797000D01*
X137299000Y-94767000D01*
X137304000Y-94763000D01*
X137338000Y-94736000D01*
X137354000Y-94719000D01*
X137358000Y-94715000D01*
X137388000Y-94687000D01*
X137412000Y-94653000D01*
X137417000Y-94647000D01*
X137444000Y-94617000D01*
X137462000Y-94585000D01*
X137467000Y-94577000D01*
X137483000Y-94554000D01*
X137499000Y-94517000D01*
X137502000Y-94511000D01*
X137524000Y-94469000D01*
X137530000Y-94448000D01*
X137533000Y-94438000D01*
X137548000Y-94401000D01*
X137550000Y-94396000D01*
X137556000Y-94359000D01*
X137558000Y-94349000D01*
X137568000Y-94314000D01*
X137571000Y-94255000D01*
X137572000Y-94247000D01*
X137575000Y-94231000D01*
X137576000Y-94218000D01*
X137576000Y-94183000D01*
X137578000Y-94146000D01*
X137577000Y-94144000D01*
X137576000Y-94129000D01*
X137576000Y-83963000D01*
X137590000Y-83918000D01*
X137609000Y-83892000D01*
X137618000Y-83871000D01*
X137623000Y-83861000D01*
X137640000Y-83837000D01*
X137655000Y-83799000D01*
X137658000Y-83794000D01*
X137679000Y-83750000D01*
X137686000Y-83722000D01*
X137689000Y-83714000D01*
X137697000Y-83694000D01*
X137698000Y-83691000D01*
X137704000Y-83654000D01*
X137705000Y-83647000D01*
X137718000Y-83594000D01*
X137719000Y-83587000D01*
X137720000Y-83561000D01*
X137721000Y-83554000D01*
X137725000Y-83523000D01*
X137721000Y-83460000D01*
X137721000Y-83454000D01*
X137722000Y-83422000D01*
X137719000Y-83410000D01*
X137718000Y-83403000D01*
X137708000Y-83323000D01*
X137797000Y-83222000D01*
X138178000Y-83222000D01*
X138267000Y-83355000D01*
X138229000Y-83448000D01*
X138227000Y-83453000D01*
X138206000Y-83496000D01*
X138202000Y-83513000D01*
X138198000Y-83523000D01*
X138192000Y-83537000D01*
X138186000Y-83577000D01*
X138184000Y-83585000D01*
X138168000Y-83652000D01*
X138168000Y-83654000D01*
X138167000Y-83699000D01*
X138165000Y-83715000D01*
X138165000Y-94181000D01*
X138164000Y-94194000D01*
X138163000Y-94203000D01*
X138165000Y-94251000D01*
X138165000Y-94259000D01*
X138177000Y-94353000D01*
X138174000Y-94357000D01*
X138174000Y-94364000D01*
X138176000Y-94371000D01*
X138177000Y-94373000D01*
X138181000Y-94396000D01*
X138203000Y-94459000D01*
X138204000Y-94462000D01*
X138225000Y-94529000D01*
X138228000Y-94534000D01*
X138228000Y-94536000D01*
X138229000Y-94538000D01*
X138270000Y-94608000D01*
X138271000Y-94610000D01*
X138305000Y-94669000D01*
X138309000Y-94673000D01*
X138314000Y-94681000D01*
X138318000Y-94687000D01*
X138371000Y-94741000D01*
X138373000Y-94743000D01*
X138410000Y-94785000D01*
X138415000Y-94790000D01*
X138417000Y-94791000D01*
X138429000Y-94801000D01*
X138430000Y-94802000D01*
X138436000Y-94807000D01*
X138520000Y-94862000D01*
X138523000Y-94867000D01*
X138545000Y-94883000D01*
X138558000Y-94889000D01*
X138560000Y-94890000D01*
X138562000Y-94889000D01*
X138705000Y-94951000D01*
X138715000Y-94953000D01*
X138717000Y-94954000D01*
X138723000Y-94956000D01*
X138883000Y-94980000D01*
X138933000Y-94977000D01*
X146279000Y-94977000D01*
X146317000Y-94979000D01*
X146323000Y-94978000D01*
X146387000Y-94968000D01*
X146391000Y-94967000D01*
X146440000Y-94962000D01*
X146450000Y-94960000D01*
X146453000Y-94959000D01*
X146466000Y-94955000D01*
X146485000Y-94952000D01*
X146488000Y-94951000D01*
X146543000Y-94928000D01*
X146546000Y-94926000D01*
X146592000Y-94910000D01*
X146614000Y-94897000D01*
X146624000Y-94892000D01*
X146639000Y-94886000D01*
X146646000Y-94882000D01*
X146667000Y-94867000D01*
X146672000Y-94863000D01*
X146735000Y-94825000D01*
X146737000Y-94824000D01*
X146762000Y-94799000D01*
X146774000Y-94789000D01*
X146780000Y-94785000D01*
X146868000Y-94697000D01*
X146878000Y-94689000D01*
X146881000Y-94685000D01*
X146904000Y-94652000D01*
X146906000Y-94649000D01*
X146952000Y-94591000D01*
X146958000Y-94582000D01*
X146960000Y-94578000D01*
X146964000Y-94571000D01*
X146974000Y-94556000D01*
X146994000Y-94510000D01*
X146995000Y-94507000D01*
X147027000Y-94441000D01*
X147032000Y-94421000D01*
X147036000Y-94410000D01*
X147040000Y-94401000D01*
X147041000Y-94399000D01*
X147045000Y-94371000D01*
X147046000Y-94363000D01*
X147066000Y-94283000D01*
X147067000Y-94241000D01*
X147067000Y-94229000D01*
X147068000Y-94225000D01*
X147068000Y-94197000D01*
X147069000Y-94116000D01*
X147068000Y-94110000D01*
X147068000Y-83966000D01*
X147070000Y-83929000D01*
X147069000Y-83922000D01*
X147059000Y-83857000D01*
X147058000Y-83853000D01*
X147053000Y-83801000D01*
X147051000Y-83796000D01*
X147047000Y-83781000D01*
X147042000Y-83758000D01*
X147042000Y-83757000D01*
X147018000Y-83700000D01*
X147016000Y-83695000D01*
X147000000Y-83648000D01*
X146990000Y-83633000D01*
X146984000Y-83621000D01*
X146978000Y-83607000D01*
X146976000Y-83604000D01*
X146960000Y-83581000D01*
X146956000Y-83575000D01*
X146918000Y-83512000D01*
X146914000Y-83506000D01*
X146892000Y-83484000D01*
X146884000Y-83474000D01*
X146882000Y-83471000D01*
X146878000Y-83466000D01*
X146773000Y-83361000D01*
X146850000Y-83176000D01*
X148193000Y-83176000D01*
X148270000Y-83361000D01*
X147843000Y-83788000D01*
X147825000Y-83804000D01*
X147824000Y-83806000D01*
X147781000Y-83864000D01*
X147780000Y-83865000D01*
X147746000Y-83910000D01*
X147742000Y-83918000D01*
X147736000Y-83929000D01*
X147727000Y-83941000D01*
X147698000Y-84008000D01*
X147677000Y-84050000D01*
X147676000Y-84053000D01*
X147670000Y-84077000D01*
X147666000Y-84087000D01*
X147660000Y-84100000D01*
X147655000Y-84139000D01*
X147653000Y-84145000D01*
X147638000Y-84210000D01*
X147637000Y-84252000D01*
X147636000Y-84260000D01*
X147635000Y-84272000D01*
X147635000Y-94148000D01*
X147633000Y-94161000D01*
X147635000Y-94192000D01*
X147635000Y-94218000D01*
X147649000Y-94332000D01*
X147647000Y-94335000D01*
X147648000Y-94340000D01*
X147652000Y-94356000D01*
X147676000Y-94427000D01*
X147677000Y-94429000D01*
X147690000Y-94473000D01*
X147696000Y-94487000D01*
X147698000Y-94490000D01*
X147702000Y-94500000D01*
X147704000Y-94506000D01*
X147758000Y-94595000D01*
X147759000Y-94598000D01*
X147777000Y-94630000D01*
X147778000Y-94631000D01*
X147782000Y-94636000D01*
X147786000Y-94642000D01*
X147848000Y-94707000D01*
X147849000Y-94708000D01*
X147887000Y-94750000D01*
X147892000Y-94754000D01*
X147899000Y-94760000D01*
X147901000Y-94762000D01*
X147909000Y-94768000D01*
X147957000Y-94800000D01*
X148020000Y-94844000D01*
X148030000Y-94849000D01*
X148039000Y-94853000D01*
X148111000Y-94882000D01*
X148112000Y-94883000D01*
X148178000Y-94910000D01*
X148187000Y-94912000D01*
X148354000Y-94938000D01*
X148390000Y-94936000D01*
X154104000Y-94936000D01*
X154142000Y-94938000D01*
X154148000Y-94937000D01*
X154212000Y-94927000D01*
X154216000Y-94926000D01*
X154265000Y-94921000D01*
X154275000Y-94919000D01*
X154278000Y-94918000D01*
X154291000Y-94914000D01*
X154310000Y-94911000D01*
X154311000Y-94911000D01*
X154368000Y-94887000D01*
X154371000Y-94885000D01*
X154417000Y-94869000D01*
X154439000Y-94856000D01*
X154449000Y-94851000D01*
X154466000Y-94844000D01*
X154468000Y-94843000D01*
X154493000Y-94825000D01*
X154499000Y-94821000D01*
X154558000Y-94786000D01*
X154564000Y-94781000D01*
X154588000Y-94757000D01*
X154603000Y-94744000D01*
X154608000Y-94741000D01*
X155317000Y-94032000D01*
X155354000Y-93983000D01*
X155355000Y-93981000D01*
X155394000Y-93933000D01*
X155394000Y-93932000D01*
X155404000Y-93913000D01*
X155416000Y-93898000D01*
X155440000Y-93839000D01*
X155443000Y-93832000D01*
X155466000Y-93786000D01*
X155473000Y-93758000D01*
X155476000Y-93750000D01*
X155477000Y-93747000D01*
X155481000Y-93732000D01*
X155484000Y-93715000D01*
X155485000Y-93711000D01*
X155505000Y-93627000D01*
X155506000Y-93587000D01*
X155507000Y-93578000D01*
X155508000Y-93575000D01*
X155508000Y-59841000D01*
X155510000Y-59805000D01*
X155509000Y-59801000D01*
X155500000Y-59743000D01*
X155500000Y-59741000D01*
X155493000Y-59683000D01*
X155492000Y-59680000D01*
X155487000Y-59662000D01*
X155484000Y-59638000D01*
X155458000Y-59579000D01*
X155456000Y-59573000D01*
X155440000Y-59526000D01*
X155428000Y-59506000D01*
X155418000Y-59484000D01*
X155395000Y-59450000D01*
X155393000Y-59446000D01*
X155359000Y-59389000D01*
X155357000Y-59386000D01*
X155328000Y-59356000D01*
X155325000Y-59352000D01*
X155320000Y-59347000D01*
X155317000Y-59343000D01*
X155078000Y-59104000D01*
X155048000Y-59072000D01*
X155049000Y-59072000D01*
X154987000Y-59028000D01*
X154984000Y-59026000D01*
X154949000Y-58998000D01*
X154943000Y-58994000D01*
X154941000Y-58993000D01*
X154931000Y-58987000D01*
X154920000Y-58979000D01*
X154909000Y-58973000D01*
X154853000Y-58950000D01*
X154850000Y-58948000D01*
X154802000Y-58925000D01*
X154788000Y-58921000D01*
X154782000Y-58919000D01*
X154754000Y-58908000D01*
X154712000Y-58902000D01*
X154706000Y-58901000D01*
X154646000Y-58887000D01*
X154641000Y-58886000D01*
X154606000Y-58885000D01*
X154601000Y-58885000D01*
X154584000Y-58883000D01*
X153813000Y-58883000D01*
X153755000Y-58857000D01*
X153681000Y-58776000D01*
X153525000Y-58662000D01*
X153492000Y-58598000D01*
X153492000Y-50818000D01*
X153515000Y-50763000D01*
X153552000Y-50726000D01*
X153660000Y-50544000D01*
X153715000Y-50338000D01*
X153715000Y-50127000D01*
X153661000Y-49922000D01*
X153554000Y-49743000D01*
X153552000Y-49741000D01*
X153408000Y-49596000D01*
X153407000Y-49595000D01*
X153225000Y-49491000D01*
X153226000Y-49491000D01*
X153020000Y-49436000D01*
X152815000Y-49436000D01*
X152610000Y-49491000D01*
X152428000Y-49595000D01*
X152281000Y-49742000D01*
X152175000Y-49924000D01*
X152173000Y-49929000D01*
X152120000Y-50130000D01*
X152120000Y-50339000D01*
X152172000Y-50536000D01*
X152279000Y-50723000D01*
X152319000Y-50763000D01*
X152342000Y-50818000D01*
X152342000Y-58724000D01*
X152319000Y-58779000D01*
X151397000Y-59701000D01*
X151370000Y-59726000D01*
X151316000Y-59798000D01*
X151315000Y-59800000D01*
X151291000Y-59832000D01*
X151291000Y-59833000D01*
X151285000Y-59843000D01*
X151275000Y-59858000D01*
X151269000Y-59868000D01*
X151247000Y-59923000D01*
X151245000Y-59926000D01*
X151223000Y-59972000D01*
X151219000Y-59985000D01*
X151217000Y-59991000D01*
X151208000Y-60015000D01*
X151206000Y-60023000D01*
X151201000Y-60060000D01*
X151199000Y-60068000D01*
X151184000Y-60131000D01*
X151183000Y-60174000D01*
X151182000Y-60183000D01*
X151181000Y-60194000D01*
X151181000Y-60466000D01*
X150996000Y-60543000D01*
X150868000Y-60415000D01*
X150864000Y-60412000D01*
X150843000Y-60396000D01*
X150840000Y-60394000D01*
X150766000Y-60335000D01*
X150748000Y-60327000D01*
X150727000Y-60313000D01*
X150691000Y-60298000D01*
X150687000Y-60296000D01*
X150615000Y-60261000D01*
X150592000Y-60255000D01*
X150583000Y-60252000D01*
X150576000Y-60249000D01*
X150569000Y-60247000D01*
X150547000Y-60244000D01*
X150539000Y-60243000D01*
X150458000Y-60223000D01*
X150459000Y-60223000D01*
X150413000Y-60222000D01*
X150405000Y-60222000D01*
X150398000Y-60221000D01*
X150349000Y-60221000D01*
X150294000Y-60220000D01*
X150278000Y-60221000D01*
X149305000Y-60221000D01*
X149228000Y-60036000D01*
X149895000Y-59368000D01*
X149898000Y-59365000D01*
X149945000Y-59323000D01*
X149978000Y-59265000D01*
X149983000Y-59256000D01*
X150019000Y-59207000D01*
X150029000Y-59176000D01*
X150035000Y-59163000D01*
X150046000Y-59143000D01*
X150053000Y-59103000D01*
X150056000Y-59094000D01*
X150075000Y-59033000D01*
X150076000Y-59029000D01*
X150077000Y-58994000D01*
X150078000Y-58985000D01*
X150080000Y-58976000D01*
X150079000Y-58976000D01*
X150080000Y-58971000D01*
X150080000Y-58896000D01*
X150081000Y-58849000D01*
X150080000Y-58834000D01*
X150080000Y-52786000D01*
X150090000Y-52748000D01*
X150194000Y-52568000D01*
X150251000Y-52361000D01*
X150251000Y-52153000D01*
X150194000Y-51947000D01*
X150067000Y-51726000D01*
X150067000Y-51646000D01*
X150194000Y-51424000D01*
X150251000Y-51219000D01*
X150251000Y-51010000D01*
X150194000Y-50803000D01*
X150193000Y-50801000D01*
X150143000Y-50714000D01*
X150143000Y-50634000D01*
X150191000Y-50551000D01*
X150194000Y-50545000D01*
X150251000Y-50339000D01*
X150251000Y-50128000D01*
X150194000Y-49923000D01*
X150097000Y-49753000D01*
X150097000Y-49673000D01*
X150194000Y-49503000D01*
X150251000Y-49297000D01*
X150251000Y-49089000D01*
X150194000Y-48883000D01*
X150119000Y-48752000D01*
X150119000Y-48672000D01*
X150194000Y-48541000D01*
X150251000Y-48336000D01*
X150251000Y-48125000D01*
X150194000Y-47920000D01*
X150104000Y-47763000D01*
X150104000Y-47683000D01*
X150193000Y-47529000D01*
X150251000Y-47320000D01*
X150251000Y-47109000D01*
X150194000Y-46904000D01*
X150115000Y-46766000D01*
X150115000Y-46685000D01*
X150194000Y-46550000D01*
X150251000Y-46342000D01*
X150251000Y-46134000D01*
X150194000Y-45925000D01*
X150186000Y-45908000D01*
X150180000Y-45878000D01*
X150180000Y-45846000D01*
X150186000Y-45817000D01*
X150194000Y-45798000D01*
X150251000Y-45590000D01*
X150251000Y-45382000D01*
X150194000Y-45175000D01*
X150193000Y-45172000D01*
X150128000Y-45059000D01*
X150128000Y-44979000D01*
X150194000Y-44865000D01*
X150251000Y-44659000D01*
X150251000Y-44449000D01*
X150194000Y-44243000D01*
X150091000Y-44063000D01*
X149943000Y-43915000D01*
X149763000Y-43812000D01*
X149764000Y-43812000D01*
X149557000Y-43755000D01*
X149349000Y-43755000D01*
X149139000Y-43812000D01*
X148966000Y-43913000D01*
X148924000Y-43955000D01*
X148869000Y-43978000D01*
X139843000Y-43978000D01*
X139831000Y-43977000D01*
X139777000Y-43968000D01*
X139775000Y-43969000D01*
X139652000Y-43997000D01*
X139651000Y-43998000D01*
X139567000Y-44016000D01*
X139559000Y-44019000D01*
X139548000Y-44023000D01*
X139451000Y-44094000D01*
X139449000Y-44096000D01*
X139378000Y-44146000D01*
X139356000Y-44179000D01*
X139346000Y-44192000D01*
X131931000Y-51607000D01*
X131876000Y-51630000D01*
X110725000Y-51630000D01*
X110677000Y-51628000D01*
X110625000Y-51642000D01*
X110619000Y-51643000D01*
X110552000Y-51655000D01*
X110530000Y-51666000D01*
X110515000Y-51671000D01*
X110493000Y-51677000D01*
X110486000Y-51680000D01*
X110443000Y-51708000D01*
X110435000Y-51712000D01*
X110384000Y-51736000D01*
X110380000Y-51739000D01*
X110356000Y-51762000D01*
X110349000Y-51768000D01*
X110341000Y-51774000D01*
X110338000Y-51776000D01*
X104830000Y-57284000D01*
X104783000Y-57326000D01*
X104781000Y-57329000D01*
X104750000Y-57386000D01*
X104746000Y-57393000D01*
X104711000Y-57444000D01*
X104709000Y-57449000D01*
X104705000Y-57461000D01*
X104700000Y-57473000D01*
X104683000Y-57505000D01*
X104672000Y-57561000D01*
X104670000Y-57568000D01*
X104654000Y-57620000D01*
X104653000Y-57653000D01*
X104652000Y-57662000D01*
X104650000Y-57671000D01*
X104651000Y-57671000D01*
X104650000Y-57680000D01*
X104650000Y-57767000D01*
X104649000Y-57795000D01*
X104650000Y-57814000D01*
X104650000Y-58795000D01*
X104562000Y-58883000D01*
X103955000Y-58883000D01*
X103917000Y-58881000D01*
X103911000Y-58882000D01*
X103846000Y-58892000D01*
X103842000Y-58893000D01*
X103794000Y-58898000D01*
X103784000Y-58900000D01*
X103781000Y-58901000D01*
X103768000Y-58905000D01*
X103749000Y-58908000D01*
X103746000Y-58909000D01*
X103691000Y-58932000D01*
X103688000Y-58934000D01*
X103639000Y-58951000D01*
X103617000Y-58964000D01*
X103607000Y-58969000D01*
X103595000Y-58974000D01*
X103588000Y-58978000D01*
X103567000Y-58993000D01*
X103562000Y-58997000D01*
X103498000Y-59036000D01*
X103494000Y-59039000D01*
X103472000Y-59061000D01*
X103460000Y-59071000D01*
X103453000Y-59076000D01*
X103057000Y-59472000D01*
X103037000Y-59490000D01*
X102998000Y-59544000D01*
X102996000Y-59547000D01*
X102962000Y-59590000D01*
X102960000Y-59594000D01*
X102960000Y-59595000D01*
X102952000Y-59609000D01*
X102943000Y-59621000D01*
X102937000Y-59632000D01*
X102913000Y-59690000D01*
X102911000Y-59695000D01*
X102891000Y-59735000D01*
X102886000Y-59755000D01*
X102882000Y-59767000D01*
X102876000Y-59781000D01*
X102870000Y-59819000D01*
X102868000Y-59827000D01*
X102852000Y-59894000D01*
X102852000Y-59896000D01*
X102851000Y-59944000D01*
X102849000Y-59961000D01*
X102849000Y-82628000D01*
X102826000Y-82683000D01*
X101938000Y-83571000D01*
X101924000Y-83583000D01*
X101884000Y-83639000D01*
X101882000Y-83641000D01*
X101848000Y-83686000D01*
X101846000Y-83691000D01*
X101840000Y-83701000D01*
X101829000Y-83718000D01*
X101805000Y-83775000D01*
X101779000Y-83827000D01*
X101776000Y-83842000D01*
X101771000Y-83857000D01*
X101763000Y-83875000D01*
X101758000Y-83911000D01*
X101756000Y-83919000D01*
X101740000Y-83986000D01*
X101739000Y-84026000D01*
X101738000Y-84035000D01*
X101738000Y-84037000D01*
X101737000Y-84050000D01*
X101737000Y-94181000D01*
X101736000Y-94194000D01*
X101735000Y-94203000D01*
X23925805Y-94203000D01*
X23913000Y-93118000D01*
X23900000Y-91360000D01*
X23889000Y-89110000D01*
X23879000Y-86360000D01*
X23870000Y-83110000D01*
X23863000Y-79351000D01*
X23857000Y-75080000D01*
X23853000Y-70291000D01*
X23851000Y-64980000D01*
X23850000Y-59141000D01*
X23850000Y-51558000D01*
X23851000Y-45111000D01*
X23851962Y-43379000D01*
X27014000Y-43379000D01*
X27014000Y-47379000D01*
X31014000Y-47379000D01*
X31014000Y-45283000D01*
X67270000Y-45283000D01*
X67270000Y-45475000D01*
X67322000Y-45668000D01*
X67323000Y-45670000D01*
X67417000Y-45834000D01*
X67419000Y-45837000D01*
X67557000Y-45974000D01*
X67558000Y-45975000D01*
X67722000Y-46070000D01*
X67725000Y-46071000D01*
X67919000Y-46123000D01*
X68108000Y-46123000D01*
X68302000Y-46071000D01*
X68305000Y-46070000D01*
X68469000Y-45975000D01*
X68470000Y-45974000D01*
X68608000Y-45837000D01*
X68610000Y-45834000D01*
X68704000Y-45670000D01*
X68705000Y-45668000D01*
X68757000Y-45475000D01*
X68757000Y-45283000D01*
X68756729Y-45282000D01*
X73256000Y-45282000D01*
X73256000Y-45476000D01*
X73306000Y-45666000D01*
X73307000Y-45667000D01*
X73403000Y-45835000D01*
X73404000Y-45836000D01*
X73543000Y-45974000D01*
X73544000Y-45975000D01*
X73708000Y-46070000D01*
X73711000Y-46071000D01*
X73905000Y-46123000D01*
X74095000Y-46123000D01*
X74288000Y-46071000D01*
X74287000Y-46071000D01*
X74457000Y-45973000D01*
X74593000Y-45837000D01*
X74691000Y-45667000D01*
X74743000Y-45475000D01*
X74743000Y-45283000D01*
X74691000Y-45091000D01*
X74593000Y-44921000D01*
X74457000Y-44785000D01*
X74287000Y-44687000D01*
X74288000Y-44687000D01*
X74095000Y-44635000D01*
X73905000Y-44635000D01*
X73711000Y-44687000D01*
X73708000Y-44688000D01*
X73544000Y-44783000D01*
X73543000Y-44784000D01*
X73404000Y-44922000D01*
X73403000Y-44923000D01*
X73307000Y-45091000D01*
X73306000Y-45092000D01*
X73256000Y-45282000D01*
X68756729Y-45282000D01*
X68705000Y-45091000D01*
X68608000Y-44922000D01*
X68469000Y-44783000D01*
X68305000Y-44688000D01*
X68302000Y-44687000D01*
X68112000Y-44636000D01*
X67915000Y-44636000D01*
X67725000Y-44687000D01*
X67722000Y-44688000D01*
X67558000Y-44783000D01*
X67419000Y-44922000D01*
X67322000Y-45091000D01*
X67270000Y-45283000D01*
X31014000Y-45283000D01*
X31014000Y-43379000D01*
X110999000Y-43379000D01*
X110999000Y-47379000D01*
X114999000Y-47379000D01*
X114999000Y-43379000D01*
X113885000Y-43379000D01*
X113797000Y-43291000D01*
X113797000Y-43168000D01*
X113743000Y-42963000D01*
X113635000Y-42783000D01*
X113634000Y-42781000D01*
X113491000Y-42636000D01*
X113492000Y-42636000D01*
X113307000Y-42530000D01*
X113308000Y-42530000D01*
X113102000Y-42475000D01*
X112897000Y-42475000D01*
X112692000Y-42530000D01*
X112510000Y-42634000D01*
X112361000Y-42783000D01*
X112257000Y-42965000D01*
X112202000Y-43170000D01*
X112202000Y-43291000D01*
X112114000Y-43379000D01*
X110999000Y-43379000D01*
X31014000Y-43379000D01*
X27014000Y-43379000D01*
X23851962Y-43379000D01*
X23854000Y-39708000D01*
X23854561Y-39083000D01*
X151697000Y-39083000D01*
X151697000Y-39292000D01*
X151750000Y-39493000D01*
X151752000Y-39498000D01*
X151858000Y-39680000D01*
X152003000Y-39825000D01*
X152185000Y-39931000D01*
X152187000Y-39932000D01*
X152391000Y-39986000D01*
X152600000Y-39986000D01*
X152797000Y-39934000D01*
X152984000Y-39827000D01*
X152985000Y-39826000D01*
X153133000Y-39677000D01*
X153134000Y-39676000D01*
X153235000Y-39503000D01*
X153292000Y-39293000D01*
X153292000Y-39192000D01*
X153315000Y-39137000D01*
X153551000Y-38900000D01*
X153561000Y-38891000D01*
X153611000Y-38856000D01*
X153674000Y-38751000D01*
X153675000Y-38750000D01*
X153719000Y-38680000D01*
X153724000Y-38667000D01*
X153728000Y-38659000D01*
X153743000Y-38565000D01*
X153744000Y-38562000D01*
X153766000Y-38451000D01*
X153756000Y-38410000D01*
X153754000Y-38392000D01*
X153754000Y-38001000D01*
X153777000Y-37946000D01*
X154461000Y-37262000D01*
X154516000Y-37239000D01*
X155570000Y-37239000D01*
X155650000Y-37300000D01*
X155715000Y-37535000D01*
X155816000Y-37708000D01*
X155817000Y-37709000D01*
X155965000Y-37858000D01*
X155966000Y-37859000D01*
X156153000Y-37966000D01*
X156350000Y-38018000D01*
X156559000Y-38018000D01*
X156763000Y-37964000D01*
X156765000Y-37963000D01*
X156947000Y-37857000D01*
X157092000Y-37712000D01*
X157198000Y-37530000D01*
X157200000Y-37525000D01*
X157253000Y-37324000D01*
X157253000Y-37115000D01*
X157201000Y-36918000D01*
X157094000Y-36731000D01*
X157093000Y-36730000D01*
X156944000Y-36582000D01*
X156943000Y-36581000D01*
X156770000Y-36480000D01*
X156606000Y-36434000D01*
X156573000Y-36415000D01*
X156449000Y-36291000D01*
X156441000Y-36282000D01*
X156405000Y-36232000D01*
X156314000Y-36178000D01*
X156311000Y-36175000D01*
X156230000Y-36120000D01*
X156227000Y-36119000D01*
X156221000Y-36118000D01*
X156212000Y-36116000D01*
X156211000Y-36116000D01*
X156090000Y-36095000D01*
X155999000Y-36080000D01*
X155963000Y-36087000D01*
X155948000Y-36089000D01*
X154290000Y-36089000D01*
X154278000Y-36088000D01*
X154224000Y-36079000D01*
X154223000Y-36079000D01*
X154094000Y-36110000D01*
X154092000Y-36110000D01*
X154021000Y-36126000D01*
X154011000Y-36130000D01*
X154001000Y-36133000D01*
X153992000Y-36135000D01*
X153884000Y-36218000D01*
X153880000Y-36220000D01*
X153826000Y-36257000D01*
X153807000Y-36287000D01*
X153797000Y-36300000D01*
X153124000Y-36973000D01*
X153046000Y-36994000D01*
X152820000Y-36934000D01*
X152611000Y-36934000D01*
X152406000Y-36988000D01*
X152226000Y-37096000D01*
X152224000Y-37097000D01*
X152079000Y-37239000D01*
X151973000Y-37424000D01*
X151972000Y-37427000D01*
X151918000Y-37629000D01*
X151918000Y-37834000D01*
X151973000Y-38039000D01*
X152077000Y-38221000D01*
X152173000Y-38317000D01*
X152154000Y-38464000D01*
X152007000Y-38549000D01*
X152006000Y-38550000D01*
X151857000Y-38698000D01*
X151856000Y-38699000D01*
X151749000Y-38886000D01*
X151697000Y-39083000D01*
X23854561Y-39083000D01*
X23857325Y-36007000D01*
X141636000Y-36007000D01*
X141636000Y-36218000D01*
X141693000Y-36422000D01*
X141795000Y-36600000D01*
X141943000Y-36749000D01*
X141944000Y-36750000D01*
X142131000Y-36857000D01*
X142328000Y-36909000D01*
X142519000Y-36909000D01*
X142607000Y-36997000D01*
X142607000Y-37187000D01*
X142664000Y-37397000D01*
X142765000Y-37571000D01*
X142915000Y-37721000D01*
X143102000Y-37828000D01*
X143299000Y-37880000D01*
X143508000Y-37880000D01*
X143712000Y-37826000D01*
X143714000Y-37825000D01*
X143896000Y-37719000D01*
X144052000Y-37563000D01*
X144152000Y-37550000D01*
X144368000Y-37673000D01*
X144372000Y-37675000D01*
X144570000Y-37727000D01*
X144782000Y-37727000D01*
X144979000Y-37675000D01*
X145166000Y-37568000D01*
X145314000Y-37420000D01*
X145421000Y-37233000D01*
X145473000Y-37036000D01*
X145473000Y-36823000D01*
X145447000Y-36725000D01*
X145557000Y-36605000D01*
X145638000Y-36618000D01*
X145846000Y-36618000D01*
X146056000Y-36561000D01*
X146229000Y-36460000D01*
X146230000Y-36459000D01*
X146379000Y-36311000D01*
X146380000Y-36310000D01*
X146487000Y-36124000D01*
X146539000Y-35926000D01*
X146539000Y-35717000D01*
X146486000Y-35516000D01*
X146485000Y-35513000D01*
X146378000Y-35329000D01*
X146233000Y-35184000D01*
X146051000Y-35078000D01*
X146049000Y-35077000D01*
X145845000Y-35023000D01*
X145636000Y-35023000D01*
X145438000Y-35075000D01*
X145252000Y-35182000D01*
X145251000Y-35183000D01*
X145103000Y-35332000D01*
X145102000Y-35333000D01*
X145001000Y-35506000D01*
X144944000Y-35716000D01*
X144944000Y-35927000D01*
X144970000Y-36026000D01*
X144858000Y-36146000D01*
X144778000Y-36132000D01*
X144723000Y-36132000D01*
X144668000Y-36109000D01*
X144302000Y-35743000D01*
X144294000Y-35734000D01*
X144256000Y-35681000D01*
X144255000Y-35680000D01*
X144151000Y-35618000D01*
X144148000Y-35616000D01*
X144079000Y-35569000D01*
X144073000Y-35567000D01*
X144069000Y-35566000D01*
X144057000Y-35562000D01*
X143901000Y-35536000D01*
X143895000Y-35536000D01*
X143848000Y-35528000D01*
X143817000Y-35534000D01*
X143802000Y-35536000D01*
X143018000Y-35536000D01*
X142963000Y-35513000D01*
X142925000Y-35475000D01*
X142743000Y-35369000D01*
X142741000Y-35368000D01*
X142537000Y-35314000D01*
X142328000Y-35314000D01*
X142131000Y-35366000D01*
X141944000Y-35473000D01*
X141943000Y-35474000D01*
X141794000Y-35624000D01*
X141693000Y-35801000D01*
X141636000Y-36007000D01*
X23857325Y-36007000D01*
X23858000Y-35255000D01*
X23863631Y-32364000D01*
X66013000Y-32364000D01*
X70013000Y-32364000D01*
X70014000Y-28364000D01*
X71999000Y-28364000D01*
X71999000Y-32364000D01*
X75999000Y-32364000D01*
X75999000Y-30105000D01*
X111012000Y-30105000D01*
X111012000Y-30623000D01*
X111149000Y-31132000D01*
X111410000Y-31585000D01*
X111780000Y-31955000D01*
X112228000Y-32214000D01*
X112231000Y-32215000D01*
X112741000Y-32351000D01*
X113258000Y-32351000D01*
X113768000Y-32215000D01*
X113767000Y-32215000D01*
X114219000Y-31955000D01*
X114220000Y-31954000D01*
X114573043Y-31600000D01*
X120930000Y-31600000D01*
X120930000Y-31808000D01*
X120987000Y-32015000D01*
X121090000Y-32194000D01*
X121238000Y-32342000D01*
X121425000Y-32449000D01*
X121622000Y-32501000D01*
X121831000Y-32501000D01*
X122036000Y-32447000D01*
X122037000Y-32446000D01*
X122217000Y-32342000D01*
X122365000Y-32195000D01*
X122366000Y-32194000D01*
X122473000Y-32007000D01*
X122525000Y-31810000D01*
X122525000Y-31598000D01*
X122474000Y-31403000D01*
X122474000Y-31401000D01*
X122366000Y-31214000D01*
X122365000Y-31213000D01*
X122216000Y-31065000D01*
X122215000Y-31064000D01*
X122042000Y-30963000D01*
X121832000Y-30906000D01*
X121624000Y-30906000D01*
X121418000Y-30963000D01*
X121238000Y-31066000D01*
X121090000Y-31214000D01*
X120987000Y-31394000D01*
X120930000Y-31600000D01*
X114573043Y-31600000D01*
X114589000Y-31584000D01*
X114848000Y-31138000D01*
X114849000Y-31136000D01*
X114987000Y-30623000D01*
X114987000Y-30159000D01*
X132896000Y-30159000D01*
X132896000Y-30368000D01*
X132949000Y-30564000D01*
X132949000Y-30604000D01*
X132896000Y-30801000D01*
X132896000Y-31008000D01*
X132953000Y-31215000D01*
X132954000Y-31217000D01*
X133042000Y-31370000D01*
X133050000Y-31429000D01*
X133005000Y-31598000D01*
X133005000Y-31810000D01*
X133057000Y-32007000D01*
X133164000Y-32194000D01*
X133165000Y-32195000D01*
X133313000Y-32342000D01*
X133493000Y-32446000D01*
X133494000Y-32447000D01*
X133699000Y-32501000D01*
X133908000Y-32501000D01*
X134105000Y-32449000D01*
X134212000Y-32388000D01*
X134313000Y-32401000D01*
X134404000Y-32492000D01*
X134591000Y-32599000D01*
X134788000Y-32651000D01*
X134997000Y-32651000D01*
X135095000Y-32625000D01*
X135173000Y-32646000D01*
X137673000Y-35146000D01*
X137696000Y-35201000D01*
X137696000Y-35228000D01*
X137753000Y-35435000D01*
X137754000Y-35436000D01*
X137857000Y-35615000D01*
X138004000Y-35762000D01*
X138184000Y-35865000D01*
X138390000Y-35922000D01*
X138598000Y-35922000D01*
X138808000Y-35865000D01*
X138981000Y-35764000D01*
X138982000Y-35763000D01*
X139130000Y-35616000D01*
X139131000Y-35615000D01*
X139239000Y-35427000D01*
X139291000Y-35232000D01*
X139291000Y-35023000D01*
X139238000Y-34820000D01*
X139236000Y-34815000D01*
X139130000Y-34633000D01*
X138985000Y-34488000D01*
X138986000Y-34488000D01*
X138803000Y-34382000D01*
X138801000Y-34381000D01*
X138597000Y-34327000D01*
X138512000Y-34327000D01*
X138457000Y-34304000D01*
X135817000Y-31664000D01*
X135894000Y-31479000D01*
X137301000Y-31479000D01*
X137356000Y-31502000D01*
X140336000Y-34482000D01*
X140345000Y-34493000D01*
X140378000Y-34542000D01*
X140379000Y-34543000D01*
X140481000Y-34605000D01*
X140562000Y-34659000D01*
X140568000Y-34660000D01*
X140580000Y-34663000D01*
X140582000Y-34664000D01*
X140716000Y-34686000D01*
X140792000Y-34699000D01*
X140828000Y-34692000D01*
X140843000Y-34690000D01*
X150359000Y-34690000D01*
X150414000Y-34713000D01*
X151069000Y-35368000D01*
X151092000Y-35423000D01*
X151092000Y-35482000D01*
X151144000Y-35679000D01*
X151146000Y-35683000D01*
X151251000Y-35865000D01*
X151399000Y-36013000D01*
X151402000Y-36015000D01*
X151586000Y-36120000D01*
X151783000Y-36172000D01*
X151995000Y-36172000D01*
X152192000Y-36120000D01*
X152376000Y-36015000D01*
X152379000Y-36013000D01*
X152527000Y-35865000D01*
X152629000Y-35687000D01*
X152630000Y-35686000D01*
X152687000Y-35479000D01*
X152687000Y-35271000D01*
X152632000Y-35070000D01*
X152630000Y-35065000D01*
X152527000Y-34885000D01*
X152379000Y-34737000D01*
X152192000Y-34630000D01*
X151995000Y-34578000D01*
X151937000Y-34578000D01*
X151882000Y-34555000D01*
X151075000Y-33748000D01*
X151066000Y-33737000D01*
X151033000Y-33688000D01*
X151032000Y-33687000D01*
X150930000Y-33625000D01*
X150927000Y-33623000D01*
X150850000Y-33571000D01*
X150849000Y-33571000D01*
X150843000Y-33570000D01*
X150831000Y-33567000D01*
X150829000Y-33566000D01*
X150695000Y-33544000D01*
X150619000Y-33531000D01*
X150583000Y-33538000D01*
X150568000Y-33540000D01*
X141052000Y-33540000D01*
X140997000Y-33517000D01*
X138009000Y-30529000D01*
X138001000Y-30520000D01*
X137968000Y-30474000D01*
X137966000Y-30472000D01*
X137887000Y-30424000D01*
X137883000Y-30422000D01*
X137847774Y-30398000D01*
X140812000Y-30398000D01*
X140812000Y-30610000D01*
X140864000Y-30807000D01*
X140971000Y-30994000D01*
X140972000Y-30995000D01*
X141120000Y-31142000D01*
X141300000Y-31246000D01*
X141301000Y-31247000D01*
X141506000Y-31301000D01*
X141715000Y-31301000D01*
X141912000Y-31249000D01*
X142099000Y-31142000D01*
X142247000Y-30994000D01*
X142350000Y-30815000D01*
X142407000Y-30608000D01*
X142407000Y-30551000D01*
X142430000Y-30496000D01*
X142648000Y-30278000D01*
X142833000Y-30355000D01*
X142833000Y-30608000D01*
X142890000Y-30815000D01*
X142993000Y-30994000D01*
X143141000Y-31142000D01*
X143328000Y-31249000D01*
X143525000Y-31301000D01*
X143737000Y-31301000D01*
X143934000Y-31249000D01*
X144121000Y-31142000D01*
X144269000Y-30994000D01*
X144376000Y-30807000D01*
X144428000Y-30610000D01*
X144428000Y-30398000D01*
X144414000Y-30336000D01*
X144453000Y-30245000D01*
X144631000Y-30142000D01*
X144779000Y-29995000D01*
X144780000Y-29994000D01*
X144887000Y-29807000D01*
X144939000Y-29610000D01*
X144939000Y-29398000D01*
X144888000Y-29203000D01*
X144888000Y-29201000D01*
X144780000Y-29014000D01*
X144779000Y-29013000D01*
X144630000Y-28865000D01*
X144629000Y-28864000D01*
X144456000Y-28763000D01*
X144246000Y-28706000D01*
X144038000Y-28706000D01*
X143832000Y-28763000D01*
X143652000Y-28866000D01*
X143612000Y-28906000D01*
X143557000Y-28929000D01*
X142653000Y-28929000D01*
X142641000Y-28928000D01*
X142587000Y-28919000D01*
X142586000Y-28919000D01*
X142455000Y-28951000D01*
X142380000Y-28930000D01*
X142314000Y-28864000D01*
X142141000Y-28763000D01*
X141931000Y-28706000D01*
X141723000Y-28706000D01*
X141517000Y-28763000D01*
X141337000Y-28866000D01*
X141189000Y-29014000D01*
X141086000Y-29194000D01*
X141029000Y-29400000D01*
X141029000Y-29609000D01*
X141091000Y-29838000D01*
X141070000Y-29916000D01*
X140972000Y-30013000D01*
X140971000Y-30014000D01*
X140863000Y-30202000D01*
X140812000Y-30398000D01*
X137847774Y-30398000D01*
X137792000Y-30360000D01*
X137789000Y-30359000D01*
X137774000Y-30356000D01*
X137763000Y-30355000D01*
X137740000Y-30350000D01*
X137560000Y-30319000D01*
X137519000Y-30327000D01*
X137504000Y-30329000D01*
X134579000Y-30329000D01*
X134491000Y-30241000D01*
X134491000Y-30126000D01*
X134501000Y-30088000D01*
X134543000Y-30016000D01*
X134600000Y-29808000D01*
X134600000Y-29601000D01*
X134543000Y-29394000D01*
X134440000Y-29214000D01*
X134292000Y-29066000D01*
X134112000Y-28963000D01*
X134113000Y-28963000D01*
X133906000Y-28906000D01*
X133698000Y-28906000D01*
X133488000Y-28963000D01*
X133315000Y-29064000D01*
X133165000Y-29214000D01*
X133056000Y-29401000D01*
X133056000Y-29403000D01*
X133005000Y-29599000D01*
X133005000Y-29841000D01*
X132995000Y-29879000D01*
X132953000Y-29951000D01*
X132896000Y-30159000D01*
X114987000Y-30159000D01*
X114987000Y-30105000D01*
X114850000Y-29595000D01*
X114849000Y-29592000D01*
X114589000Y-29144000D01*
X114220000Y-28774000D01*
X114219000Y-28773000D01*
X113767000Y-28513000D01*
X113768000Y-28513000D01*
X113258000Y-28377000D01*
X112741000Y-28377000D01*
X112231000Y-28513000D01*
X112228000Y-28514000D01*
X111780000Y-28773000D01*
X111410000Y-29143000D01*
X111408000Y-29146000D01*
X111149000Y-29596000D01*
X111148000Y-29599000D01*
X111012000Y-30105000D01*
X75999000Y-30105000D01*
X75999000Y-28364000D01*
X71999000Y-28364000D01*
X70014000Y-28364000D01*
X66014000Y-28364000D01*
X66013000Y-32364000D01*
X23863631Y-32364000D01*
X23865000Y-31661000D01*
X23869947Y-30105000D01*
X27026000Y-30105000D01*
X27026000Y-30623000D01*
X27163000Y-31132000D01*
X27424000Y-31585000D01*
X27794000Y-31955000D01*
X28242000Y-32214000D01*
X28245000Y-32215000D01*
X28755000Y-32351000D01*
X29272000Y-32351000D01*
X29782000Y-32215000D01*
X29785000Y-32214000D01*
X30233000Y-31955000D01*
X30603000Y-31585000D01*
X30864000Y-31132000D01*
X31001000Y-30623000D01*
X31001000Y-30105000D01*
X30865000Y-29599000D01*
X30864000Y-29596000D01*
X30605000Y-29146000D01*
X30603000Y-29143000D01*
X30233000Y-28773000D01*
X29785000Y-28514000D01*
X29782000Y-28513000D01*
X29272000Y-28377000D01*
X28755000Y-28377000D01*
X28245000Y-28513000D01*
X28242000Y-28514000D01*
X27794000Y-28773000D01*
X27424000Y-29143000D01*
X27422000Y-29146000D01*
X27163000Y-29596000D01*
X27162000Y-29599000D01*
X27026000Y-30105000D01*
X23869947Y-30105000D01*
X23874000Y-28830000D01*
X23876892Y-28310000D01*
X128925000Y-28310000D01*
X128925000Y-28518000D01*
X128982000Y-28725000D01*
X129085000Y-28904000D01*
X129233000Y-29052000D01*
X129420000Y-29159000D01*
X129617000Y-29211000D01*
X129826000Y-29211000D01*
X130031000Y-29157000D01*
X130032000Y-29156000D01*
X130212000Y-29052000D01*
X130358000Y-28907000D01*
X130361000Y-28904000D01*
X130468000Y-28717000D01*
X130520000Y-28520000D01*
X130520000Y-28308000D01*
X130469000Y-28113000D01*
X130469000Y-28111000D01*
X130361000Y-27924000D01*
X130360000Y-27923000D01*
X130211000Y-27775000D01*
X130210000Y-27774000D01*
X130037000Y-27673000D01*
X129827000Y-27616000D01*
X129619000Y-27616000D01*
X129413000Y-27673000D01*
X129233000Y-27776000D01*
X129085000Y-27924000D01*
X128982000Y-28104000D01*
X128925000Y-28310000D01*
X23876892Y-28310000D01*
X23886000Y-26672000D01*
X23888596Y-26416000D01*
X128489000Y-26416000D01*
X128489000Y-26625000D01*
X128542000Y-26826000D01*
X128544000Y-26831000D01*
X128650000Y-27013000D01*
X128795000Y-27158000D01*
X128977000Y-27264000D01*
X128979000Y-27265000D01*
X129183000Y-27319000D01*
X129392000Y-27319000D01*
X129589000Y-27267000D01*
X129776000Y-27160000D01*
X129777000Y-27159000D01*
X129925000Y-27010000D01*
X129926000Y-27009000D01*
X130027000Y-26836000D01*
X130084000Y-26626000D01*
X130084000Y-26418000D01*
X130027000Y-26212000D01*
X129924000Y-26032000D01*
X129776000Y-25884000D01*
X129596000Y-25781000D01*
X129597000Y-25781000D01*
X129390000Y-25724000D01*
X129182000Y-25724000D01*
X128972000Y-25781000D01*
X128799000Y-25882000D01*
X128798000Y-25883000D01*
X128649000Y-26031000D01*
X128648000Y-26032000D01*
X128540000Y-26219000D01*
X128540000Y-26221000D01*
X128489000Y-26416000D01*
X23888596Y-26416000D01*
X23898319Y-25457000D01*
X140189000Y-25457000D01*
X140189000Y-25669000D01*
X140241000Y-25866000D01*
X140348000Y-26053000D01*
X140349000Y-26054000D01*
X140498000Y-26202000D01*
X140501000Y-26204000D01*
X140676000Y-26304000D01*
X140678000Y-26305000D01*
X140884000Y-26360000D01*
X141089000Y-26360000D01*
X141295000Y-26305000D01*
X141294000Y-26305000D01*
X141476000Y-26201000D01*
X141621000Y-26056000D01*
X141727000Y-25878000D01*
X141729000Y-25874000D01*
X141784000Y-25668000D01*
X141784000Y-25458000D01*
X141729000Y-25253000D01*
X141729000Y-25252000D01*
X141621000Y-25071000D01*
X141621000Y-25069000D01*
X141476000Y-24925000D01*
X141294000Y-24821000D01*
X141295000Y-24821000D01*
X141089000Y-24766000D01*
X140884000Y-24766000D01*
X140678000Y-24821000D01*
X140676000Y-24822000D01*
X140501000Y-24922000D01*
X140498000Y-24924000D01*
X140349000Y-25072000D01*
X140348000Y-25073000D01*
X140241000Y-25260000D01*
X140189000Y-25457000D01*
X23898319Y-25457000D01*
X23902000Y-25094000D01*
X23922000Y-24005000D01*
X23922000Y-24004000D01*
X23945000Y-23314000D01*
X23945000Y-23311000D01*
X23953465Y-23194000D01*
X133696000Y-23194000D01*
X133696000Y-23402000D01*
X133753000Y-23608000D01*
X133856000Y-23788000D01*
X134003000Y-23935000D01*
X134056000Y-23967000D01*
X134096000Y-24036000D01*
X134096000Y-24131000D01*
X134153000Y-24338000D01*
X134154000Y-24339000D01*
X134256000Y-24517000D01*
X134404000Y-24665000D01*
X134591000Y-24772000D01*
X134788000Y-24824000D01*
X134997000Y-24824000D01*
X135202000Y-24770000D01*
X135203000Y-24769000D01*
X135383000Y-24665000D01*
X135531000Y-24518000D01*
X135532000Y-24517000D01*
X135636000Y-24337000D01*
X135639000Y-24331000D01*
X135691000Y-24134000D01*
X135691000Y-23921000D01*
X135642431Y-23737000D01*
X136896000Y-23737000D01*
X136896000Y-23945000D01*
X136953000Y-24152000D01*
X137056000Y-24331000D01*
X137204000Y-24479000D01*
X137384000Y-24582000D01*
X137590000Y-24639000D01*
X137798000Y-24639000D01*
X138008000Y-24582000D01*
X138181000Y-24481000D01*
X138182000Y-24480000D01*
X138331000Y-24332000D01*
X138332000Y-24331000D01*
X138439000Y-24144000D01*
X138491000Y-23947000D01*
X138491000Y-23738000D01*
X138438000Y-23537000D01*
X138436000Y-23532000D01*
X138330000Y-23350000D01*
X138185000Y-23205000D01*
X138003000Y-23099000D01*
X138001000Y-23098000D01*
X137797000Y-23044000D01*
X137588000Y-23044000D01*
X137391000Y-23096000D01*
X137204000Y-23203000D01*
X137203000Y-23204000D01*
X137055000Y-23353000D01*
X137054000Y-23354000D01*
X136953000Y-23529000D01*
X136952000Y-23531000D01*
X136896000Y-23737000D01*
X135642431Y-23737000D01*
X135639000Y-23724000D01*
X135531000Y-23537000D01*
X135382000Y-23388000D01*
X135381000Y-23388000D01*
X135332000Y-23360000D01*
X135291000Y-23290000D01*
X135291000Y-23192000D01*
X135240000Y-22997000D01*
X135240000Y-22995000D01*
X135132000Y-22808000D01*
X135131000Y-22807000D01*
X134983000Y-22660000D01*
X134802000Y-22555000D01*
X134597000Y-22501000D01*
X134388000Y-22501000D01*
X134190000Y-22553000D01*
X134004000Y-22660000D01*
X133856000Y-22808000D01*
X133753000Y-22988000D01*
X133696000Y-23194000D01*
X23953465Y-23194000D01*
X23973000Y-22924000D01*
X23974000Y-22916000D01*
X24002000Y-22754000D01*
X24005000Y-22744000D01*
X24062000Y-22567000D01*
X24062000Y-22565000D01*
X24130000Y-22374000D01*
X24131000Y-22372000D01*
X24208000Y-22179000D01*
X24209000Y-22176000D01*
X24283000Y-22012000D01*
X24284000Y-22009000D01*
X24372000Y-21829000D01*
X24374000Y-21826000D01*
X24464000Y-21662000D01*
X24466000Y-21659000D01*
X24556000Y-21512000D01*
X24664000Y-21350000D01*
X24666000Y-21348000D01*
X24777000Y-21195000D01*
X24779000Y-21191000D01*
X24913000Y-21025000D01*
X24914000Y-21023000D01*
X25039000Y-20878000D01*
X25041000Y-20875000D01*
X25183000Y-20721000D01*
X25185000Y-20719000D01*
X25338000Y-20567000D01*
X25340000Y-20565000D01*
X25504000Y-20413000D01*
X25506000Y-20411000D01*
X25648000Y-20290000D01*
X25650000Y-20288000D01*
X25816000Y-20158000D01*
X25818000Y-20156000D01*
X25979000Y-20041000D01*
X25981000Y-20039000D01*
X26132000Y-19941000D01*
X26135000Y-19939000D01*
X26317000Y-19831000D01*
X26321000Y-19829000D01*
X26481000Y-19745000D01*
X26483000Y-19744000D01*
X26675000Y-19653000D01*
X26678000Y-19652000D01*
X26867000Y-19570000D01*
X26870000Y-19569000D01*
X27050000Y-19501000D01*
X27053000Y-19500000D01*
X27245000Y-19435000D01*
X27256000Y-19432000D01*
X27437000Y-19400000D01*
X27445000Y-19399000D01*
X27921000Y-19368000D01*
X27923000Y-19368000D01*
X28928000Y-19340000D01*
X28929000Y-19340000D01*
X30610000Y-19318000D01*
X30611000Y-19318000D01*
X33172000Y-19300000D01*
X36807000Y-19286000D01*
X41705000Y-19276000D01*
X48063000Y-19269000D01*
X56073000Y-19264000D01*
X65931000Y-19262000D01*
X77828000Y-19260000D01*
X91959000Y-19260000D01*
X105510000Y-19258000D01*
X117030000Y-19257000D01*
X126681000Y-19258000D01*
X134630000Y-19261000D01*
X141042000Y-19267000D01*
X146079000Y-19275000D01*
X149911000Y-19287000D01*
X152697000Y-19302000D01*
X154601000Y-19322000D01*
X154602000Y-19322000D01*
X155788000Y-19346000D01*
X155790000Y-19346000D01*
X156432000Y-19375000D01*
X156439000Y-19376000D01*
X156643000Y-19403000D01*
X156657000Y-19407000D01*
X157042000Y-19537000D01*
X157048000Y-19539000D01*
X157412000Y-19699000D01*
X157418000Y-19702000D01*
X157781000Y-19897000D01*
X157786000Y-19901000D01*
X158133000Y-20127000D01*
X158138000Y-20131000D01*
X158450000Y-20375000D01*
X158455000Y-20379000D01*
X158749000Y-20652000D01*
X158753000Y-20656000D01*
X159025000Y-20952000D01*
X159029000Y-20957000D01*
X159275000Y-21277000D01*
X159278000Y-21282000D01*
X159497000Y-21620000D01*
X159500000Y-21626000D01*
X159690000Y-21984000D01*
X159693000Y-21990000D01*
X159849000Y-22360000D01*
X159852000Y-22366000D01*
X159976000Y-22748000D01*
X159978000Y-22756000D01*
X160011000Y-22916000D01*
X160012000Y-22924000D01*
X160041000Y-23227000D01*
X160042000Y-23231000D01*
X160070000Y-23830000D01*
X160070000Y-23832000D01*
X160092000Y-24786000D01*
X160092000Y-24787000D01*
X160110000Y-26228000D01*
X160124000Y-28262000D01*
X160124000Y-28263000D01*
X160134000Y-31000000D01*
X160141000Y-34553000D01*
X160146000Y-39033000D01*
X160148000Y-44551000D01*
X160150000Y-51219000D01*
X160150000Y-59149000D01*
X160151000Y-68162000D01*
X160151000Y-75560000D01*
X160147000Y-81506000D01*
X160138000Y-86166000D01*
X160120000Y-89701000D01*
X160091000Y-92272000D01*
X160091000Y-92273000D01*
X160048000Y-94048000D01*
X160048000Y-94050000D01*
X159991000Y-95172000D01*
X159990000Y-95177000D01*
X159915000Y-95817000D01*
X159913000Y-95828000D01*
X159828000Y-96138000D01*
X159822000Y-96155000D01*
X159713000Y-96350000D01*
X159712000Y-96353000D01*
X159566000Y-96590000D01*
X159567000Y-96590000D01*
X159386000Y-96899000D01*
X159383000Y-96905000D01*
X159181000Y-97192000D01*
X159178000Y-97196000D01*
X158960000Y-97460000D01*
X158957000Y-97463000D01*
X158705000Y-97728000D01*
X158701000Y-97732000D01*
X158444000Y-97965000D01*
X158440000Y-97968000D01*
X158154000Y-98192000D01*
X158150000Y-98195000D01*
X157860000Y-98392000D01*
X157855000Y-98395000D01*
X157541000Y-98576000D01*
X157536000Y-98579000D01*
X157222000Y-98731000D01*
X157217000Y-98733000D01*
X156889000Y-98863000D01*
X156883000Y-98865000D01*
X156552000Y-98969000D01*
X156546000Y-98971000D01*
X156238000Y-99039000D01*
X156225000Y-99041000D01*
X155757000Y-99059000D01*
X155754000Y-99059000D01*
X154474000Y-99076000D01*
X152366000Y-99091000D01*
X152365000Y-99091000D01*
X149408000Y-99104000D01*
X145575000Y-99115000D01*
X140839000Y-99125000D01*
X135173000Y-99133000D01*
X128550000Y-99139000D01*
X120946000Y-99144000D01*
X112330000Y-99147000D01*
X102678000Y-99149000D01*
X91961000Y-99150000D01*
G37*
%TD.AperFunction*%
%TD*%
M02*
