M48
; DRILL file {KiCad 7.0.11-7.0.11~ubuntu20.04.1} date Tue Aug 20 18:53:49 2024
; FORMAT={-:-/ absolute / metric / decimal}
; #@! TF.CreationDate,2024-08-20T18:53:49+00:00
; #@! TF.GenerationSoftware,Kicad,Pcbnew,7.0.11-7.0.11~ubuntu20.04.1
; #@! TF.FileFunction,MixedPlating,1,4
FMAT,2
METRIC
; #@! TA.AperFunction,Plated,PTH,ComponentDrill
T1C0.300
; #@! TA.AperFunction,Plated,PTH,ComponentDrill
T2C1.500
%
G90
G05
T1
X33.745Y-58.115
X38.6Y-24.4
X38.6Y-39.4
X38.6Y-54.4
X42.117Y-85.619
X43.562Y-56.962
X49.248Y-56.868
X53.6Y-24.4
X53.6Y-39.4
X57.022Y-55.448
X64.478Y-55.078
X67.205Y-57.682
X67.97Y-76.142
X68.6Y-24.4
X68.6Y-39.4
X72.535Y-57.94
X73.858Y-83.472
X78.133Y-57.714
X78.665Y-88.104
X82.191Y-58.19
X83.6Y-24.4
X86.523Y-59.097
X91.67Y-59.387
X98.6Y-24.4
X112.999Y-43.272
X113.6Y-24.4
X116.237Y-38.074
X116.237Y-40.172
X116.273Y-85.954
X121.728Y-31.704
X122.142Y-59.991
X123.348Y-60.527
X124.47Y-90.608
X124.49Y-25.244
X125.121Y-87.151
X128.181Y-25.563
X128.6Y-39.4
X129.286Y-26.522
X129.723Y-28.414
X129.986Y-22.687
X129.986Y-27.759
X132.093Y-31.304
X133.694Y-30.263
X133.694Y-30.904
X133.802Y-29.704
X133.802Y-31.704
X134.494Y-23.298
X134.894Y-24.027
X134.894Y-31.854
X136.326Y-24.458
X136.817Y-58.565
X137.694Y-23.841
X138.494Y-35.124
X139.683Y-24.86
X140.398Y-35.305
X140.986Y-25.563
X141.376Y-28.042
X141.609Y-30.504
X141.827Y-29.504
X142.414Y-90.575
X142.434Y-36.111
X143.405Y-37.083
X143.6Y-54.4
X143.631Y-30.504
X143.858Y-35.57
X144.142Y-29.504
X144.542Y-37.346
X144.676Y-36.93
X145.742Y-35.82
X146.555Y-56.969
X147.238Y-35.832
X149.058Y-41.967
X149.453Y-44.553
X149.453Y-45.486
X149.453Y-46.238
X149.453Y-47.215
X149.453Y-48.23
X149.453Y-49.193
X149.453Y-50.233
X149.453Y-51.114
X149.453Y-52.257
X151.211Y-54.497
X151.889Y-35.375
X152.494Y-39.189
X152.715Y-37.732
X152.917Y-50.233
X154.449Y-35.38
X156.456Y-37.221
X158.6Y-24.4
X158.6Y-54.4
X158.6Y-69.4
X158.6Y-84.4
T2
X29.013Y-30.364
X29.013Y-45.379
X68.013Y-30.364
X68.013Y-45.379
X73.999Y-30.364
X73.999Y-45.379
X112.999Y-30.364
X112.999Y-45.379
M30
